<?xml version="1.0" encoding="UTF-8"?>
<svg width="162px" height="161px" viewBox="0 0 162 161" version="1.1" xmlns="http://www.w3.org/2000/svg" xmlns:xlink="http://www.w3.org/1999/xlink">
    <!-- Generator: Sketch 52.5 (67469) - http://www.bohemiancoding.com/sketch -->
    <title>Group 13</title>
    <desc>Created with Sketch.</desc>
    <g id="Page-1" stroke="none" stroke-width="1" fill="none" fill-rule="evenodd">
        <g id="Group-13">
            <polygon id="Fill-120" fill="#56C02B" points="0.706 161 161.628 161 161.628 0.072 0.706 0.072"></polygon>
            <polyline id="Fill-121" fill="#FFFFFE" points="12.489 19.43 12.489 25.124 12.536 25.124 16.364 21.152 16.413 21.152 16.413 45.989 21.868 45.989 21.868 13.542 17.512 13.542 12.489 19.43"></polyline>
            <path d="M34.837,23.833 C32.684,23.833 31.106,24.597 30.243,26.081 L30.194,26.081 L30.194,17.993 L39.575,17.993 L39.575,13.544 L25.219,13.544 L25.219,31.826 L30.194,31.826 L30.194,31.105 C30.194,29.193 31.055,28.14 32.587,28.14 C34.262,28.14 34.934,29.289 34.934,31.059 L34.934,38.908 C34.934,40.629 34.311,41.826 32.635,41.826 C30.77,41.826 30.102,40.582 30.102,38.668 L30.102,34.601 L25.122,34.601 L25.122,38.287 C25.122,43.215 27.085,46.373 32.635,46.373 C38.139,46.373 40.387,43.453 40.387,38.955 L40.387,31.011 C40.387,25.89 37.756,23.833 34.837,23.833" id="Fill-122" fill="#FFFFFE"></path>
            <path d="M68.163,108.879 C68.359,108.879 68.517,109.038 68.517,109.235 L68.517,120.953 C68.517,121.152 68.359,121.309 68.163,121.309 L63.421,121.309 C63.223,121.309 63.064,121.152 63.064,120.953 L63.064,109.235 C63.064,109.038 63.223,108.879 63.421,108.879 L68.163,108.879" id="Fill-123" fill="#FFFFFE"></path>
            <path d="M120.238,126.34 L42.093,126.34 C41.898,126.34 41.736,126.508 41.736,126.707 L41.736,131.484 C41.736,131.678 41.898,131.835 42.093,131.835 L120.238,131.835 C120.43,131.835 120.596,131.678 120.596,131.484 L120.596,126.707 C120.596,126.508 120.43,126.34 120.238,126.34" id="Fill-124" fill="#FFFFFE"></path>
            <path d="M120.238,135.833 L42.093,135.833 C41.898,135.833 41.736,135.991 41.736,136.185 L41.736,140.976 C41.736,141.167 41.898,141.329 42.093,141.329 L120.238,141.329 C120.43,141.329 120.596,141.167 120.596,140.976 L120.596,136.185 C120.596,135.991 120.43,135.833 120.238,135.833" id="Fill-125" fill="#FFFFFE"></path>
            <path d="M105.368,95.908 C104.391,95.144 101.786,93.361 98.608,93.361 C96.337,93.361 94.223,94.255 92.333,96.027 C92.199,96.155 92.124,96.33 92.124,96.517 L92.124,96.943 C92.124,97.153 92.193,97.348 92.346,97.477 C92.516,97.606 92.694,97.655 92.897,97.606 C92.942,97.6 92.998,97.585 93.044,97.568 C93.188,97.518 93.324,97.431 93.434,97.321 C93.844,97.045 94.964,96.669 96.564,96.669 C98.219,96.669 101.472,97.113 104.616,100.043 L104.688,100.109 C104.865,100.29 105.109,100.391 105.368,100.391 C105.614,100.391 105.869,100.288 106.029,100.115 L106.092,100.049 C109.254,97.113 112.501,96.669 114.156,96.669 C115.768,96.669 116.882,97.045 117.294,97.321 C117.406,97.431 117.544,97.52 117.725,97.585 C117.795,97.606 117.994,97.646 118.183,97.6 C118.472,97.518 118.675,97.258 118.675,96.955 L118.675,96.579 C118.675,96.4 118.598,96.219 118.465,96.095 C116.557,94.276 114.422,93.357 112.114,93.357 C108.965,93.357 106.372,95.113 105.368,95.908" id="Fill-126" fill="#FFFFFE"></path>
            <path d="M100.518,64.763 C100.352,64.84 100.232,64.992 100.177,65.174 L100.098,65.435 C100.04,65.64 100.077,65.856 100.201,66.022 C100.322,66.181 100.494,66.276 100.684,66.285 C100.72,66.289 100.755,66.298 100.782,66.289 C100.918,66.285 101.04,66.256 101.16,66.193 C101.229,66.179 101.374,66.14 101.633,66.14 C101.983,66.14 105.133,66.246 107.216,69.787 L107.243,69.837 C107.356,70.042 107.533,70.183 107.743,70.237 C107.803,70.257 107.92,70.276 107.992,70.276 C108.136,70.276 108.282,70.237 108.385,70.178 L108.437,70.153 C109.577,69.583 110.757,69.291 111.923,69.291 C113.897,69.291 115.186,70.096 115.487,70.432 C115.548,70.545 115.642,70.644 115.749,70.723 C115.815,70.761 115.932,70.82 116.003,70.845 C116.038,70.854 116.079,70.859 116.118,70.862 C116.139,70.866 116.165,70.866 116.188,70.866 C116.295,70.866 116.397,70.84 116.498,70.788 C116.658,70.708 116.778,70.562 116.83,70.388 L116.895,70.158 C116.915,70.099 116.922,70.035 116.922,69.968 C116.922,69.846 116.891,69.727 116.832,69.632 C115.314,66.997 113.112,66.446 111.531,66.446 C110.354,66.446 109.325,66.751 108.718,66.974 C108.003,66.011 106.193,64.021 103.448,64.021 C102.483,64.021 101.5,64.269 100.518,64.763" id="Fill-127" fill="#FFFFFE"></path>
            <path d="M84.006,76.785 L84.029,77.137 C84.04,77.356 84.155,77.546 84.341,77.663 C84.496,77.76 84.693,77.794 84.867,77.743 C84.905,77.734 84.948,77.72 84.981,77.707 C85.116,77.652 85.23,77.566 85.319,77.457 C85.651,77.218 86.721,76.781 88.299,76.781 C89.817,76.781 92.126,77.186 94.478,79.118 L94.533,79.174 C94.701,79.319 94.916,79.401 95.135,79.401 L95.193,79.401 C95.439,79.382 95.667,79.269 95.806,79.106 L95.859,79.047 C98.464,76.291 101.269,75.881 102.71,75.881 C103.736,75.881 104.464,76.093 104.747,76.253 C104.854,76.346 104.987,76.419 105.153,76.464 C105.2,76.476 105.315,76.496 105.439,76.483 C105.49,76.477 105.553,76.46 105.603,76.444 C105.882,76.346 106.066,76.074 106.047,75.772 L106.029,75.466 C106.017,75.284 105.932,75.121 105.794,75.001 C104.239,73.694 102.561,73.035 100.796,73.035 C98.047,73.035 95.854,74.658 94.946,75.454 C94.115,74.888 92.098,73.723 89.732,73.723 C87.653,73.723 85.789,74.587 84.188,76.285 C84.062,76.419 83.999,76.602 84.006,76.785" id="Fill-128" fill="#FFFFFE"></path>
            <path d="M44.462,83.059 C44.462,78.379 48.255,74.587 52.933,74.587 C53.117,74.587 53.296,74.603 53.476,74.613 C53.922,68.691 58.857,64.021 64.894,64.021 C71.225,64.021 76.358,69.152 76.358,75.483 C76.358,77.277 75.933,78.967 75.199,80.478 C80.936,81.749 85.23,86.858 85.23,92.975 C85.23,100.05 79.495,105.785 72.421,105.785 C71.904,105.785 55.326,105.685 55.326,105.685 C50.315,105.684 46.255,101.625 46.255,96.616 C46.255,94.208 47.198,92.03 48.727,90.406 C46.181,88.944 44.462,86.205 44.462,83.059" id="Fill-129" fill="#FFFFFE"></path>
            <polyline id="Fill-130" fill="#FFFFFE" points="52.13 13.549 54.34 13.549 54.34 24.894 56.978 24.894 56.978 26.698 52.13 26.698 52.13 13.549"></polyline>
            <polygon id="Fill-131" fill="#FFFFFE" points="58.182 26.698 60.393 26.698 60.393 13.549 58.182 13.549"></polygon>
            <polyline id="Fill-132" fill="#FFFFFE" points="62.062 13.549 67.241 13.549 67.241 15.353 64.273 15.353 64.273 19.115 66.484 19.115 66.484 20.899 64.273 20.899 64.273 26.698 62.062 26.698 62.062 13.549"></polyline>
            <polyline id="Fill-133" fill="#FFFFFE" points="68.386 13.549 73.662 13.549 73.662 15.353 70.597 15.353 70.597 19.115 72.79 19.115 72.79 20.899 70.597 20.899 70.597 24.894 73.662 24.894 73.662 26.698 68.386 26.698 68.386 13.549"></polyline>
            <path d="M56.594,42.976 L56.594,35.917 C56.594,35.122 56.246,34.559 55.45,34.559 C54.674,34.559 54.325,35.122 54.325,35.917 L54.325,42.976 C54.325,43.771 54.674,44.333 55.45,44.333 C56.246,44.333 56.594,43.771 56.594,42.976 Z M52.114,42.627 L52.114,36.266 C52.114,34.21 53.123,32.717 55.45,32.717 C57.797,32.717 58.805,34.21 58.805,36.266 L58.805,42.627 C58.805,44.663 57.797,46.176 55.45,46.176 C53.123,46.176 52.114,44.663 52.114,42.627 Z" id="Fill-134" fill="#FFFFFE"></path>
            <polyline id="Fill-135" fill="#FFFFFE" points="61.891 37.759 61.891 46.021 60.029 46.021 60.029 32.872 62.202 32.872 64.587 40.416 64.587 32.872 66.429 32.872 66.429 46.021 64.49 46.021 61.891 37.759"></polyline>
            <polyline id="Fill-136" fill="#FFFFFE" points="71.203 32.872 73.414 32.872 73.414 44.217 76.051 44.217 76.051 46.021 71.203 46.021 71.203 32.872"></polyline>
            <path d="M79.428,41.851 L81.193,41.851 L80.32,36.576 L80.301,36.576 L79.428,41.851 Z M76.655,46.021 L79.137,32.872 L81.659,32.872 L84.161,46.021 L81.891,46.021 L81.484,43.616 L79.137,43.616 L78.75,46.021 L76.655,46.021 Z" id="Fill-137" fill="#FFFFFE"></path>
            <polyline id="Fill-138" fill="#FFFFFE" points="86.917 37.759 86.917 46.021 85.054 46.021 85.054 32.872 87.227 32.872 89.612 40.416 89.612 32.872 91.455 32.872 91.455 46.021 89.515 46.021 86.917 37.759"></polyline>
            <path d="M96.014,44.217 C96.925,44.217 97.275,43.674 97.275,42.879 L97.275,35.994 C97.275,35.219 96.925,34.676 96.014,34.676 L95.083,34.676 L95.083,44.217 L96.014,44.217 Z M99.486,36.402 L99.486,42.491 C99.486,44.508 98.652,46.021 96.286,46.021 L92.872,46.021 L92.872,32.872 L96.286,32.872 C98.652,32.872 99.486,34.365 99.486,36.402 Z" id="Fill-139" fill="#FFFFFE"></path>
        </g>
    </g>
</svg>