<?xml version="1.0" encoding="UTF-8"?>
<svg width="161px" height="161px" viewBox="0 0 161 161" version="1.1" xmlns="http://www.w3.org/2000/svg" xmlns:xlink="http://www.w3.org/1999/xlink">
    <!-- Generator: Sketch 52.5 (67469) - http://www.bohemiancoding.com/sketch -->
    <title>Group 22</title>
    <desc>Created with Sketch.</desc>
    <g id="Page-1" stroke="none" stroke-width="1" fill="none" fill-rule="evenodd">
        <g id="Group-22">
            <polygon id="Fill-82" fill="#3F7E44" points="-1.42108547e-14 160.927 160.857 160.927 160.857 7.10542736e-14 -1.42108547e-14 7.10542736e-14"></polygon>
            <polyline id="Fill-84" fill="#FFFFFE" points="20.251 13.499 20.251 45.931 14.797 45.931 14.797 21.105 14.749 21.105 10.924 25.075 10.874 25.075 10.874 19.382 15.897 13.499 20.251 13.499"></polyline>
            <path d="M38.236,20.532 L38.236,23.353 C38.236,26.079 36.754,27.896 34.506,28.616 C37.232,29.237 38.524,31.15 38.524,34.116 L38.524,38.9 C38.524,43.396 36.133,46.314 30.631,46.314 C25.081,46.314 23.118,43.157 23.118,38.23 L23.118,33.972 L28.096,33.972 L28.096,38.614 C28.096,40.527 28.764,41.769 30.631,41.769 C32.303,41.769 33.068,40.575 33.068,38.851 L33.068,33.495 C33.068,31.771 32.303,30.864 30.391,30.864 L28.096,30.864 L28.096,26.702 L30.154,26.702 C31.922,26.702 33.068,25.792 33.068,24.071 L33.068,20.579 C33.068,18.808 32.448,17.661 30.727,17.661 C29.006,17.661 28.383,18.808 28.383,20.818 L28.383,24.118 L23.405,24.118 L23.405,21.249 C23.405,16.465 25.368,13.116 31.012,13.116 C36.036,13.116 38.236,15.939 38.236,20.532" id="Fill-85" fill="#FFFFFE"></path>
            <path d="M104.763,106.616 C104.097,106.433 101.308,102.579 103.513,100.042 C103.879,99.625 102.773,98.397 103.075,98.373 C104.281,98.28 104.923,99.028 105.239,100.107 C105.264,100.582 105.282,101.062 105.282,101.547 C105.282,103.284 105.101,104.978 104.763,106.616 M97.96,119.154 C97.711,119.084 97.456,119.004 97.18,118.866 C95.824,118.175 95.986,119.278 95.32,119.035 C94.65,118.787 96.072,117.24 94.069,118.548 C92.076,119.852 92.614,118.346 91.744,116.136 C90.865,113.924 92.745,111.4 94.315,110.829 C96.472,110.048 97.812,109.889 98.823,109.639 C101.807,108.894 102.438,107.124 102.979,108.201 C103.081,108.403 103.18,108.594 103.27,108.775 C103.444,109.097 103.644,109.75 103.654,110.393 C102.387,113.713 100.433,116.693 97.96,119.154 M80.444,126.383 C78.018,126.383 75.678,126.03 73.464,125.383 C73.146,125.124 72.964,124.69 73.163,124.17 C73.932,122.166 76.22,121.382 78.026,121.208 C82.054,120.815 87.347,123.822 88.189,123.337 C89.033,122.852 90.735,120.638 93.234,120.731 C94.939,120.797 94.926,121.083 95.498,121.299 C91.321,124.485 86.107,126.383 80.444,126.383 M77.068,110.196 C76.726,110.755 75.792,114.931 75.165,114.445 C74.535,113.958 75.419,109.601 75.601,109.27 C76.581,107.47 78.703,107.559 77.068,110.196 M87.21,105.264 C86.72,105.701 85.464,105.542 84.836,105.051 C84.212,104.566 85.233,103.759 85.606,103.73 C86.442,103.655 87.697,104.822 87.21,105.264 M98.171,105.307 C97.904,105.208 97.667,104.954 97.464,104.344 C97.262,103.734 97.775,103.386 98.276,103.632 C98.785,103.89 99.446,104.651 99.446,105.057 C99.446,105.464 98.444,105.415 98.171,105.307 M99.227,106.071 C100.062,106.004 101.316,107.16 100.825,107.604 C100.337,108.045 99.085,107.883 98.457,107.392 C97.832,106.906 98.852,106.101 99.227,106.071 M72.585,115.974 C72.103,117.873 71.539,118.557 71.059,119.156 C70.579,119.761 68.801,120.534 67.673,120.451 C66.543,120.367 66.386,117.352 66.386,115.802 C66.386,115.266 65.628,116.854 65.233,113.628 C64.98,111.562 63.653,113.843 63.561,112.465 C63.466,111.09 62.804,111.365 62.107,110.506 C61.414,109.647 60.55,110.59 59.581,111.023 C58.618,111.452 59.015,111.677 57.645,111.246 C57.61,111.235 57.592,111.224 57.558,111.213 C56.301,108.241 55.607,104.974 55.607,101.547 C55.607,100.708 55.651,99.883 55.73,99.068 C55.776,98.985 55.825,98.905 55.883,98.837 C57.196,97.283 57.167,96.919 57.167,96.919 L58.62,96.416 C58.62,96.416 60.941,96.773 62.689,97.431 C64.128,97.971 66.396,99.192 67.714,98.655 C68.667,98.261 69.413,97.741 69.323,96.947 C69.216,95.951 68.432,95.715 67.483,96.385 C67.132,96.632 66.386,94.884 65.801,94.973 C65.216,95.06 66.525,97.027 66.029,97.111 C65.53,97.196 64.53,95.06 64.36,94.715 C64.192,94.372 63.419,93.514 62.726,94.169 C61.261,95.56 58.882,95.475 58.404,95.833 C56.95,96.921 56.567,95.475 56.599,94.594 C56.657,94.393 56.717,94.19 56.781,93.991 C57.256,93.467 58.96,93.294 59.545,93.684 C60.188,94.113 60.649,93.574 60.9,93.313 C61.154,93.058 61.065,92.646 60.905,92.303 C60.741,91.959 61.226,91.706 61.558,91.617 C61.893,91.528 62.999,90.754 63.441,90.495 C63.887,90.239 66.183,89.96 67.212,90.474 C68.24,90.993 69.185,90.57 69.691,89.974 C70.325,89.221 71.133,88.647 71.491,88.473 C71.852,88.305 70.606,87.142 69.581,88.41 C68.554,89.672 68.031,89.788 67.549,89.788 C67.067,89.788 64.199,89.073 63.846,88.167 C63.496,87.262 64.742,86.584 65.801,86.071 C66.859,85.567 69.754,85.573 70.494,85.406 C71.999,85.076 73.923,84.32 74.892,84.98 C75.857,85.628 70.845,86.769 72.492,87.659 C73.078,87.981 75.728,86.134 76.636,85.662 C78.772,84.561 74.565,84.197 75.111,81.958 C75.728,79.426 69.95,80.405 67.07,80.621 C70.933,78.146 75.52,76.707 80.444,76.707 C92.161,76.707 101.976,84.823 104.593,95.738 C104.611,96.277 104.527,96.667 104.472,96.887 C104.247,97.782 102.549,98.551 101.564,97.111 C101.313,96.748 100.247,95.742 100.283,97.463 C100.318,99.184 101.956,99.36 100.368,100.393 C98.782,101.425 98.491,101.176 97.758,101.437 C97.026,101.696 96.317,103.469 96.491,104.418 C96.669,105.366 98.933,107.954 97.253,107.847 C96.86,107.818 93.892,105.792 93.401,104.488 C92.885,103.116 92.32,101.773 91.92,100.738 C91.515,99.708 90.468,99.444 89.58,100.05 C88.697,100.656 89.827,101.259 89.192,102.553 C88.559,103.844 88.104,104.998 87.171,103.931 C84.747,101.153 81.225,102.523 80.672,99.432 C80.374,97.757 78.931,97.918 77.725,96.968 C76.512,96.025 75.837,95.511 75.633,96.195 C75.453,96.795 79.429,99.946 79.712,100.754 C80.134,101.953 78.522,103.011 77.341,103.296 C76.166,103.578 75.648,102.633 74.49,101.428 C73.334,100.225 72.827,99.364 72.747,100.31 C72.631,101.676 73.846,103.683 75.025,104.433 C76.029,105.07 77.155,105.358 76.83,106.39 C76.503,107.426 76.824,106.84 75.698,107.954 C74.57,109.074 74.356,109.433 74.438,110.979 C74.519,112.531 74.115,112.62 73.873,113.909 C73.632,115.198 73.072,114.083 72.585,115.974 M59.243,88.603 C59.3,88.536 59.351,88.481 59.372,88.453 C59.82,87.942 60.713,87.833 61.33,87.736 C61.948,87.631 62.773,87.942 62.872,88.353 C62.978,88.761 61.322,89.511 61.02,89.792 C60.162,90.582 58.819,92.191 58.034,92.365 C57.777,92.423 57.567,92.383 57.393,92.298 C57.909,91.01 58.526,89.772 59.243,88.603 M60.517,86.071 C60.838,85.599 61.905,84.253 62.035,84.083 C62.31,83.729 62.855,83.657 63.237,83.589 C63.615,83.516 64.12,83.729 64.181,84.013 C64.246,84.299 64.034,85.402 63.848,85.592 C63.325,86.134 61.964,86.901 61.214,86.78 C60.634,86.691 60.406,86.242 60.517,86.071 M139.469,100.747 C135.23,94.799 116.052,71.057 80.404,71.057 C44.749,71.057 25.577,94.799 21.331,100.747 C21.151,101.001 20.995,101.22 20.868,101.408 C20.995,101.599 21.151,101.818 21.331,102.076 C25.577,108.019 44.749,131.763 80.404,131.763 C116.052,131.763 135.23,108.019 139.469,102.076 C139.654,101.818 139.807,101.599 139.929,101.408 C139.807,101.22 139.654,101.001 139.469,100.747" id="Fill-86" fill="#FFFFFE"></path>
            <path d="M51.26,23.216 L51.26,16.855 C51.26,14.799 52.23,13.306 54.558,13.306 C57.001,13.306 57.68,14.663 57.68,16.603 L57.68,18.154 L55.663,18.154 L55.663,16.428 C55.663,15.613 55.392,15.148 54.596,15.148 C53.801,15.148 53.471,15.711 53.471,16.506 L53.471,23.565 C53.471,24.361 53.801,24.923 54.596,24.923 C55.392,24.923 55.663,24.419 55.663,23.643 L55.663,21.218 L57.68,21.218 L57.68,23.487 C57.68,25.369 56.904,26.765 54.558,26.765 C52.23,26.765 51.26,25.253 51.26,23.216" id="Fill-87" fill="#FFFFFE"></path>
            <polyline id="Fill-88" fill="#FFFFFE" points="59.098 13.461 61.309 13.461 61.309 24.806 63.946 24.806 63.946 26.61 59.098 26.61 59.098 13.461"></polyline>
            <polygon id="Fill-89" fill="#FFFFFE" points="65.15 26.61 67.361 26.61 67.361 13.461 65.15 13.461"></polygon>
            <polyline id="Fill-90" fill="#FFFFFE" points="75.1 18.077 75.042 18.077 73.549 26.61 72.521 26.61 70.872 18.077 70.833 18.077 70.833 26.61 69.01 26.61 69.01 13.461 71.59 13.461 73.025 20.869 73.044 20.869 74.324 13.461 77.117 13.461 77.117 26.61 75.1 26.61 75.1 18.077"></polyline>
            <path d="M80.999,22.44 L82.764,22.44 L81.891,17.165 L81.872,17.165 L80.999,22.44 Z M78.226,26.61 L80.708,13.461 L83.23,13.461 L85.732,26.61 L83.462,26.61 L83.055,24.205 L80.708,24.205 L80.32,26.61 L78.226,26.61 Z" id="Fill-91" fill="#FFFFFE"></path>
            <polyline id="Fill-92" fill="#FFFFFE" points="85.442 13.461 91.318 13.461 91.318 15.265 89.495 15.265 89.495 26.61 87.265 26.61 87.265 15.265 85.442 15.265 85.442 13.461"></polyline>
            <polyline id="Fill-93" fill="#FFFFFE" points="92.542 13.461 97.818 13.461 97.818 15.265 94.753 15.265 94.753 19.027 96.945 19.027 96.945 20.811 94.753 20.811 94.753 24.806 97.818 24.806 97.818 26.61 92.542 26.61 92.542 13.461"></polyline>
            <path d="M53.673,41.492 L55.438,41.492 L54.565,36.217 L54.546,36.217 L53.673,41.492 Z M50.9,45.662 L53.382,32.513 L55.904,32.513 L58.405,45.662 L56.136,45.662 L55.729,43.257 L53.382,43.257 L52.994,45.662 L50.9,45.662 Z" id="Fill-94" fill="#FFFFFE"></path>
            <path d="M59.027,42.268 L59.027,35.907 C59.027,33.851 59.997,32.358 62.325,32.358 C64.769,32.358 65.447,33.715 65.447,35.655 L65.447,37.207 L63.431,37.207 L63.431,35.481 C63.431,34.666 63.159,34.2 62.363,34.2 C61.568,34.2 61.238,34.763 61.238,35.558 L61.238,42.617 C61.238,43.413 61.568,43.975 62.363,43.975 C63.159,43.975 63.431,43.471 63.431,42.695 L63.431,40.271 L65.447,40.271 L65.447,42.54 C65.447,44.421 64.672,45.818 62.325,45.818 C59.997,45.818 59.027,44.305 59.027,42.268" id="Fill-95" fill="#FFFFFE"></path>
            <polyline id="Fill-96" fill="#FFFFFE" points="66.244 32.513 72.121 32.513 72.121 34.317 70.298 34.317 70.298 45.662 68.068 45.662 68.068 34.317 66.244 34.317 66.244 32.513"></polyline>
            <polygon id="Fill-97" fill="#FFFFFE" points="73.344 45.662 75.555 45.662 75.555 32.513 73.344 32.513"></polygon>
            <path d="M81.511,42.617 L81.511,35.558 C81.511,34.763 81.162,34.2 80.366,34.2 C79.591,34.2 79.241,34.763 79.241,35.558 L79.241,42.617 C79.241,43.413 79.591,43.975 80.366,43.975 C81.162,43.975 81.511,43.413 81.511,42.617 Z M77.03,42.268 L77.03,35.907 C77.03,33.851 78.039,32.358 80.366,32.358 C82.713,32.358 83.722,33.851 83.722,35.907 L83.722,42.268 C83.722,44.305 82.713,45.818 80.366,45.818 C78.039,45.818 77.03,44.305 77.03,42.268 Z" id="Fill-98" fill="#FFFFFE"></path>
            <polyline id="Fill-99" fill="#FFFFFE" points="87.021 37.401 87.021 45.662 85.158 45.662 85.158 32.513 87.331 32.513 89.716 40.057 89.716 32.513 91.559 32.513 91.559 45.662 89.619 45.662 87.021 37.401"></polyline>
        </g>
    </g>
</svg>