<?xml version="1.0" encoding="UTF-8"?>
<svg width="161px" height="162px" viewBox="0 0 161 162" version="1.1" xmlns="http://www.w3.org/2000/svg" xmlns:xlink="http://www.w3.org/1999/xlink">
    <!-- Generator: Sketch 52.5 (67469) - http://www.bohemiancoding.com/sketch -->
    <title>Group 9</title>
    <desc>Created with Sketch.</desc>
    <g id="Page-1" stroke="none" stroke-width="1" fill="none" fill-rule="evenodd">
        <g id="Group-9">
            <polygon id="Fill-276" fill="#DD1367" points="0.065 161.644 160.987 161.644 160.987 0.718 0.065 0.718"></polygon>
            <polyline id="Fill-277" fill="#FFFFFE" points="15.59 21.803 15.59 46.665 21.051 46.665 21.051 14.186 16.691 14.186 11.663 20.079 11.663 25.781 11.709 25.781 15.541 21.803 15.59 21.803"></polyline>
            <path d="M30.297,39.146 L30.297,21.707 C30.297,19.743 31.014,18.353 32.883,18.353 C34.799,18.353 35.517,19.743 35.517,21.707 L35.517,39.146 C35.517,41.111 34.799,42.497 32.883,42.497 C31.014,42.497 30.297,41.111 30.297,39.146 M40.979,38.284 L40.979,22.569 C40.979,17.491 38.441,13.803 32.883,13.803 C27.376,13.803 24.834,17.491 24.834,22.569 L24.834,38.284 C24.834,43.312 27.376,47.049 32.883,47.049 C38.441,47.049 40.979,43.312 40.979,38.284" id="Fill-278" fill="#FFFFFE"></path>
            <path d="M53.637,15.976 L53.637,20.068 L54.375,20.068 C55.131,20.068 55.461,19.681 55.461,18.982 L55.461,17.043 C55.461,16.325 55.131,15.976 54.375,15.976 L53.637,15.976 Z M53.637,21.29 L53.637,27.322 L51.426,27.322 L51.426,14.173 L54.646,14.173 C56.877,14.173 57.691,15.278 57.691,17.121 L57.691,18.808 C57.691,20.224 57.187,21.058 55.926,21.349 L58.041,27.322 L55.713,27.322 L53.637,21.29 Z" id="Fill-279" fill="#FFFFFE"></path>
            <polyline id="Fill-280" fill="#FFFFFE" points="59.089 14.173 64.365 14.173 64.365 15.976 61.3 15.976 61.3 19.739 63.493 19.739 63.493 21.523 61.3 21.523 61.3 25.518 64.365 25.518 64.365 27.322 59.089 27.322 59.089 14.173"></polyline>
            <path d="M68.44,25.518 C69.351,25.518 69.701,24.975 69.701,24.18 L69.701,17.295 C69.701,16.519 69.351,15.976 68.44,15.976 L67.508,15.976 L67.508,25.518 L68.44,25.518 Z M71.912,17.703 L71.912,23.792 C71.912,25.809 71.078,27.322 68.712,27.322 L65.297,27.322 L65.297,14.173 L68.712,14.173 C71.078,14.173 71.912,15.666 71.912,17.703 Z" id="Fill-281" fill="#FFFFFE"></path>
            <path d="M79.788,14.173 L79.788,24.122 C79.788,26.158 78.915,27.477 76.666,27.477 C74.338,27.477 73.368,26.158 73.368,24.122 L73.368,14.173 L75.579,14.173 L75.579,24.335 C75.579,25.111 75.889,25.634 76.666,25.634 C77.441,25.634 77.752,25.111 77.752,24.335 L77.752,14.173 L79.788,14.173" id="Fill-282" fill="#FFFFFE"></path>
            <path d="M81.244,23.928 L81.244,17.566 C81.244,15.511 82.214,14.018 84.542,14.018 C86.985,14.018 87.664,15.375 87.664,17.314 L87.664,18.866 L85.647,18.866 L85.647,17.14 C85.647,16.325 85.376,15.86 84.58,15.86 C83.785,15.86 83.455,16.422 83.455,17.218 L83.455,24.277 C83.455,25.072 83.785,25.634 84.58,25.634 C85.376,25.634 85.647,25.13 85.647,24.354 L85.647,21.93 L87.664,21.93 L87.664,24.199 C87.664,26.08 86.888,27.477 84.542,27.477 C82.214,27.477 81.244,25.964 81.244,23.928" id="Fill-283" fill="#FFFFFE"></path>
            <polyline id="Fill-284" fill="#FFFFFE" points="89.062 14.173 94.338 14.173 94.338 15.976 91.273 15.976 91.273 19.739 93.465 19.739 93.465 21.523 91.273 21.523 91.273 25.518 94.338 25.518 94.338 27.322 89.062 27.322 89.062 14.173"></polyline>
            <path d="M98.858,25.518 C99.769,25.518 100.119,24.975 100.119,24.18 L100.119,17.295 C100.119,16.519 99.769,15.976 98.858,15.976 L97.926,15.976 L97.926,25.518 L98.858,25.518 Z M102.33,17.703 L102.33,23.792 C102.33,25.809 101.496,27.322 99.13,27.322 L95.715,27.322 L95.715,14.173 L99.13,14.173 C101.496,14.173 102.33,15.666 102.33,17.703 Z" id="Fill-285" fill="#FFFFFE"></path>
            <polygon id="Fill-286" fill="#FFFFFE" points="51.421 46.442 53.631 46.442 53.631 33.293 51.421 33.293"></polygon>
            <polyline id="Fill-287" fill="#FFFFFE" points="56.93 38.18 56.93 46.442 55.068 46.442 55.068 33.293 57.241 33.293 59.626 40.837 59.626 33.293 61.468 33.293 61.468 46.442 59.529 46.442 56.93 38.18"></polyline>
            <polyline id="Fill-288" fill="#FFFFFE" points="62.73 33.293 68.005 33.293 68.005 35.097 64.941 35.097 64.941 38.859 67.133 38.859 67.133 40.643 64.941 40.643 64.941 44.638 68.005 44.638 68.005 46.442 62.73 46.442 62.73 33.293"></polyline>
            <path d="M73.302,43.513 L73.302,36.338 C73.302,35.542 72.954,34.98 72.158,34.98 C71.382,34.98 71.033,35.542 71.033,36.338 L71.033,43.513 C71.033,44.289 71.382,44.871 72.158,44.871 C72.954,44.871 73.302,44.289 73.302,43.513 Z M71.343,47.334 L71.343,46.442 C69.579,46.131 68.822,44.832 68.822,43.048 L68.822,36.686 C68.822,34.631 69.831,33.138 72.158,33.138 C74.505,33.138 75.513,34.631 75.513,36.686 L75.513,43.048 C75.513,44.483 75.009,45.608 73.884,46.151 L75.513,46.461 L75.513,48.11 L71.343,47.334 Z" id="Fill-289" fill="#FFFFFE"></path>
            <path d="M83.176,33.293 L83.176,43.242 C83.176,45.278 82.303,46.597 80.054,46.597 C77.726,46.597 76.756,45.278 76.756,43.242 L76.756,33.293 L78.967,33.293 L78.967,43.455 C78.967,44.231 79.278,44.754 80.054,44.754 C80.83,44.754 81.14,44.231 81.14,43.455 L81.14,33.293 L83.176,33.293" id="Fill-290" fill="#FFFFFE"></path>
            <path d="M86.65,42.272 L88.415,42.272 L87.542,36.997 L87.523,36.997 L86.65,42.272 Z M83.877,46.442 L86.359,33.293 L88.88,33.293 L91.382,46.442 L89.113,46.442 L88.706,44.037 L86.359,44.037 L85.971,46.442 L83.877,46.442 Z" id="Fill-291" fill="#FFFFFE"></path>
            <polyline id="Fill-292" fill="#FFFFFE" points="92.296 33.293 94.506 33.293 94.506 44.638 97.144 44.638 97.144 46.442 92.296 46.442 92.296 33.293"></polyline>
            <polygon id="Fill-293" fill="#FFFFFE" points="98.134 46.442 100.345 46.442 100.345 33.293 98.134 33.293"></polygon>
            <polyline id="Fill-294" fill="#FFFFFE" points="101.355 33.293 107.232 33.293 107.232 35.097 105.409 35.097 105.409 46.442 103.178 46.442 103.178 35.097 101.355 35.097 101.355 33.293"></polyline>
            <polygon id="Fill-295" fill="#FFFFFE" points="108.261 46.442 110.472 46.442 110.472 33.293 108.261 33.293"></polygon>
            <polyline id="Fill-296" fill="#FFFFFE" points="111.733 33.293 117.008 33.293 117.008 35.097 113.944 35.097 113.944 38.859 116.136 38.859 116.136 40.643 113.944 40.643 113.944 44.638 117.008 44.638 117.008 46.442 111.733 46.442 111.733 33.293"></polyline>
            <path d="M117.883,43.61 L117.883,41.846 L119.939,41.846 L119.939,43.649 C119.939,44.386 120.269,44.813 121.026,44.813 C121.723,44.813 122.034,44.347 122.034,43.649 L122.034,43.145 C122.034,42.389 121.723,41.923 121.045,41.283 L119.746,39.984 C118.485,38.743 117.903,37.986 117.903,36.474 L117.903,36.027 C117.903,34.398 118.853,33.138 121.006,33.138 C123.217,33.138 124.089,34.224 124.089,36.124 L124.089,37.191 L122.073,37.191 L122.073,36.047 C122.073,35.29 121.723,34.922 121.026,34.922 C120.405,34.922 119.978,35.271 119.978,36.008 L119.978,36.279 C119.978,37.017 120.385,37.443 121.026,38.064 L122.441,39.46 C123.644,40.682 124.225,41.419 124.225,42.873 L124.225,43.513 C124.225,45.317 123.255,46.597 121.006,46.597 C118.756,46.597 117.883,45.336 117.883,43.61" id="Fill-297" fill="#FFFFFE"></path>
            <polyline id="Fill-529" fill="#FFFFFE" points="53.137 88.624 37.999 103.762 53.137 118.9 53.137 88.624"></polyline>
            <polyline id="Fill-530" fill="#FFFFFE" points="107.916 118.9 123.053 103.762 107.916 88.624 107.916 118.9"></polyline>
            <polyline id="Fill-531" fill="#FFFFFE" points="95.687 76.439 80.549 61.301 65.411 76.439 95.687 76.439"></polyline>
            <polyline id="Fill-532" fill="#FFFFFE" points="65.411 131.14 80.548 146.279 95.687 131.14 65.411 131.14"></polyline>
            <polygon id="Fill-533" fill="#FFFFFE" points="64.092 98.752 96.96 98.752 96.96 89.629 64.092 89.629"></polygon>
            <polygon id="Fill-534" fill="#FFFFFE" points="64.092 117.94 96.96 117.94 96.96 108.403 64.092 108.403"></polygon>
        </g>
    </g>
</svg>