<?xml version="1.0" encoding="UTF-8"?>
<svg width="162px" height="161px" viewBox="0 0 162 161" version="1.1" xmlns="http://www.w3.org/2000/svg" xmlns:xlink="http://www.w3.org/1999/xlink">
    <!-- Generator: Sketch 52.5 (67469) - http://www.bohemiancoding.com/sketch -->
    <title>Group 12</title>
    <desc>Created with Sketch.</desc>
    <g id="Page-1" stroke="none" stroke-width="1" fill="none" fill-rule="evenodd">
        <g id="Group-12">
            <polygon id="Fill-100" fill="#0A97D9" points="0.35 161 161.272 161 161.272 0.071 0.35 0.071"></polygon>
            <polyline id="Fill-101" fill="#FFFFFE" points="21.316 13.611 21.316 46.044 15.862 46.044 15.862 21.218 15.814 21.218 11.989 25.187 11.939 25.187 11.939 19.495 16.962 13.611 21.316 13.611"></polyline>
            <path d="M27.921,36.528 L32.802,23.175 L32.85,23.175 L32.85,36.528 L27.921,36.528 Z M37.923,46.051 L37.923,40.788 L40.125,40.788 L40.125,36.528 L37.923,36.528 L37.923,13.604 L32.563,13.604 L23.135,37.437 L23.135,40.788 L32.755,40.788 L32.755,46.051 L37.923,46.051 Z" id="Fill-102" fill="#FFFFFE"></path>
            <path d="M100.942,119.983 C97.985,119.983 95.589,117.583 95.589,114.627 C95.589,111.672 97.985,109.279 100.942,109.279 C103.906,109.279 106.301,111.672 106.301,114.627 C106.301,117.583 103.906,119.983 100.942,119.983 M124.192,117.488 C122.167,114.751 109.085,98.073 90.744,98.073 C74.817,98.073 57.779,112.519 57.779,112.519 C57.779,112.519 51.379,99.419 38.287,98.161 C38.21,98.161 38.128,98.143 38.041,98.143 L37.96,98.143 C37.686,98.159 37.43,98.424 37.46,98.662 C37.497,98.891 37.665,99.14 37.665,99.14 C39.352,101.942 43.659,109.913 43.659,117.875 C43.659,125.865 39.327,133.857 37.655,136.645 L37.542,136.823 C37.493,136.907 37.46,136.991 37.46,137.099 C37.46,137.375 37.674,137.59 37.943,137.615 L38.085,137.603 C38.129,137.603 38.175,137.603 38.222,137.59 C51.355,136.367 57.779,123.227 57.779,123.227 C57.779,123.227 74.817,137.674 90.744,137.674 C109.085,137.674 122.167,120.995 124.192,118.264 C124.248,118.19 124.293,118.125 124.333,118.077 C124.356,118.012 124.376,117.953 124.376,117.875 C124.376,117.804 124.356,117.732 124.333,117.676 C124.293,117.621 124.248,117.556 124.192,117.488" id="Fill-103" fill="#FFFFFE"></path>
            <path d="M37.874,66.723 C37.834,66.714 37.806,66.701 37.773,66.701 C37.483,66.701 37.247,66.937 37.247,67.232 L37.247,70.883 C37.247,71.036 37.304,71.17 37.4,71.261 C46.254,78.954 54.636,71.746 56.577,69.841 C56.617,69.783 56.658,69.727 56.715,69.692 C56.802,69.637 56.897,69.597 57.005,69.597 C57.142,69.597 57.271,69.65 57.362,69.738 C57.369,69.748 57.38,69.756 57.387,69.761 C67.388,79.305 77.875,71.575 80.056,69.761 L80.271,69.564 C80.333,69.536 80.399,69.525 80.47,69.525 C80.545,69.525 80.619,69.536 80.678,69.564 L80.894,69.761 C83.075,71.575 93.561,79.305 103.561,69.761 C103.563,69.756 103.576,69.748 103.581,69.738 C103.674,69.65 103.797,69.597 103.936,69.597 C104.045,69.597 104.145,69.637 104.226,69.692 C104.287,69.727 104.329,69.783 104.374,69.841 C106.312,71.746 114.686,78.954 123.547,71.261 C123.639,71.17 123.7,71.036 123.7,70.883 L123.7,67.232 C123.7,66.937 123.47,66.701 123.18,66.701 C123.142,66.701 123.107,66.714 123.067,66.723 C122.985,66.77 122.9,66.814 122.801,66.861 C120.079,68.225 111.633,71.469 103.967,64.216 C103.895,64.149 103.82,64.081 103.745,64.003 C103.674,63.975 103.607,63.955 103.521,63.955 C103.467,63.955 103.41,63.971 103.363,63.98 C103.249,64.026 103.158,64.099 103.096,64.187 C100.811,65.929 90.325,73.028 80.986,64.316 L80.849,64.183 C80.752,64.097 80.619,64.026 80.47,64.026 C80.333,64.026 80.196,64.097 80.105,64.183 L79.96,64.316 C70.626,73.028 60.128,65.929 57.846,64.187 C57.787,64.099 57.699,64.026 57.587,63.98 C57.533,63.971 57.479,63.955 57.42,63.955 C57.345,63.955 57.271,63.975 57.2,64.003 C57.131,64.081 57.05,64.149 56.975,64.216 C49.31,71.469 40.868,68.225 38.143,66.861 C38.047,66.814 37.957,66.77 37.874,66.723" id="Fill-104" fill="#FFFFFE"></path>
            <path d="M56.577,83.123 C56.619,83.063 56.658,83.019 56.716,82.978 C56.802,82.924 56.898,82.879 57.005,82.879 C57.142,82.879 57.272,82.935 57.364,83.026 C57.369,83.035 57.38,83.042 57.387,83.048 C67.385,92.58 77.875,84.854 80.057,83.048 L80.271,82.844 C80.333,82.82 80.399,82.811 80.469,82.811 C80.546,82.811 80.618,82.82 80.68,82.844 L80.894,83.048 C83.075,84.854 93.56,92.58 103.562,83.048 C103.564,83.042 103.573,83.035 103.581,83.026 C103.674,82.935 103.797,82.879 103.935,82.879 C104.046,82.879 104.145,82.924 104.225,82.978 C104.288,83.019 104.329,83.063 104.374,83.123 C106.311,85.03 114.685,92.24 123.547,84.54 C123.64,84.446 123.703,84.322 123.703,84.17 L123.703,80.51 C123.703,80.219 123.468,79.986 123.18,79.986 C123.142,79.986 123.107,80.001 123.067,80.008 C122.985,80.048 122.899,80.094 122.801,80.141 C120.081,81.506 111.631,84.743 103.967,77.499 C103.896,77.431 103.821,77.363 103.746,77.289 C103.674,77.249 103.607,77.237 103.521,77.237 C103.467,77.237 103.411,77.249 103.363,77.276 C103.248,77.305 103.158,77.378 103.096,77.473 C100.813,79.212 90.325,86.313 80.985,77.601 L80.848,77.464 C80.752,77.371 80.618,77.318 80.469,77.318 C80.333,77.318 80.196,77.371 80.104,77.464 L79.96,77.601 C70.626,86.313 60.128,79.212 57.846,77.473 C57.787,77.378 57.698,77.305 57.588,77.276 C57.534,77.249 57.477,77.237 57.42,77.237 C57.344,77.237 57.272,77.249 57.202,77.289 C57.13,77.363 57.052,77.431 56.974,77.499 C49.309,84.743 40.868,81.506 38.143,80.141 C38.047,80.094 37.958,80.048 37.875,80.008 C37.834,80.001 37.807,79.986 37.774,79.986 C37.483,79.986 37.247,80.219 37.247,80.51 L37.247,84.17 C37.247,84.322 37.304,84.446 37.399,84.54 C46.254,92.24 54.637,85.03 56.577,83.123" id="Fill-105" fill="#FFFFFE"></path>
            <polyline id="Fill-106" fill="#FFFFFE" points="51.703 13.548 53.914 13.548 53.914 24.893 56.551 24.893 56.551 26.697 51.703 26.697 51.703 13.548"></polyline>
            <polygon id="Fill-107" fill="#FFFFFE" points="57.581 26.697 59.792 26.697 59.792 13.548 57.581 13.548"></polygon>
            <polyline id="Fill-108" fill="#FFFFFE" points="61.266 13.548 66.445 13.548 66.445 15.351 63.477 15.351 63.477 19.114 65.688 19.114 65.688 20.898 63.477 20.898 63.477 26.697 61.266 26.697 61.266 13.548"></polyline>
            <polyline id="Fill-109" fill="#FFFFFE" points="67.435 13.548 72.711 13.548 72.711 15.351 69.646 15.351 69.646 19.114 71.839 19.114 71.839 20.898 69.646 20.898 69.646 24.893 72.711 24.893 72.711 26.697 67.435 26.697 67.435 13.548"></polyline>
            <path d="M79.055,20.782 L79.055,24.893 L80.025,24.893 C80.762,24.893 81.112,24.525 81.112,23.827 L81.112,21.848 C81.112,21.15 80.782,20.782 80.006,20.782 L79.055,20.782 Z M79.055,19.094 L79.832,19.094 C80.549,19.094 80.879,18.726 80.879,18.028 L80.879,16.418 C80.879,15.7 80.549,15.351 79.812,15.351 L79.055,15.351 L79.055,19.094 Z M76.844,13.548 L80.045,13.548 C82.255,13.548 82.993,14.576 82.993,16.437 L82.993,17.775 C82.993,18.881 82.586,19.579 81.673,19.87 C82.779,20.122 83.323,20.859 83.323,22.061 L83.323,23.807 C83.323,25.669 82.489,26.697 80.278,26.697 L76.844,26.697 L76.844,13.548 Z" id="Fill-110" fill="#FFFFFE"></path>
            <polyline id="Fill-111" fill="#FFFFFE" points="84.274 13.548 89.549 13.548 89.549 15.351 86.485 15.351 86.485 19.114 88.677 19.114 88.677 20.898 86.485 20.898 86.485 24.893 89.549 24.893 89.549 26.697 84.274 26.697 84.274 13.548"></polyline>
            <polyline id="Fill-112" fill="#FFFFFE" points="90.889 13.548 93.1 13.548 93.1 24.893 95.738 24.893 95.738 26.697 90.889 26.697 90.889 13.548"></polyline>
            <path d="M101.074,23.652 L101.074,16.593 C101.074,15.797 100.725,15.235 99.929,15.235 C99.154,15.235 98.804,15.797 98.804,16.593 L98.804,23.652 C98.804,24.447 99.154,25.009 99.929,25.009 C100.725,25.009 101.074,24.447 101.074,23.652 Z M96.593,23.303 L96.593,16.941 C96.593,14.886 97.602,13.393 99.929,13.393 C102.276,13.393 103.285,14.886 103.285,16.941 L103.285,23.303 C103.285,25.339 102.276,26.852 99.929,26.852 C97.602,26.852 96.593,25.339 96.593,23.303 Z" id="Fill-113" fill="#FFFFFE"></path>
            <polyline id="Fill-114" fill="#FFFFFE" points="109.143 18.571 107.902 26.697 105.827 26.697 104.062 13.548 106.195 13.548 107.223 21.887 107.243 21.887 108.348 13.548 110.152 13.548 111.374 21.887 111.393 21.887 112.401 13.548 114.263 13.548 112.556 26.697 110.462 26.697 109.163 18.571 109.143 18.571"></polyline>
            <polyline id="Fill-115" fill="#FFFFFE" points="56.478 37.873 55.237 45.999 53.162 45.999 51.397 32.85 53.53 32.85 54.558 41.189 54.578 41.189 55.683 32.85 57.487 32.85 58.709 41.189 58.728 41.189 59.736 32.85 61.598 32.85 59.891 45.999 57.797 45.999 56.498 37.873 56.478 37.873"></polyline>
            <path d="M64.161,41.829 L65.925,41.829 L65.052,36.554 L65.034,36.554 L64.161,41.829 Z M61.387,45.999 L63.87,32.85 L66.391,32.85 L68.893,45.999 L66.624,45.999 L66.216,43.594 L63.87,43.594 L63.482,45.999 L61.387,45.999 Z" id="Fill-116" fill="#FFFFFE"></path>
            <polyline id="Fill-117" fill="#FFFFFE" points="68.468 32.85 74.345 32.85 74.345 34.654 72.522 34.654 72.522 45.999 70.292 45.999 70.292 34.654 68.468 34.654 68.468 32.85"></polyline>
            <polyline id="Fill-118" fill="#FFFFFE" points="75.374 32.85 80.649 32.85 80.649 34.654 77.585 34.654 77.585 38.416 79.777 38.416 79.777 40.2 77.585 40.2 77.585 44.195 80.649 44.195 80.649 45.999 75.374 45.999 75.374 32.85"></polyline>
            <path d="M84.045,34.654 L84.045,38.746 L84.782,38.746 C85.539,38.746 85.868,38.358 85.868,37.66 L85.868,35.72 C85.868,35.002 85.539,34.654 84.782,34.654 L84.045,34.654 Z M84.045,39.967 L84.045,45.999 L81.834,45.999 L81.834,32.85 L85.053,32.85 C87.284,32.85 88.098,33.955 88.098,35.798 L88.098,37.485 C88.098,38.901 87.594,39.735 86.334,40.026 L88.448,45.999 L86.12,45.999 L84.045,39.967 Z" id="Fill-119" fill="#FFFFFE"></path>
        </g>
    </g>
</svg>