<?xml version="1.0" encoding="UTF-8"?>
<svg width="162px" height="162px" viewBox="0 0 162 162" version="1.1" xmlns="http://www.w3.org/2000/svg" xmlns:xlink="http://www.w3.org/1999/xlink">
    <!-- Generator: Sketch 52.5 (67469) - http://www.bohemiancoding.com/sketch -->
    <title>Group 7</title>
    <desc>Created with Sketch.</desc>
    <g id="Page-1" stroke="none" stroke-width="1" fill="none" fill-rule="evenodd">
        <g id="Group-7">
            <polygon id="Fill-204" fill="#A21942" points="0.355 161.644 161.277 161.644 161.277 0.718 0.355 0.718"></polygon>
            <path d="M26.167,39.286 C26.167,41.248 25.449,42.636 23.488,42.636 C21.572,42.636 20.855,41.248 20.855,39.286 L20.855,34.021 C20.855,32.06 21.572,30.671 23.488,30.671 C25.449,30.671 26.167,32.06 26.167,34.021 L26.167,39.286 Z M21.046,21.341 C21.046,19.376 21.717,18.228 23.488,18.228 C25.304,18.228 25.976,19.376 25.976,21.341 L25.976,23.54 C25.976,25.502 25.304,26.654 23.488,26.654 C21.717,26.654 21.046,25.502 21.046,23.54 L21.046,21.341 Z M31.623,38.711 L31.623,35.169 C31.623,32.06 30.523,29.81 27.986,28.661 C30.137,27.61 31.144,25.696 31.144,23.015 L31.144,21.673 C31.144,16.601 28.512,13.873 23.488,13.873 C18.511,13.873 15.925,16.601 15.925,21.673 L15.925,23.015 C15.925,25.648 16.884,27.61 18.988,28.661 C16.452,29.81 15.398,32.06 15.398,35.169 L15.398,38.711 C15.398,43.64 17.745,47.086 23.488,47.086 C29.277,47.086 31.623,43.64 31.623,38.711 Z" id="Fill-205" fill="#FFFFFE"></path>
            <path d="M112.061,79.89 L95.705,95.45 C95.088,96.064 94.771,96.516 94.771,97.787 L94.771,141.395 C94.771,141.907 95.189,142.326 95.705,142.326 L112.6,142.326 C113.115,142.326 113.531,141.907 113.531,141.395 L113.531,80.283 C113.531,79.768 113.129,78.829 112.061,79.89" id="Fill-206" fill="#FFFFFE"></path>
            <path d="M64.94,100.162 L48.582,115.719 C47.966,116.334 47.649,116.786 47.649,118.054 L47.649,141.395 C47.649,141.905 48.068,142.324 48.582,142.324 L65.478,142.324 C65.994,142.324 66.41,141.905 66.41,141.395 L66.41,100.552 C66.41,100.037 66.004,99.095 64.94,100.162" id="Fill-207" fill="#FFFFFE"></path>
            <path d="M119.496,61.021 C119.502,60.897 119.458,60.764 119.357,60.666 C119.271,60.582 119.161,60.543 119.054,60.534 L118.964,60.539 L118.831,60.547 L106.306,63.372 L106.079,63.396 C105.989,63.413 105.904,63.458 105.835,63.524 C105.65,63.71 105.65,64.011 105.835,64.198 L108.837,67.199 L80.457,95.579 L67.349,82.47 C67.201,82.321 66.965,82.321 66.816,82.47 L63.259,86.028 C63.256,86.028 63.256,86.032 63.256,86.032 L42.245,107.039 C42.099,107.188 42.099,107.428 42.245,107.574 L45.806,111.133 C45.952,111.281 46.189,111.281 46.336,111.133 L67.086,90.388 L76.597,99.901 C76.607,99.915 76.612,99.931 76.628,99.946 L80.185,103.499 C80.333,103.649 80.57,103.649 80.718,103.499 L112.927,71.29 L115.931,74.292 C116.116,74.479 116.417,74.479 116.599,74.292 C116.687,74.205 116.73,74.097 116.736,73.984 L116.738,73.944 L119.489,61.159 L119.496,61.021" id="Fill-208" fill="#FFFFFE"></path>
            <path d="M88.593,102.892 L80.679,110.872 C80.529,110.996 80.309,110.992 80.17,110.852 L73,103.543 C71.687,102.236 71.404,103.296 71.404,103.81 L71.404,141.393 C71.404,141.905 71.816,142.324 72.33,142.324 L89.23,142.324 C89.742,142.324 90.16,141.905 90.16,141.393 L90.16,103.187 C90.16,102.673 89.755,101.73 88.593,102.892" id="Fill-209" fill="#FFFFFE"></path>
            <path d="M46.748,25.534 C47.659,25.534 48.008,24.991 48.008,24.196 L48.008,17.31 C48.008,16.535 47.659,15.992 46.748,15.992 L45.816,15.992 L45.816,25.534 L46.748,25.534 Z M50.219,17.718 L50.219,23.808 C50.219,25.825 49.385,27.337 47.019,27.337 L43.605,27.337 L43.605,14.188 L47.019,14.188 C49.385,14.188 50.219,15.682 50.219,17.718 Z" id="Fill-210" fill="#FFFFFE"></path>
            <polyline id="Fill-211" fill="#FFFFFE" points="51.617 14.188 56.892 14.188 56.892 15.992 53.828 15.992 53.828 19.754 56.02 19.754 56.02 21.538 53.828 21.538 53.828 25.534 56.892 25.534 56.892 27.337 51.617 27.337 51.617 14.188"></polyline>
            <path d="M58.019,23.943 L58.019,17.582 C58.019,15.526 58.989,14.033 61.317,14.033 C63.76,14.033 64.439,15.391 64.439,17.33 L64.439,18.882 L62.422,18.882 L62.422,17.156 C62.422,16.341 62.151,15.875 61.355,15.875 C60.56,15.875 60.23,16.438 60.23,17.233 L60.23,24.292 C60.23,25.088 60.56,25.65 61.355,25.65 C62.151,25.65 62.422,25.146 62.422,24.37 L62.422,21.946 L64.439,21.946 L64.439,24.215 C64.439,26.096 63.664,27.493 61.317,27.493 C58.989,27.493 58.019,25.98 58.019,23.943" id="Fill-212" fill="#FFFFFE"></path>
            <polyline id="Fill-213" fill="#FFFFFE" points="65.779 14.188 71.054 14.188 71.054 15.992 67.99 15.992 67.99 19.754 70.182 19.754 70.182 21.538 67.99 21.538 67.99 25.534 71.054 25.534 71.054 27.337 65.779 27.337 65.779 14.188"></polyline>
            <polyline id="Fill-214" fill="#FFFFFE" points="74.237 19.076 74.237 27.337 72.375 27.337 72.375 14.188 74.547 14.188 76.932 21.732 76.932 14.188 78.775 14.188 78.775 27.337 76.836 27.337 74.237 19.076"></polyline>
            <polyline id="Fill-215" fill="#FFFFFE" points="79.922 14.188 85.798 14.188 85.798 15.992 83.975 15.992 83.975 27.337 81.745 27.337 81.745 15.992 79.922 15.992 79.922 14.188"></polyline>
            <polyline id="Fill-216" fill="#FFFFFE" points="93.908 19.211 92.667 27.337 90.591 27.337 88.827 14.188 90.96 14.188 91.988 22.528 92.007 22.528 93.113 14.188 94.917 14.188 96.138 22.528 96.158 22.528 97.166 14.188 99.028 14.188 97.321 27.337 95.226 27.337 93.927 19.211 93.908 19.211"></polyline>
            <path d="M104.267,24.292 L104.267,17.233 C104.267,16.438 103.919,15.875 103.123,15.875 C102.347,15.875 101.998,16.438 101.998,17.233 L101.998,24.292 C101.998,25.088 102.347,25.65 103.123,25.65 C103.919,25.65 104.267,25.088 104.267,24.292 Z M99.787,23.943 L99.787,17.582 C99.787,15.526 100.796,14.033 103.123,14.033 C105.469,14.033 106.478,15.526 106.478,17.582 L106.478,23.943 C106.478,25.98 105.469,27.493 103.123,27.493 C100.796,27.493 99.787,25.98 99.787,23.943 Z" id="Fill-217" fill="#FFFFFE"></path>
            <path d="M110.087,15.992 L110.087,20.084 L110.824,20.084 C111.581,20.084 111.91,19.696 111.91,18.998 L111.91,17.059 C111.91,16.341 111.581,15.992 110.824,15.992 L110.087,15.992 Z M110.087,21.306 L110.087,27.337 L107.876,27.337 L107.876,14.188 L111.095,14.188 C113.326,14.188 114.14,15.294 114.14,17.136 L114.14,18.823 C114.14,20.239 113.636,21.073 112.376,21.364 L114.49,27.337 L112.162,27.337 L110.087,21.306 Z" id="Fill-218" fill="#FFFFFE"></path>
            <polyline id="Fill-219" fill="#FFFFFE" points="117.692 20.937 117.692 27.337 115.481 27.337 115.481 14.188 117.692 14.188 117.692 19.968 120.097 14.188 122.269 14.188 119.71 20.103 122.328 27.337 120.001 27.337 117.692 20.937"></polyline>
            <path d="M128.187,23.167 L129.952,23.167 L129.079,17.893 L129.06,17.893 L128.187,23.167 Z M125.414,27.337 L127.896,14.188 L130.418,14.188 L132.92,27.337 L130.65,27.337 L130.243,24.933 L127.896,24.933 L127.508,27.337 L125.414,27.337 Z" id="Fill-220" fill="#FFFFFE"></path>
            <polyline id="Fill-221" fill="#FFFFFE" points="135.52 19.076 135.52 27.337 133.658 27.337 133.658 14.188 135.831 14.188 138.215 21.732 138.215 14.188 140.058 14.188 140.058 27.337 138.119 27.337 135.52 19.076"></polyline>
            <path d="M144.658,25.534 C145.569,25.534 145.919,24.991 145.919,24.196 L145.919,17.31 C145.919,16.535 145.569,15.992 144.658,15.992 L143.726,15.992 L143.726,25.534 L144.658,25.534 Z M148.13,17.718 L148.13,23.808 C148.13,25.825 147.296,27.337 144.929,27.337 L141.515,27.337 L141.515,14.188 L144.929,14.188 C147.296,14.188 148.13,15.682 148.13,17.718 Z" id="Fill-222" fill="#FFFFFE"></path>
            <polyline id="Fill-223" fill="#FFFFFE" points="43.605 33.506 48.88 33.506 48.88 35.31 45.816 35.31 45.816 39.072 48.008 39.072 48.008 40.856 45.816 40.856 45.816 44.851 48.88 44.851 48.88 46.655 43.605 46.655 43.605 33.506"></polyline>
            <path d="M49.852,43.261 L49.852,36.9 C49.852,34.844 50.822,33.351 53.15,33.351 C55.593,33.351 56.272,34.708 56.272,36.648 L56.272,38.2 L54.255,38.2 L54.255,36.474 C54.255,35.659 53.984,35.193 53.188,35.193 C52.393,35.193 52.063,35.756 52.063,36.551 L52.063,43.61 C52.063,44.406 52.393,44.968 53.188,44.968 C53.984,44.968 54.255,44.464 54.255,43.688 L54.255,41.264 L56.272,41.264 L56.272,43.533 C56.272,45.414 55.497,46.81 53.15,46.81 C50.822,46.81 49.852,45.298 49.852,43.261" id="Fill-224" fill="#FFFFFE"></path>
            <path d="M61.957,43.61 L61.957,36.551 C61.957,35.756 61.608,35.193 60.812,35.193 C60.037,35.193 59.687,35.756 59.687,36.551 L59.687,43.61 C59.687,44.406 60.037,44.968 60.812,44.968 C61.608,44.968 61.957,44.406 61.957,43.61 Z M57.476,43.261 L57.476,36.9 C57.476,34.844 58.485,33.351 60.812,33.351 C63.159,33.351 64.168,34.844 64.168,36.9 L64.168,43.261 C64.168,45.298 63.159,46.81 60.812,46.81 C58.485,46.81 57.476,45.298 57.476,43.261 Z" id="Fill-225" fill="#FFFFFE"></path>
            <polyline id="Fill-226" fill="#FFFFFE" points="67.292 38.393 67.292 46.655 65.429 46.655 65.429 33.506 67.602 33.506 69.987 41.05 69.987 33.506 71.83 33.506 71.83 46.655 69.89 46.655 67.292 38.393"></polyline>
            <path d="M77.573,43.61 L77.573,36.551 C77.573,35.756 77.224,35.193 76.428,35.193 C75.653,35.193 75.303,35.756 75.303,36.551 L75.303,43.61 C75.303,44.406 75.653,44.968 76.428,44.968 C77.224,44.968 77.573,44.406 77.573,43.61 Z M73.092,43.261 L73.092,36.9 C73.092,34.844 74.101,33.351 76.428,33.351 C78.775,33.351 79.784,34.844 79.784,36.9 L79.784,43.261 C79.784,45.298 78.775,46.81 76.428,46.81 C74.101,46.81 73.092,45.298 73.092,43.261 Z" id="Fill-227" fill="#FFFFFE"></path>
            <polyline id="Fill-228" fill="#FFFFFE" points="87.136 38.122 87.079 38.122 85.586 46.655 84.557 46.655 82.909 38.122 82.87 38.122 82.87 46.655 81.047 46.655 81.047 33.506 83.627 33.506 85.061 40.914 85.081 40.914 86.361 33.506 89.154 33.506 89.154 46.655 87.136 46.655 87.136 38.122"></polyline>
            <polygon id="Fill-229" fill="#FFFFFE" points="90.416 46.655 92.627 46.655 92.627 33.506 90.416 33.506"></polygon>
            <path d="M93.869,43.261 L93.869,36.9 C93.869,34.844 94.839,33.351 97.167,33.351 C99.61,33.351 100.289,34.708 100.289,36.648 L100.289,38.2 L98.272,38.2 L98.272,36.474 C98.272,35.659 98.001,35.193 97.205,35.193 C96.41,35.193 96.08,35.756 96.08,36.551 L96.08,43.61 C96.08,44.406 96.41,44.968 97.205,44.968 C98.001,44.968 98.272,44.464 98.272,43.688 L98.272,41.264 L100.289,41.264 L100.289,43.533 C100.289,45.414 99.513,46.81 97.167,46.81 C94.839,46.81 93.869,45.298 93.869,43.261" id="Fill-230" fill="#FFFFFE"></path>
            <path d="M107.39,39.635 L110.533,39.635 L110.533,46.655 L108.942,46.655 L108.942,45.22 C108.651,46.209 108.031,46.81 106.828,46.81 C104.927,46.81 104.054,45.298 104.054,43.261 L104.054,36.9 C104.054,34.844 105.044,33.351 107.371,33.351 C109.815,33.351 110.533,34.708 110.533,36.648 L110.533,37.811 L108.515,37.811 L108.515,36.474 C108.515,35.659 108.205,35.193 107.41,35.193 C106.615,35.193 106.265,35.756 106.265,36.551 L106.265,43.61 C106.265,44.406 106.595,44.968 107.352,44.968 C108.069,44.968 108.438,44.56 108.438,43.707 L108.438,41.38 L107.39,41.38 L107.39,39.635" id="Fill-231" fill="#FFFFFE"></path>
            <path d="M114.199,35.31 L114.199,39.402 L114.936,39.402 C115.693,39.402 116.022,39.014 116.022,38.316 L116.022,36.376 C116.022,35.659 115.693,35.31 114.936,35.31 L114.199,35.31 Z M114.199,40.623 L114.199,46.655 L111.988,46.655 L111.988,33.506 L115.208,33.506 C117.438,33.506 118.253,34.612 118.253,36.454 L118.253,38.141 C118.253,39.557 117.749,40.391 116.488,40.682 L118.602,46.655 L116.274,46.655 L114.199,40.623 Z" id="Fill-232" fill="#FFFFFE"></path>
            <path d="M123.744,43.61 L123.744,36.551 C123.744,35.756 123.395,35.193 122.599,35.193 C121.824,35.193 121.474,35.756 121.474,36.551 L121.474,43.61 C121.474,44.406 121.824,44.968 122.599,44.968 C123.395,44.968 123.744,44.406 123.744,43.61 Z M119.263,43.261 L119.263,36.9 C119.263,34.844 120.272,33.351 122.599,33.351 C124.946,33.351 125.955,34.844 125.955,36.9 L125.955,43.261 C125.955,45.298 124.946,46.81 122.599,46.81 C120.272,46.81 119.263,45.298 119.263,43.261 Z" id="Fill-233" fill="#FFFFFE"></path>
            <polyline id="Fill-234" fill="#FFFFFE" points="131.62 38.529 130.379 46.655 128.303 46.655 126.539 33.506 128.672 33.506 129.7 41.846 129.719 41.846 130.825 33.506 132.629 33.506 133.85 41.846 133.87 41.846 134.878 33.506 136.74 33.506 135.033 46.655 132.938 46.655 131.639 38.529 131.62 38.529"></polyline>
            <polyline id="Fill-235" fill="#FFFFFE" points="137.422 33.506 143.298 33.506 143.298 35.31 141.475 35.31 141.475 46.655 139.245 46.655 139.245 35.31 137.422 35.31 137.422 33.506"></polyline>
            <polyline id="Fill-236" fill="#FFFFFE" points="148.323 40.856 146.189 40.856 146.189 46.655 143.978 46.655 143.978 33.506 146.189 33.506 146.189 39.072 148.323 39.072 148.323 33.506 150.553 33.506 150.553 46.655 148.323 46.655 148.323 40.856"></polyline>
        </g>
    </g>
</svg>