<?xml version="1.0" encoding="UTF-8"?>
<svg width="161px" height="161px" viewBox="0 0 161 161" version="1.1" xmlns="http://www.w3.org/2000/svg" xmlns:xlink="http://www.w3.org/1999/xlink">
    <!-- Generator: Sketch 52.5 (67469) - http://www.bohemiancoding.com/sketch -->
    <title>Group 21</title>
    <desc>Created with Sketch.</desc>
    <g id="Page-1" stroke="none" stroke-width="1" fill="none" fill-rule="evenodd">
        <g id="Group-21">
            <polygon id="Fill-377" fill="#DDA63A" points="2.4158453e-13 160.928 160.922 160.928 160.922 -5.68434189e-14 2.4158453e-13 -5.68434189e-14"></polygon>
            <path d="M30.166,41.379 L21.217,41.379 L21.217,39.847 C21.217,37.312 22.127,36.354 23.513,34.871 L27.006,31.186 C29.829,28.172 30.452,26.258 30.452,23.002 L30.452,19.844 C30.452,15.203 28.202,13 23.321,13 C18.537,13 16.095,15.537 16.095,20.084 L16.095,24.006 L21.073,24.006 L21.073,19.938 C21.073,17.978 22.03,17.402 23.179,17.402 C24.23,17.402 25.14,17.834 25.14,19.844 L25.14,22.523 C25.14,25.205 24.9,26.258 23.131,28.123 L20.066,31.377 C17.101,34.537 16,36.642 16,39.847 L16,45.83 L30.166,45.83 L30.166,41.379" id="Fill-378" fill="#FFFFFE"></path>
            <path d="M66.395,137.334 L66.395,139.597 C66.393,139.612 66.387,139.631 66.387,139.647 C66.387,139.667 66.393,139.685 66.395,139.701 C66.418,140.261 66.875,140.707 67.438,140.718 C67.445,140.718 67.451,140.722 67.459,140.722 C67.467,140.722 67.477,140.718 67.485,140.718 L94.03,140.718 C94.037,140.718 94.045,140.722 94.053,140.722 C94.061,140.722 94.068,140.718 94.076,140.718 C94.656,140.707 95.119,140.235 95.123,139.655 C95.123,139.653 95.127,139.651 95.127,139.647 C95.127,139.647 95.123,139.644 95.123,139.64 L95.123,137.079 C110.066,132.181 121.261,120.069 123.723,105.31 C123.729,105.278 123.732,105.249 123.737,105.222 C123.746,105.17 123.752,105.123 123.752,105.073 C123.752,104.479 123.273,104 122.679,104 L38.076,104 C37.48,104 37,104.479 37,105.073 L37.056,105.556 C39.642,120.456 51.144,132.635 66.395,137.334" id="Fill-379" fill="#FFFFFE"></path>
            <path d="M94.815042,68.0995039 C94.466042,68.5955039 86.292042,80.3625039 94.997042,89.8785039 C98.989042,94.2455039 98.643042,98.0995039 97.503042,100.701504 L103.087042,100.701504 C104.218042,96.8585039 103.751042,92.0395039 99.218042,87.0865039 C92.804042,80.0745039 99.300042,70.5975039 99.398042,70.4505039 C100.163042,69.3695039 99.753042,67.9765039 98.491042,67.3255039 C97.225042,66.6795039 95.583042,67.0245039 94.815042,68.0995039" id="Fill-380" fill="#FFFFFE"></path>
            <path d="M80.5087871,100.700846 L86.0947871,100.700846 C87.2237871,96.8568457 86.7547871,92.0398457 82.2217871,87.0858457 C75.8057871,80.0728457 82.2967871,70.6008457 82.3997871,70.4448457 C83.1607871,69.3688457 82.7577871,67.9778457 81.4907871,67.3248457 C80.2297871,66.6808457 78.5847871,67.0228457 77.8197871,68.0988457 C77.4687871,68.5928457 69.2877871,80.3618457 78.0007871,89.8778457 C81.9927871,94.2458457 81.6457871,98.1008457 80.5087871,100.700846" id="Fill-381" fill="#FFFFFE"></path>
            <path d="M60.8192746,68.1017416 C60.4652746,68.5977416 52.2912746,80.3647416 60.9982746,89.8807416 C64.9922746,94.2497416 64.6472746,98.1037416 63.5102746,100.703742 L69.0942746,100.703742 C70.2232746,96.8627416 69.7562746,92.0437416 65.2192746,87.0887416 C58.8032746,80.0767416 65.2992746,70.5997416 65.4022746,70.4487416 C66.1602746,69.3717416 65.7562746,67.9787416 64.4902746,67.3277416 C63.2282746,66.6777416 61.5842746,67.0247416 60.8192746,68.1017416" id="Fill-382" fill="#FFFFFE"></path>
            <polyline id="Fill-383" fill="#FFFFFE" points="48.308 25.345 51.664 25.345 51.664 27.148 46 27.148 46 25.345 49.471 15.803 46.349 15.803 46.349 14 51.799 14 51.799 15.803 48.308 25.345"></polyline>
            <polyline id="Fill-384" fill="#FFFFFE" points="53 14 58.275 14 58.275 15.803 55.211 15.803 55.211 19.565 57.403 19.565 57.403 21.35 55.211 21.35 55.211 25.345 58.275 25.345 58.275 27.148 53 27.148 53 14"></polyline>
            <path d="M61.211,15.803 L61.211,19.895 L61.948,19.895 C62.705,19.895 63.034,19.507 63.034,18.809 L63.034,16.87 C63.034,16.152 62.705,15.803 61.948,15.803 L61.211,15.803 Z M61.211,21.117 L61.211,27.148 L59,27.148 L59,14 L62.22,14 C64.45,14 65.265,15.105 65.265,16.947 L65.265,18.634 C65.265,20.05 64.761,20.884 63.5,21.175 L65.614,27.148 L63.286,27.148 L61.211,21.117 Z" id="Fill-385" fill="#FFFFFE"></path>
            <path d="M71.481,24.26 L71.481,17.2 C71.481,16.405 71.132,15.843 70.336,15.843 C69.561,15.843 69.211,16.405 69.211,17.2 L69.211,24.26 C69.211,25.055 69.561,25.617 70.336,25.617 C71.132,25.617 71.481,25.055 71.481,24.26 Z M67,23.91 L67,17.549 C67,15.493 68.009,14 70.336,14 C72.683,14 73.691,15.493 73.691,17.549 L73.691,23.91 C73.691,25.947 72.683,27.46 70.336,27.46 C68.009,27.46 67,25.947 67,23.91 Z" id="Fill-386" fill="#FFFFFE"></path>
            <polyline id="Fill-387" fill="#FFFFFE" points="50.344 40.35 48.21 40.35 48.21 46.148 46 46.148 46 33 48.21 33 48.21 38.565 50.344 38.565 50.344 33 52.575 33 52.575 46.148 50.344 46.148 50.344 40.35"></polyline>
            <path d="M60.42,33 L60.42,42.948 C60.42,44.985 59.547,46.304 57.298,46.304 C54.969,46.304 54,44.985 54,42.948 L54,33 L56.211,33 L56.211,43.162 C56.211,43.938 56.521,44.461 57.298,44.461 C58.073,44.461 58.384,43.938 58.384,43.162 L58.384,33 L60.42,33" id="Fill-388" fill="#FFFFFE"></path>
            <polyline id="Fill-389" fill="#FFFFFE" points="63.862 37.887 63.862 46.148 62 46.148 62 33 64.173 33 66.557 40.543 66.557 33 68.4 33 68.4 46.148 66.461 46.148 63.862 37.887"></polyline>
            <path d="M72.336,39.284 L75.479,39.284 L75.479,46.304 L73.888,46.304 L73.888,44.869 C73.597,45.858 72.977,46.46 71.774,46.46 C69.873,46.46 69,44.947 69,42.91 L69,36.549 C69,34.493 69.989,33 72.317,33 C74.761,33 75.479,34.358 75.479,36.297 L75.479,37.461 L73.461,37.461 L73.461,36.123 C73.461,35.308 73.151,34.843 72.356,34.843 C71.561,34.843 71.211,35.405 71.211,36.2 L71.211,43.26 C71.211,44.055 71.541,44.617 72.298,44.617 C73.015,44.617 73.384,44.21 73.384,43.357 L73.384,41.03 L72.336,41.03 L72.336,39.284" id="Fill-390" fill="#FFFFFE"></path>
            <polyline id="Fill-391" fill="#FFFFFE" points="77 33 82.275 33 82.275 34.803 79.211 34.803 79.211 38.565 81.403 38.565 81.403 40.35 79.211 40.35 79.211 44.345 82.275 44.345 82.275 46.148 77 46.148 77 33"></polyline>
            <path d="M86.211,34.803 L86.211,38.895 L86.948,38.895 C87.705,38.895 88.034,38.507 88.034,37.809 L88.034,35.87 C88.034,35.152 87.705,34.803 86.948,34.803 L86.211,34.803 Z M86.211,40.117 L86.211,46.148 L84,46.148 L84,33 L87.22,33 C89.45,33 90.265,34.105 90.265,35.947 L90.265,37.634 C90.265,39.05 89.761,39.884 88.5,40.175 L90.614,46.148 L88.286,46.148 L86.211,40.117 Z" id="Fill-392" fill="#FFFFFE"></path>
        </g>
    </g>
</svg>