<?xml version="1.0" encoding="UTF-8"?>
<svg width="162px" height="162px" viewBox="0 0 162 162" version="1.1" xmlns="http://www.w3.org/2000/svg" xmlns:xlink="http://www.w3.org/1999/xlink">
    <!-- Generator: Sketch 52.5 (67469) - http://www.bohemiancoding.com/sketch -->
    <title>Group 8</title>
    <desc>Created with Sketch.</desc>
    <g id="Page-1" stroke="none" stroke-width="1" fill="none" fill-rule="evenodd">
        <g id="Group-8">
            <polygon id="Fill-237" fill="#FD6925" points="0.315 161.254 161.237 161.254 161.237 0.328 0.315 0.328"></polygon>
            <path d="M24.381,26.954 C24.286,28.77 23.521,29.918 21.799,29.918 C19.936,29.918 19.216,28.77 19.216,26.664 L19.216,21.021 C19.216,18.964 19.98,17.769 21.847,17.769 C23.665,17.769 24.381,19.012 24.381,21.021 L24.381,26.954 Z M29.789,21.979 C29.789,16.955 27.587,13.321 21.847,13.321 C16.058,13.321 13.812,16.476 13.812,21.499 L13.812,26.283 C13.812,31.593 15.915,34.271 19.839,34.271 C22.135,34.271 23.521,33.217 24.335,31.642 L24.381,31.642 L24.381,38.623 C24.381,40.584 23.616,41.972 21.656,41.972 C19.694,41.972 18.977,40.824 18.977,38.814 L18.977,36.663 L14.002,36.663 L14.002,38.386 C14.002,43.168 15.725,46.516 21.753,46.516 C27.49,46.516 29.789,42.833 29.789,37.762 L29.789,21.979 Z" id="Fill-238" fill="#FFFFFE"></path>
            <path d="M119.03,129.319 L101.857,139.23 L101.857,119.406 L119.03,109.491 L119.03,129.319 Z M62.3,139.23 L62.3,120.912 L78.165,130.073 L62.3,139.23 Z M59.691,139.23 L42.521,129.319 L42.521,109.491 L59.691,119.406 L59.691,139.23 Z M78.165,84.393 L62.3,93.554 L62.3,75.234 L78.165,84.393 Z M99.248,93.553 L83.385,84.393 L99.248,75.234 L99.248,93.553 Z M83.385,107.231 L100.552,97.321 L117.724,107.23 L100.552,117.145 L83.385,107.231 Z M79.47,104.971 L63.606,95.813 L79.47,86.653 L79.47,104.971 Z M97.942,95.814 L82.08,104.97 L82.08,86.653 L97.942,95.814 Z M79.47,127.812 L63.605,118.652 L79.47,109.491 L79.47,127.812 Z M120.987,106.1 L101.857,95.06 L101.857,72.974 C101.857,72.507 101.609,72.077 101.205,71.843 L81.427,60.424 C81.023,60.192 80.527,60.192 80.123,60.424 L60.343,71.843 C59.939,72.077 59.691,72.507 59.691,72.974 L59.691,95.06 L40.564,106.1 C40.16,106.333 39.912,106.764 39.912,107.23 L39.912,130.073 C39.912,130.539 40.16,130.97 40.564,131.203 L60.343,142.62 C60.546,142.736 60.77,142.795 60.996,142.795 C61.221,142.795 61.446,142.736 61.648,142.62 L80.775,131.58 L99.9,142.62 C100.102,142.736 100.327,142.795 100.552,142.795 C100.778,142.795 101.003,142.737 101.205,142.62 L120.987,131.203 C121.391,130.97 121.639,130.539 121.639,130.073 L121.639,107.23 C121.639,106.764 121.391,106.333 120.987,106.1 Z" id="Fill-239" fill="#FFFFFE"></path>
            <polygon id="Fill-240" fill="#FFFFFE" points="38.304 26.274 40.357 26.274 40.357 14.067 38.304 14.067"></polygon>
            <polyline id="Fill-241" fill="#FFFFFE" points="43.363 18.604 43.363 26.274 41.634 26.274 41.634 14.067 43.651 14.067 45.866 21.071 45.866 14.067 47.576 14.067 47.576 26.274 45.776 26.274 43.363 18.604"></polyline>
            <path d="M51.751,24.6 C52.596,24.6 52.921,24.096 52.921,23.357 L52.921,16.966 C52.921,16.246 52.596,15.741 51.751,15.741 L50.886,15.741 L50.886,24.6 L51.751,24.6 Z M54.973,17.344 L54.973,22.997 C54.973,24.87 54.199,26.274 52.003,26.274 L48.834,26.274 L48.834,14.067 L52.003,14.067 C54.199,14.067 54.973,15.453 54.973,17.344 Z" id="Fill-242" fill="#FFFFFE"></path>
            <path d="M62.192,14.067 L62.192,23.304 C62.192,25.194 61.381,26.418 59.293,26.418 C57.132,26.418 56.232,25.194 56.232,23.304 L56.232,14.067 L58.285,14.067 L58.285,23.501 C58.285,24.222 58.573,24.708 59.293,24.708 C60.013,24.708 60.301,24.222 60.301,23.501 L60.301,14.067 L62.192,14.067" id="Fill-243" fill="#FFFFFE"></path>
            <path d="M63.342,23.645 L63.342,22.007 L65.252,22.007 L65.252,23.682 C65.252,24.366 65.557,24.762 66.259,24.762 C66.908,24.762 67.196,24.33 67.196,23.682 L67.196,23.213 C67.196,22.511 66.908,22.079 66.278,21.485 L65.071,20.279 C63.901,19.126 63.361,18.424 63.361,17.019 L63.361,16.605 C63.361,15.093 64.243,13.923 66.242,13.923 C68.295,13.923 69.104,14.931 69.104,16.696 L69.104,17.686 L67.232,17.686 L67.232,16.623 C67.232,15.921 66.908,15.579 66.259,15.579 C65.683,15.579 65.288,15.903 65.288,16.587 L65.288,16.839 C65.288,17.524 65.666,17.92 66.259,18.496 L67.574,19.792 C68.69,20.927 69.23,21.611 69.23,22.961 L69.23,23.556 C69.23,25.23 68.33,26.418 66.242,26.418 C64.153,26.418 63.342,25.248 63.342,23.645" id="Fill-244" fill="#FFFFFE"></path>
            <polyline id="Fill-245" fill="#FFFFFE" points="69.714 14.067 75.17 14.067 75.17 15.741 73.477 15.741 73.477 26.274 71.406 26.274 71.406 15.741 69.714 15.741 69.714 14.067"></polyline>
            <path d="M78.264,15.741 L78.264,19.54 L78.948,19.54 C79.65,19.54 79.957,19.18 79.957,18.532 L79.957,16.731 C79.957,16.065 79.65,15.741 78.948,15.741 L78.264,15.741 Z M78.264,20.675 L78.264,26.274 L76.212,26.274 L76.212,14.067 L79.201,14.067 C81.271,14.067 82.027,15.093 82.027,16.804 L82.027,18.37 C82.027,19.684 81.559,20.458 80.388,20.729 L82.351,26.274 L80.191,26.274 L78.264,20.675 Z" id="Fill-246" fill="#FFFFFE"></path>
            <polyline id="Fill-247" fill="#FFFFFE" points="86.779 21.629 86.779 26.274 84.726 26.274 84.726 21.629 82.44 14.067 84.583 14.067 85.825 18.694 85.842 18.694 87.086 14.067 89.047 14.067 86.779 21.629"></polyline>
            <polyline id="Fill-248" fill="#FFFFFE" points="91.171 24.474 90.127 27.228 88.974 27.228 89.226 24.312 91.171 24.312 91.171 24.474"></polyline>
            <polygon id="Fill-249" fill="#FFFFFE" points="94.41 26.274 96.463 26.274 96.463 14.067 94.41 14.067"></polygon>
            <polyline id="Fill-250" fill="#FFFFFE" points="99.468 18.604 99.468 26.274 97.74 26.274 97.74 14.067 99.756 14.067 101.971 21.071 101.971 14.067 103.681 14.067 103.681 26.274 101.881 26.274 99.468 18.604"></polyline>
            <polyline id="Fill-251" fill="#FFFFFE" points="106.668 18.604 106.668 26.274 104.939 26.274 104.939 14.067 106.956 14.067 109.171 21.071 109.171 14.067 110.88 14.067 110.88 26.274 109.081 26.274 106.668 18.604"></polyline>
            <path d="M116.298,23.448 L116.298,16.893 C116.298,16.155 115.974,15.633 115.236,15.633 C114.516,15.633 114.192,16.155 114.192,16.893 L114.192,23.448 C114.192,24.186 114.516,24.708 115.236,24.708 C115.974,24.708 116.298,24.186 116.298,23.448 Z M112.139,23.123 L112.139,17.218 C112.139,15.309 113.076,13.923 115.236,13.923 C117.415,13.923 118.351,15.309 118.351,17.218 L118.351,23.123 C118.351,25.014 117.415,26.418 115.236,26.418 C113.076,26.418 112.139,25.014 112.139,23.123 Z" id="Fill-252" fill="#FFFFFE"></path>
            <polyline id="Fill-253" fill="#FFFFFE" points="126.181 14.067 123.858 26.274 121.626 26.274 119.302 14.067 121.391 14.067 122.796 22.583 122.814 22.583 124.255 14.067 126.181 14.067"></polyline>
            <path d="M128.465,22.403 L130.103,22.403 L129.294,17.506 L129.275,17.506 L128.465,22.403 Z M125.89,26.274 L128.195,14.067 L130.536,14.067 L132.858,26.274 L130.752,26.274 L130.374,24.041 L128.195,24.041 L127.835,26.274 L125.89,26.274 Z" id="Fill-254" fill="#FFFFFE"></path>
            <polyline id="Fill-255" fill="#FFFFFE" points="132.658 14.067 138.114 14.067 138.114 15.741 136.422 15.741 136.422 26.274 134.35 26.274 134.35 15.741 132.658 15.741 132.658 14.067"></polyline>
            <polygon id="Fill-256" fill="#FFFFFE" points="139.155 26.274 141.208 26.274 141.208 14.067 139.155 14.067"></polygon>
            <path d="M146.644,23.448 L146.644,16.893 C146.644,16.155 146.32,15.633 145.582,15.633 C144.862,15.633 144.538,16.155 144.538,16.893 L144.538,23.448 C144.538,24.186 144.862,24.708 145.582,24.708 C146.32,24.708 146.644,24.186 146.644,23.448 Z M142.485,23.123 L142.485,17.218 C142.485,15.309 143.422,13.923 145.582,13.923 C147.76,13.923 148.697,15.309 148.697,17.218 L148.697,23.123 C148.697,25.014 147.76,26.418 145.582,26.418 C143.422,26.418 142.485,25.014 142.485,23.123 Z" id="Fill-257" fill="#FFFFFE"></path>
            <polyline id="Fill-258" fill="#FFFFFE" points="151.683 18.604 151.683 26.274 149.955 26.274 149.955 14.067 151.971 14.067 154.186 21.071 154.186 14.067 155.896 14.067 155.896 26.274 154.096 26.274 151.683 18.604"></polyline>
            <path d="M40.547,41.733 L42.184,41.733 L41.375,36.835 L41.356,36.835 L40.547,41.733 Z M37.971,45.604 L40.276,33.396 L42.617,33.396 L44.939,45.604 L42.833,45.604 L42.455,43.372 L40.276,43.372 L39.916,45.604 L37.971,45.604 Z" id="Fill-259" fill="#FFFFFE"></path>
            <polyline id="Fill-260" fill="#FFFFFE" points="47.422 37.934 47.422 45.604 45.693 45.604 45.693 33.396 47.71 33.396 49.924 40.4 49.924 33.396 51.634 33.396 51.634 45.604 49.835 45.604 47.422 37.934"></polyline>
            <path d="M55.81,43.93 C56.656,43.93 56.98,43.425 56.98,42.687 L56.98,36.295 C56.98,35.575 56.656,35.071 55.81,35.071 L54.946,35.071 L54.946,43.93 L55.81,43.93 Z M59.033,36.673 L59.033,42.327 C59.033,44.2 58.258,45.604 56.062,45.604 L52.893,45.604 L52.893,33.396 L56.062,33.396 C58.258,33.396 59.033,34.783 59.033,36.673 Z" id="Fill-261" fill="#FFFFFE"></path>
            <polygon id="Fill-262" fill="#FFFFFE" points="62.271 45.604 64.324 45.604 64.324 33.396 62.271 33.396"></polygon>
            <polyline id="Fill-263" fill="#FFFFFE" points="67.33 37.934 67.33 45.604 65.601 45.604 65.601 33.396 67.618 33.396 69.833 40.4 69.833 33.396 71.543 33.396 71.543 45.604 69.743 45.604 67.33 37.934"></polyline>
            <polyline id="Fill-264" fill="#FFFFFE" points="72.801 33.396 77.609 33.396 77.609 35.071 74.854 35.071 74.854 38.564 76.907 38.564 76.907 40.22 74.854 40.22 74.854 45.604 72.801 45.604 72.801 33.396"></polyline>
            <path d="M80.649,35.071 L80.649,38.87 L81.333,38.87 C82.035,38.87 82.341,38.51 82.341,37.862 L82.341,36.061 C82.341,35.395 82.035,35.071 81.333,35.071 L80.649,35.071 Z M80.649,40.004 L80.649,45.604 L78.596,45.604 L78.596,33.396 L81.586,33.396 C83.656,33.396 84.412,34.423 84.412,36.133 L84.412,37.7 C84.412,39.014 83.944,39.788 82.773,40.058 L84.736,45.604 L82.576,45.604 L80.649,40.004 Z" id="Fill-265" fill="#FFFFFE"></path>
            <path d="M87.868,41.733 L89.505,41.733 L88.696,36.835 L88.677,36.835 L87.868,41.733 Z M85.293,45.604 L87.597,33.396 L89.938,33.396 L92.26,45.604 L90.154,45.604 L89.776,43.372 L87.597,43.372 L87.237,45.604 L85.293,45.604 Z" id="Fill-266" fill="#FFFFFE"></path>
            <path d="M92.906,42.975 L92.906,41.337 L94.815,41.337 L94.815,43.011 C94.815,43.695 95.121,44.091 95.823,44.091 C96.471,44.091 96.759,43.66 96.759,43.011 L96.759,42.543 C96.759,41.841 96.471,41.409 95.841,40.814 L94.634,39.608 C93.464,38.456 92.924,37.753 92.924,36.349 L92.924,35.935 C92.924,34.423 93.806,33.252 95.805,33.252 C97.858,33.252 98.668,34.261 98.668,36.025 L98.668,37.016 L96.796,37.016 L96.796,35.953 C96.796,35.251 96.471,34.909 95.823,34.909 C95.247,34.909 94.851,35.233 94.851,35.917 L94.851,36.169 C94.851,36.853 95.229,37.249 95.823,37.826 L97.137,39.122 C98.254,40.256 98.794,40.94 98.794,42.291 L98.794,42.885 C98.794,44.559 97.894,45.748 95.805,45.748 C93.716,45.748 92.906,44.578 92.906,42.975" id="Fill-267" fill="#FFFFFE"></path>
            <polyline id="Fill-268" fill="#FFFFFE" points="99.458 33.396 104.914 33.396 104.914 35.071 103.221 35.071 103.221 45.604 101.15 45.604 101.15 35.071 99.458 35.071 99.458 33.396"></polyline>
            <path d="M108.008,35.071 L108.008,38.87 L108.692,38.87 C109.394,38.87 109.701,38.51 109.701,37.862 L109.701,36.061 C109.701,35.395 109.394,35.071 108.692,35.071 L108.008,35.071 Z M108.008,40.004 L108.008,45.604 L105.956,45.604 L105.956,33.396 L108.945,33.396 C111.015,33.396 111.771,34.423 111.771,36.133 L111.771,37.7 C111.771,39.014 111.303,39.788 110.132,40.058 L112.095,45.604 L109.935,45.604 L108.008,40.004 Z" id="Fill-269" fill="#FFFFFE"></path>
            <path d="M118.936,33.396 L118.936,42.633 C118.936,44.524 118.126,45.748 116.037,45.748 C113.877,45.748 112.976,44.524 112.976,42.633 L112.976,33.396 L115.029,33.396 L115.029,42.831 C115.029,43.551 115.317,44.038 116.037,44.038 C116.757,44.038 117.046,43.551 117.046,42.831 L117.046,33.396 L118.936,33.396" id="Fill-270" fill="#FFFFFE"></path>
            <path d="M120.194,42.453 L120.194,36.547 C120.194,34.639 121.094,33.252 123.255,33.252 C125.523,33.252 126.154,34.513 126.154,36.313 L126.154,37.753 L124.281,37.753 L124.281,36.151 C124.281,35.395 124.029,34.963 123.291,34.963 C122.552,34.963 122.247,35.485 122.247,36.223 L122.247,42.777 C122.247,43.515 122.552,44.038 123.291,44.038 C124.029,44.038 124.281,43.569 124.281,42.849 L124.281,40.599 L126.154,40.599 L126.154,42.705 C126.154,44.452 125.433,45.748 123.255,45.748 C121.094,45.748 120.194,44.344 120.194,42.453" id="Fill-271" fill="#FFFFFE"></path>
            <polyline id="Fill-272" fill="#FFFFFE" points="126.673 33.396 132.13 33.396 132.13 35.071 130.437 35.071 130.437 45.604 128.366 45.604 128.366 35.071 126.673 35.071 126.673 33.396"></polyline>
            <path d="M139.131,33.396 L139.131,42.633 C139.131,44.524 138.321,45.748 136.232,45.748 C134.072,45.748 133.172,44.524 133.172,42.633 L133.172,33.396 L135.224,33.396 L135.224,42.831 C135.224,43.551 135.512,44.038 136.232,44.038 C136.953,44.038 137.241,43.551 137.241,42.831 L137.241,33.396 L139.131,33.396" id="Fill-273" fill="#FFFFFE"></path>
            <path d="M142.442,35.071 L142.442,38.87 L143.126,38.87 C143.828,38.87 144.134,38.51 144.134,37.862 L144.134,36.061 C144.134,35.395 143.828,35.071 143.126,35.071 L142.442,35.071 Z M142.442,40.004 L142.442,45.604 L140.389,45.604 L140.389,33.396 L143.379,33.396 C145.449,33.396 146.205,34.423 146.205,36.133 L146.205,37.7 C146.205,39.014 145.737,39.788 144.566,40.058 L146.529,45.604 L144.369,45.604 L142.442,40.004 Z" id="Fill-274" fill="#FFFFFE"></path>
            <polyline id="Fill-275" fill="#FFFFFE" points="147.41 33.396 152.307 33.396 152.307 35.071 149.463 35.071 149.463 38.564 151.497 38.564 151.497 40.22 149.463 40.22 149.463 43.93 152.307 43.93 152.307 45.604 147.41 45.604 147.41 33.396"></polyline>
        </g>
    </g>
</svg>