<?xml version="1.0" encoding="UTF-8"?>
<svg width="161px" height="161px" viewBox="0 0 161 161" version="1.1" xmlns="http://www.w3.org/2000/svg" xmlns:xlink="http://www.w3.org/1999/xlink">
    <!-- Generator: Sketch 52.5 (67469) - http://www.bohemiancoding.com/sketch -->
    <title>Group 14</title>
    <desc>Created with Sketch.</desc>
    <g id="Page-1" stroke="none" stroke-width="1" fill="none" fill-rule="evenodd">
        <g id="Group-14">
            <polygon id="Fill-140" fill="#00689D" points="0.061 161 160.983 161 160.983 0.071 0.061 0.071"></polygon>
            <polyline id="Fill-141" fill="#FFFFFE" points="12.442 19.456 12.442 25.151 12.491 25.151 16.318 21.179 16.368 21.179 16.368 46.016 21.823 46.016 21.823 13.569 17.468 13.569 12.442 19.456"></polyline>
            <path d="M35.51,38.695 C35.51,40.752 34.745,41.949 32.88,41.949 C31.061,41.949 30.343,40.705 30.343,38.695 L30.343,32.761 C30.438,30.943 31.204,29.793 32.928,29.793 C34.792,29.793 35.51,30.943 35.51,33.048 L35.51,38.695 Z M40.919,38.217 L40.919,33.431 C40.919,28.12 38.813,25.438 34.889,25.438 C32.59,25.438 31.204,26.491 30.391,28.071 L30.343,28.071 L30.343,21.083 C30.343,19.121 30.964,17.733 32.928,17.733 C34.889,17.733 35.464,18.881 35.464,20.89 L35.464,23.047 L40.439,23.047 L40.439,21.323 C40.439,16.537 38.862,13.188 32.831,13.188 C27.089,13.188 24.934,16.872 24.934,21.946 L24.934,37.738 C24.934,42.762 27.137,46.4 32.88,46.4 C38.669,46.4 40.919,43.242 40.919,38.217 Z" id="Fill-142" fill="#FFFFFE"></path>
            <path d="M53.629,15.357 L53.629,20.535 L54.444,20.535 C55.2,20.535 55.53,20.166 55.53,19.449 L55.53,16.423 C55.53,15.705 55.2,15.357 54.444,15.357 L53.629,15.357 Z M51.418,13.553 L54.696,13.553 C56.926,13.553 57.741,14.659 57.741,16.501 L57.741,19.274 C57.741,21.117 56.926,22.242 54.696,22.242 L53.629,22.242 L53.629,26.702 L51.418,26.702 L51.418,13.553 Z" id="Fill-143" fill="#FFFFFE"></path>
            <polyline id="Fill-144" fill="#FFFFFE" points="58.809 13.553 64.085 13.553 64.085 15.357 61.02 15.357 61.02 19.119 63.213 19.119 63.213 20.903 61.02 20.903 61.02 24.898 64.085 24.898 64.085 26.702 58.809 26.702 58.809 13.553"></polyline>
            <path d="M67.81,22.532 L69.575,22.532 L68.702,17.257 L68.683,17.257 L67.81,22.532 Z M65.037,26.702 L67.519,13.553 L70.041,13.553 L72.543,26.702 L70.273,26.702 L69.866,24.297 L67.519,24.297 L67.131,26.702 L65.037,26.702 Z" id="Fill-145" fill="#FFFFFE"></path>
            <path d="M73.378,23.308 L73.378,16.947 C73.378,14.891 74.347,13.398 76.675,13.398 C79.119,13.398 79.797,14.755 79.797,16.695 L79.797,18.247 L77.781,18.247 L77.781,16.52 C77.781,15.705 77.509,15.24 76.714,15.24 C75.919,15.24 75.589,15.803 75.589,16.598 L75.589,23.657 C75.589,24.453 75.919,25.015 76.714,25.015 C77.509,25.015 77.781,24.511 77.781,23.735 L77.781,21.31 L79.797,21.31 L79.797,23.58 C79.797,25.461 79.022,26.857 76.675,26.857 C74.347,26.857 73.378,25.345 73.378,23.308" id="Fill-146" fill="#FFFFFE"></path>
            <polyline id="Fill-147" fill="#FFFFFE" points="81.099 13.553 86.375 13.553 86.375 15.357 83.31 15.357 83.31 19.119 85.503 19.119 85.503 20.903 83.31 20.903 83.31 24.898 86.375 24.898 86.375 26.702 81.099 26.702 81.099 13.553"></polyline>
            <polyline id="Fill-148" fill="#FFFFFE" points="90.022 24.763 88.897 27.73 87.656 27.73 87.927 24.588 90.022 24.588 90.022 24.763"></polyline>
            <path d="M99.586,13.553 L99.586,23.715 C99.586,25.616 98.752,26.857 96.541,26.857 C94.253,26.857 93.631,25.597 93.631,23.929 L93.631,21.31 L95.726,21.31 L95.726,23.968 C95.726,24.627 95.959,25.015 96.541,25.015 C97.142,25.015 97.375,24.627 97.375,23.948 L97.375,13.553 L99.586,13.553" id="Fill-149" fill="#FFFFFE"></path>
            <path d="M107.442,13.553 L107.442,23.502 C107.442,25.538 106.569,26.857 104.32,26.857 C101.992,26.857 101.022,25.538 101.022,23.502 L101.022,13.553 L103.233,13.553 L103.233,23.715 C103.233,24.491 103.544,25.015 104.32,25.015 C105.095,25.015 105.406,24.491 105.406,23.715 L105.406,13.553 L107.442,13.553" id="Fill-150" fill="#FFFFFE"></path>
            <path d="M108.782,23.871 L108.782,22.106 L110.838,22.106 L110.838,23.909 C110.838,24.646 111.168,25.073 111.924,25.073 C112.622,25.073 112.932,24.607 112.932,23.909 L112.932,23.405 C112.932,22.649 112.622,22.184 111.943,21.543 L110.644,20.244 C109.383,19.003 108.801,18.247 108.801,16.734 L108.801,16.288 C108.801,14.659 109.752,13.398 111.905,13.398 C114.116,13.398 114.988,14.484 114.988,16.385 L114.988,17.451 L112.971,17.451 L112.971,16.307 C112.971,15.551 112.622,15.182 111.924,15.182 C111.303,15.182 110.877,15.531 110.877,16.268 L110.877,16.539 C110.877,17.277 111.284,17.703 111.924,18.324 L113.339,19.72 C114.543,20.942 115.124,21.679 115.124,23.134 L115.124,23.773 C115.124,25.577 114.154,26.857 111.905,26.857 C109.655,26.857 108.782,25.597 108.782,23.871" id="Fill-151" fill="#FFFFFE"></path>
            <polyline id="Fill-152" fill="#FFFFFE" points="116.232 13.553 122.109 13.553 122.109 15.357 120.286 15.357 120.286 26.702 118.055 26.702 118.055 15.357 116.232 15.357 116.232 13.553"></polyline>
            <polygon id="Fill-153" fill="#FFFFFE" points="123.332 26.702 125.543 26.702 125.543 13.553 123.332 13.553"></polygon>
            <path d="M127.017,23.308 L127.017,16.947 C127.017,14.891 127.987,13.398 130.315,13.398 C132.758,13.398 133.437,14.755 133.437,16.695 L133.437,18.247 L131.421,18.247 L131.421,16.52 C131.421,15.705 131.149,15.24 130.353,15.24 C129.558,15.24 129.228,15.803 129.228,16.598 L129.228,23.657 C129.228,24.453 129.558,25.015 130.353,25.015 C131.149,25.015 131.421,24.511 131.421,23.735 L131.421,21.31 L133.437,21.31 L133.437,23.58 C133.437,25.461 132.662,26.857 130.315,26.857 C127.987,26.857 127.017,25.345 127.017,23.308" id="Fill-154" fill="#FFFFFE"></path>
            <polyline id="Fill-155" fill="#FFFFFE" points="134.836 13.553 140.111 13.553 140.111 15.357 137.047 15.357 137.047 19.119 139.239 19.119 139.239 20.903 137.047 20.903 137.047 24.898 140.111 24.898 140.111 26.702 134.836 26.702 134.836 13.553"></polyline>
            <path d="M53.842,42.244 L55.607,42.244 L54.734,36.969 L54.715,36.969 L53.842,42.244 Z M51.069,46.413 L53.551,33.265 L56.073,33.265 L58.575,46.413 L56.305,46.413 L55.898,44.009 L53.551,44.009 L53.164,46.413 L51.069,46.413 Z" id="Fill-156" fill="#FFFFFE"></path>
            <polyline id="Fill-157" fill="#FFFFFE" points="61.544 38.152 61.544 46.413 59.681 46.413 59.681 33.265 61.854 33.265 64.239 40.809 64.239 33.265 66.082 33.265 66.082 46.413 64.142 46.413 61.544 38.152"></polyline>
            <path d="M70.681,44.61 C71.592,44.61 71.942,44.067 71.942,43.272 L71.942,36.387 C71.942,35.611 71.592,35.068 70.681,35.068 L69.75,35.068 L69.75,44.61 L70.681,44.61 Z M74.153,36.794 L74.153,42.884 C74.153,44.901 73.319,46.413 70.953,46.413 L67.539,46.413 L67.539,33.265 L70.953,33.265 C73.319,33.265 74.153,34.758 74.153,36.794 Z" id="Fill-158" fill="#FFFFFE"></path>
            <path d="M77.723,43.582 L77.723,41.817 L79.779,41.817 L79.779,43.621 C79.779,44.358 80.109,44.785 80.866,44.785 C81.563,44.785 81.874,44.319 81.874,43.621 L81.874,43.117 C81.874,42.36 81.563,41.895 80.884,41.255 L79.586,39.955 C78.325,38.714 77.743,37.958 77.743,36.445 L77.743,35.999 C77.743,34.37 78.693,33.109 80.846,33.109 C83.057,33.109 83.929,34.195 83.929,36.096 L83.929,37.163 L81.913,37.163 L81.913,36.018 C81.913,35.262 81.563,34.893 80.866,34.893 C80.245,34.893 79.818,35.243 79.818,35.979 L79.818,36.251 C79.818,36.988 80.225,37.414 80.866,38.036 L82.281,39.432 C83.484,40.654 84.065,41.391 84.065,42.845 L84.065,43.485 C84.065,45.288 83.095,46.569 80.846,46.569 C78.596,46.569 77.723,45.308 77.723,43.582" id="Fill-159" fill="#FFFFFE"></path>
            <polyline id="Fill-160" fill="#FFFFFE" points="84.882 33.265 90.759 33.265 90.759 35.068 88.936 35.068 88.936 46.413 86.706 46.413 86.706 35.068 84.882 35.068 84.882 33.265"></polyline>
            <path d="M94.193,35.068 L94.193,39.16 L94.93,39.16 C95.687,39.16 96.016,38.772 96.016,38.074 L96.016,36.135 C96.016,35.417 95.687,35.068 94.93,35.068 L94.193,35.068 Z M94.193,40.382 L94.193,46.413 L91.982,46.413 L91.982,33.265 L95.202,33.265 C97.432,33.265 98.247,34.37 98.247,36.212 L98.247,37.899 C98.247,39.315 97.743,40.149 96.482,40.44 L98.596,46.413 L96.268,46.413 L94.193,40.382 Z" id="Fill-161" fill="#FFFFFE"></path>
            <path d="M104.126,43.369 L104.126,36.309 C104.126,35.514 103.777,34.952 102.981,34.952 C102.206,34.952 101.856,35.514 101.856,36.309 L101.856,43.369 C101.856,44.164 102.206,44.726 102.981,44.726 C103.777,44.726 104.126,44.164 104.126,43.369 Z M99.645,43.019 L99.645,36.658 C99.645,34.602 100.654,33.109 102.981,33.109 C105.328,33.109 106.337,34.602 106.337,36.658 L106.337,43.019 C106.337,45.056 105.328,46.569 102.981,46.569 C100.654,46.569 99.645,45.056 99.645,43.019 Z" id="Fill-162" fill="#FFFFFE"></path>
            <polyline id="Fill-163" fill="#FFFFFE" points="109.655 38.152 109.655 46.413 107.793 46.413 107.793 33.265 109.965 33.265 112.35 40.809 112.35 33.265 114.193 33.265 114.193 46.413 112.254 46.413 109.655 38.152"></polyline>
            <path d="M118.985,39.393 L122.128,39.393 L122.128,46.413 L120.537,46.413 L120.537,44.978 C120.246,45.967 119.626,46.569 118.422,46.569 C116.522,46.569 115.649,45.056 115.649,43.019 L115.649,36.658 C115.649,34.602 116.638,33.109 118.965,33.109 C121.41,33.109 122.128,34.467 122.128,36.406 L122.128,37.57 L120.11,37.57 L120.11,36.232 C120.11,35.417 119.799,34.952 119.005,34.952 C118.21,34.952 117.86,35.514 117.86,36.309 L117.86,43.369 C117.86,44.164 118.19,44.726 118.947,44.726 C119.664,44.726 120.033,44.319 120.033,43.466 L120.033,41.138 L118.985,41.138 L118.985,39.393" id="Fill-164" fill="#FFFFFE"></path>
            <polygon id="Fill-165" fill="#FFFFFE" points="51.417 65.252 53.628 65.252 53.628 52.103 51.417 52.103"></polygon>
            <polyline id="Fill-166" fill="#FFFFFE" points="57.062 56.991 57.062 65.252 55.2 65.252 55.2 52.103 57.373 52.103 59.757 59.647 59.757 52.103 61.6 52.103 61.6 65.252 59.661 65.252 57.062 56.991"></polyline>
            <path d="M62.94,62.421 L62.94,60.656 L64.996,60.656 L64.996,62.459 C64.996,63.197 65.326,63.623 66.083,63.623 C66.78,63.623 67.09,63.158 67.09,62.459 L67.09,61.955 C67.09,61.199 66.78,60.734 66.101,60.094 L64.802,58.794 C63.542,57.553 62.96,56.797 62.96,55.284 L62.96,54.838 C62.96,53.209 63.91,51.948 66.063,51.948 C68.274,51.948 69.146,53.034 69.146,54.935 L69.146,56.001 L67.13,56.001 L67.13,54.857 C67.13,54.101 66.78,53.732 66.083,53.732 C65.462,53.732 65.035,54.081 65.035,54.818 L65.035,55.09 C65.035,55.827 65.442,56.253 66.083,56.874 L67.498,58.27 C68.701,59.493 69.282,60.229 69.282,61.684 L69.282,62.324 C69.282,64.127 68.312,65.408 66.063,65.408 C63.813,65.408 62.94,64.147 62.94,62.421" id="Fill-167" fill="#FFFFFE"></path>
            <polyline id="Fill-168" fill="#FFFFFE" points="70.098 52.103 75.975 52.103 75.975 53.907 74.152 53.907 74.152 65.252 71.922 65.252 71.922 53.907 70.098 53.907 70.098 52.103"></polyline>
            <polygon id="Fill-169" fill="#FFFFFE" points="77.199 65.252 79.41 65.252 79.41 52.103 77.199 52.103"></polygon>
            <polyline id="Fill-170" fill="#FFFFFE" points="80.632 52.103 86.509 52.103 86.509 53.907 84.686 53.907 84.686 65.252 82.456 65.252 82.456 53.907 80.632 53.907 80.632 52.103"></polyline>
            <path d="M94.152,52.103 L94.152,62.052 C94.152,64.089 93.279,65.408 91.03,65.408 C88.702,65.408 87.732,64.089 87.732,62.052 L87.732,52.103 L89.943,52.103 L89.943,62.266 C89.943,63.041 90.254,63.565 91.03,63.565 C91.805,63.565 92.116,63.041 92.116,62.266 L92.116,52.103 L94.152,52.103" id="Fill-171" fill="#FFFFFE"></path>
            <polyline id="Fill-172" fill="#FFFFFE" points="95.357 52.103 101.234 52.103 101.234 53.907 99.411 53.907 99.411 65.252 97.18 65.252 97.18 53.907 95.357 53.907 95.357 52.103"></polyline>
            <polygon id="Fill-173" fill="#FFFFFE" points="102.457 65.252 104.668 65.252 104.668 52.103 102.457 52.103"></polygon>
            <path d="M110.623,62.207 L110.623,55.148 C110.623,54.353 110.274,53.79 109.478,53.79 C108.703,53.79 108.353,54.353 108.353,55.148 L108.353,62.207 C108.353,63.003 108.703,63.565 109.478,63.565 C110.274,63.565 110.623,63.003 110.623,62.207 Z M106.142,61.858 L106.142,55.497 C106.142,53.441 107.151,51.948 109.478,51.948 C111.825,51.948 112.834,53.441 112.834,55.497 L112.834,61.858 C112.834,63.895 111.825,65.408 109.478,65.408 C107.151,65.408 106.142,63.895 106.142,61.858 Z" id="Fill-174" fill="#FFFFFE"></path>
            <polyline id="Fill-175" fill="#FFFFFE" points="116.153 56.991 116.153 65.252 114.291 65.252 114.291 52.103 116.464 52.103 118.848 59.647 118.848 52.103 120.691 52.103 120.691 65.252 118.752 65.252 116.153 56.991"></polyline>
            <path d="M122.031,62.421 L122.031,60.656 L124.087,60.656 L124.087,62.459 C124.087,63.197 124.417,63.623 125.173,63.623 C125.871,63.623 126.181,63.158 126.181,62.459 L126.181,61.955 C126.181,61.199 125.871,60.734 125.192,60.094 L123.893,58.794 C122.632,57.553 122.05,56.797 122.05,55.284 L122.05,54.838 C122.05,53.209 123.001,51.948 125.154,51.948 C127.365,51.948 128.237,53.034 128.237,54.935 L128.237,56.001 L126.22,56.001 L126.22,54.857 C126.22,54.101 125.871,53.732 125.173,53.732 C124.552,53.732 124.126,54.081 124.126,54.818 L124.126,55.09 C124.126,55.827 124.533,56.253 125.173,56.874 L126.589,58.27 C127.792,59.493 128.373,60.229 128.373,61.684 L128.373,62.324 C128.373,64.127 127.403,65.408 125.154,65.408 C122.904,65.408 122.031,64.147 122.031,62.421" id="Fill-176" fill="#FFFFFE"></path>
            <path d="M104.043,79.199 C104.043,79.199 102.689,80.998 103.083,82.749 C103.479,84.502 105.477,85.544 105.477,85.544 C105.477,85.544 106.832,83.746 106.436,81.995 C106.042,80.241 104.043,79.199 104.043,79.199" id="Fill-535" fill="#FFFFFE"></path>
            <path d="M101.837,89.469 C101.837,89.469 103.191,87.669 102.797,85.917 C102.4,84.164 100.403,83.124 100.403,83.124 C100.403,83.124 99.047,84.921 99.441,86.674 C99.839,88.426 101.837,89.469 101.837,89.469" id="Fill-536" fill="#FFFFFE"></path>
            <path d="M107.402,87.543 C107.402,87.543 108.832,88.985 110.461,88.84 C112.089,88.696 113.296,87.02 113.296,87.02 C113.296,87.02 111.868,85.578 110.238,85.722 C108.609,85.867 107.402,87.543 107.402,87.543" id="Fill-537" fill="#FFFFFE"></path>
            <path d="M109.745,79.84 C108.42,81.184 108.606,83.563 108.606,83.563 C108.606,83.563 110.942,83.766 112.27,82.423 C113.594,81.08 113.408,78.7 113.408,78.7 C113.408,78.7 111.071,78.498 109.745,79.84" id="Fill-538" fill="#FFFFFE"></path>
            <path d="M106.821,92.889 C108.444,93.081 109.969,91.688 109.969,91.688 C109.969,91.688 108.865,89.984 107.244,89.791 C105.62,89.601 104.093,90.995 104.093,90.995 C104.093,90.995 105.199,92.698 106.821,92.889" id="Fill-539" fill="#FFFFFE"></path>
            <path d="M108.271,121.079 L96.142,121.079 C95.193,121.079 94.424,121.844 94.424,122.793 C94.424,123.741 95.193,124.51 96.142,124.51 L108.271,124.51 C109.218,124.51 109.986,123.741 109.986,122.793 C109.986,121.844 109.218,121.079 108.271,121.079" id="Fill-540" fill="#FFFFFE"></path>
            <path d="M108.271,139.992 L96.142,139.992 C95.193,139.992 94.424,140.758 94.424,141.706 C94.424,142.654 95.193,143.422 96.142,143.422 L108.271,143.422 C109.218,143.422 109.986,142.654 109.986,141.706 C109.986,140.758 109.218,139.992 108.271,139.992" id="Fill-541" fill="#FFFFFE"></path>
            <path d="M53.724,116.913 C53.439,116.825 53.157,116.747 52.882,116.696 C52.882,116.696 53.193,116.792 53.724,116.913" id="Fill-542" fill="#FFFFFE"></path>
            <path d="M73.381,124.336 C74.181,124.35 74.983,124.327 75.787,124.272 L75.787,130.609 L73.381,130.553 L73.381,124.336 Z M107.824,125.708 L96.585,125.708 C96.046,125.708 95.608,126.147 95.608,126.684 L95.608,130.088 L88.271,130.894 L77.553,130.649 L77.553,124.102 C78.977,123.92 80.403,123.636 81.818,123.237 C92.135,120.326 94.385,111.795 94.161,105.893 C93.936,99.882 95.86,97.548 98.624,96.51 C99.416,96.213 100.198,96.025 100.915,95.903 C100.945,97.379 101.245,99.096 101.905,101.141 C102.15,101.127 102.394,101.107 102.636,101.08 C101.939,98.989 101.642,97.268 101.626,95.8 C103.053,95.631 104.072,95.727 104.072,95.727 C104.072,95.727 103.107,95.208 101.744,94.069 C102.208,91.222 103.903,89.475 105.65,87.687 C106.61,86.703 107.603,85.687 108.384,84.477 L107.775,84.084 C107.036,85.234 106.065,86.223 105.13,87.181 C103.426,88.924 101.707,90.705 101.125,93.531 C100.57,93.031 99.971,92.44 99.358,91.751 C96.814,88.899 93.539,90.995 88.868,95.343 C84.195,99.69 78.32,99.839 72.581,93.967 C65.008,86.216 58.404,86.26 53.875,86.7 C56.973,88.019 58.057,90.914 59.626,98.274 C61.269,105.996 65.414,109.489 71.084,109.971 C67.929,111.085 67.774,112.865 63.548,115.784 C60.249,118.06 55.607,117.34 53.724,116.913 C57.179,117.99 61.272,121.615 64.933,122.875 C67.065,123.609 69.313,124.063 71.615,124.246 L71.615,130.513 L52.413,130.075 L52.413,134.447 L88.271,133.626 L95.608,134.434 L95.608,137.834 C95.608,138.373 96.046,138.813 96.585,138.813 L107.824,138.813 C108.364,138.813 108.802,138.373 108.802,137.834 L108.802,126.684 C108.802,126.147 108.364,125.708 107.824,125.708 Z" id="Fill-543" fill="#FFFFFE"></path>
            <path d="M51.363,133.724 C51.363,134.646 50.72,135.394 49.927,135.394 L49.063,135.394 C48.272,135.394 47.627,134.646 47.627,133.724 L47.627,130.702 C47.627,129.779 48.272,129.032 49.063,129.032 L49.927,129.032 C50.72,129.032 51.363,129.779 51.363,130.702 L51.363,133.724" id="Fill-544" fill="#FFFFFE"></path>
        </g>
    </g>
</svg>