<?xml version="1.0" encoding="UTF-8"?>
<svg width="162px" height="162px" viewBox="0 0 162 162" version="1.1" xmlns="http://www.w3.org/2000/svg" xmlns:xlink="http://www.w3.org/1999/xlink">
    <!-- Generator: Sketch 52.5 (67469) - http://www.bohemiancoding.com/sketch -->
    <title>Group 5</title>
    <desc>Created with Sketch.</desc>
    <g id="Page-1" stroke="none" stroke-width="1" fill="none" fill-rule="evenodd">
        <g id="Group-5">
            <polygon id="Fill-462" fill="#26BDE2" points="0.773 161.079 161.69 161.079 161.69 0.151 0.773 0.151"></polygon>
            <path d="M22.584,32.871 C22.679,31.053 23.445,29.905 25.168,29.905 C27.033,29.905 27.752,31.053 27.752,33.16 L27.752,38.807 C27.752,40.864 26.988,42.061 25.121,42.061 C23.3,42.061 22.584,40.817 22.584,38.807 L22.584,32.871 Z M25.121,46.512 C30.91,46.512 33.16,43.352 33.16,38.327 L33.16,33.54 C33.16,28.229 31.054,25.549 27.129,25.549 C24.832,25.549 23.445,26.604 22.63,28.182 L22.584,28.182 L22.584,21.195 C22.584,19.231 23.207,17.844 25.168,17.844 C27.129,17.844 27.705,18.995 27.705,21.003 L27.705,23.157 L32.681,23.157 L32.681,21.434 C32.681,16.647 31.101,13.299 25.072,13.299 C19.33,13.299 17.175,16.983 17.175,22.055 L17.175,37.848 C17.175,42.874 19.377,46.512 25.121,46.512 Z" id="Fill-463" fill="#FFFFFE"></path>
            <path d="M106.902,77.705 C105.32,77.008 103.314,77.259 101.388,78.039 C94.144,80.975 89.214,82.031 81.595,79.645 C76.797,78.143 72.308,74.998 67.002,76.913 C63.48,78.18 60.199,79.389 56.217,79.358 L53.918,67.568 L108.555,67.568 L106.902,77.705 Z M88.382,112.715 C88.382,112.715 85.73,115.441 81.416,115.145 C77.091,115.441 74.442,112.715 74.442,112.715 C70.068,108.346 71.629,102.909 73.151,100.1 C74.091,98.34 80.811,88.248 81.389,87.39 L81.389,87.322 C81.389,87.322 81.399,87.335 81.416,87.355 L81.439,87.322 L81.439,87.39 C82.002,88.248 88.732,98.34 89.672,100.1 C91.197,102.909 92.753,108.346 88.382,112.715 Z M110.95,65.224 C110.81,65.075 110.63,64.993 110.42,64.993 L52.037,64.993 C51.835,64.993 51.649,65.075 51.512,65.224 C51.384,65.387 51.334,65.588 51.366,65.776 L61.174,125.098 C61.228,125.426 61.515,125.67 61.847,125.67 L73.885,125.67 L74.709,135.332 L69.643,135.338 L81.43,147.124 L93.246,135.311 L88.181,135.316 L89.004,125.67 L101.254,125.67 C101.591,125.67 101.874,125.426 101.923,125.088 L111.1,65.776 C111.13,65.572 111.07,65.377 110.95,65.224 Z" id="Fill-464" fill="#FFFFFE"></path>
            <path d="M49.318,41.892 L51.083,41.892 L50.21,36.617 L50.191,36.617 L49.318,41.892 Z M46.545,46.062 L49.027,32.913 L51.548,32.913 L54.05,46.062 L51.781,46.062 L51.374,43.657 L49.027,43.657 L48.639,46.062 L46.545,46.062 Z" id="Fill-465" fill="#FFFFFE"></path>
            <polyline id="Fill-466" fill="#FFFFFE" points="56.826 37.8 56.826 46.062 54.964 46.062 54.964 32.913 57.136 32.913 59.521 40.457 59.521 32.913 61.364 32.913 61.364 46.062 59.424 46.062 56.826 37.8"></polyline>
            <path d="M66.098,44.258 C67.009,44.258 67.359,43.715 67.359,42.92 L67.359,36.035 C67.359,35.26 67.009,34.717 66.098,34.717 L65.167,34.717 L65.167,44.258 L66.098,44.258 Z M69.57,36.443 L69.57,42.532 C69.57,44.549 68.736,46.062 66.37,46.062 L62.956,46.062 L62.956,32.913 L66.37,32.913 C68.736,32.913 69.57,34.406 69.57,36.443 Z" id="Fill-467" fill="#FFFFFE"></path>
            <path d="M74.499,43.23 L74.499,41.466 L76.554,41.466 L76.554,43.269 C76.554,44.006 76.884,44.433 77.641,44.433 C78.339,44.433 78.649,43.967 78.649,43.269 L78.649,42.765 C78.649,42.009 78.339,41.543 77.66,40.903 L76.361,39.604 C75.1,38.363 74.518,37.606 74.518,36.094 L74.518,35.647 C74.518,34.018 75.468,32.758 77.622,32.758 C79.833,32.758 80.705,33.844 80.705,35.745 L80.705,36.811 L78.688,36.811 L78.688,35.667 C78.688,34.911 78.339,34.542 77.641,34.542 C77.02,34.542 76.593,34.891 76.593,35.628 L76.593,35.899 C76.593,36.637 77.001,37.063 77.641,37.684 L79.056,39.08 C80.259,40.302 80.84,41.039 80.84,42.494 L80.84,43.133 C80.84,44.937 79.871,46.217 77.622,46.217 C75.372,46.217 74.499,44.956 74.499,43.23" id="Fill-468" fill="#FFFFFE"></path>
            <path d="M84.256,41.892 L86.021,41.892 L85.148,36.617 L85.13,36.617 L84.256,41.892 Z M81.483,46.062 L83.965,32.913 L86.487,32.913 L88.989,46.062 L86.719,46.062 L86.312,43.657 L83.965,43.657 L83.578,46.062 L81.483,46.062 Z" id="Fill-469" fill="#FFFFFE"></path>
            <polyline id="Fill-470" fill="#FFFFFE" points="91.92 37.8 91.92 46.062 90.057 46.062 90.057 32.913 92.23 32.913 94.615 40.457 94.615 32.913 96.458 32.913 96.458 46.062 94.518 46.062 91.92 37.8"></polyline>
            <polygon id="Fill-471" fill="#FFFFFE" points="98.224 46.062 100.435 46.062 100.435 32.913 98.224 32.913"></polygon>
            <polyline id="Fill-472" fill="#FFFFFE" points="101.504 32.913 107.38 32.913 107.38 34.717 105.557 34.717 105.557 46.062 103.327 46.062 103.327 34.717 101.504 34.717 101.504 32.913"></polyline>
            <path d="M109.63,41.892 L111.4,41.892 L110.52,36.617 L110.5,36.617 L109.63,41.892 Z M106.857,46.062 L109.34,32.913 L111.86,32.913 L114.36,46.062 L112.09,46.062 L111.69,43.657 L109.34,43.657 L108.952,46.062 L106.857,46.062 Z" id="Fill-473" fill="#FFFFFE"></path>
            <polyline id="Fill-474" fill="#FFFFFE" points="113.67 32.913 119.54 32.913 119.54 34.717 117.72 34.717 117.72 46.062 115.49 46.062 115.49 34.717 113.67 34.717 113.67 32.913"></polyline>
            <polygon id="Fill-475" fill="#FFFFFE" points="120.71 46.062 122.92 46.062 122.92 32.913 120.71 32.913"></polygon>
            <path d="M128.86,43.017 L128.86,35.958 C128.86,35.163 128.51,34.6 127.71,34.6 C126.94,34.6 126.59,35.163 126.59,35.958 L126.59,43.017 C126.59,43.812 126.94,44.374 127.71,44.374 C128.51,44.374 128.86,43.812 128.86,43.017 Z M124.37,42.668 L124.37,36.307 C124.37,34.251 125.38,32.758 127.71,32.758 C130.06,32.758 131.07,34.251 131.07,36.307 L131.07,42.668 C131.07,44.705 130.06,46.217 127.71,46.217 C125.38,46.217 124.37,44.705 124.37,42.668 Z" id="Fill-476" fill="#FFFFFE"></path>
            <polyline id="Fill-477" fill="#FFFFFE" points="134.38 37.8 134.38 46.062 132.52 46.062 132.52 32.913 134.69 32.913 137.08 40.457 137.08 32.913 138.92 32.913 138.92 46.062 136.98 46.062 134.38 37.8"></polyline>
            <path d="M46.79,23.271 L46.79,16.91 C46.79,14.854 47.759,13.361 50.088,13.361 C52.531,13.361 53.21,14.719 53.21,16.658 L53.21,18.21 L51.193,18.21 L51.193,16.484 C51.193,15.669 50.922,15.204 50.126,15.204 C49.331,15.204 49.001,15.766 49.001,16.561 L49.001,23.621 C49.001,24.416 49.331,24.978 50.126,24.978 C50.922,24.978 51.193,24.474 51.193,23.698 L51.193,21.274 L53.21,21.274 L53.21,23.543 C53.21,25.424 52.434,26.821 50.088,26.821 C47.759,26.821 46.79,25.308 46.79,23.271" id="Fill-478" fill="#FFFFFE"></path>
            <polyline id="Fill-479" fill="#FFFFFE" points="54.602 13.517 56.813 13.517 56.813 24.862 59.451 24.862 59.451 26.665 54.602 26.665 54.602 13.517"></polyline>
            <polyline id="Fill-480" fill="#FFFFFE" points="60.655 13.517 65.93 13.517 65.93 15.32 62.866 15.32 62.866 19.082 65.058 19.082 65.058 20.867 62.866 20.867 62.866 24.862 65.93 24.862 65.93 26.665 60.655 26.665 60.655 13.517"></polyline>
            <path d="M69.733,22.496 L71.498,22.496 L70.625,17.221 L70.606,17.221 L69.733,22.496 Z M66.96,26.665 L69.442,13.517 L71.964,13.517 L74.465,26.665 L72.196,26.665 L71.789,24.261 L69.442,24.261 L69.054,26.665 L66.96,26.665 Z" id="Fill-481" fill="#FFFFFE"></path>
            <polyline id="Fill-482" fill="#FFFFFE" points="77.435 18.404 77.435 26.665 75.573 26.665 75.573 13.517 77.746 13.517 80.13 21.06 80.13 13.517 81.973 13.517 81.973 26.665 80.034 26.665 77.435 18.404"></polyline>
            <polyline id="Fill-483" fill="#FFFFFE" points="91.441 18.539 90.2 26.665 88.125 26.665 86.36 13.517 88.493 13.517 89.521 21.856 89.541 21.856 90.646 13.517 92.45 13.517 93.672 21.856 93.691 21.856 94.699 13.517 96.561 13.517 94.854 26.665 92.759 26.665 91.461 18.539 91.441 18.539"></polyline>
            <path d="M99.259,22.496 L101.024,22.496 L100.151,17.221 L100.132,17.221 L99.259,22.496 Z M96.486,26.665 L98.968,13.517 L101.49,13.517 L103.992,26.665 L101.722,26.665 L101.315,24.261 L98.968,24.261 L98.581,26.665 L96.486,26.665 Z" id="Fill-484" fill="#FFFFFE"></path>
            <polyline id="Fill-485" fill="#FFFFFE" points="103.721 13.517 109.6 13.517 109.6 15.32 107.775 15.32 107.775 26.665 105.545 26.665 105.545 15.32 103.721 15.32 103.721 13.517"></polyline>
            <polyline id="Fill-486" fill="#FFFFFE" points="110.67 13.517 115.94 13.517 115.94 15.32 112.88 15.32 112.88 19.082 115.07 19.082 115.07 20.867 112.88 20.867 112.88 24.862 115.94 24.862 115.94 26.665 110.67 26.665 110.67 13.517"></polyline>
            <path d="M119.36,15.32 L119.36,19.412 L120.09,19.412 C120.85,19.412 121.18,19.024 121.18,18.326 L121.18,16.387 C121.18,15.669 120.85,15.32 120.09,15.32 L119.36,15.32 Z M119.36,20.634 L119.36,26.665 L117.15,26.665 L117.15,13.517 L120.37,13.517 C122.6,13.517 123.41,14.622 123.41,16.464 L123.41,18.151 C123.41,19.567 122.91,20.401 121.65,20.692 L123.76,26.665 L121.43,26.665 L119.36,20.634 Z" id="Fill-487" fill="#FFFFFE"></path>
        </g>
    </g>
</svg>