<?xml version="1.0" encoding="UTF-8"?>
<svg width="162px" height="161px" viewBox="0 0 162 161" version="1.1" xmlns="http://www.w3.org/2000/svg" xmlns:xlink="http://www.w3.org/1999/xlink">
    <!-- Generator: Sketch 52.5 (67469) - http://www.bohemiancoding.com/sketch -->
    <title>Group 15</title>
    <desc>Created with Sketch.</desc>
    <g id="Page-1" stroke="none" stroke-width="1" fill="none" fill-rule="evenodd">
        <g id="Group-15">
            <polygon id="Fill-177" fill="#19486A" points="0.416 161 161.336 161 161.336 0.072 0.416 0.072"></polygon>
            <polyline id="Fill-178" fill="#FFFFFE" points="24.495 13.559 24.495 46.005 19.04 46.005 19.04 21.168 18.991 21.168 15.163 25.14 15.116 25.14 15.116 19.445 20.141 13.559 24.495 13.559"></polyline>
            <polyline id="Fill-179" fill="#FFFFFE" points="26.983 13.559 40.671 13.559 40.671 18.584 33.54 46.005 28.13 46.005 35.405 18.009 26.983 18.009 26.983 13.559"></polyline>
            <path d="M96.066,99.067 C100.194,95.237 102.785,89.771 102.785,83.707 C102.785,82.8 102.72,81.907 102.609,81.029 C110.998,81.927 117.555,89.045 117.555,97.671 C117.555,102.572 115.425,106.972 112.055,110.038 C108.901,104.126 103,99.9 96.066,99.067 M110.295,119.872 C110.295,129.099 102.785,136.609 93.554,136.609 C90.55,136.609 87.74,135.803 85.3,134.413 C88.861,130.655 91.056,125.583 91.056,120.011 C91.056,118.639 90.918,117.298 90.666,116 C93.675,117.673 97.134,118.629 100.816,118.629 C104.09,118.629 107.193,117.872 109.955,116.526 C110.177,117.609 110.295,118.727 110.295,119.872 M53.357,120.011 C53.357,118.821 53.484,117.662 53.723,116.542 C56.481,117.879 59.572,118.629 62.836,118.629 C66.505,118.629 69.953,117.679 72.956,116.017 C72.722,117.267 72.593,118.554 72.593,119.872 C72.593,125.533 74.857,130.674 78.518,134.45 C76.041,135.901 73.168,136.747 70.097,136.747 C60.865,136.747 53.357,129.239 53.357,120.011 M46.096,97.671 C46.096,89.045 52.652,81.928 61.041,81.029 C60.929,81.907 60.865,82.8 60.865,83.707 C60.865,89.833 63.509,95.355 67.713,99.19 C60.76,99.982 54.83,104.183 51.642,110.08 C48.248,107.017 46.096,102.594 46.096,97.671 M81.824,66.968 C88.683,66.968 94.584,71.116 97.169,77.034 C90.359,78.234 84.674,82.729 81.824,88.811 C78.977,82.728 73.291,78.233 66.481,77.034 C69.066,71.116 74.966,66.968 81.824,66.968 M85.81,105.045 C88.13,103.83 90.758,103.131 93.554,103.131 C100.135,103.131 105.825,106.959 108.56,112.496 C106.24,113.712 103.607,114.41 100.816,114.41 C94.233,114.41 88.543,110.582 85.81,105.045 M77.785,105.159 C75.031,110.634 69.373,114.41 62.836,114.41 C60.063,114.41 57.451,113.72 55.146,112.522 C57.9,107.046 63.56,103.271 70.097,103.271 C72.871,103.271 75.48,103.959 77.785,105.159 M65.304,81.133 C73.365,82.332 79.576,89.28 79.576,97.671 C79.576,98.546 79.487,99.403 79.356,100.243 C71.295,99.043 65.086,92.097 65.086,83.707 C65.086,82.83 65.173,81.974 65.304,81.133 M81.902,131.862 C78.768,128.819 76.814,124.571 76.814,119.872 C76.814,115.244 78.705,111.05 81.748,108.017 C84.88,111.06 86.836,115.308 86.836,120.011 C86.836,124.636 84.947,128.83 81.902,131.862 M98.564,83.707 C98.564,92.097 92.355,99.043 84.294,100.243 C84.163,99.403 84.076,98.546 84.076,97.671 C84.076,89.28 90.285,82.333 98.345,81.134 C98.476,81.974 98.564,82.83 98.564,83.707 M121.775,97.671 C121.775,86.37 112.785,77.137 101.586,76.728 C98.705,68.593 90.935,62.748 81.824,62.748 C72.714,62.748 64.946,68.593 62.062,76.728 C50.863,77.138 41.877,86.371 41.877,97.671 C41.877,104.376 45.047,110.354 49.964,114.193 C49.43,116.042 49.136,117.993 49.136,120.011 C49.136,131.564 58.539,140.967 70.097,140.967 C74.483,140.967 78.556,139.61 81.926,137.297 C85.256,139.526 89.255,140.828 93.554,140.828 C105.111,140.828 114.513,131.425 114.513,119.872 C114.513,117.894 114.233,115.982 113.719,114.169 C118.617,110.329 121.775,104.363 121.775,97.671" id="Fill-180" fill="#FFFFFE"></path>
            <path d="M53.983,15.358 L53.983,20.536 L54.798,20.536 C55.554,20.536 55.884,20.167 55.884,19.45 L55.884,16.424 C55.884,15.706 55.554,15.358 54.798,15.358 L53.983,15.358 Z M51.772,13.554 L55.05,13.554 C57.281,13.554 58.095,14.66 58.095,16.502 L58.095,19.275 C58.095,21.118 57.281,22.243 55.05,22.243 L53.983,22.243 L53.983,26.703 L51.772,26.703 L51.772,13.554 Z" id="Fill-181" fill="#FFFFFE"></path>
            <path d="M61.142,22.533 L62.907,22.533 L62.034,17.258 L62.015,17.258 L61.142,22.533 Z M58.369,26.703 L60.851,13.554 L63.373,13.554 L65.875,26.703 L63.605,26.703 L63.198,24.298 L60.851,24.298 L60.464,26.703 L58.369,26.703 Z" id="Fill-182" fill="#FFFFFE"></path>
            <path d="M69.192,15.358 L69.192,19.45 L69.929,19.45 C70.686,19.45 71.015,19.062 71.015,18.364 L71.015,16.424 C71.015,15.706 70.686,15.358 69.929,15.358 L69.192,15.358 Z M69.192,20.671 L69.192,26.703 L66.981,26.703 L66.981,13.554 L70.201,13.554 C72.431,13.554 73.246,14.66 73.246,16.502 L73.246,18.189 C73.246,19.605 72.742,20.439 71.481,20.73 L73.595,26.703 L71.267,26.703 L69.192,20.671 Z" id="Fill-183" fill="#FFFFFE"></path>
            <polyline id="Fill-184" fill="#FFFFFE" points="74.024 13.554 79.901 13.554 79.901 15.358 78.078 15.358 78.078 26.703 75.847 26.703 75.847 15.358 74.024 15.358 74.024 13.554"></polyline>
            <polyline id="Fill-185" fill="#FFFFFE" points="83.161 18.441 83.161 26.703 81.298 26.703 81.298 13.554 83.471 13.554 85.856 21.098 85.856 13.554 87.699 13.554 87.699 26.703 85.759 26.703 83.161 18.441"></polyline>
            <polyline id="Fill-186" fill="#FFFFFE" points="89.524 13.554 94.799 13.554 94.799 15.358 91.735 15.358 91.735 19.12 93.927 19.12 93.927 20.904 91.735 20.904 91.735 24.899 94.799 24.899 94.799 26.703 89.524 26.703 89.524 13.554"></polyline>
            <path d="M98.388,15.358 L98.388,19.45 L99.126,19.45 C99.882,19.45 100.212,19.062 100.212,18.364 L100.212,16.424 C100.212,15.706 99.882,15.358 99.126,15.358 L98.388,15.358 Z M98.388,20.671 L98.388,26.703 L96.177,26.703 L96.177,13.554 L99.397,13.554 C101.628,13.554 102.442,14.66 102.442,16.502 L102.442,18.189 C102.442,19.605 101.938,20.439 100.677,20.73 L102.792,26.703 L100.464,26.703 L98.388,20.671 Z" id="Fill-187" fill="#FFFFFE"></path>
            <path d="M103.549,23.872 L103.549,22.107 L105.605,22.107 L105.605,23.91 C105.605,24.647 105.935,25.074 106.692,25.074 C107.389,25.074 107.7,24.608 107.7,23.91 L107.7,23.406 C107.7,22.65 107.389,22.184 106.711,21.544 L105.412,20.245 C104.151,19.004 103.569,18.247 103.569,16.735 L103.569,16.288 C103.569,14.66 104.519,13.399 106.672,13.399 C108.883,13.399 109.755,14.485 109.755,16.386 L109.755,17.452 L107.739,17.452 L107.739,16.308 C107.739,15.552 107.389,15.183 106.692,15.183 C106.071,15.183 105.644,15.532 105.644,16.269 L105.644,16.54 C105.644,17.278 106.051,17.704 106.692,18.325 L108.107,19.721 C109.31,20.943 109.891,21.68 109.891,23.135 L109.891,23.774 C109.891,25.578 108.922,26.858 106.672,26.858 C104.422,26.858 103.549,25.598 103.549,23.872" id="Fill-188" fill="#FFFFFE"></path>
            <polyline id="Fill-189" fill="#FFFFFE" points="115.596 20.904 113.463 20.904 113.463 26.703 111.252 26.703 111.252 13.554 113.463 13.554 113.463 19.12 115.596 19.12 115.596 13.554 117.827 13.554 117.827 26.703 115.596 26.703 115.596 20.904"></polyline>
            <polygon id="Fill-190" fill="#FFFFFE" points="119.283 26.703 121.494 26.703 121.494 13.554 119.283 13.554"></polygon>
            <path d="M125.179,15.358 L125.179,20.536 L125.995,20.536 C126.751,20.536 127.081,20.167 127.081,19.45 L127.081,16.424 C127.081,15.706 126.751,15.358 125.995,15.358 L125.179,15.358 Z M122.968,13.554 L126.247,13.554 C128.477,13.554 129.292,14.66 129.292,16.502 L129.292,19.275 C129.292,21.118 128.477,22.243 126.247,22.243 L125.179,22.243 L125.179,26.703 L122.968,26.703 L122.968,13.554 Z" id="Fill-191" fill="#FFFFFE"></path>
            <path d="M130.147,23.872 L130.147,22.107 L132.203,22.107 L132.203,23.91 C132.203,24.647 132.533,25.074 133.29,25.074 C133.987,25.074 134.297,24.608 134.297,23.91 L134.297,23.406 C134.297,22.65 133.987,22.184 133.308,21.544 L132.009,20.245 C130.749,19.004 130.167,18.247 130.167,16.735 L130.167,16.288 C130.167,14.66 131.117,13.399 133.27,13.399 C135.481,13.399 136.353,14.485 136.353,16.386 L136.353,17.452 L134.337,17.452 L134.337,16.308 C134.337,15.552 133.987,15.183 133.29,15.183 C132.669,15.183 132.242,15.532 132.242,16.269 L132.242,16.54 C132.242,17.278 132.649,17.704 133.29,18.325 L134.705,19.721 C135.908,20.943 136.489,21.68 136.489,23.135 L136.489,23.774 C136.489,25.578 135.519,26.858 133.27,26.858 C131.02,26.858 130.147,25.598 130.147,23.872" id="Fill-192" fill="#FFFFFE"></path>
            <polyline id="Fill-193" fill="#FFFFFE" points="51.772 32.658 56.951 32.658 56.951 34.462 53.983 34.462 53.983 38.224 56.194 38.224 56.194 40.008 53.983 40.008 53.983 45.807 51.772 45.807 51.772 32.658"></polyline>
            <path d="M62.189,42.762 L62.189,35.703 C62.189,34.908 61.84,34.345 61.045,34.345 C60.269,34.345 59.92,34.908 59.92,35.703 L59.92,42.762 C59.92,43.558 60.269,44.12 61.045,44.12 C61.84,44.12 62.189,43.558 62.189,42.762 Z M57.709,42.413 L57.709,36.052 C57.709,33.996 58.717,32.503 61.045,32.503 C63.391,32.503 64.4,33.996 64.4,36.052 L64.4,42.413 C64.4,44.45 63.391,45.962 61.045,45.962 C58.717,45.962 57.709,44.45 57.709,42.413 Z" id="Fill-194" fill="#FFFFFE"></path>
            <path d="M68.067,34.462 L68.067,38.554 L68.804,38.554 C69.561,38.554 69.89,38.166 69.89,37.468 L69.89,35.528 C69.89,34.81 69.561,34.462 68.804,34.462 L68.067,34.462 Z M68.067,39.775 L68.067,45.807 L65.856,45.807 L65.856,32.658 L69.076,32.658 C71.306,32.658 72.121,33.764 72.121,35.606 L72.121,37.293 C72.121,38.709 71.617,39.543 70.356,39.834 L72.47,45.807 L70.142,45.807 L68.067,39.775 Z" id="Fill-195" fill="#FFFFFE"></path>
            <polyline id="Fill-196" fill="#FFFFFE" points="75.595 32.658 81.472 32.658 81.472 34.462 79.649 34.462 79.649 45.807 77.419 45.807 77.419 34.462 75.595 34.462 75.595 32.658"></polyline>
            <polyline id="Fill-197" fill="#FFFFFE" points="86.865 40.008 84.731 40.008 84.731 45.807 82.52 45.807 82.52 32.658 84.731 32.658 84.731 38.224 86.865 38.224 86.865 32.658 89.095 32.658 89.095 45.807 86.865 45.807 86.865 40.008"></polyline>
            <polyline id="Fill-198" fill="#FFFFFE" points="90.551 32.658 95.827 32.658 95.827 34.462 92.762 34.462 92.762 38.224 94.955 38.224 94.955 40.008 92.762 40.008 92.762 44.003 95.827 44.003 95.827 45.807 90.551 45.807 90.551 32.658"></polyline>
            <path d="M102.889,38.787 L106.032,38.787 L106.032,45.807 L104.441,45.807 L104.441,44.372 C104.15,45.361 103.53,45.962 102.327,45.962 C100.426,45.962 99.553,44.45 99.553,42.413 L99.553,36.052 C99.553,33.996 100.543,32.503 102.87,32.503 C105.314,32.503 106.032,33.86 106.032,35.8 L106.032,36.963 L104.014,36.963 L104.014,35.625 C104.014,34.81 103.704,34.345 102.909,34.345 C102.114,34.345 101.764,34.908 101.764,35.703 L101.764,42.762 C101.764,43.558 102.094,44.12 102.851,44.12 C103.568,44.12 103.937,43.712 103.937,42.859 L103.937,40.532 L102.889,40.532 L102.889,38.787" id="Fill-199" fill="#FFFFFE"></path>
            <path d="M111.755,42.762 L111.755,35.703 C111.755,34.908 111.406,34.345 110.61,34.345 C109.835,34.345 109.485,34.908 109.485,35.703 L109.485,42.762 C109.485,43.558 109.835,44.12 110.61,44.12 C111.406,44.12 111.755,43.558 111.755,42.762 Z M107.274,42.413 L107.274,36.052 C107.274,33.996 108.283,32.503 110.61,32.503 C112.957,32.503 113.965,33.996 113.965,36.052 L113.965,42.413 C113.965,44.45 112.957,45.962 110.61,45.962 C108.283,45.962 107.274,44.45 107.274,42.413 Z" id="Fill-200" fill="#FFFFFE"></path>
            <path d="M117.362,41.637 L119.127,41.637 L118.254,36.362 L118.235,36.362 L117.362,41.637 Z M114.589,45.807 L117.071,32.658 L119.592,32.658 L122.094,45.807 L119.825,45.807 L119.418,43.402 L117.071,43.402 L116.683,45.807 L114.589,45.807 Z" id="Fill-201" fill="#FFFFFE"></path>
            <polyline id="Fill-202" fill="#FFFFFE" points="123.181 32.658 125.392 32.658 125.392 44.003 128.03 44.003 128.03 45.807 123.181 45.807 123.181 32.658"></polyline>
            <path d="M128.827,42.976 L128.827,41.211 L130.882,41.211 L130.882,43.014 C130.882,43.751 131.213,44.178 131.969,44.178 C132.667,44.178 132.977,43.712 132.977,43.014 L132.977,42.51 C132.977,41.754 132.667,41.288 131.988,40.648 L130.689,39.349 C129.428,38.108 128.846,37.351 128.846,35.839 L128.846,35.393 C128.846,33.764 129.797,32.503 131.95,32.503 C134.161,32.503 135.033,33.589 135.033,35.49 L135.033,36.556 L133.016,36.556 L133.016,35.412 C133.016,34.656 132.667,34.287 131.969,34.287 C131.348,34.287 130.922,34.636 130.922,35.373 L130.922,35.644 C130.922,36.382 131.329,36.808 131.969,37.429 L133.384,38.825 C134.588,40.047 135.169,40.784 135.169,42.239 L135.169,42.878 C135.169,44.682 134.199,45.962 131.95,45.962 C129.7,45.962 128.827,44.702 128.827,42.976" id="Fill-203" fill="#FFFFFE"></path>
        </g>
    </g>
</svg>