<?xml version="1.0" encoding="UTF-8"?>
<svg width="162px" height="161px" viewBox="0 0 162 161" version="1.1" xmlns="http://www.w3.org/2000/svg" xmlns:xlink="http://www.w3.org/1999/xlink">
    <!-- Generator: Sketch 49 (51002) - http://www.bohemiancoding.com/sketch -->
    <title>3</title>
    <desc>Created with Sketch.</desc>
    <defs></defs>
    <g id="Page-1" stroke="none" stroke-width="1" fill="none" fill-rule="evenodd">
        <g id="3" fill-rule="nonzero">
            <rect id="Rectangle-path" fill="#4CA046" x="0.4" y="0.1" width="160.9" height="160.9"></rect>
            <path d="M23.3,46.5 C28.8,46.5 31.2,43.6 31.2,39.1 L31.2,34.3 C31.2,31.3 29.9,29.4 27.2,28.8 C29.4,28.1 30.9,26.3 30.9,23.5 L30.9,20.7 C30.9,16.1 28.7,13.3 23.7,13.3 C18.1,13.3 16.1,16.6 16.1,21.4 L16.1,24.3 L21.1,24.3 L21.1,21 C21.1,19 21.7,17.8 23.4,17.8 C25.1,17.8 25.7,18.9 25.7,20.7 L25.7,24.2 C25.7,25.9 24.6,26.8 22.8,26.8 L20.7,26.8 L20.7,31 L23,31 C24.9,31 25.7,31.9 25.7,33.6 L25.7,39 C25.7,40.7 24.9,41.9 23.3,41.9 C21.4,41.9 20.8,40.7 20.8,38.7 L20.8,34.1 L15.8,34.1 L15.8,38.4 C15.8,43.4 17.8,46.5 23.3,46.5" id="Shape" fill="#FFFFFF"></path>
            <g id="Group" transform="translate(27.000000, 60.000000)" fill="#FFFFFF">
                <path d="M107.9,40.7 C107.9,36.2 105,32.5 100.6,32.5 C98.4,32.5 95.7,34.9 94.3,36.4 C92.9,34.9 90.4,32.5 88.2,32.5 C83.8,32.5 80.7,36.2 80.7,40.7 C80.7,43 81.6,45 83,46.5 L94.3,57.8 L105.6,46.5 C107,45 107.9,43 107.9,40.7 Z" id="Shape"></path>
                <path d="M59.9,76.3 C59.9,76.3 59.8,76.3 59.8,76.3 C58.9,76.2 58.2,75.6 58.1,74.8 L52.4,41.4 L43.7,57.5 C43.3,58.2 42.5,58.6 41.7,58.4 C40.9,58.3 40.3,57.6 40.2,56.8 L36.5,31 L29.8,46.1 C29.5,46.8 28.8,47.2 28.1,47.2 L1.9,47.2 C0.9,47.2 5.68434189e-14,46.4 5.68434189e-14,45.3 C5.68434189e-14,44.3 0.8,43.4 1.9,43.4 L26.9,43.4 L35.8,23.5 C36.1,22.7 36.9,22.3 37.7,22.4 C38.5,22.5 39.2,23.2 39.3,24 L43.1,50.6 L51.7,34.7 C52.1,34 52.8,33.6 53.6,33.8 C54.4,33.9 55,34.5 55.1,35.3 L60.4,66.2 L79.7,2 C79.9,1.3 80.6,0.7 81.3,0.7 C82.1,0.6 82.8,1.1 83.1,1.7 L93.3,22.8 C93.7,23.7 93.4,24.8 92.4,25.3 C91.5,25.7 90.4,25.4 89.9,24.4 L81.8,7.6 L61.6,74.8 C61.4,75.7 60.7,76.3 59.9,76.3 Z" id="Shape"></path>
            </g>
        </g>
    </g>
</svg>