<?xml version="1.0" encoding="UTF-8"?>
<svg width="41px" height="59px" viewBox="0 0 41 59" version="1.1" xmlns="http://www.w3.org/2000/svg" xmlns:xlink="http://www.w3.org/1999/xlink">
    <!-- Generator: Sketch 49.1 (51147) - http://www.bohemiancoding.com/sketch -->
    <title>icon_4</title>
    <desc>Created with Sketch.</desc>
    <defs>
        <filter x="-39.5%" y="-352.1%" width="179.0%" height="804.3%" filterUnits="objectBoundingBox" id="filter-1">
            <feGaussianBlur stdDeviation="3.55698529" in="SourceGraphic"></feGaussianBlur>
        </filter>
        <path d="M0,17.5592888 C0,29.5752038 15.9204755,47.2152692 16.5983038,47.9603453 C17.2349732,48.6602509 18.3464582,48.6591146 18.9819762,47.9603453 C19.6598046,47.2152692 35.5802801,29.5752038 35.5802801,17.5592888 C35.5801841,7.87708717 27.5995588,0 17.7900921,0 C7.98062536,0 0,7.87708717 0,17.5592888 Z" id="path-2"></path>
    </defs>
    <g id="Inner-pages" stroke="none" stroke-width="1" fill="none" fill-rule="evenodd">
        <g id="Map-Icons" transform="translate(-830.000000, -723.000000)">
            <g id="icon_4" transform="translate(834.000000, 723.000000)">
                <ellipse id="Oval" fill="#5D5D5D" filter="url(#filter-1)" cx="16.5" cy="48.4848485" rx="13.5" ry="1.51515152"></ellipse>
                <g id="Group-7">
                    <g id="maps-and-flags">
                        <use fill="#7173B7" fill-rule="evenodd" xlink:href="#path-2"></use>
                        <path stroke="#6263A4" stroke-width="3.6" d="M17.9298143,46.7491145 C17.9298179,46.7491185 17.9298216,46.7491225 17.9298252,46.7491266 C17.9298216,46.7491225 17.9298179,46.7491185 17.9298143,46.7491145 Z M17.7901402,46.5944573 C17.9776508,46.3855345 18.2277731,46.1022895 18.5295842,45.7540633 C19.1247828,45.06733 19.7756572,44.2947426 20.4667011,43.4477145 C22.3877977,41.0929828 24.2881269,38.5724332 26.0446971,35.9773911 C30.8958116,28.8106712 33.7802801,22.3722742 33.7802801,17.5593067 C33.780194,8.87649292 26.6106594,1.8 17.7900921,1.8 C8.96951435,1.8 1.8,8.87649926 1.8,17.5592888 C1.8,22.3722742 4.6844685,28.8106712 9.53558299,35.9773911 C11.2921532,38.5724332 13.1924823,41.0929828 15.113579,43.4477145 C15.8046228,44.2947426 16.4554973,45.06733 17.0506959,45.7540633 C17.3524911,46.1022712 17.602603,46.3855047 17.7901402,46.5944573 Z"></path>
                    </g>
                    <path d="M24.7021484,16.5562744 L22.3865967,17.6279297 L19.4204102,11.6600342 L14.5263672,18.489502 L11.949408,16.8389381 L6.80883789,24.9621582 L28.8088379,24.9621582 L24.7021484,16.5562744 Z M10.0437012,21.6083984 L12.0906055,18.2412109 L12.8706055,18.7412109 L10.0437012,21.6083984 Z M17.4810997,21 L19.5498282,18.5307263 L17,18.5307263 L18.9532646,14 L21.6233677,18.5307263 L24,17.972067 L17.4810997,21 Z" id="Shape" fill="#FFFFFF" fill-rule="nonzero"></path>
                </g>
            </g>
        </g>
    </g>
</svg>