<?xml version="1.0" encoding="UTF-8"?>
<svg width="41px" height="59px" viewBox="0 0 41 59" version="1.1" xmlns="http://www.w3.org/2000/svg" xmlns:xlink="http://www.w3.org/1999/xlink">
    <!-- Generator: Sketch 49.1 (51147) - http://www.bohemiancoding.com/sketch -->
    <title>icon_2</title>
    <desc>Created with Sketch.</desc>
    <defs>
        <filter x="-39.5%" y="-352.1%" width="179.0%" height="804.3%" filterUnits="objectBoundingBox" id="filter-1">
            <feGaussianBlur stdDeviation="3.55698529" in="SourceGraphic"></feGaussianBlur>
        </filter>
        <path d="M0,17.5592888 C0,29.5752038 15.9204755,47.2152692 16.5983038,47.9603453 C17.2349732,48.6602509 18.3464582,48.6591146 18.9819762,47.9603453 C19.6598046,47.2152692 35.5802801,29.5752038 35.5802801,17.5592888 C35.5801841,7.87708717 27.5995588,0 17.7900921,0 C7.98062536,0 0,7.87708717 0,17.5592888 Z" id="path-2"></path>
    </defs>
    <g id="Inner-pages" stroke="none" stroke-width="1" fill="none" fill-rule="evenodd">
        <g id="Map-Icons" transform="translate(-730.000000, -646.000000)">
            <g id="icon_2" transform="translate(734.000000, 646.000000)">
                <g id="Group-13">
                    <g id="Group-5">
                        <ellipse id="Oval" fill="#5D5D5D" filter="url(#filter-1)" cx="16.5" cy="48.4848485" rx="13.5" ry="1.51515152"></ellipse>
                        <g id="Group-7">
                            <g id="maps-and-flags">
                                <use fill="#7173B7" fill-rule="evenodd" xlink:href="#path-2"></use>
                                <path stroke="#6263A4" stroke-width="3.6" d="M17.9298143,46.7491145 C17.9298179,46.7491185 17.9298216,46.7491225 17.9298252,46.7491266 C17.9298216,46.7491225 17.9298179,46.7491185 17.9298143,46.7491145 Z M17.7901402,46.5944573 C17.9776508,46.3855345 18.2277731,46.1022895 18.5295842,45.7540633 C19.1247828,45.06733 19.7756572,44.2947426 20.4667011,43.4477145 C22.3877977,41.0929828 24.2881269,38.5724332 26.0446971,35.9773911 C30.8958116,28.8106712 33.7802801,22.3722742 33.7802801,17.5593067 C33.780194,8.87649292 26.6106594,1.8 17.7900921,1.8 C8.96951435,1.8 1.8,8.87649926 1.8,17.5592888 C1.8,22.3722742 4.6844685,28.8106712 9.53558299,35.9773911 C11.2921532,38.5724332 13.1924823,41.0929828 15.113579,43.4477145 C15.8046228,44.2947426 16.4554973,45.06733 17.0506959,45.7540633 C17.3524911,46.1022712 17.602603,46.3855047 17.7901402,46.5944573 Z"></path>
                            </g>
                        </g>
                    </g>
                </g>
                <path d="M18.5,14.777227 C16.6612515,14.777227 15.1706514,13.260093 15.1706514,11.3886135 C15.1706514,9.51713394 16.6612515,8 18.5,8 C20.3387485,8 21.8293486,9.51713394 21.8293486,11.3886135 C21.8293486,13.260093 20.3387485,14.777227 18.5,14.777227 Z M24.9208867,16.7135775 C23.4761557,16.7135775 22.3049699,15.5215437 22.3049699,14.0510955 C22.3049699,12.5806473 23.4761557,11.3886135 24.9208867,11.3886135 C26.3656176,11.3886135 27.5368034,12.5806473 27.5368034,14.0510955 C27.5368034,15.5215437 26.3656176,16.7135775 24.9208867,16.7135775 Z M24.7831702,23.8107326 C24.5768904,22.7203801 24.3253004,21.651432 24.0284001,20.6038883 C23.7314999,19.5563446 23.3973884,18.5587806 23.0260655,17.6111961 C23.693417,17.7753201 24.3453834,17.8387463 24.981965,17.8014747 C25.6185465,17.7642031 26.1857852,17.6293929 26.6836811,17.3970441 C26.9734473,17.8275217 27.227708,18.25555 27.4464633,18.6811291 C27.6652185,19.1067081 27.8497308,19.5322939 28,19.9578866 C27.5118933,20.7843703 27.0193962,21.4951771 26.5225086,22.0903068 C26.0256211,22.6854366 25.4458416,23.2589118 24.7831702,23.8107326 Z M12.0791133,16.7135775 C10.6343824,16.7135775 9.46319656,15.5215437 9.46319656,14.0510955 C9.46319656,12.5806473 10.6343824,11.3886135 12.0791133,11.3886135 C13.5238443,11.3886135 14.6950301,12.5806473 14.6950301,14.0510955 C14.6950301,15.5215437 13.5238443,16.7135775 12.0791133,16.7135775 Z M12.2168298,23.8107326 C11.5541584,23.2589118 10.9743789,22.6854366 10.4774914,22.0903068 C9.98060383,21.4951771 9.48810671,20.7843703 9,19.9578866 C9.15026924,19.5322939 9.33478148,19.1067081 9.55353672,18.6811291 C9.77229196,18.25555 10.0265527,17.8275217 10.3163189,17.3970441 C10.8142148,17.6293929 11.3814535,17.7642031 12.018035,17.8014747 C12.6546166,17.8387463 13.306583,17.7753201 13.9739345,17.6111961 C13.6026116,18.5587806 13.2685001,19.5563446 12.9715999,20.6038883 C12.6746996,21.651432 12.4231096,22.7203801 12.2168298,23.8107326 Z M16.2513659,15.3994734 C16.8934236,15.7303139 17.5919536,15.8957342 18.3469559,15.8957342 C19.1019581,15.8957342 19.8589344,15.7303139 20.6178847,15.3994734 C21.2101121,16.4633302 21.7958523,17.8324694 22.3751054,19.5068909 C22.9543585,21.1813124 23.4191807,22.848988 23.7695721,24.5099177 C21.6694148,25.5033059 19.7920502,26 18.1374782,26 C16.4829061,26 14.8620859,25.5033059 13.2750174,24.5099177 C13.6228069,22.7941673 14.0364209,21.2025244 14.5158593,19.7349888 C14.9952978,18.2674532 15.5738,16.8222814 16.2513659,15.3994734 Z" id="Combined-Shape" fill="#FFFFFF"></path>
            </g>
        </g>
    </g>
</svg>