<?xml version="1.0" encoding="UTF-8"?>
<svg width="162px" height="161px" viewBox="0 0 162 161" version="1.1" xmlns="http://www.w3.org/2000/svg" xmlns:xlink="http://www.w3.org/1999/xlink">
    <!-- Generator: Sketch 49 (51002) - http://www.bohemiancoding.com/sketch -->
    <title>16</title>
    <desc>Created with Sketch.</desc>
    <defs></defs>
    <g id="Page-1" stroke="none" stroke-width="1" fill="none" fill-rule="evenodd">
        <g id="16" fill-rule="nonzero">
            <rect id="Rectangle-path" fill="#07699E" x="0.6" y="0.1" width="160.9" height="160.9"></rect>
            <polygon id="Shape" fill="#FFFFFF" points="13 19.5 13 25.1 13 25.1 16.8 21.2 16.9 21.2 16.9 46 22.3 46 22.3 13.6 18 13.6"></polygon>
            <path d="M41.4,38.2 L41.4,33.4 C41.4,28.1 39.3,25.4 35.4,25.4 C33.1,25.4 31.7,26.5 30.9,28 L30.9,21 C30.9,19 31.5,17.6 33.5,17.6 C35.5,17.6 36,18.7 36,20.8 L36,23 L41,23 L41,21.3 C41,16.5 39.4,13.2 33.4,13.2 C27.7,13.2 25.5,16.9 25.5,22 L25.5,37.8 C25.5,42.8 27.7,46.5 33.4,46.5 C39.2,46.4 41.4,43.2 41.4,38.2 Z M36,38.7 C36,40.8 35.2,42 33.4,42 C31.6,42 30.9,40.8 30.9,38.7 L30.9,32.8 C31,31 31.8,29.8 33.5,29.8 C35.4,29.8 36.1,30.9 36.1,33.1 L36.1,38.7 L36,38.7 Z" id="Shape" fill="#FFFFFF"></path>
            <g id="Group" transform="translate(44.000000, 70.000000)" fill="#FFFFFF">
                <path d="M65.1,1.2 C65.1,1.2 63.6,3.2 64,5.2 C64.4,7.2 66.7,8.3 66.7,8.3 C66.7,8.3 68.2,6.3 67.8,4.3 C67.4,2.3 65.1,1.2 65.1,1.2" id="Shape"></path>
                <path d="M62.6,12.7 C62.6,12.7 64.1,10.7 63.7,8.7 C63.3,6.7 61,5.6 61,5.6 C61,5.6 59.5,7.6 59.9,9.6 C60.4,11.5 62.6,12.7 62.6,12.7" id="Shape"></path>
                <path d="M68.9,10.5 C68.9,10.5 70.5,12.1 72.3,12 C74.1,11.8 75.5,10 75.5,10 C75.5,10 73.9,8.4 72.1,8.5 C70.3,8.7 68.9,10.5 68.9,10.5" id="Shape"></path>
                <path d="M71.5,1.9 C70,3.4 70.2,6.1 70.2,6.1 C70.2,6.1 72.8,6.3 74.3,4.8 C75.8,3.3 75.6,0.6 75.6,0.6 C75.6,0.6 73,0.4 71.5,1.9" id="Shape"></path>
                <path d="M68.2,16.6 C70,16.8 71.7,15.2 71.7,15.2 C71.7,15.2 70.5,13.3 68.6,13.1 C66.8,12.9 65.1,14.5 65.1,14.5 C65.1,14.5 66.4,16.3 68.2,16.6" id="Shape"></path>
                <path d="M69.9,45.9 L56.3,45.9 C55.2,45.9 54.4,46.8 54.4,47.8 C54.4,48.9 55.3,49.7 56.3,49.7 L69.9,49.7 C71,49.7 71.8,48.8 71.8,47.8 C71.8,46.7 70.9,45.9 69.9,45.9" id="Shape"></path>
                <path d="M69.9,67.1 L56.3,67.1 C55.2,67.1 54.4,68 54.4,69 C54.4,70.1 55.3,70.9 56.3,70.9 L69.9,70.9 C71,70.9 71.8,70 71.8,69 C71.8,68 70.9,67.1 69.9,67.1" id="Shape"></path>
                <path d="M8.6,41.2 C8.3,41.1 8,41 7.7,41 C7.6,41 8,41.1 8.6,41.2" id="Shape"></path>
                <path d="M69.4,51.1 L56.8,51.1 C56.2,51.1 55.7,51.6 55.7,52.2 L55.7,56 L47.5,56.9 L35.5,56.6 L35.5,49.2 C37.1,49 38.7,48.7 40.3,48.2 C51.9,44.9 54.4,37.7 54.2,31.1 C53.9,24.3 56.1,21.7 59.2,20.6 C60.1,20.3 61,20.1 61.8,19.9 C61.8,21.6 62.2,23.5 62.9,25.8 C63.2,25.8 63.4,25.8 63.7,25.7 C62.9,23.3 62.6,21.4 62.6,19.8 C64.2,19.6 65.4,19.7 65.4,19.7 C65.4,19.7 64.3,19.1 62.8,17.8 C63.3,14.6 65.2,12.6 67.2,10.6 C68.3,9.5 69.4,8.4 70.3,7 L69.6,6.6 C68.8,7.9 67.7,9 66.6,10.1 C64.7,12.1 62.8,14.1 62.1,17.2 C61.5,16.6 60.8,16 60.1,15.2 C57.2,12 53.6,14.3 48.3,19.2 C43,24.1 36.4,24.3 30,17.7 C21.5,9 14.1,9 9,9.5 C12.5,11 13.7,14.2 15.5,22.5 C17.3,31.2 22,35.1 28.4,35.6 C25.4,36.1 24.7,36.5 19.9,39.8 C16.2,42.4 11,41.6 8.9,41.1 C12.8,42.3 17.4,46.4 21.5,47.8 C23.9,48.6 26.4,49.1 29,49.3 L29,56.3 L6.1,55.8 L6.1,60.7 L47.7,59.8 L55.9,60.7 L55.9,64.5 C55.9,65.1 56.4,65.6 57,65.6 L69.6,65.6 C70.2,65.6 70.7,65.1 70.7,64.5 L70.7,52 C70.5,51.6 70,51.1 69.4,51.1 Z M30.7,49.5 C31.6,49.5 32.5,49.5 33.4,49.4 L33.4,56.5 L30.7,56.4 L30.7,49.5 Z" id="Shape"></path>
                <path d="M4.6,60.1 C4.6,61.1 3.9,62 3,62 L2,62 C1.1,62 0.4,61.2 0.4,60.1 L0.4,56.7 C0.4,55.7 1.1,54.8 2,54.8 L3,54.8 C3.9,54.8 4.6,55.6 4.6,56.7 L4.6,60.1 Z" id="Shape"></path>
            </g>
        </g>
    </g>
</svg>