<?xml version="1.0" encoding="UTF-8"?>
<svg width="41px" height="59px" viewBox="0 0 41 59" version="1.1" xmlns="http://www.w3.org/2000/svg" xmlns:xlink="http://www.w3.org/1999/xlink">
    <!-- Generator: Sketch 49.1 (51147) - http://www.bohemiancoding.com/sketch -->
    <title>icon_1</title>
    <desc>Created with Sketch.</desc>
    <defs>
        <filter x="-39.5%" y="-352.1%" width="179.0%" height="804.3%" filterUnits="objectBoundingBox" id="filter-1">
            <feGaussianBlur stdDeviation="3.55698529" in="SourceGraphic"></feGaussianBlur>
        </filter>
        <path d="M0,17.5592888 C0,29.5752038 15.9204755,47.2152692 16.5983038,47.9603453 C17.2349732,48.6602509 18.3464582,48.6591146 18.9819762,47.9603453 C19.6598046,47.2152692 35.5802801,29.5752038 35.5802801,17.5592888 C35.5801841,7.87708717 27.5995588,0 17.7900921,0 C7.98062536,0 0,7.87708717 0,17.5592888 Z" id="path-2"></path>
    </defs>
    <g id="Inner-pages" stroke="none" stroke-width="1" fill="none" fill-rule="evenodd">
        <g id="Map-Icons" transform="translate(-650.000000, -616.000000)">
            <g id="icon_1" transform="translate(654.000000, 616.000000)">
                <g id="Group-5">
                    <ellipse id="Oval" fill="#5D5D5D" filter="url(#filter-1)" cx="16.5" cy="48.4848485" rx="13.5" ry="1.51515152"></ellipse>
                    <g id="Group-6">
                        <g id="maps-and-flags">
                            <use fill="#7173B7" fill-rule="evenodd" xlink:href="#path-2"></use>
                            <path stroke="#6263A4" stroke-width="3.6" d="M17.9298143,46.7491145 C17.9298179,46.7491185 17.9298216,46.7491225 17.9298252,46.7491266 C17.9298216,46.7491225 17.9298179,46.7491185 17.9298143,46.7491145 Z M17.7901402,46.5944573 C17.9776508,46.3855345 18.2277731,46.1022895 18.5295842,45.7540633 C19.1247828,45.06733 19.7756572,44.2947426 20.4667011,43.4477145 C22.3877977,41.0929828 24.2881269,38.5724332 26.0446971,35.9773911 C30.8958116,28.8106712 33.7802801,22.3722742 33.7802801,17.5593067 C33.780194,8.87649292 26.6106594,1.8 17.7900921,1.8 C8.96951435,1.8 1.8,8.87649926 1.8,17.5592888 C1.8,22.3722742 4.6844685,28.8106712 9.53558299,35.9773911 C11.2921532,38.5724332 13.1924823,41.0929828 15.113579,43.4477145 C15.8046228,44.2947426 16.4554973,45.06733 17.0506959,45.7540633 C17.3524911,46.1022712 17.602603,46.3855047 17.7901402,46.5944573 Z"></path>
                        </g>
                    </g>
                </g>
                <g id="Group-11" transform="translate(7.000000, 8.000000)" fill="#FFFFFF">
                    <g id="Group-9">
                        <path d="M6.19316716,5.08379834 C6.32196574,2.2541296 8.62999429,0 11.4583333,0 C14.3693342,0 16.7291667,2.38781467 16.7291667,5.33333333 C16.7291667,6.04681894 16.5907055,6.72758173 16.3394887,7.34961127 C16.149198,7.92578775 15.8549747,8.53809181 15.4568189,9.18652344 C14.4456965,10.8332248 13.1131361,12.5801866 11.4591376,14.4274089 C8.73588256,11.5664449 7.06708559,9.25855647 6.45274671,7.50374349 C6.16974338,6.69536568 6.08321686,5.8887173 6.19316716,5.08379834 Z M11.2936198,9 C13.2039641,9 14.7526042,7.43299662 14.7526042,5.5 C14.7526042,3.56700338 13.2039641,2 11.2936198,2 C9.38327547,2 7.83463542,3.56700338 7.83463542,5.5 C7.83463542,7.43299662 9.38327547,9 11.2936198,9 Z" id="Combined-Shape"></path>
                        <path d="M6.27755468,10.0000001 C6.4656639,10.3331356 6.78599014,10.9004233 7.23853338,11.7018632 C5.88842186,12.1897808 5.01713308,12.8947369 5.01713308,13.6787082 C5.01713308,15.1514675 8.09199329,16.3453748 11.6397756,16.3453748 C15.1875579,16.3453748 17.8936625,15.1514675 17.8936625,13.6787082 C17.8936625,12.8786767 17.0951253,12.160931 15.7969134,11.6721517 L16.6623126,10.093391 C18.7943697,10.901048 20.194746,12.1584835 20.194746,13.5120415 C20.194746,15.8176242 16.9927244,18.2024712 11.3103485,18.2024712 C5.6279726,18.2024712 2.56380208,16.1639895 2.56380208,13.6787082 C2.56380208,12.1582591 4.03291285,10.8143266 6.27755462,10 Z" id="Combined-Shape"></path>
                        <path d="M5.14015131,8.52716607 C5.26215746,8.71608376 5.45085773,9.05147815 5.70625212,9.53334922 C3.18687885,10.432537 1.63069603,11.9693141 1.63069603,13.8389708 C1.63069603,16.858131 6.32430421,19.0373135 11.3075969,19.0373135 C16.2908896,19.0373135 20.8904261,16.858131 20.8904261,13.8389708 C20.8904261,11.9814803 19.3900374,10.4525513 16.9269379,9.55098366 L17.4978697,8.61038015 C20.1722636,9.80697865 21.8905395,11.6995232 21.8905395,13.6648526 C21.8905395,16.9330639 17.1389113,20 11.1405034,20 C5.14209552,20 0.626176836,17.3278247 0.626176836,13.9100029 C0.626176836,11.7834681 2.37438149,9.75578292 5.14015131,8.52716607 Z" id="Combined-Shape" transform="translate(11.258358, 14.263583) rotate(-360.000000) translate(-11.258358, -14.263583) "></path>
                    </g>
                </g>
            </g>
        </g>
    </g>
</svg>