<?xml version="1.0" encoding="UTF-8"?>
<svg width="41px" height="62px" viewBox="0 0 41 62" version="1.1" xmlns="http://www.w3.org/2000/svg" xmlns:xlink="http://www.w3.org/1999/xlink">
    <!-- Generator: Sketch 49.1 (51147) - http://www.bohemiancoding.com/sketch -->
    <title>icon_3</title>
    <desc>Created with Sketch.</desc>
    <defs>
        <path d="M0,17.549255 C0,29.5583037 15.9204755,47.188289 16.5983038,47.9329394 C17.2349732,48.6324451 18.3464582,48.6313094 18.9819762,47.9329394 C19.6598046,47.188289 35.5802801,29.5583037 35.5802801,17.549255 C35.5801841,7.87258597 27.5995588,0 17.7900921,0 C7.98062536,0 0,7.87258597 0,17.549255 Z" id="path-1"></path>
        <filter x="-39.5%" y="-352.3%" width="179.0%" height="804.7%" filterUnits="objectBoundingBox" id="filter-2">
            <feGaussianBlur stdDeviation="3.55698529" in="SourceGraphic"></feGaussianBlur>
        </filter>
    </defs>
    <g id="Inner-pages" stroke="none" stroke-width="1" fill="none" fill-rule="evenodd">
        <g id="Map-Icons" transform="translate(-812.000000, -609.000000)">
            <g id="icon_3" transform="translate(816.000000, 609.000000)">
                <g id="Group-8">
                    <g id="maps-and-flags">
                        <use fill="#7173B7" fill-rule="evenodd" xlink:href="#path-1"></use>
                        <path stroke="#6263A4" stroke-width="3.6" d="M17.9294695,46.7213298 C17.9294732,46.7213338 17.9294769,46.7213378 17.9294805,46.7213418 C17.9294769,46.7213378 17.9294732,46.7213338 17.9294695,46.7213298 Z M17.7901402,46.5671448 C17.9776858,46.3583079 18.227926,46.0750953 18.5299178,45.7268597 C19.1251116,45.0405243 19.7759811,44.2683843 20.4670198,43.4218465 C22.3881005,41.0684799 24.2884132,38.5493925 26.0449649,35.9558605 C30.8959153,28.7934781 33.7802801,22.3589917 33.7802801,17.5492728 C33.780194,8.87222541 26.6108863,1.8 17.7900921,1.8 C8.96928747,1.8 1.8,8.87223174 1.8,17.549255 C1.8,22.3589917 4.68436473,28.7934781 9.53531519,35.9558605 C11.2918669,38.5493925 13.1921796,41.0684799 15.1132603,43.4218465 C15.804299,44.2683843 16.4551685,45.0405243 17.0503623,45.7268597 C17.3523382,46.075077 17.6025679,46.358278 17.7901402,46.5671448 Z"></path>
                    </g>
                    <path d="M21.6,15.7934392 L21.6,10.768254 L14.4,10.768254 L14.4,15.7934392 L10.8,15.7934392 L10.8,25.1259259 L14.4,25.1259259 L14.832,25.1259259 L16.56,25.1259259 L16.56,21.5365079 L19.44,21.5365079 L19.44,25.1259259 L21.528,25.1259259 L21.6,25.1259259 L25.2,25.1259259 L25.2,15.7934392 L21.6,15.7934392 Z M14,21.9353322 L12.4,21.9353322 L12.4,20.3400353 L14,20.3400353 L14,21.9353322 Z M14,18.7447384 L12.4,18.7447384 L12.4,17.1494415 L14,17.1494415 L14,18.7447384 Z M18.8,17.1494415 L17.2,17.1494415 L17.2,15.5541446 L15.6,15.5541446 L15.6,13.9588477 L17.2,13.9588477 L17.2,12.3635509 L18.8,12.3635509 L18.8,13.9588477 L20.4,13.9588477 L20.4,15.5541446 L18.8,15.5541446 L18.8,17.1494415 Z M23.6,21.9353322 L22,21.9353322 L22,20.3400353 L23.6,20.3400353 L23.6,21.9353322 Z M23.6,18.7447384 L22,18.7447384 L22,17.1494415 L23.6,17.1494415 L23.6,18.7447384 Z" id="Shape" fill="#FFFFFF" fill-rule="nonzero"></path>
                </g>
                <ellipse id="Oval" fill="#5D5D5D" filter="url(#filter-2)" cx="16.5" cy="51.4857143" rx="13.5" ry="1.51428571"></ellipse>
            </g>
        </g>
    </g>
</svg>