<?xml version="1.0" encoding="UTF-8"?>
<svg width="22px" height="20px" viewBox="0 0 22 20" version="1.1" xmlns="http://www.w3.org/2000/svg" xmlns:xlink="http://www.w3.org/1999/xlink">
    <!-- Generator: Sketch 49 (51002) - http://www.bohemiancoding.com/sketch -->
    <title>Group 9</title>
    <desc>Created with Sketch.</desc>
    <defs></defs>
    <g id="Inner-pages" stroke="none" stroke-width="1" fill="none" fill-rule="evenodd">
        <g id="Map-Icons" transform="translate(-661.000000, -624.000000)" fill="#282710">
            <g id="Group-9" transform="translate(661.000000, 624.000000)">
                <path d="M6.19316716,5.08379834 C6.32196574,2.2541296 8.62999429,0 11.4583333,0 C14.3693342,0 16.7291667,2.38781467 16.7291667,5.33333333 C16.7291667,6.04681894 16.5907055,6.72758173 16.3394887,7.34961127 C16.149198,7.92578775 15.8549747,8.53809181 15.4568189,9.18652344 C14.4456965,10.8332248 13.1131361,12.5801866 11.4591376,14.4274089 C8.73588256,11.5664449 7.06708559,9.25855647 6.45274671,7.50374349 C6.16974338,6.69536568 6.08321686,5.8887173 6.19316716,5.08379834 Z M11.2936198,9 C13.2039641,9 14.7526042,7.43299662 14.7526042,5.5 C14.7526042,3.56700338 13.2039641,2 11.2936198,2 C9.38327547,2 7.83463542,3.56700338 7.83463542,5.5 C7.83463542,7.43299662 9.38327547,9 11.2936198,9 Z" id="Combined-Shape"></path>
                <path d="M6.27755468,10.0000001 C6.4656639,10.3331356 6.78599014,10.9004233 7.23853338,11.7018632 C5.88842186,12.1897808 5.01713308,12.8947369 5.01713308,13.6787082 C5.01713308,15.1514675 8.09199329,16.3453748 11.6397756,16.3453748 C15.1875579,16.3453748 17.8936625,15.1514675 17.8936625,13.6787082 C17.8936625,12.8786767 17.0951253,12.160931 15.7969134,11.6721517 L16.6623126,10.093391 C18.7943697,10.901048 20.194746,12.1584835 20.194746,13.5120415 C20.194746,15.8176242 16.9927244,18.2024712 11.3103485,18.2024712 C5.6279726,18.2024712 2.56380208,16.1639895 2.56380208,13.6787082 C2.56380208,12.1582591 4.03291285,10.8143266 6.27755462,10 Z" id="Combined-Shape"></path>
                <path d="M5.14015131,8.52716607 C5.26215746,8.71608376 5.45085773,9.05147815 5.70625212,9.53334922 C3.18687885,10.432537 1.63069603,11.9693141 1.63069603,13.8389708 C1.63069603,16.858131 6.32430421,19.0373135 11.3075969,19.0373135 C16.2908896,19.0373135 20.8904261,16.858131 20.8904261,13.8389708 C20.8904261,11.9814803 19.3900374,10.4525513 16.9269379,9.55098366 L17.4978697,8.61038015 C20.1722636,9.80697865 21.8905395,11.6995232 21.8905395,13.6648526 C21.8905395,16.9330639 17.1389113,20 11.1405034,20 C5.14209552,20 0.626176836,17.3278247 0.626176836,13.9100029 C0.626176836,11.7834681 2.37438149,9.75578292 5.14015131,8.52716607 Z" id="Combined-Shape" transform="translate(11.258358, 14.263583) rotate(-360.000000) translate(-11.258358, -14.263583) "></path>
            </g>
        </g>
    </g>
</svg>