<svg xmlns="http://www.w3.org/2000/svg" viewBox="0 0 170.01 166.52"><defs><style>.a{fill:#5A78A3;}</style></defs><path class="a" d="M81.32,30.82a2.21,2.21,0,0,0-1.57-.65h-.22a51.64,51.64,0,0,0-31.47,15,2.2,2.2,0,0,0-.63,1.68,2.26,2.26,0,0,0,.83,1.61h0a2.18,2.18,0,0,0,1.38.49,2.21,2.21,0,0,0,1.57-.65,47.36,47.36,0,0,1,8.62-6.88.26.26,0,0,1,.4.24A5.54,5.54,0,1,0,69,37.52a.26.26,0,0,1,.06-.46A46.38,46.38,0,0,1,79.87,34.6a2.3,2.3,0,0,0,2.09-2,2.22,2.22,0,0,0-.64-1.77"/><path class="a" d="M43.49,66.36a5.51,5.51,0,0,0-3,.06.27.27,0,0,1-.33-.34,47.59,47.59,0,0,1,4.87-10,2.29,2.29,0,0,0-.36-3,2.22,2.22,0,0,0-3.36.53A51.79,51.79,0,0,0,33.5,87.58a2.2,2.2,0,0,0,2.2,1.94,2,2,0,0,0,.49,0,2.21,2.21,0,0,0,1.71-2.41,46.06,46.06,0,0,1,0-11.09.26.26,0,0,1,.44-.16,5.55,5.55,0,0,0,9.2-3.06,5.59,5.59,0,0,0-4.06-6.39"/><path class="a" d="M128.35,53.89a2.33,2.33,0,0,0-1.91-1.11,2.24,2.24,0,0,0-1.9,3.42,46.83,46.83,0,0,1,4.81,9.92.27.27,0,0,1-.33.34,5.51,5.51,0,0,0-3-.07,5.55,5.55,0,1,0,5.13,9.46.27.27,0,0,1,.45.16,48.08,48.08,0,0,1,.33,5.51,46.47,46.47,0,0,1-.36,5.78,2.21,2.21,0,0,0,1.7,2.42,2.83,2.83,0,0,0,.5,0,2.21,2.21,0,0,0,2.2-1.93,51.85,51.85,0,0,0-7.63-33.95"/><path class="a" d="M121.6,45.38A51.67,51.67,0,0,0,90.24,30.21l-.24,0a2.22,2.22,0,0,0-2.2,2.37,2.29,2.29,0,0,0,2.09,2.06,46.83,46.83,0,0,1,10.62,2.45.26.26,0,0,1,.06.46,5.55,5.55,0,1,0,8.18,6.95,5.63,5.63,0,0,0,.54-2.74.26.26,0,0,1,.4-.23,46.44,46.44,0,0,1,8.76,7,2.24,2.24,0,0,0,3.72-2.22,2.29,2.29,0,0,0-.57-.94"/><path class="a" d="M103.36,127.09a2.22,2.22,0,0,0-2-1.26,2.1,2.1,0,0,0-.74.13,46.78,46.78,0,0,1-10.82,2.47.27.27,0,0,1-.26-.4,5.53,5.53,0,0,0,.76-2.92,5.55,5.55,0,0,0-11.09.14A5.49,5.49,0,0,0,80,128a.27.27,0,0,1-.26.4,46.7,46.7,0,0,1-11-2.55,2.18,2.18,0,0,0-.76-.14,2.23,2.23,0,0,0-2,1.25,2.23,2.23,0,0,0,1.23,3.06,51.89,51.89,0,0,0,35,.09,2.23,2.23,0,0,0,1.24-3"/><path class="a" d="M133.42,96.49a2.24,2.24,0,0,0-1.94-1.15,2.22,2.22,0,0,0-2.1,1.5,46.91,46.91,0,0,1-4.8,9.93.27.27,0,0,1-.47,0,5.48,5.48,0,0,0-1.82-2.39,5.55,5.55,0,1,0-4.18,9.91.27.27,0,0,1,.15.45,47.39,47.39,0,0,1-8.72,7,2.29,2.29,0,0,0-1.1,2.39,2.24,2.24,0,0,0,2.18,1.79,2.2,2.2,0,0,0,1.15-.33,51.77,51.77,0,0,0,21.81-27.23,2.17,2.17,0,0,0-.16-1.78"/><path class="a" d="M59.87,121.59a47.12,47.12,0,0,1-8.64-6.92.27.27,0,0,1,.15-.45A5.51,5.51,0,0,0,54.11,113a5.55,5.55,0,0,0-7-8.57,5.47,5.47,0,0,0-1.69,2.29.27.27,0,0,1-.47,0,46.77,46.77,0,0,1-4.86-10.13A2.22,2.22,0,0,0,38,95.1a2,2,0,0,0-.48.06A2.2,2.2,0,0,0,36,96.24,2.28,2.28,0,0,0,35.84,98a51.85,51.85,0,0,0,21.67,27.33,2.18,2.18,0,0,0,1.16.34,2.26,2.26,0,0,0,2-1.26,2.21,2.21,0,0,0-.81-2.85"/><path class="a" d="M131.25,38.31A2.22,2.22,0,0,0,135.07,37a2.28,2.28,0,0,0-.59-1.68A68.2,68.2,0,0,0,117,21.75a.67.67,0,0,1-.28-.87l4.94-10.24a.66.66,0,0,1,.91-.3,78.94,78.94,0,0,1,7.94,4.84,2.29,2.29,0,0,0,1.05.42,2.19,2.19,0,0,0,2.25-1.23,2.22,2.22,0,0,0-.72-2.77A84.4,84.4,0,0,0,109.78.28a1.93,1.93,0,0,0-.63-.1,2.21,2.21,0,0,0-1.58,3.75,2.17,2.17,0,0,0,1,.58,80,80,0,0,1,8.36,3.1.66.66,0,0,1,.33.9L112.3,18.75a.65.65,0,0,1-.85.32,67.23,67.23,0,0,0-21.22-5.23h-.18a2.21,2.21,0,0,0-.19,4.42,63,63,0,0,1,39.78,18.39c.53.53,1.07,1.09,1.61,1.67"/><path class="a" d="M52.67,136.32a63.87,63.87,0,0,1-28.6-36.07A2.18,2.18,0,0,0,22,98.7a2.61,2.61,0,0,0-.48,0,2.22,2.22,0,0,0-1.63,2.82,67.19,67.19,0,0,0,9.87,19.74.66.66,0,0,1-.12.91l-8.9,7.07a.65.65,0,0,1-.94-.12,82.21,82.21,0,0,1-5.16-7.94A2.31,2.31,0,0,0,12.7,120a2.15,2.15,0,0,0-1.42.47,2.21,2.21,0,0,0-.57,2.8,85.29,85.29,0,0,0,16,20.36,2.21,2.21,0,1,0,3-3.28c-.68-.64-1.32-1.25-1.93-1.86-1.37-1.38-2.75-2.86-4.1-4.43a.67.67,0,0,1,.09-.95l8.89-7.07a.67.67,0,0,1,.91.08,67.89,67.89,0,0,0,16.84,14,2.13,2.13,0,0,0,1.12.31,2.21,2.21,0,0,0,1.14-4.1"/><path class="a" d="M108.45,140.61a2.12,2.12,0,0,0-.78.15A63.35,63.35,0,0,1,84.78,145h0a63.34,63.34,0,0,1-23.2-4.36,2.14,2.14,0,0,0-.79-.16,2.23,2.23,0,0,0-2,1.25,2.27,2.27,0,0,0-.07,1.77A2.21,2.21,0,0,0,60,144.75a67.48,67.48,0,0,0,21.73,4.61.65.65,0,0,1,.63.65v11.36a.67.67,0,0,1-.69.66,83.48,83.48,0,0,1-9.13-.86l-.34,0a2.21,2.21,0,0,0-.34,4.4,86,86,0,0,0,25.89,0,2.21,2.21,0,0,0-.34-4.4l-.33,0a81.26,81.26,0,0,1-9.14.86.67.67,0,0,1-.69-.66V150a.65.65,0,0,1,.63-.65,67.63,67.63,0,0,0,21.41-4.48,2.21,2.21,0,0,0-.79-4.27"/><path class="a" d="M82,16a2.22,2.22,0,0,0-2.22-2.22h-.16A67.62,67.62,0,0,0,58.16,19a.65.65,0,0,1-.85-.32L52.38,8.46a.67.67,0,0,1,.33-.9,78.4,78.4,0,0,1,8.83-3.22A2.21,2.21,0,0,0,61,0a2.16,2.16,0,0,0-.62.09A84.7,84.7,0,0,0,36.94,11.24a2.21,2.21,0,1,0,2.5,3.64,79,79,0,0,1,7.62-4.6.66.66,0,0,1,.91.3L52.9,20.84a.66.66,0,0,1-.29.86A68,68,0,0,0,35.27,35a2.22,2.22,0,0,0,.22,3.25,2.28,2.28,0,0,0,1.39.49,2.23,2.23,0,0,0,1.61-.7c.46-.49.92-1,1.38-1.43A63,63,0,0,1,80,18.22,2.21,2.21,0,0,0,82,16"/><path class="a" d="M157.94,121a2.22,2.22,0,0,0-1.42-.48,2.32,2.32,0,0,0-1.91,1.2,81.86,81.86,0,0,1-4.94,7.53.67.67,0,0,1-.95.12l-8.88-7.09a.65.65,0,0,1-.12-.9,67.64,67.64,0,0,0,9.83-19.5,2.28,2.28,0,0,0-.19-1.77,2.2,2.2,0,0,0-1.42-1,2.14,2.14,0,0,0-.5-.06,2.19,2.19,0,0,0-2.1,1.54,63.85,63.85,0,0,1-28.69,35.87,2.3,2.3,0,0,0-1.17,2.06,2.21,2.21,0,0,0,2.21,2.1,2.18,2.18,0,0,0,1.11-.3,68,68,0,0,0,17.08-14.08.66.66,0,0,1,.9-.08l8.88,7.08a.67.67,0,0,1,.09.95c-1.33,1.53-2.67,3-4,4.34-.75.74-1.54,1.5-2.36,2.25a2.29,2.29,0,0,0-.64.95,2.22,2.22,0,0,0,.71,2.45,2.25,2.25,0,0,0,1.39.48,2.19,2.19,0,0,0,1.48-.57,85.05,85.05,0,0,0,16.17-20.23,2.21,2.21,0,0,0-.54-2.81"/><path class="a" d="M163.84,50.33a2.17,2.17,0,0,0-2-1.38,2.05,2.05,0,0,0-.49.06,2.2,2.2,0,0,0-1.7,1.87,2.3,2.3,0,0,0,.15,1.13,76.86,76.86,0,0,1,2.81,8.54.65.65,0,0,1-.49.81L151,63.89a.66.66,0,0,1-.78-.47,67.45,67.45,0,0,0-9.07-19.75,2.34,2.34,0,0,0-1.9-1.06,2.14,2.14,0,0,0-1.37.48,2.21,2.21,0,0,0-.46,3,63,63,0,0,1,10.82,35.47,64,64,0,0,1-.69,9.39,2.3,2.3,0,0,0,1.57,2.45,2.28,2.28,0,0,0,.51.09,2.3,2.3,0,0,0,2.32-2,68.61,68.61,0,0,0-.36-22,.67.67,0,0,1,.5-.76l11.08-2.52a.66.66,0,0,1,.8.52,80.46,80.46,0,0,1,1.17,9.24,2.21,2.21,0,0,0,2.2,2,2.81,2.81,0,0,0,.49,0,2.24,2.24,0,0,0,1.73-2.29,84.51,84.51,0,0,0-5.71-25.28"/><path class="a" d="M16.85,81.52a68.36,68.36,0,0,0,.69,9.7,2.23,2.23,0,0,0,2.19,1.9,1.91,1.91,0,0,0,.48-.06,2.2,2.2,0,0,0,1.71-2.45,65.6,65.6,0,0,1-.64-9.09,63.07,63.07,0,0,1,11-35.74,2.2,2.2,0,0,0-2.05-3.43,2.29,2.29,0,0,0-1.66,1,67.58,67.58,0,0,0-9.24,19.94.66.66,0,0,1-.78.47L7.46,61.24a.66.66,0,0,1-.5-.81,81.9,81.9,0,0,1,3-9,2.18,2.18,0,0,0,.18-.86,2.21,2.21,0,0,0-1.71-2.13,2.14,2.14,0,0,0-.5-.06,2.18,2.18,0,0,0-2,1.36A84.37,84.37,0,0,0,0,75a2.21,2.21,0,0,0,1.7,2.3,2.36,2.36,0,0,0,.44.07,2.32,2.32,0,0,0,2.28-2.12,82.48,82.48,0,0,1,1.14-8.68.66.66,0,0,1,.8-.52l11.08,2.54a.66.66,0,0,1,.5.76,68.34,68.34,0,0,0-1.1,12.2"/><path class="a" d="M106.8,96a.85.85,0,0,0,.41-.8,1.77,1.77,0,0,1,0-.32.81.81,0,0,1,.21-.46,1.1,1.1,0,0,1,.63-.45c.12,0,.25,0,.38,0,.53-.12.81-.8,1.34-.88a.42.42,0,0,1,.36.09.49.49,0,0,1,.11.23,1.39,1.39,0,0,1-.31,1.19c-.22.24-.52.4-.73.65a5.54,5.54,0,0,0-.33.51,8.14,8.14,0,0,0-.62.83c-.13.29-.19.6-.35.89a.79.79,0,0,1-.29.36.51.51,0,0,1-.42,0,1.22,1.22,0,0,1-.38-.22,1,1,0,0,1,0-1.62M97,61c.09-.12.17-.28.31-.28s.21.12.26.23.13.25.19.38a.2.2,0,0,1,0,.15c0,.13-.27.1-.33.23s.06.19.16.22a.77.77,0,0,1,.28.09.44.44,0,0,1,.1.42l0,.4A.14.14,0,0,0,98,63s.07.05.12.06a3.51,3.51,0,0,1,.63.19c.06,0,.12.05.12.11a.11.11,0,0,1,0,.08c-.12.17-.35.22-.5.36s-.16.23-.29.29a.47.47,0,0,1-.24,0,2.71,2.71,0,0,1-1.07-.26c-.09-.05-.29-.11-.33-.22a.74.74,0,0,1,.12-.48.43.43,0,0,1,.46-.23.21.21,0,0,0,.11,0,.15.15,0,0,0,.09-.1.8.8,0,0,0,.09-.6,1.29,1.29,0,0,0-.34-.36.51.51,0,0,1-.23-.42c0-.18.21-.28.31-.42m-2,1.34a1.38,1.38,0,0,1,.17-.08c.11-.05.16-.24.3-.23h0a.35.35,0,0,0,.31-.05c.08-.09,0-.2.19-.23a.68.68,0,0,1,.2,0c.2,0,.35.4.29.59a1.48,1.48,0,0,1-.19.35.39.39,0,0,1-.18.06,1.53,1.53,0,0,1-.78.15.61.61,0,0,1-.44-.24c-.12-.19,0-.28.08-.35M79,58.11c-.27.26-.4-.2-.57-.3s-.68,0-1-.22c-.11-.07,0-.24.11-.28a.5.5,0,0,1,.38,0,2.66,2.66,0,0,1,.9.34.52.52,0,0,1,.18.21.23.23,0,0,1,0,.25m2.38-4a3.88,3.88,0,0,0,.67.44c.13,0,.77.24.68.42s-.93.09-1.1,0a2.5,2.5,0,0,1-.41-.19l-.47-.26c-.13-.08-.29-.18-.28-.33,0-.38.71-.24.91-.11m3.27,4.35a.87.87,0,0,1-.64-.16c-.14-.08-.31-.19-.45-.12s-.13.25-.09.39a.53.53,0,0,1,0,.41.39.39,0,0,1-.43.07,4,4,0,0,1-.4-.22c-.08,0-.19-.06-.23,0s0,.15,0,.22a.54.54,0,0,1,0,.48.76.76,0,0,1-.6-.48c0-.09,0-.19-.09-.29a1.29,1.29,0,0,0-.71-.58.91.91,0,0,1-.24-.16.21.21,0,0,1,0-.25.34.34,0,0,1,.23-.08l.68-.08a1.07,1.07,0,0,1,.31,0,1.27,1.27,0,0,1,.31.15.85.85,0,0,0,.51.11.4.4,0,0,0,.36-.31.55.55,0,0,0-.27-.46,1.75,1.75,0,0,1-.43-.38,2.78,2.78,0,0,1-.16-.4.4.4,0,0,0-.33-.26.48.48,0,0,0-.18.05c-.3.12-.73.11-.88-.16a.81.81,0,0,0-.1-.21c-.11-.11-.3-.06-.44,0a.75.75,0,0,1-.51,0c-.49-.19-.12-.6.23-.63s.61.25.94.27a2.3,2.3,0,0,1,.7,0c.25.1.37.37.64.43a4.39,4.39,0,0,0,.63,0c.45.08.68.62,1.11.78.19.06.45.11.46.29s-.11.22-.14.35c-.06.29.45.42.54.71a.38.38,0,0,1-.32.46M70.51,73.09,70.06,73a2.57,2.57,0,0,1-.61-.2.8.8,0,0,1-.42-.45,1.4,1.4,0,0,0-.09-.29.6.6,0,0,0-.39-.21,7.22,7.22,0,0,0-.93,0c-.19,0-.4-.19-.25-.39a.6.6,0,0,1,.43-.17,2.32,2.32,0,0,1,1.79.52c.2.18.34.41.55.58s.48.29.61.51a.18.18,0,0,1,0,.2c0,.07-.17,0-.26,0m2.22,1.15a.82.82,0,0,1-.27,0,7.16,7.16,0,0,1-1-.18c-.17,0-1.17-.2-.89-.51.11-.13.48-.07.64-.08a5.24,5.24,0,0,1,.79,0,2.22,2.22,0,0,1,.67.18c.16.07.32.21.27.37a.26.26,0,0,1-.18.16M83.38,65a.18.18,0,0,1-.13,0c-.18,0-.36.08-.54.08-.5,0-1.46-.42-.81-.87.16-.11.61-.35.82-.27s.14.54.46.7a.64.64,0,0,1,.22.14.14.14,0,0,1,0,.21"/><path class="a" d="M114.62,77a1,1,0,0,1-.63-.68,3.27,3.27,0,0,0-.4-.89,1.18,1.18,0,0,0-.33-.3.66.66,0,0,0-.53-.08.41.41,0,0,0-.28.43.8.8,0,0,0,.22.33,1,1,0,0,1,.32.74,1.5,1.5,0,0,0,0,.29.5.5,0,0,0,.14.27,1.74,1.74,0,0,0,.91.65,1,1,0,0,0,1-.29s.07-.11.13-.12.21.1.21.22-.06.23-.06.35a.76.76,0,0,0,.38.59l.09,0c0-.46-.11-.93-.18-1.39,0,0,0,0-.05,0-.25-.21-.63,0-.95-.12"/><path class="a" d="M103.07,106.72a3.33,3.33,0,0,0-.34-.56,6.31,6.31,0,0,0-.67-.8,2.8,2.8,0,0,0-.58-.35c-.22-.13-.19-.3-.34-.47s-.71-.4-.93-.68-.22-.53-.73-.51c-.25,0-.55.09-.6.28s.15.35.21.52.13.64-.3.59-.34-.27-.57-.37-.24,0-.28-.19.1-.19,0-.32-.53-.29-.85-.25a.69.69,0,0,0-.55.36c-.15.21-.23.29-.49.2s-.46-.29-.82-.06a1.21,1.21,0,0,0-.37.34c-.06.1-.07.31-.19.37-.28.15-.55-.13-.8.16s-.08.47-.23.67c-.56.71-2,.52-2.38,1.39-.23.54.19,1,.47,1.43s.22,1,.51,1.4a1.46,1.46,0,0,0,1,.52,2.18,2.18,0,0,0,1.45-.36c.68-.28,1.1-1,2-.84a4.64,4.64,0,0,1,.79.31,1.18,1.18,0,0,0,.46,0c.14,0,.25-.12.39-.14h.16a30.56,30.56,0,0,0,4.51-2.67"/><path class="a" d="M86.41,111.42a14,14,0,0,1-2.81-.82c-.23-.12-.33-.48-.5-.54s-.75.09-.93,0c-.62-.41-.33-.31-.68-.81s.28-.76-.65-1c-.52-.12-.74-.08-.83.5-1.32.33-1.71-.6-2.84-.68-.47,0-.91.27-1.36.29s-1-.25-1.56-.24c-1,0-1.55.83-2.63.76-1.82-.13-1.86-1.25-3.31-1.81a5.94,5.94,0,0,0-1.34,0,31.84,31.84,0,0,0,21,5.27h0a6,6,0,0,0-1.53-1"/><path class="a" d="M106.76,97.59a1.22,1.22,0,0,0,.38.22.51.51,0,0,0,.42,0,.79.79,0,0,0,.29-.36c.16-.29.22-.6.35-.89a8.14,8.14,0,0,1,.62-.83,5.54,5.54,0,0,1,.33-.51c.21-.25.51-.41.73-.65a1.39,1.39,0,0,0,.31-1.19.49.49,0,0,0-.11-.23.45.45,0,0,0-.36-.1c-.53.09-.81.77-1.34.89-.13,0-.26,0-.38,0a1.1,1.1,0,0,0-.63.45.81.81,0,0,0-.21.46,1.77,1.77,0,0,0,0,.32.85.85,0,0,1-.41.8,1,1,0,0,0,0,1.62"/><path class="a" d="M96.9,61.86a1.29,1.29,0,0,1,.34.36.8.8,0,0,1-.09.6.15.15,0,0,1-.09.1.21.21,0,0,1-.11,0,.43.43,0,0,0-.46.23.81.81,0,0,0-.13.48c0,.11.25.17.34.22a2.67,2.67,0,0,0,1.07.26.47.47,0,0,0,.24,0c.13-.06.19-.2.29-.29s.38-.19.5-.36a.11.11,0,0,0,0-.08c0-.06-.06-.09-.12-.11a3.38,3.38,0,0,0-.64-.19S98,63,98,63a.14.14,0,0,1,0-.11l0-.4a.47.47,0,0,0-.09-.42A.89.89,0,0,0,97.6,62c-.1,0-.2-.13-.16-.22s.29-.1.33-.23a.2.2,0,0,0,0-.15c-.06-.13-.13-.25-.19-.38s-.13-.23-.26-.23-.22.16-.31.28-.28.24-.31.42a.51.51,0,0,0,.23.42"/><path class="a" d="M95.39,63a1.53,1.53,0,0,0,.78-.15s.15,0,.18-.06a1.48,1.48,0,0,0,.19-.35c.06-.19-.09-.55-.29-.59a.68.68,0,0,0-.2,0c-.16,0-.11.14-.2.23a.32.32,0,0,1-.3.05h0c-.14,0-.19.19-.3.23a1.38,1.38,0,0,0-.17.08c-.13.07-.2.16-.08.35a.61.61,0,0,0,.44.24"/><path class="a" d="M104.09,58.85a.76.76,0,0,0-.17.23,1.46,1.46,0,0,1-1.07.7c-.38,0-.8-.05-1.13.14a.88.88,0,0,0-.34,1,1,1,0,0,0,.93.6,1.11,1.11,0,0,1,.48,0,.67.67,0,0,1,.31.53,2.13,2.13,0,0,0,.12.62.24.24,0,0,0,.13.15.3.3,0,0,0,.21,0,1,1,0,0,0,.67-.35,1,1,0,0,1,.18-.26c.19-.15.57,0,.64-.23a.29.29,0,0,0,0-.22,4,4,0,0,1-.2-.58.68.68,0,0,1,.13-.59.63.63,0,0,1,.23-.17l1.07-.62c.1,0,.23-.11.32,0s0,.23,0,.33c-.23.36-.76.58-.74,1s.29.52.56.63a2.31,2.31,0,0,0,1.1.16,1,1,0,0,1,.57,0c.17.08.26.36.1.47a.39.39,0,0,1-.18.06,3,3,0,0,1-1.19-.12.8.8,0,0,0-.3-.06.25.25,0,0,0-.24.17c0,.15.13.3.06.44s-.3.08-.42,0-.33-.21-.44-.08a.31.31,0,0,0-.06.21.92.92,0,0,1-.13.52.6.6,0,0,1-.58.22,1.6,1.6,0,0,1-.59-.24.59.59,0,0,0-.28-.1c-.15,0-.28.12-.43.17-.49.17-.94-.38-1.46-.4a1.31,1.31,0,0,0-.39.05l-1,.23a3,3,0,0,0-.84.4,5.81,5.81,0,0,1-2.24.44c-.18,0-.41.11-.4.3s.1.2.18.27a1.51,1.51,0,0,1,.41.56.72.72,0,0,1-.07.67.74.74,0,0,1-.57.28,1.81,1.81,0,0,1-.64-.12.35.35,0,0,1-.19-.1A1.08,1.08,0,0,1,96,66a.4.4,0,0,0-.39-.18.43.43,0,0,0-.31.3,2.36,2.36,0,0,0,0,.46c0,.43-.46.71-.57,1.13a.33.33,0,0,0,0,.24.62.62,0,0,0,.15.21l.54.52a.66.66,0,0,0,.35.22c.19,0,.38-.11.57-.11s.42.21.64.23a.14.14,0,0,0,.11,0s0-.07.07-.12a1.67,1.67,0,0,1,1.08-1.1,1.43,1.43,0,0,0,.67-.28c.17-.2.2-.55.44-.66s.74.45,1.13.32c.16-.06.27-.23.43-.28s.42.14.57.31a1.16,1.16,0,0,1,.35.65c0,.23-.1.49,0,.66s.67,0,.91.21.1.43,0,.66-.06.52.15.61.39-.1.43-.3a1.08,1.08,0,0,0-.1-.58c0-.09.13,0,.22,0a.12.12,0,0,0,.08-.16.41.41,0,0,0-.14-.15,5.39,5.39,0,0,1-.87-.78,1.54,1.54,0,0,1-.48-1c0-.07,0-.16.1-.16a.15.15,0,0,1,.09,0L103.67,68a1.05,1.05,0,0,1,.29.34,1.27,1.27,0,0,1,0,.72c0,.24,0,.53.2.65a1.23,1.23,0,0,0,.39.07.33.33,0,0,1,.31.2c-.11.23-.51.15-.61.38s.42.45.63.52a.89.89,0,0,0,.18-1.26c-.09-.11-.23-.25-.15-.38s.18-.09.28-.06a1,1,0,0,0,.3.08l.2,0a.66.66,0,0,1,.46.14,1.26,1.26,0,0,0,.43.22.34.34,0,0,0,.4-.22.77.77,0,0,0-.07-.36c-.12-.45.23-.88.57-1.18a1,1,0,0,1,.65-.34c.25,0,.51.23.43.47,0,.08-.08.14-.1.21a.35.35,0,0,0,.26.38.91.91,0,0,0,.49,0c-.07-.21-.16-.6,0-.69a.71.71,0,0,1,.21,0,1.94,1.94,0,0,0,.5-.2.51.51,0,0,1,.52,0,.36.36,0,0,1-.3.48c-.14,0-.29-.09-.42,0a.3.3,0,0,0-.07.39,1,1,0,0,0,.32.28,2.84,2.84,0,0,1,.92,1.14.45.45,0,0,1,0,.3c-.06.19-.29.24-.49.25a.8.8,0,0,1-.75-.22c0-.07-.08-.17-.14-.24a.57.57,0,0,0-.28-.17,1.77,1.77,0,0,0-1.23-.15.83.83,0,0,1-.34.1c-.12,0-.23-.16-.15-.26a.78.78,0,0,0-.59.27.37.37,0,0,1-.13.12.3.3,0,0,1-.22-.06.85.85,0,0,0-.37-.15.29.29,0,0,0-.3.24c0,.15.14.27.18.41a1.61,1.61,0,0,1,0,.31.68.68,0,0,0,.81.64c.21-.05.43-.21.61-.09s.12.14.19.2.4.07.61,0,.48,0,.55.2a.5.5,0,0,1,0,.27c-.09.41-.17.81-.26,1.22a.34.34,0,0,1-.08.17.28.28,0,0,1-.15.08,2.1,2.1,0,0,1-.61.09c-.34,0-.65-.2-1-.23-.18,0-.37,0-.55,0-.78,0-1.25-.94-2-1.19a.5.5,0,0,0-.45,0,.75.75,0,0,0-.2.29.78.78,0,0,1-.67.49c-.41,0-.61-.51-.87-.85a1.57,1.57,0,0,0-.83-.55c-.22,0-.49-.09-.55-.31a.41.41,0,0,1,0-.22c0-.2.11-.38.14-.58a.6.6,0,0,0-.16-.55c-.32-.27-.81.09-1.21,0a1.76,1.76,0,0,1-.42-.24,1.71,1.71,0,0,0-1.22-.11,5.68,5.68,0,0,1-1.23.23c-.43,0-.84-.32-1.27-.28a2,2,0,0,0-.62.18l-.6.25a1,1,0,0,0-.25.14c-.29.27-.14.84-.44,1.1a1.08,1.08,0,0,1-.29.13,3.52,3.52,0,0,0-1.35.72c-.43.41-.68,1-1.2,1.3a1.23,1.23,0,0,0-.19.91,2.57,2.57,0,0,1,.11.48,1,1,0,0,1-.34.73,4.53,4.53,0,0,0-.54.62,1.64,1.64,0,0,0-.16,1.19A3.5,3.5,0,0,0,90,78.23a3.53,3.53,0,0,1,.35.59c.09.2.13.41.22.6a2.8,2.8,0,0,0,.52.75,1.74,1.74,0,0,0,.9.67,4.46,4.46,0,0,0,.73,0c.58,0,1.11.4,1.69.37a7.66,7.66,0,0,0,.8-.18,1.69,1.69,0,0,1,1.1.2.3.3,0,0,1,.14.11c.06.11,0,.25,0,.37s.43.27.69.34a1,1,0,0,1,.66.61c.18.53-.21.87-.31,1.36a4.3,4.3,0,0,0,0,1,2.15,2.15,0,0,0,.1.76c.12.28.36.53.34.84,0,.13-.06.25-.06.39a1,1,0,0,0,.07.34,2.1,2.1,0,0,1-.13,1.52,3.43,3.43,0,0,0-.59,1.41c0,.67-.13,1.35-.19,2a3.5,3.5,0,0,0,0,1,9.1,9.1,0,0,1,.21,1.16c0,.35-.14.75,0,1a2.2,2.2,0,0,0,.24.28,1.34,1.34,0,0,1,.22,1c-.06.39-.4,1,0,1.27a.75.75,0,0,0,.78,0,1.11,1.11,0,0,1,.19-.09c.29-.05.47.35.76.39a.63.63,0,0,0,.23,0,7.57,7.57,0,0,0,2.06-1.05l1.08-.7a1.1,1.1,0,0,0,.23-.2c.11-.15.11-.36.2-.52a.88.88,0,0,1,.27-.24c.2-.13.42-.2.61-.33a.85.85,0,0,0,.4-.55c0-.12,0-.25,0-.37a1.57,1.57,0,0,1,.57-1.12,4.88,4.88,0,0,1,.69-.53,4.38,4.38,0,0,0,.73-.48A1.58,1.58,0,0,0,107,91a12.22,12.22,0,0,1,.47-2.44,4,4,0,0,1,.18-.68,4.18,4.18,0,0,1,2-1.73,13,13,0,0,0,3.27-2.74c.17-.2.34-.48.21-.7s-.51-.2-.79-.13a4.85,4.85,0,0,1-2.11,0,.65.65,0,0,1-.42-.21c-.11-.16-.06-.39-.08-.6a2.4,2.4,0,0,0-.58-1.07,2.63,2.63,0,0,1-.44-1.64,13.61,13.61,0,0,0-.63-2.78,5.16,5.16,0,0,0-.17-.78,9.1,9.1,0,0,1-.39-.84.6.6,0,0,1,0-.42.27.27,0,0,1,.35-.13c.16.09.14.32.15.51a.15.15,0,0,0,0,.13c.14.1.29-.3.43-.2a5.69,5.69,0,0,0,.49,2.3,2.27,2.27,0,0,1,.33,1.08,1.46,1.46,0,0,0,0,.51c0,.19.21.32.35.47a2.52,2.52,0,0,1,.52,2,.7.7,0,0,0,0,.38.51.51,0,0,0,.27.23,1.6,1.6,0,0,0,1.27,0,9.17,9.17,0,0,1,2.27-.75,1.43,1.43,0,0,0,.6-.17c.31-.19.44-.59.72-.83a1.88,1.88,0,0,1,.54-.29l-.09-1.06-.09,0a.76.76,0,0,1-.38-.59c0-.12.06-.23.06-.35s-.1-.26-.21-.22-.1.07-.13.12a1,1,0,0,1-1,.29,1.74,1.74,0,0,1-.91-.65.5.5,0,0,1-.14-.27,1.5,1.5,0,0,1,0-.29,1,1,0,0,0-.32-.74.8.8,0,0,1-.22-.33.41.41,0,0,1,.28-.43.66.66,0,0,1,.53.08,1.18,1.18,0,0,1,.33.3,3.27,3.27,0,0,1,.4.89,1,1,0,0,0,.63.68c.32.08.7-.09.95.12,0,0,0,0,.05,0a31.28,31.28,0,0,0-10.3-18.74c-.32,0-.63.23-.94.31a.65.65,0,0,0-.29.14"/><path class="a" d="M83.68,52.26c-.08.23-.44.32-.33.54a.66.66,0,0,0,.32.24,3.12,3.12,0,0,0,.43.15l.11.09a.24.24,0,0,1,0,.36.42.42,0,0,1-.2,0l-.67,0c-.35,0,0,.19,0,.36s-.22.29-.24.5.3.32.48.35a5.12,5.12,0,0,0,2.2-.16,8.31,8.31,0,0,1,1.29-.3h.07a2.09,2.09,0,0,1,0,1.11A2.46,2.46,0,0,1,86.05,57c-.32.19-.72.39-.77.75a2.24,2.24,0,0,0,.17.7c0,.23,0,.46,0,.69a1.39,1.39,0,0,0,1.76,1.06.66.66,0,0,0,.62-.18,8,8,0,0,1,.79-.85c1-.74,2.6,0,3.78-.51.2-.08.39-.2.59-.27a3.44,3.44,0,0,1,1.43-.12,25.3,25.3,0,0,0,2.75.24c1.3-.06.2-1-.37-1.32-.11-.07-.25-.15-.26-.27s.23-.28.41-.22a2,2,0,0,1,.48.29,1.37,1.37,0,0,0,1.26,0c.38-.19.64.08.89-.26.12-.17.81-.07,1-.18s3.41,1.07,3.6,1a.28.28,0,0,0,.13,0,31.91,31.91,0,0,0-22.64-7c.16.85,2.27.79,2,1.66"/><path class="a" d="M80.78,54.6l.47.26a2.17,2.17,0,0,0,.41.19c.17.06,1,.16,1.1,0s-.55-.37-.68-.42a3.37,3.37,0,0,1-.67-.44c-.2-.13-.9-.27-.91.11,0,.15.15.25.28.33"/><path class="a" d="M84.46,57.34c0-.13.15-.22.14-.35s-.27-.23-.46-.29c-.43-.17-.66-.7-1.11-.78a4.39,4.39,0,0,1-.63,0c-.27-.06-.39-.33-.64-.42a2,2,0,0,0-.7-.05c-.33,0-.61-.3-.94-.27s-.72.44-.23.63a.78.78,0,0,0,.5,0c.15,0,.34-.09.45,0A1.39,1.39,0,0,1,81,56c.14.27.57.28.86.16a.59.59,0,0,1,.19-.05.4.4,0,0,1,.33.26,2.78,2.78,0,0,0,.16.4,1.75,1.75,0,0,0,.43.38.55.55,0,0,1,.27.46.4.4,0,0,1-.36.31.85.85,0,0,1-.51-.11,1.27,1.27,0,0,0-.31-.15,1.07,1.07,0,0,0-.31,0l-.68.08a.3.3,0,0,0-.23.08.21.21,0,0,0,0,.25.91.91,0,0,0,.24.16,1.29,1.29,0,0,1,.71.58c0,.1,0,.2.09.3a.77.77,0,0,0,.6.47.54.54,0,0,0,0-.48c0-.07-.09-.16,0-.22s.16,0,.24,0,.26.16.4.22.34,0,.42-.07,0-.27,0-.41,0-.32.09-.39.32,0,.46.12a.88.88,0,0,0,.63.16.38.38,0,0,0,.32-.46c-.09-.29-.6-.42-.54-.71"/><path class="a" d="M78.87,57.65a2.66,2.66,0,0,0-.9-.34.5.5,0,0,0-.38,0c-.07,0-.22.21-.1.28.29.19.69,0,1,.22s.3.56.56.3a.21.21,0,0,0,0-.25.52.52,0,0,0-.18-.21"/><path class="a" d="M83.18,64.6c-.32-.16-.21-.6-.47-.7s-.65.16-.81.27c-.65.45.31.88.81.87.18,0,.36-.08.54-.08a.19.19,0,0,0,.13,0,.14.14,0,0,0,0-.21.64.64,0,0,0-.22-.14"/><path class="a" d="M57.75,67.43c.57-.33.8-.36.82-.05a1.8,1.8,0,0,0,.15.55,12.72,12.72,0,0,1,.75,1.47,4.53,4.53,0,0,1,.12,1.16,1.22,1.22,0,0,0,0,.33,1.47,1.47,0,0,0,.39.55c.25.26.45.56.71.81a1.65,1.65,0,0,0,1,.49,5.9,5.9,0,0,1,.73,0,1.16,1.16,0,0,1,.73.64,1,1,0,0,0,.28.37,1.07,1.07,0,0,0,.37.12A2.08,2.08,0,0,1,64.92,75a1.86,1.86,0,0,1,.23.59,1.09,1.09,0,0,0,.07.24.83.83,0,0,0,.16.21l.5.53a1.71,1.71,0,0,0,.25.22,1,1,0,0,0,.36.15,1.67,1.67,0,0,0,.63,0,1,1,0,0,1,.45,0,.59.59,0,0,1,.36.53c.18,1.18-.72,1.44-1.32,2.26A4,4,0,0,0,66,82.91c.46,2.08,3.15,4,2.9,6a3.14,3.14,0,0,0-.12,1.45,4,4,0,0,1-.09,1.78c0,.31,0,.63,0,.94,0,1-.5,2-.48,3a3,3,0,0,0,.29,1.27.74.74,0,0,1,.1.35,2.35,2.35,0,0,1-.13.43c0,.25.11.54,0,.76s-.4.29-.39.51a.49.49,0,0,0,.19.31,2.65,2.65,0,0,1,.53.84c.13.31.19.65.34,1a1.12,1.12,0,0,0,.78.64.48.48,0,0,0,.24,0c.23-.11.18-.43.2-.68a.86.86,0,0,1,.24-.54c.16-.16.38-.28.44-.49s-.3-.63-.2-.95a.53.53,0,0,1,0-.52c.11-.21.35-.35.39-.58s-.18-.46-.13-.69a.17.17,0,0,1,.15-.14.2.2,0,0,1,.11,0,.45.45,0,0,0,.42,0c.16-.09.11-.35.24-.49a.48.48,0,0,1,.45-.11,2,2,0,0,0,.48.08.74.74,0,0,0,.47-.22.53.53,0,0,0,.17-.37,1,1,0,0,0-.07-.29l-.24-.58a.33.33,0,0,1,0-.27c.08-.15.32-.11.49,0a1.06,1.06,0,0,0,.61.18.83.83,0,0,0,.32-.17,2.25,2.25,0,0,0,.47-.28c.39-.42,1.1-.62,1.5-1s.08-1.45.54-1.76a1,1,0,0,1,.24-.08c.76-.16,1.5.12,2.2-.29s1-1.62,1.21-2.42c.07-.27.06-.6.27-.81a2.18,2.18,0,0,1,.31-.22,2,2,0,0,0,.54-.64,1.33,1.33,0,0,1,.43-.48c.13-.07.27-.1.4-.16a.77.77,0,0,0,.39-1,.21.21,0,0,0-.06-.1.33.33,0,0,0-.17,0l-.85,0a.36.36,0,0,1-.2,0c-.09,0-.12-.17-.15-.26a3,3,0,0,0-1.23-1.33.82.82,0,0,0-.36-.18,1,1,0,0,0-.45.1.48.48,0,0,1-.45-.07.35.35,0,0,1,0-.33.22.22,0,0,0,0-.14.28.28,0,0,0-.14-.2.8.8,0,0,0-.78-.05l-.28.16c-.09,0-.11,0-.22-.05a.35.35,0,0,1-.26-.13.17.17,0,0,1,0-.25c.08,0,.19,0,.27-.08s.07-.26,0-.33a.47.47,0,0,0-.4,0c-.13,0-.24.14-.36.19a.5.5,0,0,1-.13,0,.23.23,0,0,1-.19-.26.44.44,0,0,1,.2-.28,1.49,1.49,0,0,0,.27-.23.79.79,0,0,0,.1-.64,2.52,2.52,0,0,0-1.2-1.69l-.33-.19a3.59,3.59,0,0,1-.36-.32,10.07,10.07,0,0,1-.87-.72L73.94,78a.84.84,0,0,0-.23-.23c-.26-.18-.63-.12-.93-.23a1.53,1.53,0,0,1-.59-.45,1.63,1.63,0,0,0-.58-.47.55.55,0,0,0-.67.16,1,1,0,0,0,0,.45.42.42,0,0,1-.17.4.38.38,0,0,1-.49-.31.76.76,0,0,1,.24-.57.73.73,0,0,0,.16-.23.22.22,0,0,0-.08-.25.28.28,0,0,0-.13,0c-.3,0-.54.21-.77.38a3.15,3.15,0,0,1-1,.51.67.67,0,0,1-.37,0c-.18-.08-.23-.31-.38-.43a.71.71,0,0,0-.5,0,1.24,1.24,0,0,1-1-.47,1,1,0,0,1-.13-1.07c.08-.16.19-.3.27-.45a.57.57,0,0,0,0-.51c-.21-.37-.87-.22-1.18-.53a.63.63,0,0,1,0-.75,2.38,2.38,0,0,1,.58-.56.48.48,0,0,0,.15-.2c0-.2-.21-.35-.42-.41s-.51-.11-.66.06a2.53,2.53,0,0,0-.13.22.68.68,0,0,1-.43.28,1.7,1.7,0,0,1-1.64-.55,1.2,1.2,0,0,1-.32-.61,1.74,1.74,0,0,1,.07-.82,5.16,5.16,0,0,1,.33-.91,2.6,2.6,0,0,1,.93-1.07,2.21,2.21,0,0,1,1.4-.37l.66.31a1.29,1.29,0,0,0,1,.17c.14,0,.25-.16.4-.2a1.07,1.07,0,0,1,.88.28,1.92,1.92,0,0,1,.9,1.06c.05.29,0,.59,0,.89a.27.27,0,0,0,.16.24.28.28,0,0,0,.28-.14c.4-.52.31-1.25.52-1.87a.46.46,0,0,1,.17-.26.6.6,0,0,1,.23-.06l.77-.1a2,2,0,0,0,.64-.15,1.47,1.47,0,0,0,.46-.36,2,2,0,0,0,.65-1.06.41.41,0,0,1,0-.19.34.34,0,0,1,.18-.09c.43-.14.88,0,1.24-.3a3.07,3.07,0,0,1,1.3-.58,1.89,1.89,0,0,0,.58-.14,3.21,3.21,0,0,0,.31-.19,2,2,0,0,1,1.31-.28c.21,0,.45.13.48.33a1.62,1.62,0,0,0,1,.14l.86,0c.19,0,.41,0,.45-.22a.27.27,0,0,0-.14-.28.87.87,0,0,0-.33-.12l-.51-.11a.82.82,0,0,1-.3-.1.25.25,0,0,1-.12-.27c0-.12.23-.16.29-.29s-.08-.32-.25-.35a.77.77,0,0,0-.49.1,1,1,0,0,1-.48.14c-.17,0-.35-.14-.33-.3s.19-.23.35-.27a6.36,6.36,0,0,1,2.84.11,5.59,5.59,0,0,0,1.4.17A1.65,1.65,0,0,0,83.7,63c.08-.1.13-.26,0-.33a.28.28,0,0,0-.13,0,5.16,5.16,0,0,1-1.24-.11c.43.15,1.35-1.11.49-2a1,1,0,0,0-.77-.15.86.86,0,0,1-.92-.33,3.84,3.84,0,0,1-.11-.59c-.16-.5-.94-.69-1.48-.5a3.5,3.5,0,0,0-1.27,1,7.73,7.73,0,0,1-2.76,1.72.78.78,0,0,1-.37.06c-.45-.09-.19-1.47-.46-1.85s-1.89-.6-1.24-1.56a1,1,0,0,1,.34-.28,2.61,2.61,0,0,1,1.2-.47c.28,0,.89.15,1-.19,0-.08.11-.14.2-.15a4.39,4.39,0,0,1,.71.12.49.49,0,0,0,.24,0c.19-.1,0-.31.24-.4a.89.89,0,0,1,.46,0l1.56.29a1.68,1.68,0,0,0,.67,0,.52.52,0,0,0,.42-.43.54.54,0,0,0-.47-.46,1.45,1.45,0,0,0-.71.11c-.21.08-.57.22-.76,0s0-.33-.12-.46-.17,0-.25-.09a.22.22,0,0,1,0-.3c.09-.08.29-.07.3-.19s-.09-.14-.18-.17a1.81,1.81,0,0,0-1.08,0c0,.19.18.41.06.57a.34.34,0,0,1-.16.1,1.42,1.42,0,0,1-.75.17c-.14,0,0-.62-.19-.67a1.54,1.54,0,0,1-.23-2.14c.46-.76,1.63-1.34,1.3-2h0A31.11,31.11,0,0,0,56.37,67.55a4.31,4.31,0,0,0,1.33-.1l0,0"/><path class="a" d="M70.77,73.06a.18.18,0,0,0,0-.2c-.13-.22-.4-.34-.61-.51s-.35-.4-.55-.59a2.36,2.36,0,0,0-1.79-.51.6.6,0,0,0-.43.17c-.15.19.06.37.25.39a7.22,7.22,0,0,1,.93,0,.6.6,0,0,1,.39.21,1.4,1.4,0,0,1,.09.29.8.8,0,0,0,.42.45,2.57,2.57,0,0,0,.61.2l.45.11c.09,0,.21,0,.26,0"/><path class="a" d="M72.64,73.71a2.22,2.22,0,0,0-.67-.18,5.23,5.23,0,0,0-.79,0c-.16,0-.53-.06-.64.07-.28.31.71.48.89.52a8.85,8.85,0,0,0,1,.17.82.82,0,0,0,.27,0,.26.26,0,0,0,.18-.16c0-.16-.11-.3-.27-.37"/></svg>