<?xml version="1.0" encoding="UTF-8"?>
<svg width="42px" height="42px" viewBox="0 0 42 42" version="1.1" xmlns="http://www.w3.org/2000/svg" xmlns:xlink="http://www.w3.org/1999/xlink">
    <!-- Generator: Sketch 49.2 (51160) - http://www.bohemiancoding.com/sketch -->
    <title>Disclaimar_icon</title>
    <desc>Created with Sketch.</desc>
    <defs>
        <circle id="path-1" cx="21" cy="21" r="21"></circle>
        <polygon id="path-2" points="0 0 19 0 19 16 0 16"></polygon>
    </defs>
    <g id="Inner-pages" stroke="none" stroke-width="1" fill="none" fill-rule="evenodd">
        <g id="Open-UNDP-Homepage_Budget-Sources-Copy" transform="translate(-1475.000000, -1288.000000)">
            <g id="Disclaimar_icon" transform="translate(1475.000000, 1288.000000)">
                <g id="Oval-4">
                    <use fill="#FFFFFF" fill-rule="evenodd" xlink:href="#path-1"></use>
                    <circle stroke="#0167CE" stroke-width="1.5" cx="21" cy="21" r="20.25"></circle>
                </g>
                <g id="danger-(1)" transform="translate(12.000000, 12.000000)">
                    <mask id="mask-3" fill="white">
                        <use xlink:href="#path-2"></use>
                    </mask>
                    <g id="Clip-2"></g>
                    <path d="M9.51848047,13.6982799 C8.97839052,13.6982799 8.5732674,13.2605572 8.5732674,12.7619988 C8.5732674,12.2513101 8.97835341,11.8257545 9.51848047,11.8257545 C10.0217579,11.8257545 10.4514103,12.2513101 10.4514103,12.7619988 C10.4514103,13.2605572 10.0217579,13.6982799 9.51848047,13.6982799 Z M9.50619727,4.73683751 C9.98494541,4.73683751 10.3900685,5.00436739 10.3900685,5.47851798 C10.3900685,6.9254878 10.2181779,9.00474417 10.2181779,10.4516772 C10.2181779,10.8286378 9.80080865,10.9867002 9.50619727,10.9867002 C9.11343157,10.9867002 8.78197056,10.8286378 8.78197056,10.4516772 C8.78197056,9.00474417 8.61015412,6.9254878 8.61015412,5.47851798 C8.61015412,5.00436739 9.00291983,4.73683751 9.50619727,4.73683751 Z M18.832787,14.2513882 L10.4969064,0.557703132 C10.2862365,0.211619887 9.90798055,0 9.49996289,0 C9.09198234,0 8.71372641,0.211583129 8.50305645,0.557703132 L0.16721303,14.2513882 C-0.0495799809,14.6075433 -0.0559999041,15.0517723 0.150476699,15.4138824 C0.356953301,15.7760659 0.744301033,16 1.16411947,16 L17.8358434,16 C18.255699,16 18.6430467,15.7760292 18.8495233,15.4138824 C19.0559999,15.0517356 19.04958,14.6075433 18.832787,14.2513882 Z" id="Fill-1" fill="#0167CE" mask="url(#mask-3)"></path>
                </g>
            </g>
        </g>
    </g>
</svg>