<svg xmlns="http://www.w3.org/2000/svg" xmlns:xlink="http://www.w3.org/1999/xlink" width="102" height="102" viewBox="0 0 102 102"><defs><path id="hc4la" d="M1294 3839c0 7.08-1.5 13.81-4.17 19.92v11.33a14.6 14.6 0 0 1-14.58 14.58h-11.33a49.68 49.68 0 0 1-39.84 0h-11.33a14.6 14.6 0 0 1-14.58-14.58v-11.33a49.68 49.68 0 0 1 0-39.84v-11.33a14.6 14.6 0 0 1 14.58-14.58h11.33a49.68 49.68 0 0 1 39.84 0h11.33a14.6 14.6 0 0 1 14.58 14.58v11.33A49.68 49.68 0 0 1 1294 3839zm-22.42-41.67a50.37 50.37 0 0 1 14.09 14.1v-3.68c0-5.74-4.67-10.42-10.42-10.42zm-18.75 13.88a29.3 29.3 0 0 1 18.96 18.96l16.5-2.75a45.92 45.92 0 0 0-32.71-32.71zM1244 3814c-13.79 0-25 11.21-25 25s11.21 25 25 25 25-11.21 25-25-11.21-25-25-25zm-7.5-20.16l2.74 16.42c1.55-.26 3.14-.43 4.76-.43 1.62 0 3.2.17 4.76.43l2.74-16.42c-2.45-.41-4.94-.67-7.5-.67-2.56 0-5.05.26-7.5.67zm-34.17 17.58a50.37 50.37 0 0 1 14.1-14.09h-3.68a10.43 10.43 0 0 0-10.42 10.42zm-2.62 16l16.5 2.75a29.3 29.3 0 0 1 18.96-18.96l-2.75-16.5a45.92 45.92 0 0 0-32.71 32.71zm-.87 19.08l16.42-2.74a29.08 29.08 0 0 1-.43-4.76c0-1.62.17-3.2.43-4.76l-16.42-2.74c-.41 2.45-.67 4.94-.67 7.5 0 2.56.26 5.05.67 7.5zm13.91 34.17h3.67a50.37 50.37 0 0 1-14.09-14.1v3.68c0 5.74 4.67 10.42 10.42 10.42zm22.42-13.88a29.3 29.3 0 0 1-18.96-18.96l-16.5 2.75a45.92 45.92 0 0 0 32.71 32.71zm16.33 17.37l-2.74-16.42c-1.55.26-3.14.43-4.76.43-1.62 0-3.2-.17-4.76-.43l-2.74 16.42c2.45.41 4.94.67 7.5.67 2.56 0 5.05-.26 7.5-.67zm34.17-13.91v-3.67a50.37 50.37 0 0 1-14.1 14.09h3.68c5.75 0 10.42-4.68 10.42-10.42zm2.62-19.67l-16.5-2.75a29.3 29.3 0 0 1-18.96 18.96l2.75 16.5a45.93 45.93 0 0 0 32.71-32.71zm1.54-11.58c0-2.56-.26-5.05-.67-7.5l-16.42 2.74c.26 1.55.43 3.14.43 4.76 0 1.62-.17 3.2-.43 4.76l16.42 2.74c.41-2.45.67-4.94.67-7.5z"/></defs><g><g transform="translate(-1193 -3788)"><use fill="#3a3a3a" xlink:href="#hc4la"/><use fill="#fff" fill-opacity="0" stroke="#fff" stroke-miterlimit="50" xlink:href="#hc4la"/></g></g></svg>