<svg xmlns="http://www.w3.org/2000/svg" xmlns:xlink="http://www.w3.org/1999/xlink" width="28" height="6" viewBox="0 0 28 6"><defs><path id="54mva" d="M338 1391.97a2.99 2.99 0 0 1 3-2.97c1.66 0 3 1.33 3 2.98a2.99 2.99 0 0 1-3 2.97c-1.66 0-3-1.33-3-2.98zm10.99 0a2.99 2.99 0 0 1 3-2.97c1.66 0 3 1.33 3 2.98a2.99 2.99 0 0 1-3 2.97c-1.66 0-3-1.33-3-2.98zm10.99 0a2.99 2.99 0 0 1 3-2.97c1.66 0 3 1.33 3 2.98a2.99 2.99 0 0 1-3 2.97c-1.66 0-3-1.33-3-2.98z"/></defs><g><g clip-path="url(#clip-AEBD5B7F-8A27-43B4-8452-0628EC95F220)" transform="translate(-338 -1389)"><use fill="#818181" xlink:href="#54mva"/></g></g></svg>