<svg xmlns="http://www.w3.org/2000/svg" xmlns:xlink="http://www.w3.org/1999/xlink" width="22" height="22" viewBox="0 0 22 22"><defs><path id="z9saa" d="M1466.9 1301.4h3.68l-8.43 8.43a.7.7 0 0 0 .5 1.2.7.7 0 0 0 .49-.21l8.43-8.43v3.68a.7.7 0 1 0 1.4 0v-5.37a.7.7 0 0 0-.7-.7h-5.38a.7.7 0 0 0-.7.7c0 .38.32.7.7.7zm-9.7 18.57h11.57a4.2 4.2 0 0 0 4.2-4.2v-5.45a.7.7 0 0 0-1.4 0v5.45a2.8 2.8 0 0 1-2.8 2.8h-11.58a2.8 2.8 0 0 1-2.8-2.8v-11.57a2.8 2.8 0 0 1 2.8-2.8h5.4a.7.7 0 1 0 0-1.4h-5.4a4.2 4.2 0 0 0-4.19 4.2v11.57a4.2 4.2 0 0 0 4.2 4.2z"/></defs><g><g transform="translate(-1452 -1299)"><use fill="#0167ce" xlink:href="#z9saa"/><use fill="#fff" fill-opacity="0" stroke="#0167ce" stroke-miterlimit="50" xlink:href="#z9saa"/></g></g></svg>