<?xml version="1.0" encoding="UTF-8"?>
<svg width="51px" height="48px" viewBox="0 0 51 48" version="1.1" xmlns="http://www.w3.org/2000/svg" xmlns:xlink="http://www.w3.org/1999/xlink">
    <!-- Generator: Sketch 52.5 (67469) - http://www.bohemiancoding.com/sketch -->
    <title>Group 13</title>
    <desc>Created with Sketch.</desc>
    <defs>
        <polygon id="path-1" points="0.0059765625 0 31.4765625 0 31.4765625 51 0.0059765625 51"></polygon>
    </defs>
    <g id="Page-1" stroke="none" stroke-width="1" fill="none" fill-rule="evenodd">
        <g id="Marker-Landing-Page" transform="translate(-856.000000, -1050.000000)">
            <g id="Group-6" transform="translate(835.000000, 1026.000000)">
                <g id="Group-20">
                    <g id="Group-13" transform="translate(21.000000, 21.000000)">
                        <g id="Group-12">
                            <g id="Group-5">
                                <mask id="mask-2" fill="white">
                                    <use xlink:href="#path-1"></use>
                                </mask>
                                <g id="Clip-3"></g>
                                <path d="M22.2594082,30.3456973 L11.2966992,19.3829883 C10.4214316,18.5077207 9.00239648,18.5077207 8.12712891,19.3829883 C7.25186133,20.2582559 7.25186133,21.677291 8.12712891,22.5525586 L19.0865508,33.5119805 L16.9735371,35.6249941 L6.01411523,24.6655723 C4.95496875,23.6064258 4.4465625,22.2061172 4.48600781,20.8183594 C4.48242188,20.8183594 4.48242188,5.32910156 4.48242188,5.32910156 C4.48242188,4.09135547 3.47895703,3.08789062 2.24121094,3.08789062 C1.00346484,3.08789062 0,4.09135547 0,5.32910156 L0,25.7988281 L8.96484375,42.1347656 L8.96484375,51 L24.0058594,51 L24.0058594,34.5749121 C24.0058594,32.9247832 23.340668,31.4271563 22.2594082,30.3456973" id="Fill-4" fill="#60779F" mask="url(#mask-2)"></path>
                            </g>
                            <path d="M25.5,6 C30.7466917,6 35,10.2533083 35,15.5 C35,20.7466917 30.7466917,25 25.5,25 C20.2533083,25 16,20.7466917 16,15.5 C16,10.2533083 20.2533083,6 25.5,6" id="Fill-2" fill="#60779F"></path>
                            <path d="M48.7587891,3.08789062 C47.521043,3.08789062 46.5175781,4.09135547 46.5175781,5.32910156 L46.5175781,20.8183594 C46.5534375,22.2061172 46.0450313,23.6064258 44.9858848,24.6655723 L34.0264629,35.6249941 L31.9134492,33.5119805 L42.8728711,22.5525586 C43.7481387,21.677291 43.7481387,20.2582559 42.8728711,19.3829883 C41.9976035,18.5077207 40.5785684,18.5077207 39.7033008,19.3829883 L28.7405918,30.3456973 C27.659332,31.4271563 26.9941406,32.9248828 26.9941406,34.5750117 L26.9941406,51 L42.0351562,51 L42.0351562,42.1347656 L51,25.7988281 L51,5.32910156 C51,4.09135547 49.9965352,3.08789062 48.7587891,3.08789062" id="Fill-6" fill="#60779F"></path>
                        </g>
                    </g>
                </g>
            </g>
        </g>
    </g>
</svg>