<svg xmlns="http://www.w3.org/2000/svg" xmlns:xlink="http://www.w3.org/1999/xlink" width="22" height="19" viewBox="0 0 22 19"><defs><path id="t63wa" d="M1332 636.08c0-1.15.96-2.08 2.15-2.08 1.2 0 2.15.94 2.15 2.08 0 1.14-.96 2.08-2.15 2.08a2.12 2.12 0 0 1-2.15-2.08zm1 0c0 .6.52 1.1 1.15 1.1.64 0 1.15-.5 1.15-1.1 0-.61-.51-1.11-1.15-1.11-.63 0-1.15.5-1.15 1.1zm-1 6.42c0-1.15.96-2.08 2.15-2.08 1.2 0 2.15.94 2.15 2.08 0 1.14-.96 2.08-2.15 2.08a2.12 2.12 0 0 1-2.15-2.08zm1 0c0 .62.52 1.11 1.15 1.11.64 0 1.15-.5 1.15-1.11 0-.61-.51-1.11-1.15-1.11-.63 0-1.15.5-1.15 1.11zm-1 6.42c0-1.14.97-2.08 2.15-2.08 1.19 0 2.15.94 2.15 2.08 0 1.15-.96 2.08-2.15 2.08a2.12 2.12 0 0 1-2.15-2.08zm1 0c0 .6.52 1.11 1.15 1.11.64 0 1.15-.5 1.15-1.11 0-.61-.51-1.11-1.15-1.11-.63 0-1.15.5-1.15 1.1zm5.68-12.84a.5.5 0 0 1 .5-.49h12.32c.28 0 .5.22.5.49a.5.5 0 0 1-.5.48h-12.32a.5.5 0 0 1-.5-.48zm0 6.42a.5.5 0 0 1 .5-.48h12.32c.28 0 .5.21.5.48a.5.5 0 0 1-.5.48h-12.32a.5.5 0 0 1-.5-.48zm0 6.42a.5.5 0 0 1 .5-.49h12.32c.28 0 .5.22.5.49a.5.5 0 0 1-.5.48h-12.32a.5.5 0 0 1-.5-.48z"/></defs><g><g transform="translate(-1331 -633)"><use fill="#0167ce" xlink:href="#t63wa"/><use fill="#fff" fill-opacity="0" stroke="#0167ce" stroke-miterlimit="50" stroke-width=".5" xlink:href="#t63wa"/></g></g></svg>