<svg xmlns="http://www.w3.org/2000/svg" xmlns:xlink="http://www.w3.org/1999/xlink" width="104" height="104" viewBox="0 0 104 104"><defs><path id="pab0a" d="M212 3920a50 50 0 1 1 100 0 50 50 0 0 1-100 0z"/><path id="pab0b" d="M272.07 3894.07c-5.45-.6-7.35 2.72-10.07 2.85-2.72-.13-4.62-3.45-10.07-2.85-5.56.62-8.94 5.3-8.94 5.3l6.8 6.27h24.43l6.77-6.27s-3.36-4.68-8.92-5.3zm3.98 15.6h-28.1s-13.49 10.51-9.06 29.93c0 0 1.48 5.6 8.27 5.6h29.7c6.77 0 8.24-5.6 8.24-5.6 4.44-19.42-9.05-29.93-9.05-29.93z"/><path id="pab0c" d="M266.4 3930.75c-1.19 1.3-3.26 1.57-4.17 1.62-.1-.93-.16-3.08 1.02-4.4 1.19-1.3 3.32-1.52 4.24-1.55.08.9.1 3-1.1 4.33zm0 6.02c-1.19 1.31-3.26 1.57-4.17 1.62-.1-.92-.16-3.07 1.02-4.39 1.19-1.31 3.32-1.53 4.24-1.56.08.9.1 3-1.1 4.33zm-5.34 1.62c-.92-.05-3-.3-4.17-1.62-1.2-1.33-1.18-3.43-1.1-4.33.92.03 3.05.25 4.24 1.56 1.19 1.32 1.12 3.47 1.03 4.4zm-5.27-11.97c.92.03 3.05.24 4.24 1.56 1.19 1.31 1.12 3.46 1.03 4.39-.92-.05-3-.31-4.17-1.62-1.2-1.33-1.18-3.43-1.1-4.33zm0-6.02c.92.03 3.05.24 4.24 1.56 1.19 1.31 1.12 3.46 1.03 4.39-.92-.05-3-.31-4.17-1.62-1.2-1.33-1.18-3.43-1.1-4.33zm7.46 1.56c1.19-1.32 3.32-1.53 4.24-1.56.08.9.1 3-1.1 4.33-1.18 1.3-3.25 1.57-4.16 1.62-.1-.93-.16-3.08 1.02-4.4zm5.22 3.72a.53.53 0 0 0-.47-.32 7.7 7.7 0 0 0-.75 0c1.69-1.95 1.34-4.96 1.26-5.53a.53.53 0 0 0-.5-.5c-.16 0-3.67-.17-5.56 1.92-.35.4-.61.83-.8 1.29-.2-.46-.47-.9-.82-1.29-1.88-2.09-5.4-1.92-5.55-1.91a.53.53 0 0 0-.5.49c-.08.54-.44 3.58 1.25 5.53-.43-.02-.7 0-.75 0a.53.53 0 0 0-.5.49c-.08.54-.44 3.58 1.25 5.54-.43-.02-.7-.01-.75 0a.53.53 0 0 0-.5.48c-.09.55-.45 3.66 1.31 5.6 1.5 1.67 4 1.95 5.01 1.99v.93c0 .3.24.53.54.53.3 0 .53-.23.53-.53v-.93c1-.04 3.52-.32 5.02-1.98 1.76-1.95 1.4-5.03 1.32-5.6a.53.53 0 0 0-.5-.5h-.76c1.69-1.94 1.34-4.96 1.26-5.53a.53.53 0 0 0-.04-.17z"/></defs><g><g transform="translate(-210 -3868)"><use fill="#fff" fill-opacity="0" stroke="#386582" stroke-miterlimit="50" stroke-width="2.5" xlink:href="#pab0a"/></g><g transform="translate(-210 -3868)"><use fill="#fff" fill-opacity="0" stroke="#33617f" stroke-miterlimit="50" stroke-width="1.96" xlink:href="#pab0b"/></g><g clip-path="url(#clip-7EE0D537-390A-4BEB-BB54-336065453F20)" transform="translate(-210 -3868)"><use fill="#33617f" xlink:href="#pab0c"/></g></g></svg>