<svg xmlns="http://www.w3.org/2000/svg" xmlns:xlink="http://www.w3.org/1999/xlink" width="18" height="20" viewBox="0 0 18 20"><defs><path id="tzrta" d="M1211 649.48c0 2.33-4.68 3.52-9 3.52-2.31 0-4.5-.32-6.14-.9-2.36-.82-2.86-1.87-2.86-2.62 0-2.03 3.51-2.96 5.58-3.27l-1.93-2.96a6.33 6.33 0 0 1-1.25-3.77 6.56 6.56 0 0 1 6.6-6.48c3.65 0 6.6 2.93 6.6 6.48a6.3 6.3 0 0 1-1.21 3.72c-.07.1.2-.33-1.97 3.01 2.07.32 5.58 1.24 5.58 3.27zm-9-.2l4.41-6.76c.65-.9.99-1.94.99-3.04a5.36 5.36 0 0 0-5.4-5.3 5.36 5.36 0 0 0-5.4 5.3 5.17 5.17 0 0 0 1.05 3.13zm7.8.2c0-.66-1.58-1.75-5.09-2.18l-2.2 3.38a.6.6 0 0 1-.51.27.6.6 0 0 1-.5-.27l-2.21-3.38c-3.5.43-5.09 1.52-5.09 2.18 0 1 3.08 2.35 7.8 2.35 4.75 0 7.8-1.37 7.8-2.35zm-4.8-10a2.97 2.97 0 0 1-3 2.93c-1.65 0-3-1.31-3-2.93a2.97 2.97 0 0 1 3-2.93c1.65 0 3 1.32 3 2.93zm-1.2 0c0-.96-.8-1.75-1.8-1.75s-1.8.79-1.8 1.75c0 .97.8 1.76 1.8 1.76s1.8-.79 1.8-1.76z"/></defs><g><g transform="translate(-1193 -633)"><use fill="#fff" xlink:href="#tzrta"/></g></g></svg>