<svg xmlns="http://www.w3.org/2000/svg" xmlns:xlink="http://www.w3.org/1999/xlink" width="104" height="104" viewBox="0 0 104 104"><defs><path id="rs4sa" d="M1101 3917a50 50 0 1 1 100 0 50 50 0 0 1-100 0z"/><path id="rs4sb" d="M1173.96 3905.01a1 1 0 0 1-.49.87 1 1 0 0 1-.99.04l-14.29-7.14 2.81-3.51 12.96 5.55zM1163.9 3918c-4.03 6.51-9.49 7.69-9.54 7.7a1.1 1.1 0 0 0-.33.13l-7.15 4.29a2.71 2.71 0 0 1-4.06-2.9 2.7 2.7 0 0 1 1.2-1.72c5.48-3.5 6.47-3.88 6.45-3.9.57 0 1.02-.41 1.02-.98.1-.64 1.97-3.62 3.79-5.45a1.02 1.02 0 0 0-.72-1.74 9.63 9.63 0 0 1-5.49-1.82c-.3-.24-.72-.36-1.07-.18-.36.17-.57.46-.57.85-.36.88-4.28 3.1-5.13 3.19-.42 0-.8.25-.94.65-.16.39-.06.83.25 1.12.01.01 1.08 1.03 1.52 2.31h-4.28l-.76-1.5a3.04 3.04 0 0 1 .12-2.95l4.24-7.07c.35-.59.9-1.05 1.55-1.29l14.58-5.47 11.03 5.52a72.02 72.02 0 0 1-5.71 11.2zm-19.84-1.03c1.56-.67 3.65-1.88 4.71-3.11.82.47 2.1 1.09 3.7 1.4a19.72 19.72 0 0 0-2.76 4.34c-.09-.02-.17-.05-.26-.05h-4.2a7.11 7.11 0 0 0-1.19-2.58zm13.56 23h-24.5v-18.38h13.29c-.93.56-2.06 1.27-3.5 2.18a4.72 4.72 0 0 0-1.4 6.66 4.74 4.74 0 0 0 6.41 1.44l7.02-4.2c.4-.1 1.38-.4 2.68-1.03zm3.46-46.88a1.02 1.02 0 0 0-1.2.3l-4.08 5.1a1.01 1.01 0 0 0 .3 1.53l-12.82 4.8c-1.08.41-2 1.18-2.59 2.16l-4.24 7.07a5.08 5.08 0 0 0-.18 4.9l.3.6h-4.48c-.56 0-1.02.46-1.02 1.02v19.4h-3.06a1.02 1.02 0 0 0 0 2.04h34.7a1.02 1.02 0 0 0 0-2.04h-3.05v-14.3c0-.07-.03-.14-.05-.21 1.92-1.3 4.1-3.3 6.02-6.39a73.58 73.58 0 0 0 5.81-11.37l.12.06a3.06 3.06 0 0 0 4.43-2.74v-4.87c0-.4-.24-.77-.62-.93z"/></defs><g><g transform="translate(-1099 -3865)"><use fill="#fff" fill-opacity="0" stroke="#386582" stroke-miterlimit="50" stroke-width="2.5" xlink:href="#rs4sa"/></g><g transform="translate(-1099 -3865)"><use fill="#386582" xlink:href="#rs4sb"/></g></g></svg>