<svg xmlns="http://www.w3.org/2000/svg" xmlns:xlink="http://www.w3.org/1999/xlink" width="104" height="104" viewBox="0 0 104 104"><defs><path id="teg2a" d="M675 3921a50 50 0 1 1 100 0 50 50 0 0 1-100 0z"/><path id="teg2b" d="M746.6 3921h-17.28v-1.08c0-.6-.48-1.08-1.08-1.08h-6.48c-.6 0-1.08.48-1.08 1.08v1.08H703.4c-1.2 0-2.16-.97-2.16-2.16v-8.65c0-1.2.97-2.16 2.16-2.16h43.2c1.2 0 2.16.97 2.16 2.16v8.65c0 1.19-.97 2.16-2.16 2.16zm-23.56 0h4.48v4.51h-4.48zm23.56 19.74h-43.2c-1.2 0-2.16-.97-2.16-2.18v-15.87c.63.38 1.37.6 2.16.6h17.28v3.28c0 .6.48 1.09 1.08 1.09h6.48c.6 0 1.08-.49 1.08-1.09v-3.27h17.28c.8 0 1.53-.23 2.16-.6v15.86c0 1.2-.97 2.18-2.16 2.18zm-30.27-37.23c0-1.24.98-2.25 2.17-2.25h13c1.2 0 2.17 1 2.17 2.25v2.26h-17.34zm19.5 2.09v-2.2c0-2.43-1.94-4.4-4.33-4.4h-13a4.37 4.37 0 0 0-4.33 4.4v2.2h-10.84a4.37 4.37 0 0 0-4.33 4.4v28.6c0 2.43 1.94 4.4 4.33 4.4h43.34a4.37 4.37 0 0 0 4.33-4.4V3910c0-2.43-1.94-4.4-4.33-4.4z"/></defs><g><g transform="translate(-673 -3869)"><use fill="#fff" fill-opacity="0" stroke="#386582" stroke-miterlimit="50" stroke-width="2.5" xlink:href="#teg2a"/></g><g transform="translate(-673 -3869)"><use fill="#386582" xlink:href="#teg2b"/></g></g></svg>