<svg xmlns="http://www.w3.org/2000/svg" xmlns:xlink="http://www.w3.org/1999/xlink" width="69" height="60" viewBox="0 0 69 60"><defs><path id="67waa" d="M775.22 945.12h24.01c.99 0 1.76.76 1.76 1.74s-.77 1.74-1.76 1.74h-24c-1 0-1.77-.76-1.77-1.74s.85-1.74 1.76-1.74zm35.35-37.75v-3.97c0-2.17-1.76-3.91-3.94-3.91h-23.31v5.65c0 4.05-3.38 7.4-7.46 7.4h-6.27v36c0 2.16 1.76 3.9 3.94 3.9h33.03a3.92 3.92 0 0 0 3.94-3.9v-2.8c1.2-.27 2.4-.7 3.52-1.18v3.97c0 4.12-3.31 7.4-7.46 7.4h-33.1a7.39 7.39 0 0 1-7.46-7.4v-36.97c0-.49.07-.9.28-1.33.21-.42.42-.83.78-1.11l12.81-12.21c.28-.28.63-.56 1.06-.7.42-.14.84-.21 1.26-.21h24.44a7.39 7.39 0 0 1 7.46 7.4v5.16c-1.13-.49-2.32-.9-3.52-1.19zm-19.58 6.35h-2.46c-.99 0-1.76-.77-1.76-1.74 0-.98.77-1.75 1.76-1.75h6.4c-.98.7-1.96 1.47-2.88 2.37-.42.35-.7.77-1.06 1.12zm1 26.72c.41.42.84.84 1.33 1.19h-17.96c-.98 0-1.76-.77-1.76-1.75 0-.97.78-1.74 1.76-1.74h14.65c.63.77 1.27 1.53 1.97 2.3zm-18.39-7.53c0-.98.85-1.75 1.76-1.75h11.41c.28 1.19.7 2.37 1.2 3.5h-12.6c-1 0-1.77-.78-1.77-1.75zm12.68-8.72c-.07.76-.14 1.53-.14 2.3 0 .42.07.77.07 1.18h-10.85c-.98 0-1.76-.76-1.76-1.74s.78-1.74 1.76-1.74zm-10.92-6.98h13.17a16.75 16.75 0 0 0-1.48 3.49h-11.69c-.98 0-1.76-.77-1.76-1.75 0-.97.85-1.74 1.76-1.74zm58.3 32.3a3.05 3.05 0 0 1 0 4.33c-.63.63-1.4.9-2.18.9-.77 0-1.55-.27-2.18-.9l-12.25-12.07.63-.63-1.76-1.74a16.45 16.45 0 0 1-21.4-1.47 16.02 16.02 0 0 1 0-22.88 16.45 16.45 0 0 1 23.09 0 16.07 16.07 0 0 1 1.48 21.2l1.76 1.75.63-.63zm-19.08-31.46a12.1 12.1 0 0 0-17.04 0 11.84 11.84 0 0 0 0 16.88 12.1 12.1 0 0 0 17.04 0 11.84 11.84 0 0 0 0-16.88zm-10.2 2.3c0-1.26.98-2.23 2.25-2.23 1.26 0 2.25.97 2.25 2.23a2.26 2.26 0 0 1-2.25 2.23c-1.27-.07-2.26-1.05-2.26-2.23zm5.55 12.7c0 .2-.14.42-.28.55a3.91 3.91 0 0 1-2.95 1.33c-.5 0-1.06 0-1.62-.07-.92-.14-2.05-1.26-1.9-2.44.07-.77.2-1.6.35-2.37.2-1.4.49-2.8.7-4.19v-.28c0-.56-.21-.77-.77-.84-.28-.07-.57-.07-.78-.14-.35-.13-.42-.34-.42-.55 0-.28.14-.42.5-.5.13-.06.35-.06.49-.06H807.47c.5 0 .85.28.85.77 0 .48-.08.9-.15 1.32l-.84 4.75c-.14.55-.21 1.04-.28 1.6 0 .28 0 .49.07.77.14.35.35.56.7.49.28 0 .57-.14.85-.21.2-.14.42-.28.63-.35.35-.07.63.14.63.42z"/></defs><g><g opacity=".23" transform="translate(-766 -896)"><use xlink:href="#67waa"/></g></g></svg>