<?xml version="1.0" encoding="UTF-8"?>
<svg width="162px" height="161px" viewBox="0 0 162 161" version="1.1" xmlns="http://www.w3.org/2000/svg" xmlns:xlink="http://www.w3.org/1999/xlink">
    <!-- Generator: Sketch 49 (51002) - http://www.bohemiancoding.com/sketch -->
    <title>17</title>
    <desc>Created with Sketch.</desc>
    <defs></defs>
    <g id="Page-1" stroke="none" stroke-width="1" fill="none" fill-rule="evenodd">
        <g id="17" fill-rule="nonzero">
            <rect id="Rectangle-path" fill="#18496B" x="0.9" y="0.1" width="160.9" height="160.9"></rect>
            <polygon id="Shape" fill="#FFFFFF" points="25 13.6 25 46 19.5 46 19.5 21.2 19.5 21.2 15.7 25.1 15.6 25.1 15.6 19.4 20.6 13.6"></polygon>
            <polygon id="Shape" fill="#FFFFFF" points="27.5 13.6 41.2 13.6 41.2 18.6 34 46 28.6 46 35.9 18 27.5 18"></polygon>
            <path d="M122.3,97.7 C122.3,86.4 113.3,77.2 102.1,76.8 C99.2,68.7 91.4,62.8 82.3,62.8 C73.2,62.8 65.4,68.6 62.5,76.8 C51.3,77.2 42.3,86.4 42.3,97.7 C42.3,104.4 45.5,110.4 50.4,114.2 C49.9,116 49.6,118 49.6,120 C49.6,131.6 59,141 70.6,141 C75,141 79.1,139.6 82.4,137.3 C85.7,139.5 89.7,140.8 94,140.8 C105.6,140.8 115,131.4 115,119.8 C115,117.8 114.7,115.9 114.2,114.1 C119.1,110.3 122.3,104.4 122.3,97.7 M99.1,83.7 C99.1,92.1 92.9,99 84.8,100.2 C84.7,99.4 84.6,98.5 84.6,97.6 C84.6,89.2 90.8,82.3 98.9,81.1 C99,82 99.1,82.8 99.1,83.7 M82.4,131.9 C79.3,128.9 77.3,124.6 77.3,119.9 C77.3,115.3 79.2,111.1 82.2,108 C85.3,111 87.3,115.3 87.3,120 C87.3,124.6 85.4,128.8 82.4,131.9 M65.8,81.1 C73.9,82.3 80.1,89.2 80.1,97.6 C80.1,98.5 80,99.3 79.9,100.2 C71.8,99 65.6,92.1 65.6,83.7 C65.6,82.8 65.7,82 65.8,81.1 M78.3,105.2 C75.5,110.7 69.9,114.5 63.4,114.5 C60.6,114.5 58,113.8 55.7,112.6 C58.5,107.1 64.1,103.3 70.7,103.3 C73.4,103.3 76,104 78.3,105.2 M86.3,105 C88.6,103.8 91.2,103.1 94,103.1 C100.6,103.1 106.3,106.9 109,112.5 C106.7,113.7 104,114.4 101.3,114.4 C94.7,114.4 89,110.6 86.3,105 M82.3,67 C89.2,67 95.1,71.1 97.6,77.1 C90.8,78.3 85.1,82.8 82.3,88.9 C79.5,82.8 73.8,78.3 67,77.1 C69.6,71.1 75.5,67 82.3,67 M46.6,97.7 C46.6,89.1 53.2,82 61.5,81.1 C61.4,82 61.3,82.9 61.3,83.8 C61.3,89.9 63.9,95.4 68.1,99.3 C61.1,100.1 55.2,104.3 52,110.2 C48.7,107 46.6,102.6 46.6,97.7 M53.9,120 C53.9,118.8 54,117.7 54.3,116.5 C57.1,117.8 60.1,118.6 63.4,118.6 C67.1,118.6 70.5,117.7 73.5,116 C73.3,117.3 73.1,118.5 73.1,119.9 C73.1,125.6 75.4,130.7 79,134.5 C76.5,136 73.6,136.8 70.6,136.8 C61.4,136.7 53.9,129.2 53.9,120 M110.8,119.9 C110.8,129.1 103.3,136.6 94.1,136.6 C91.1,136.6 88.3,135.8 85.8,134.4 C89.4,130.6 91.6,125.6 91.6,120 C91.6,118.6 91.5,117.3 91.2,116 C94.2,117.7 97.7,118.6 101.4,118.6 C104.7,118.6 107.8,117.8 110.5,116.5 C110.7,117.6 110.8,118.7 110.8,119.9 M96.6,99.1 C100.7,95.3 103.3,89.8 103.3,83.7 C103.3,82.8 103.2,81.9 103.1,81 C111.5,81.9 118,89 118,97.6 C118,102.5 115.9,106.9 112.5,110 C109.4,104.1 103.5,99.9 96.6,99.1" id="Shape" fill="#FFFFFF"></path>
        </g>
    </g>
</svg>