<?xml version="1.0" encoding="UTF-8"?>
<svg width="162px" height="162px" viewBox="0 0 162 162" version="1.1" xmlns="http://www.w3.org/2000/svg" xmlns:xlink="http://www.w3.org/1999/xlink">
    <!-- Generator: Sketch 49 (51002) - http://www.bohemiancoding.com/sketch -->
    <title>12</title>
    <desc>Created with Sketch.</desc>
    <defs></defs>
    <g id="Page-1" stroke="none" stroke-width="1" fill="none" fill-rule="evenodd">
        <g id="12">
            <rect id="Rectangle-path" fill="#BE8B2C" fill-rule="nonzero" x="0.2" y="0.7" width="160.9" height="160.9"></rect>
            <polygon id="Shape" fill="#FFFFFF" fill-rule="nonzero" points="16.3 21.9 16.4 21.9 16.4 46.7 21.8 46.7 21.8 14.3 17.5 14.3 12.4 20.1 12.4 25.8 12.5 25.8"></polygon>
            <path d="M25.1,21 L25.1,24.9 L30.1,24.9 L30.1,20.8 C30.1,18.8 31.1,18.3 32.2,18.3 C33.3,18.3 34.2,18.7 34.2,20.7 L34.2,23.4 C34.2,26.1 34,27.1 32.2,29 L29.1,32.3 C26.1,35.5 25,37.6 25,40.8 L25,46.8 L39.2,46.8 L39.2,42.3 L30.2,42.3 L30.2,40.8 C30.2,38.3 31.1,37.3 32.5,35.8 L36,32.1 C38.8,29.1 39.4,27.2 39.4,23.9 L39.4,20.7 C39.4,16.1 37.2,13.9 32.3,13.9 C27.5,13.9 25.1,16.4 25.1,21" id="Shape" fill="#FFFFFF" fill-rule="nonzero"></path>
            <path d="M121.5,84.2 C114.4,78.6 105,78.5 101.5,79.3 L101.1,79.4 C97.1,80.3 90.8,81.9 83.4,91.1 C83.4,91.2 83.3,91.2 83.3,91.3 L83.2,91.4 C83.1,91.5 83.1,91.6 83.1,91.8 C83.1,91.9 83.1,92 83.2,92.1 L83.4,92.4 C84.3,94 85.5,96 86.5,97.8 C86.5,97.8 86.5,97.8 86.5,97.9 C86.6,98.1 86.8,98.2 87.1,98.2 C87.3,98.2 87.4,98.1 87.5,98 C87.5,97.9 87.6,97.9 87.6,97.8 C94.2,88.7 99.3,87.5 102.8,86.6 L103.2,86.5 C105,86.1 111.9,86.1 116.9,90 C120.8,93.1 122.8,98 122.8,104.5 C122.8,115.5 117.4,119.8 113,121.5 C106,124.1 99.4,120.6 99.3,120.6 L99,120.5 C95.2,118.8 89.5,115.4 84.1,104.6 C73.3,82.8 64.2,80.8 58.2,79.4 L57.9,79.3 C55.2,78.7 45.7,78.2 38.2,84.2 C34.3,87.3 29.7,93.3 29.7,104.5 C29.7,111.3 31.1,115.8 34.7,120.5 C35.5,121.6 43.5,131.9 59,128.9 C61.5,128.4 64.8,127.2 68.5,124.5 L71.9,127.6 C72.1,127.8 72.5,127.8 72.7,127.6 C72.8,127.5 72.8,127.4 72.8,127.2 L75.3,112 L75.3,111.8 C75.3,111.7 75.2,111.5 75.1,111.4 C75,111.3 74.9,111.3 74.7,111.3 L74.6,111.3 L74.4,111.3 L59.9,115.4 L59.6,115.4 C59.5,115.4 59.4,115.5 59.3,115.6 C59.1,115.8 59.1,116.2 59.3,116.4 L59.5,116.6 L62.8,119.5 C60.7,120.9 58.9,121.5 57.5,121.8 C46.3,123.9 40.7,116.6 40.5,116.3 L40.4,116.2 C37.8,112.8 36.9,109.9 36.9,104.7 C36.9,98.1 38.8,93.2 42.7,90.2 C47.6,86.3 54.2,86.3 56.1,86.7 L56.4,86.8 C61.3,87.9 68,89.4 77.3,108.1 C82.1,117.8 88.1,124.1 95.7,127.4 C96.7,127.9 101.3,130.1 107.3,130.1 C109.8,130.1 112.5,129.7 115.4,128.7 C119.8,127.1 130,121.4 130,104.8 C130.2,93.4 125.5,87.3 121.5,84.2" id="Shape" fill="#FFFFFF" fill-rule="nonzero"></path>
            <path d="M121.5,84.2 C114.4,78.6 105,78.5 101.5,79.3 L101.1,79.4 C97.1,80.3 90.8,81.9 83.4,91.1 C83.4,91.2 83.3,91.2 83.3,91.3 L83.2,91.4 C83.1,91.5 83.1,91.6 83.1,91.8 C83.1,91.9 83.1,92 83.2,92.1 L83.4,92.4 C84.3,94 85.5,96 86.5,97.8 C86.5,97.8 86.5,97.8 86.5,97.9 C86.6,98.1 86.8,98.2 87.1,98.2 C87.3,98.2 87.4,98.1 87.5,98 C87.5,97.9 87.6,97.9 87.6,97.8 C94.2,88.7 99.3,87.5 102.8,86.6 L103.2,86.5 C105,86.1 111.9,86.1 116.9,90 C120.8,93.1 122.8,98 122.8,104.5 C122.8,115.5 117.4,119.8 113,121.5 C106,124.1 99.4,120.6 99.3,120.6 L99,120.5 C95.2,118.8 89.5,115.4 84.1,104.6 C73.3,82.8 64.2,80.8 58.2,79.4 L57.9,79.3 C55.2,78.7 45.7,78.2 38.2,84.2 C34.3,87.3 29.7,93.3 29.7,104.5 C29.7,111.3 31.1,115.8 34.7,120.5 C35.5,121.6 43.5,131.9 59,128.9 C61.5,128.4 64.8,127.2 68.5,124.5 L71.9,127.6 C72.1,127.8 72.5,127.8 72.7,127.6 C72.8,127.5 72.8,127.4 72.8,127.2 L75.3,112 L75.3,111.8 C75.3,111.7 75.2,111.5 75.1,111.4 C75,111.3 74.9,111.3 74.7,111.3 L74.6,111.3 L74.4,111.3 L59.9,115.4 L59.6,115.4 C59.5,115.4 59.4,115.5 59.3,115.6 C59.1,115.8 59.1,116.2 59.3,116.4 L59.5,116.6 L62.8,119.5 C60.7,120.9 58.9,121.5 57.5,121.8 C46.3,123.9 40.7,116.6 40.5,116.3 L40.4,116.2 C37.8,112.8 36.9,109.9 36.9,104.7 C36.9,98.1 38.8,93.2 42.7,90.2 C47.6,86.3 54.2,86.3 56.1,86.7 L56.4,86.8 C61.3,87.9 68,89.4 77.3,108.1 C82.1,117.8 88.1,124.1 95.7,127.4 C96.7,127.9 101.3,130.1 107.3,130.1 C109.8,130.1 112.5,129.7 115.4,128.7 C119.8,127.1 130,121.4 130,104.8 C130.2,93.4 125.5,87.3 121.5,84.2" id="Shape" stroke="#FFFFFF" stroke-width="0.73"></path>
        </g>
    </g>
</svg>