<?xml version="1.0" encoding="UTF-8"?>
<svg width="162px" height="162px" viewBox="0 0 162 162" version="1.1" xmlns="http://www.w3.org/2000/svg" xmlns:xlink="http://www.w3.org/1999/xlink">
    <!-- Generator: Sketch 49 (51002) - http://www.bohemiancoding.com/sketch -->
    <title>11</title>
    <desc>Created with Sketch.</desc>
    <defs></defs>
    <g id="Page-1" stroke="none" stroke-width="1" fill="none" fill-rule="evenodd">
        <g id="11" fill-rule="nonzero">
            <rect id="Rectangle-path" fill="#F99D28" x="0.9" y="0.7" width="160.9" height="160.9"></rect>
            <polygon id="Shape" fill="#FFFFFF" points="12.4 20.1 12.4 25.8 12.5 25.8 16.3 21.8 16.4 21.8 16.4 46.6 21.8 46.6 21.8 14.2 17.5 14.2"></polygon>
            <polygon id="Shape" fill="#FFFFFF" points="24.9 20.1 24.9 25.8 24.9 25.8 28.8 21.8 28.8 21.8 28.8 46.6 34.3 46.6 34.3 14.2 29.9 14.2"></polygon>
            <g id="Group" transform="translate(27.000000, 64.000000)" fill="#FFFFFF">
                <g transform="translate(0.000000, 42.000000)" id="Shape">
                    <path d="M1.6,17.2 L1.8,17.2 L25.8,17.2 C26.1,17.2 26.4,16.9 26.4,16.6 C26.4,16.4 26.3,16.3 26.2,16.2 L14.2,0.6 L14.1,0.5 C14,0.4 13.8,0.3 13.7,0.3 C13.6,0.3 13.4,0.4 13.3,0.5 L13.2,0.6 L13.1,0.7 L1.4,16.1 L1.2,16.3 C1.1,16.4 1.1,16.5 1.1,16.6 C1,17 1.3,17.2 1.6,17.2 Z"></path>
                    <path d="M25.7,19.4 L1.4,19.4 C1.1,19.4 0.8,19.7 0.8,20 L0.8,39 C0.8,39.3 1.1,39.6 1.4,39.6 L9.2,39.6 L9.2,27.7 C9.2,27.4 9.5,27.1 9.8,27.1 L17,27.1 C17.3,27.1 17.6,27.4 17.6,27.7 L17.6,39.6 L25.6,39.6 C25.9,39.6 26.2,39.3 26.2,39 L26.2,20 C26.3,19.7 26,19.4 25.7,19.4 Z"></path>
                </g>
                <path d="M109.5,56.5 L85.5,56.5 C85.2,56.5 84.9,56.8 84.9,57.1 L84.9,81.3 C84.9,81.6 85.2,81.9 85.5,81.9 L109.5,81.9 C109.8,81.9 110.1,81.6 110.1,81.3 L110.1,57 C110.1,56.7 109.9,56.5 109.5,56.5 Z M96.4,72.3 C96.4,72.6 96.1,72.9 95.8,72.9 L88.6,72.9 C88.3,72.9 88,72.6 88,72.3 L88,67.9 C88,67.6 88.3,67.3 88.6,67.3 L95.8,67.3 C96.1,67.3 96.4,67.6 96.4,67.9 L96.4,72.3 Z M96.4,64.2 C96.4,64.5 96.1,64.8 95.8,64.8 L88.6,64.8 C88.3,64.8 88,64.5 88,64.2 L88,59.8 C88,59.5 88.3,59.2 88.6,59.2 L95.8,59.2 C96.1,59.2 96.4,59.5 96.4,59.8 L96.4,64.2 Z M107.4,72.3 C107.4,72.6 107.1,72.9 106.8,72.9 L99.6,72.9 C99.3,72.9 99,72.6 99,72.3 L99,67.9 C99,67.6 99.3,67.3 99.6,67.3 L106.8,67.3 C107.1,67.3 107.4,67.6 107.4,67.9 L107.4,72.3 Z M107.4,64.2 C107.4,64.5 107.1,64.8 106.8,64.8 L99.6,64.8 C99.3,64.8 99,64.5 99,64.2 L99,59.8 C99,59.5 99.3,59.2 99.6,59.2 L106.8,59.2 C107.1,59.2 107.4,59.5 107.4,59.8 L107.4,64.2 Z" id="Shape"></path>
                <path d="M53.7,0.2 L30.2,0.2 C29.9,0.2 29.6,0.5 29.6,0.8 L29.6,81.1 C29.6,81.4 29.9,81.7 30.2,81.7 L53.7,81.7 C54,81.7 54.3,81.4 54.3,81.1 L54.3,0.8 C54.3,0.4 54.1,0.2 53.7,0.2 Z M39.8,72.5 C39.8,72.7 39.7,72.8 39.5,72.8 L34.1,72.8 C33.9,72.8 33.8,72.7 33.8,72.5 L33.8,66.5 C33.8,66.3 33.9,66.2 34.1,66.2 L39.5,66.2 C39.7,66.2 39.8,66.3 39.8,66.5 L39.8,72.5 Z M39.8,58.7 C39.8,58.9 39.7,59 39.5,59 L34.1,59 C33.9,59 33.8,58.9 33.8,58.7 L33.8,52.7 C33.8,52.5 33.9,52.4 34.1,52.4 L39.5,52.4 C39.7,52.4 39.8,52.5 39.8,52.7 L39.8,58.7 Z M39.8,44.9 C39.8,45.1 39.7,45.2 39.5,45.2 L34.1,45.2 C33.9,45.2 33.8,45.1 33.8,44.9 L33.8,38.9 C33.8,38.7 33.9,38.6 34.1,38.6 L39.5,38.6 C39.7,38.6 39.8,38.7 39.8,38.9 L39.8,44.9 Z M39.8,31.2 C39.8,31.4 39.7,31.5 39.5,31.5 L34.1,31.5 C33.9,31.5 33.8,31.4 33.8,31.2 L33.8,25.2 C33.8,25 33.9,24.9 34.1,24.9 L39.5,24.9 C39.7,24.9 39.8,25 39.8,25.2 L39.8,31.2 Z M39.8,17.4 C39.8,17.6 39.7,17.7 39.5,17.7 L34.1,17.7 C33.9,17.7 33.8,17.6 33.8,17.4 L33.8,11.4 C33.8,11.2 33.9,11.1 34.1,11.1 L39.5,11.1 C39.7,11.1 39.8,11.2 39.8,11.4 L39.8,17.4 Z M50.3,72.5 C50.3,72.7 50.2,72.8 50,72.8 L44.6,72.8 C44.4,72.8 44.3,72.7 44.3,72.5 L44.3,66.5 C44.3,66.3 44.4,66.2 44.6,66.2 L50,66.2 C50.2,66.2 50.3,66.3 50.3,66.5 L50.3,72.5 Z M50.3,58.7 C50.3,58.9 50.2,59 50,59 L44.6,59 C44.4,59 44.3,58.9 44.3,58.7 L44.3,52.7 C44.3,52.5 44.4,52.4 44.6,52.4 L50,52.4 C50.2,52.4 50.3,52.5 50.3,52.7 L50.3,58.7 Z M50.3,44.9 C50.3,45.1 50.2,45.2 50,45.2 L44.6,45.2 C44.4,45.2 44.3,45.1 44.3,44.9 L44.3,38.9 C44.3,38.7 44.4,38.6 44.6,38.6 L50,38.6 C50.2,38.6 50.3,38.7 50.3,38.9 L50.3,44.9 Z M50.3,31.2 C50.3,31.4 50.2,31.5 50,31.5 L44.6,31.5 C44.4,31.5 44.3,31.4 44.3,31.2 L44.3,25.2 C44.3,25 44.4,24.9 44.6,24.9 L50,24.9 C50.2,24.9 50.3,25 50.3,25.2 L50.3,31.2 Z M50.3,17.4 C50.3,17.6 50.2,17.7 50,17.7 L44.6,17.7 C44.4,17.7 44.3,17.6 44.3,17.4 L44.3,11.4 C44.3,11.2 44.4,11.1 44.6,11.1 L50,11.1 C50.2,11.1 50.3,11.2 50.3,11.4 L50.3,17.4 Z" id="Shape"></path>
                <path d="M110.1,54 C110.1,54.3 109.9,54.5 109.6,54.5 L85.4,54.5 C85.1,54.5 84.9,54.3 84.9,54 L84.9,49.2 C84.9,48.9 85.1,48.7 85.4,48.7 L109.6,48.7 C109.9,48.7 110.1,48.9 110.1,49.2 L110.1,54 Z" id="Shape"></path>
                <path d="M82.1,15.4 C82,15.1 81.8,15 81.5,15 C81.4,15 81.3,15 81.2,15.1 C81.2,15.1 81.2,15.1 81.2,15.1 L81,15.4 L57.9,44.7 L57.8,44.8 C57.7,44.9 57.6,45.1 57.6,45.3 L57.6,81.3 C57.6,81.6 57.9,81.9 58.2,81.9 L81.7,81.9 C82,81.9 82.3,81.6 82.3,81.3 L82.3,15.7 C82.2,15.5 82.2,15.4 82.1,15.4 Z M72.4,31.3 L72.6,31.1 C74.2,29.1 76.8,25.8 78.1,24.2 L78.3,24 C78.4,23.9 78.6,23.8 78.8,23.8 C79.1,23.8 79.4,24 79.4,24.3 L79.4,24.6 L79.4,24.8 L79.4,31.7 C79.4,32.1 79.1,32.3 78.8,32.4 C78.8,32.4 78.8,32.4 78.8,32.4 C78.8,32.4 78.8,32.4 78.8,32.4 L73.3,32.4 L73,32.4 C73,32.4 73,32.4 73,32.4 C73,32.4 73,32.4 73,32.4 C72.6,32.4 72.4,32.1 72.4,31.7 C72.3,31.5 72.3,31.4 72.4,31.3 Z M68.7,72.3 C68.7,72.6 68.4,72.9 68.1,72.9 L61.1,72.9 C60.8,72.9 60.5,72.6 60.5,72.3 L60.5,67.9 C60.5,67.6 60.8,67.3 61.1,67.3 L68.1,67.3 C68.4,67.3 68.7,67.6 68.7,67.9 L68.7,72.3 Z M68.7,64.2 C68.7,64.5 68.4,64.8 68.1,64.8 L61.1,64.8 C60.8,64.8 60.5,64.5 60.5,64.2 L60.5,59.8 C60.5,59.5 60.8,59.2 61.1,59.2 L68.1,59.2 C68.4,59.2 68.7,59.5 68.7,59.8 L68.7,64.2 Z M68.7,56.1 C68.7,56.4 68.4,56.7 68.1,56.7 L61.1,56.7 C60.8,56.7 60.5,56.4 60.5,56.1 L60.5,51.7 C60.5,51.4 60.8,51.1 61.1,51.1 L68.1,51.1 C68.4,51.1 68.7,51.4 68.7,51.7 L68.7,56.1 Z M68.8,38.3 L68.8,38.5 L68.8,47.9 C68.8,48.2 68.5,48.5 68.2,48.5 L61.2,48.5 C60.9,48.5 60.6,48.2 60.6,47.9 L60.6,46.7 C60.6,46.6 60.6,46.6 60.6,46.5 C60.6,46.5 60.6,46.5 60.6,46.4 C60.6,46.4 60.6,46.3 60.7,46.3 C60.7,46.3 60.7,46.2 60.8,46.2 C61.7,44.9 65.7,39.9 67.4,37.9 L67.6,37.7 C67.7,37.6 67.9,37.5 68.1,37.5 C68.4,37.5 68.7,37.7 68.7,38 L68.7,38.3 L68.8,38.3 Z M79.4,72.3 C79.4,72.6 79.1,72.9 78.8,72.9 L71.8,72.9 C71.5,72.9 71.2,72.6 71.2,72.3 L71.2,67.9 C71.2,67.6 71.5,67.3 71.8,67.3 L78.8,67.3 C79.1,67.3 79.4,67.6 79.4,67.9 L79.4,72.3 Z M79.4,64.2 C79.4,64.5 79.1,64.8 78.8,64.8 L71.8,64.8 C71.5,64.8 71.2,64.5 71.2,64.2 L71.2,59.8 C71.2,59.5 71.5,59.2 71.8,59.2 L78.8,59.2 C79.1,59.2 79.4,59.5 79.4,59.8 L79.4,64.2 Z M79.4,56.1 C79.4,56.4 79.1,56.7 78.8,56.7 L71.8,56.7 C71.5,56.7 71.2,56.4 71.2,56.1 L71.2,51.7 C71.2,51.4 71.5,51.1 71.8,51.1 L78.8,51.1 C79.1,51.1 79.4,51.4 79.4,51.7 L79.4,56.1 Z M79.4,48 C79.4,48.3 79.1,48.6 78.8,48.6 L71.8,48.6 C71.5,48.6 71.2,48.3 71.2,48 L71.2,43.6 C71.2,43.3 71.5,43 71.8,43 L78.8,43 C79.1,43 79.4,43.3 79.4,43.6 L79.4,48 Z M79.4,39.9 C79.4,40.2 79.1,40.5 78.8,40.5 L71.8,40.5 C71.5,40.5 71.2,40.2 71.2,39.9 L71.2,35.5 C71.2,35.2 71.5,34.9 71.8,34.9 L78.8,34.9 C79.1,34.9 79.4,35.2 79.4,35.5 L79.4,39.9 Z" id="Shape"></path>
            </g>
        </g>
    </g>
</svg>