<?xml version="1.0" encoding="UTF-8"?>
<svg width="162px" height="161px" viewBox="0 0 162 161" version="1.1" xmlns="http://www.w3.org/2000/svg" xmlns:xlink="http://www.w3.org/1999/xlink">
    <!-- Generator: Sketch 49 (51002) - http://www.bohemiancoding.com/sketch -->
    <title>2</title>
    <desc>Created with Sketch.</desc>
    <defs></defs>
    <g id="Page-1" stroke="none" stroke-width="1" fill="none" fill-rule="evenodd">
        <g id="2" fill-rule="nonzero">
            <rect id="Rectangle-path" fill="#DEA73A" x="0.9" y="0.1" width="160.9" height="160.9"></rect>
            <path d="M31,41.6 L22.1,41.6 L22.1,40.1 C22.1,37.6 23,36.6 24.4,35.1 L27.9,31.4 C30.7,28.4 31.3,26.5 31.3,23.2 L31.3,20 C31.3,15.4 29,13.2 24.2,13.2 C19.4,13.2 17,15.7 17,20.3 L17,24.2 L22,24.2 L22,20.1 C22,18.1 23,17.6 24.1,17.6 C25.2,17.6 26.1,18 26.1,20 L26.1,22.7 C26.1,25.4 25.9,26.4 24.1,28.3 L21,31.6 C18,34.8 16.9,36.9 16.9,40.1 L16.9,46.1 L31,46.1 L31,41.6 Z" id="Shape" fill="#FFFFFF"></path>
            <path d="M65.1,136.9 L65.1,139.2 C65.1,139.2 65.1,139.2 65.1,139.3 C65.1,139.3 65.1,139.3 65.1,139.4 C65.1,140 65.6,140.4 66.1,140.4 C66.1,140.4 66.1,140.4 66.1,140.4 C66.1,140.4 66.1,140.4 66.1,140.4 L92.6,140.4 C92.6,140.4 92.6,140.4 92.6,140.4 C92.6,140.4 92.6,140.4 92.6,140.4 C93.2,140.4 93.6,139.9 93.6,139.3 C93.6,139.3 93.6,139.3 93.6,139.3 C93.6,139.3 93.6,139.3 93.6,139.3 L93.6,136.7 C108.5,131.8 119.7,119.7 122.2,104.9 C122.2,104.9 122.2,104.8 122.2,104.8 C122.2,104.7 122.2,104.7 122.2,104.7 C122.2,104.1 121.7,103.6 121.1,103.6 L37,103.6 L36.5,103.6 C35.9,103.6 35.4,104.1 35.4,104.7 L35.5,105.2 C38.3,120 49.9,132.2 65.1,136.9" id="Shape" fill="#FFFFFF"></path>
            <path d="M93.8,67.4 C93.5,67.9 85.3,79.7 94,89.2 C98,93.6 97.6,97.4 96.5,100 L102.1,100 C103.2,96.2 102.8,91.3 98.2,86.4 C91.8,79.4 98.3,69.9 98.4,69.8 C99.2,68.7 98.8,67.3 97.5,66.7 C96.2,66 94.6,66.4 93.8,67.4" id="Shape" fill="#FFFFFF"></path>
            <path d="M79.7,100.1 L85.3,100.1 C86.4,96.3 86,91.4 81.4,86.5 C75,79.5 81.5,70 81.6,69.9 C82.4,68.8 82,67.4 80.7,66.8 C79.4,66.2 77.8,66.5 77,67.6 C76.6,68.1 68.5,79.9 77.2,89.4 C81.1,93.6 80.8,97.5 79.7,100.1" id="Shape" fill="#FFFFFF"></path>
            <path d="M60.1,67.4 C59.7,67.9 51.6,79.7 60.3,89.2 C64.3,93.6 63.9,97.4 62.8,100 L68.4,100 C69.5,96.2 69.1,91.3 64.5,86.4 C58.1,79.4 64.6,69.9 64.7,69.8 C65.5,68.7 65.1,67.3 63.8,66.7 C62.5,66 60.9,66.4 60.1,67.4" id="Shape" fill="#FFFFFF"></path>
        </g>
    </g>
</svg>