<?xml version="1.0" encoding="UTF-8"?>
<svg width="162px" height="161px" viewBox="0 0 162 161" version="1.1" xmlns="http://www.w3.org/2000/svg" xmlns:xlink="http://www.w3.org/1999/xlink">
    <!-- Generator: Sketch 49 (51002) - http://www.bohemiancoding.com/sketch -->
    <title>4</title>
    <desc>Created with Sketch.</desc>
    <defs></defs>
    <g id="Page-1" stroke="none" stroke-width="1" fill="none" fill-rule="evenodd">
        <g id="4" fill-rule="nonzero">
            <rect id="Rectangle-path" fill="#C5202E" x="0.6" y="0.1" width="160.9" height="160.9"></rect>
            <path d="M25.8,46.1 L31,46.1 L31,40.8 L33.2,40.8 L33.2,36.5 L31,36.5 L31,13.6 L25.6,13.6 L16.2,37.4 L16.2,40.7 L25.8,40.7 L25.8,46.1 Z M21,36.6 L25.9,23.2 L25.9,36.6 L21,36.6 Z" id="Shape" fill="#FFFFFF"></path>
            <polygon id="Shape" fill="#FFFFFF" points="71.9 86.4 43.1 69.8 43.1 123.7 71.9 132.4"></polygon>
            <polygon id="Shape" fill="#FFFFFF" points="75.1 86.5 75.1 132.4 104.2 123.7 104.2 69.8"></polygon>
            <path d="M126.8,68.4 C126.8,66.5 125.3,65 123.4,65 C121.5,65 120,66.5 120,68.4 L120,72.1 L126.8,72.1 L126.8,68.4 Z" id="Shape" fill="#FFFFFF"></path>
            <polygon id="Shape" fill="#FFFFFF" points="120.8 122.7 120 122.7 123.4 134.7 126.8 122.7 126 122.7 126.8 122.7 126.8 74.8 126 74.8 125.1 74.8 124.2 74.8 122.5 74.8 121.7 74.8 120.8 74.8 120 74.8 120 122.7"></polygon>
            <polygon id="Shape" fill="#FFFFFF" points="110.4 72.1 107.3 69.6 107.3 125.1 75.2 135.5 73.7 135.5 73.4 135.5 71.9 135.5 40 126.6 40 69.6 36.9 72.1 36.9 128.8 71.8 138.4 73.4 138.4 73.7 138.4 75.3 138.4 107.5 128.2 110.4 127.4"></polygon>
        </g>
    </g>
</svg>