<?xml version="1.0" encoding="UTF-8"?>
<svg width="162px" height="161px" viewBox="0 0 162 161" version="1.1" xmlns="http://www.w3.org/2000/svg" xmlns:xlink="http://www.w3.org/1999/xlink">
    <!-- Generator: Sketch 49 (51002) - http://www.bohemiancoding.com/sketch -->
    <title>5</title>
    <desc>Created with Sketch.</desc>
    <defs></defs>
    <g id="Page-1" stroke="none" stroke-width="1" fill="none" fill-rule="evenodd">
        <g id="5" fill-rule="nonzero">
            <rect id="Rectangle-path" fill="#EF412C" x="0.9" y="0.1" width="160.9" height="160.9"></rect>
            <path d="M26.6,23.9 C24.4,23.9 22.9,24.7 22,26.1 L22,18 L31.4,18 L31.4,13.5 L17,13.5 L17,31.8 L22,31.8 L22,31.1 C22,29.2 22.9,28.1 24.4,28.1 C26.1,28.1 26.7,29.3 26.7,31 L26.7,38.8 C26.7,40.5 26.1,41.7 24.4,41.7 C22.5,41.7 21.9,40.5 21.9,38.5 L21.9,34.4 L16.9,34.4 L16.9,38.1 C16.9,43 18.9,46.2 24.4,46.2 C29.9,46.2 32.2,43.3 32.2,38.8 L32.2,30.9 C32.1,26 29.5,23.9 26.6,23.9" id="Shape" fill="#FFFFFF"></path>
            <g id="Group" transform="translate(54.000000, 61.000000)" fill="#FFFFFF">
                <path d="M64.1,0 L44.1,0 C44,0 43.8,0.1 43.8,0.3 L43.8,6.9 C43.8,7 43.9,7.2 44.1,7.2 L52.1,7.2 L43.3,16 C38.8,12.5 33.2,10.4 27.1,10.4 C12.7,10.4 0.9,22.2 0.9,36.6 C0.9,49.9 10.9,60.9 23.7,62.6 L23.7,70.3 L15.8,70.3 C15.7,70.3 15.5,70.4 15.5,70.6 L15.5,77.7 C15.5,77.8 15.6,78 15.8,78 L23.7,78 L23.7,85.5 C23.7,85.6 23.8,85.8 24,85.8 L31.1,85.8 C31.2,85.8 31.4,85.7 31.4,85.5 L31.4,78 L39.3,78 C39.4,78 39.6,77.9 39.6,77.7 L39.6,70.6 C39.6,70.5 39.5,70.3 39.3,70.3 L31.4,70.3 L31.4,62.5 C43.8,60.5 53.3,49.7 53.3,36.7 C53.3,31.1 51.5,25.9 48.5,21.6 L57.2,12.9 L57.2,20.3 C57.2,20.4 57.3,20.6 57.5,20.6 L64.1,20.6 C64.2,20.6 64.4,20.5 64.4,20.3 L64.4,0.3 C64.4,0.2 64.3,0 64.1,0 M27.1,55.9 C16.5,55.9 7.8,47.2 7.8,36.6 C7.8,26 16.4,17.3 27.1,17.3 C37.7,17.3 46.4,25.9 46.4,36.6 C46.4,47.3 37.7,55.9 27.1,55.9" id="Shape"></path>
                <path d="M38.9,28.7 L15.5,28.7 C15.4,28.7 15.2,28.8 15.2,28.9 L15.2,34.6 C15.2,34.7 15.3,34.8 15.5,34.8 L38.9,34.8 C39,34.8 39.2,34.7 39.2,34.6 L39.2,29 C39.1,28.8 39,28.7 38.9,28.7" id="Shape"></path>
                <path d="M38.9,38.8 L15.5,38.8 C15.4,38.8 15.2,38.9 15.2,39 L15.2,44.7 C15.2,44.8 15.3,44.9 15.5,44.9 L38.9,44.9 C39,44.9 39.2,44.8 39.2,44.7 L39.2,39 C39.1,38.9 39,38.8 38.9,38.8" id="Shape"></path>
            </g>
        </g>
    </g>
</svg>