<?xml version="1.0" encoding="UTF-8"?>
<svg width="162px" height="161px" viewBox="0 0 162 161" version="1.1" xmlns="http://www.w3.org/2000/svg" xmlns:xlink="http://www.w3.org/1999/xlink">
    <!-- Generator: Sketch 49 (51002) - http://www.bohemiancoding.com/sketch -->
    <title>13</title>
    <desc>Created with Sketch.</desc>
    <defs></defs>
    <g id="Page-1" stroke="none" stroke-width="1" fill="none" fill-rule="evenodd">
        <g id="13" fill-rule="nonzero">
            <rect id="Rectangle-path" fill="#417F45" x="0.7" y="0.1" width="160.9" height="160.9"></rect>
            <polygon id="Shape" fill="#FFFFFF" points="21.1 13.6 21.1 46 15.6 46 15.6 21.2 15.6 21.2 11.7 25.1 11.7 25.1 11.7 19.5 16.7 13.6"></polygon>
            <path d="M39,20.6 L39,23.4 C39,26.1 37.5,27.9 35.3,28.7 C38,29.3 39.3,31.2 39.3,34.2 L39.3,39 C39.3,43.5 36.9,46.4 31.4,46.4 C25.9,46.4 23.9,43.2 23.9,38.3 L23.9,34 L28.9,34 L28.9,38.6 C28.9,40.5 29.6,41.8 31.4,41.8 C33.1,41.8 33.8,40.6 33.8,38.9 L33.8,33.5 C33.8,31.8 33,30.9 31.1,30.9 L28.8,30.9 L28.8,26.7 L31,26.7 C32.8,26.7 33.9,25.8 33.9,24.1 L33.9,20.6 C33.9,18.8 33.3,17.7 31.6,17.7 C29.9,17.7 29.3,18.8 29.3,20.9 L29.3,24.2 L24.3,24.2 L24.3,21.3 C24.3,16.5 26.3,13.2 31.9,13.2 C36.8,13.2 39,16 39,20.6" id="Shape" fill="#FFFFFF"></path>
            <path d="M141.5,100.8 C137.3,94.9 118.1,71.1 82.4,71.1 C46.7,71.1 27.6,94.8 23.3,100.8 C23.1,101.1 23,101.3 22.8,101.5 C22.9,101.7 23.1,101.9 23.3,102.2 C27.5,108.1 46.7,131.9 82.4,131.9 C118,131.9 137.2,108.2 141.5,102.2 C141.7,101.9 141.8,101.7 142,101.5 C141.8,101.3 141.7,101.1 141.5,100.8 M62.5,86.1 C62.8,85.6 63.9,84.3 64,84.1 C64.3,83.7 64.8,83.7 65.2,83.6 C65.6,83.5 66.1,83.7 66.1,84 C66.2,84.3 66,85.4 65.8,85.6 C65.3,86.1 63.9,86.9 63.2,86.8 C62.6,86.8 62.4,86.3 62.5,86.1 M61.2,88.7 C61.3,88.6 61.3,88.6 61.3,88.5 C61.7,88 62.6,87.9 63.3,87.8 C63.9,87.7 64.7,88 64.8,88.4 C64.9,88.8 63.3,89.6 62.9,89.8 C62,90.6 60.7,92.2 59.9,92.4 C59.6,92.5 59.4,92.4 59.3,92.3 C59.9,91.1 60.5,89.8 61.2,88.7 M74.6,116 C74.1,117.9 73.6,118.6 73.1,119.2 C72.6,119.8 70.8,120.6 69.7,120.5 C68.6,120.4 68.4,117.4 68.4,115.9 C68.4,115.4 67.6,117 67.2,113.7 C66.9,111.6 65.6,113.9 65.5,112.5 C65.4,111.1 64.7,111.4 64,110.5 C63.3,109.6 62.4,110.6 61.5,111 C60.5,111.4 60.9,111.7 59.6,111.2 C59.6,111.2 59.5,111.2 59.5,111.2 C58.2,108.2 57.5,105 57.5,101.5 C57.5,100.7 57.5,99.8 57.6,99 C57.6,98.9 57.7,98.8 57.8,98.8 C59.1,97.2 59.1,96.9 59.1,96.9 L60.6,96.4 C60.6,96.4 62.9,96.8 64.7,97.4 C66.1,97.9 68.4,99.2 69.7,98.6 C70.7,98.2 71.4,97.7 71.3,96.9 C71.2,95.9 70.4,95.7 69.5,96.3 C69.1,96.5 68.4,94.8 67.8,94.9 C67.2,95 68.5,97 68,97 C67.5,97.1 66.5,94.9 66.3,94.6 C66.1,94.3 65.4,93.4 64.7,94.1 C63.2,95.5 60.9,95.4 60.4,95.8 C58.9,96.9 58.6,95.4 58.6,94.6 C58.7,94.4 58.7,94.2 58.8,94 C59.3,93.5 61,93.3 61.6,93.7 C62.2,94.1 62.7,93.6 63,93.3 C63.3,93 63.2,92.6 63,92.3 C62.8,92 63.3,91.7 63.7,91.6 C64,91.5 65.1,90.7 65.6,90.5 C66,90.2 68.3,90 69.4,90.5 C70.4,91 71.4,90.6 71.9,90 C72.5,89.2 73.3,88.7 73.7,88.5 C74.1,88.3 72.8,87.2 71.8,88.4 C70.8,89.7 70.3,89.8 69.8,89.8 C69.3,89.8 66.5,89.1 66.1,88.2 C65.8,87.3 67,86.6 68.1,86.1 C69.2,85.6 72.1,85.6 72.8,85.4 C74.3,85.1 76.2,84.3 77.2,85 C78.2,85.6 73.2,86.8 74.8,87.7 C75.4,88 78,86.2 78.9,85.7 C81,84.6 76.8,84.2 77.4,82 C78,79.5 72.2,80.4 69.4,80.7 C73.3,78.2 77.8,76.8 82.8,76.8 C94.5,76.8 104.3,84.9 106.9,95.8 C106.9,96.3 106.8,96.7 106.8,96.9 C106.6,97.8 104.9,98.6 103.9,97.1 C103.6,96.7 102.6,95.7 102.6,97.5 C102.6,99.2 104.3,99.4 102.7,100.4 C101.1,101.4 100.8,101.2 100.1,101.4 C99.4,101.7 98.7,103.4 98.8,104.4 C99,105.3 101.2,107.9 99.6,107.8 C99.2,107.8 96.2,105.7 95.7,104.4 C95.2,103 94.6,101.7 94.2,100.6 C93.8,99.6 92.7,99.3 91.9,99.9 C91,100.5 92.1,101.1 91.5,102.4 C90.9,103.7 90.4,104.8 89.5,103.8 C87.1,101 83.6,102.4 83,99.3 C82.7,97.6 81.3,97.8 80.1,96.8 C78.9,95.9 78.2,95.3 78,96 C77.8,96.6 81.8,99.8 82.1,100.6 C82.5,101.8 80.9,102.9 79.7,103.1 C78.5,103.4 78,102.4 76.8,101.2 C75.6,100 75.1,99.1 75.1,100.1 C75,101.5 76.2,103.5 77.4,104.2 C78.4,104.8 79.5,105.1 79.2,106.2 C78.9,107.2 79.2,106.6 78.1,107.8 C77,108.9 76.8,109.3 76.8,110.8 C76.9,112.4 76.5,112.4 76.2,113.7 C75.6,115.3 75.1,114.2 74.6,116 M101.2,106.1 C102,106 103.3,107.2 102.8,107.6 C102.3,108 101.1,107.9 100.4,107.4 C99.8,107 100.9,106.2 101.2,106.1 M100.2,105.4 C99.9,105.3 99.7,105 99.5,104.4 C99.3,103.8 99.8,103.4 100.3,103.7 C100.8,104 101.5,104.7 101.5,105.1 C101.4,105.5 100.4,105.5 100.2,105.4 M89.2,105.3 C88.7,105.7 87.5,105.6 86.8,105.1 C86.2,104.6 87.2,103.8 87.6,103.8 C88.4,103.7 89.7,104.9 89.2,105.3 M79.1,110.3 C78.8,110.9 77.8,115 77.2,114.5 C76.6,114 77.5,109.7 77.6,109.3 C78.6,107.5 80.7,107.6 79.1,110.3 M82.4,126.5 C80,126.5 77.6,126.1 75.4,125.5 C75.1,125.2 74.9,124.8 75.1,124.3 C75.9,122.3 78.2,121.5 80,121.3 C84,120.9 89.3,123.9 90.2,123.4 C91,122.9 92.7,120.7 95.2,120.8 C96.9,120.9 96.9,121.2 97.5,121.4 C93.3,124.6 88.1,126.5 82.4,126.5 M100,119.2 C99.8,119.1 99.5,119 99.2,118.9 C97.8,118.2 98,119.3 97.3,119.1 C96.6,118.9 98.1,117.3 96,118.6 C94,119.9 94.5,118.4 93.7,116.2 C92.8,114 94.7,111.5 96.3,110.9 C98.5,110.1 99.8,110 100.8,109.7 C103.8,109 104.4,107.2 105,108.3 C105.1,108.5 105.2,108.7 105.3,108.9 C105.5,109.2 105.7,109.9 105.7,110.5 C104.4,113.8 102.4,116.8 100,119.2 M106.8,106.7 C106.1,106.5 103.3,102.7 105.5,100.1 C105.9,99.7 104.8,98.5 105.1,98.4 C106.3,98.3 106.9,99.1 107.3,100.1 C107.3,100.6 107.3,101.1 107.3,101.5 C107.3,103.4 107.1,105 106.8,106.7" id="Shape" fill="#FFFFFF"></path>
        </g>
    </g>
</svg>