<?xml version="1.0" encoding="UTF-8"?>
<svg width="162px" height="161px" viewBox="0 0 162 161" version="1.1" xmlns="http://www.w3.org/2000/svg" xmlns:xlink="http://www.w3.org/1999/xlink">
    <!-- Generator: Sketch 49 (51002) - http://www.bohemiancoding.com/sketch -->
    <title>14</title>
    <desc>Created with Sketch.</desc>
    <defs></defs>
    <g id="Page-1" stroke="none" stroke-width="1" fill="none" fill-rule="evenodd">
        <g id="14" fill-rule="nonzero">
            <rect id="Rectangle-path" fill="#1C97D4" x="0.9" y="0.1" width="160.9" height="160.9"></rect>
            <polygon id="Shape" fill="#FFFFFF" points="21.9 13.6 21.9 46 16.4 46 16.4 21.2 16.4 21.2 12.6 25.2 12.5 25.2 12.5 19.5 17.5 13.6"></polygon>
            <path d="M38.5,46 L38.5,40.7 L40.7,40.7 L40.7,36.4 L38.5,36.4 L38.5,13.5 L33.1,13.5 L23.7,37.3 L23.7,40.7 L33.3,40.7 L33.3,46 L38.5,46 Z M28.5,36.5 L33.4,23.1 L33.4,36.5 L28.5,36.5 Z" id="Shape" fill="#FFFFFF"></path>
            <path d="M124.5,117.5 C122.5,114.8 109.4,98.1 91.1,98.1 C75.2,98.1 58.1,112.5 58.1,112.5 C58.1,112.5 51.7,99.4 38.6,98.1 C38.5,98.1 38.4,98.1 38.4,98.1 L38.3,98.1 C38,98.1 37.8,98.4 37.8,98.6 C37.8,98.8 38,99.1 38,99.1 C39.7,101.9 44,109.9 44,117.8 C44,125.8 39.7,133.8 38,136.6 L37.9,136.8 C37.9,136.9 37.8,137 37.8,137.1 C37.8,137.4 38,137.6 38.3,137.6 L38.4,137.6 C38.4,137.6 38.5,137.6 38.5,137.6 C51.6,136.4 58.1,123.2 58.1,123.2 C58.1,123.2 75.1,137.6 91.1,137.6 C109.4,137.6 122.5,120.9 124.5,118.2 C124.6,118.1 124.6,118.1 124.6,118 C124.6,117.9 124.6,117.9 124.6,117.8 C124.6,117.7 124.6,117.7 124.6,117.6 C124.6,117.6 124.5,117.6 124.5,117.5 M101.2,120 C98.2,120 95.8,117.6 95.8,114.6 C95.8,111.6 98.2,109.3 101.2,109.3 C104.2,109.3 106.6,111.7 106.6,114.6 C106.6,117.6 104.2,120 101.2,120" id="Shape" fill="#FFFFFF"></path>
            <path d="M38.2,66.7 C38.2,66.7 38.1,66.7 38.1,66.7 C37.8,66.7 37.6,66.9 37.6,67.2 L37.6,70.9 C37.6,71.1 37.7,71.2 37.8,71.3 C46.7,79 55,71.8 57,69.9 C57,69.8 57.1,69.8 57.1,69.8 C57.2,69.7 57.3,69.7 57.4,69.7 C57.5,69.7 57.7,69.8 57.8,69.8 C57.8,69.8 57.8,69.8 57.8,69.8 C67.8,79.3 78.3,71.6 80.5,69.8 L80.7,69.6 C80.8,69.6 80.8,69.6 80.9,69.6 C81,69.6 81,69.6 81.1,69.6 L81.3,69.8 C83.5,71.6 94,79.3 104,69.8 C104,69.8 104,69.8 104,69.8 C104.1,69.7 104.2,69.7 104.4,69.7 C104.5,69.7 104.6,69.7 104.7,69.8 C104.8,69.8 104.8,69.9 104.8,69.9 C106.7,71.8 115.1,79 124,71.3 C124.1,71.2 124.2,71.1 124.2,70.9 L124.2,67.2 C124.2,66.9 124,66.7 123.7,66.7 C123.7,66.7 123.6,66.7 123.6,66.7 C123.5,66.7 123.4,66.8 123.3,66.8 C120.6,68.2 112.1,71.4 104.5,64.2 C104.4,64.1 104.4,64.1 104.3,64 C104.2,64 104.2,64 104.1,64 C104,64 104,64 103.9,64 C103.8,64 103.7,64.1 103.6,64.2 C101.3,65.9 90.8,73 81.5,64.3 L81.4,64.2 C81.3,64.1 81.2,64 81,64 C80.9,64 80.7,64.1 80.6,64.2 L80.5,64.3 C71.2,73 60.7,65.9 58.4,64.2 C58.3,64.1 58.3,64 58.1,64 C58,64 58,64 57.9,64 C57.8,64 57.8,64 57.7,64 C57.6,64.1 57.6,64.1 57.5,64.2 C49.8,71.5 41.4,68.2 38.7,66.8 C38.3,66.8 38.2,66.8 38.2,66.7" id="Shape" fill="#FFFFFF"></path>
            <path d="M56.9,83.1 C56.9,83 57,83 57,83 C57.1,82.9 57.2,82.9 57.3,82.9 C57.4,82.9 57.6,83 57.7,83 C57.7,83 57.7,83 57.7,83 C67.7,92.5 78.2,84.8 80.4,83 L80.6,82.8 C80.7,82.8 80.7,82.8 80.8,82.8 C80.9,82.8 80.9,82.8 81,82.8 L81.2,83 C83.4,84.8 93.9,92.5 103.9,83 C103.9,83 103.9,83 103.9,83 C104,82.9 104.1,82.9 104.3,82.9 C104.4,82.9 104.5,82.9 104.6,83 C104.7,83 104.7,83.1 104.7,83.1 C106.6,85 115,92.2 123.9,84.5 C124,84.4 124.1,84.3 124.1,84.1 L124.1,80.4 C124.1,80.1 123.9,79.9 123.6,79.9 C123.6,79.9 123.5,79.9 123.5,79.9 C123.4,79.9 123.3,80 123.2,80 C120.5,81.4 112,84.6 104.4,77.4 C104.3,77.3 104.3,77.3 104.2,77.2 C104.1,77.2 104.1,77.1 104,77.1 C103.9,77.1 103.9,77.1 103.8,77.1 C103.7,77.1 103.6,77.2 103.5,77.3 C101.2,79 90.7,86.1 81.4,77.4 L81.3,77.3 C81.2,77.2 81.1,77.2 80.9,77.2 C80.8,77.2 80.6,77.3 80.5,77.3 L80.4,77.4 C71.1,86.1 60.6,79 58.3,77.3 C58.2,77.2 58.2,77.1 58,77.1 C57.9,77.1 57.9,77.1 57.8,77.1 C57.7,77.1 57.7,77.1 57.6,77.2 C57.5,77.3 57.5,77.3 57.4,77.4 C49.7,84.6 41.3,81.4 38.6,80 C38.5,80 38.4,79.9 38.3,79.9 C38.3,79.9 38.2,79.9 38.2,79.9 C37.9,79.9 37.7,80.1 37.7,80.4 L37.7,84.1 C37.7,84.3 37.8,84.4 37.9,84.5 C46.5,92.2 54.9,85 56.9,83.1" id="Shape" fill="#FFFFFF"></path>
        </g>
    </g>
</svg>