<?xml version="1.0" encoding="UTF-8"?>
<svg width="162px" height="162px" viewBox="0 0 162 162" version="1.1" xmlns="http://www.w3.org/2000/svg" xmlns:xlink="http://www.w3.org/1999/xlink">
    <!-- Generator: Sketch 49 (51002) - http://www.bohemiancoding.com/sketch -->
    <title>9</title>
    <desc>Created with Sketch.</desc>
    <defs></defs>
    <g id="Page-1" stroke="none" stroke-width="1" fill="none" fill-rule="evenodd">
        <g id="9" fill-rule="nonzero">
            <rect id="Rectangle-path" fill="#F26A2C" x="0.4" y="0.7" width="160.9" height="160.9"></rect>
            <path d="M122.2,109.75 L103.1,98.75 L103.1,76.65 C103.1,76.15 102.9,75.75 102.4,75.55 L82.6,64.15 C82.2,63.95 81.7,63.95 81.3,64.15 L61.5,75.55 C61.1,75.75 60.8,76.25 60.8,76.65 L60.8,98.75 L41.7,109.75 C41.3,109.95 41,110.45 41,110.85 L41,133.65 C41,134.15 41.2,134.55 41.7,134.75 L61.5,146.15 C61.7,146.25 61.9,146.35 62.2,146.35 C62.4,146.35 62.7,146.25 62.9,146.15 L82,135.15 L101.1,146.15 C101.3,146.25 101.5,146.35 101.8,146.35 C102,146.35 102.3,146.25 102.5,146.15 L122.3,134.75 C122.7,134.55 123,134.05 123,133.65 L123,110.85 C122.9,110.45 122.6,109.95 122.2,109.75 Z M80.7,131.45 L64.8,122.25 L80.7,113.05 L80.7,131.45 Z M99.2,99.45 L83.3,108.65 L83.3,90.35 L99.2,99.45 Z M80.7,108.65 L64.8,99.45 L80.7,90.25 L80.7,108.65 Z M84.6,110.85 L101.8,100.95 L119,110.85 L101.8,120.75 L84.6,110.85 Z M100.5,97.25 L84.6,88.05 L100.5,78.85 L100.5,97.25 Z M79.4,88.05 L63.5,97.25 L63.5,78.95 L79.4,88.05 Z M60.9,142.85 L43.7,132.95 L43.7,113.15 L60.9,123.05 L60.9,142.85 Z M63.5,142.85 L63.5,124.55 L79.4,133.75 L63.5,142.85 Z M120.2,132.95 L103,142.85 L103,123.05 L120.2,113.15 L120.2,132.95 Z" id="Shape" fill="#FFFFFF"></path>
            <path d="M29.9,22.4 C29.9,17.4 27.7,13.7 22,13.7 C16.2,13.7 14,16.9 14,21.9 L14,26.7 C14,32 16.1,34.7 20,34.7 C22.3,34.7 23.7,33.6 24.5,32.1 L24.5,39.1 C24.5,41.1 23.7,42.4 21.8,42.4 C19.8,42.4 19.1,41.3 19.1,39.2 L19.1,37 L14.1,37 L14.1,38.7 C14.1,43.5 15.8,46.8 21.9,46.8 C27.6,46.8 29.9,43.1 29.9,38 L29.9,22.4 Z M24.5,27.3 C24.4,29.1 23.6,30.3 21.9,30.3 C20,30.3 19.3,29.2 19.3,27 L19.3,21.4 C19.3,19.3 20.1,18.1 21.9,18.1 C23.7,18.1 24.4,19.3 24.4,21.4 L24.4,27.3 L24.5,27.3 Z" id="Shape" fill="#FFFFFF"></path>
        </g>
    </g>
</svg>