<?xml version="1.0" encoding="UTF-8"?>
<svg width="162px" height="161px" viewBox="0 0 162 161" version="1.1" xmlns="http://www.w3.org/2000/svg" xmlns:xlink="http://www.w3.org/1999/xlink">
    <!-- Generator: Sketch 49 (51002) - http://www.bohemiancoding.com/sketch -->
    <title>6</title>
    <desc>Created with Sketch.</desc>
    <defs></defs>
    <g id="Page-1" stroke="none" stroke-width="1" fill="none" fill-rule="evenodd">
        <g id="6" fill-rule="nonzero">
            <rect id="Rectangle-path" fill="#29BEE2" x="0.2" y="0.1" width="160.9" height="160.9"></rect>
            <path d="M24.6,46.5 C30.4,46.5 32.6,43.3 32.6,38.3 L32.6,33.5 C32.6,28.2 30.5,25.5 26.6,25.5 C24.3,25.5 22.9,26.6 22.1,28.1 L22.1,21.1 C22.1,19.1 22.7,17.7 24.7,17.7 C26.7,17.7 27.2,18.9 27.2,20.9 L27.2,23.1 L32.2,23.1 L32.2,21.4 C32.2,16.6 30.6,13.3 24.6,13.3 C18.9,13.3 16.7,17 16.7,22.1 L16.7,37.9 C16.6,42.9 18.8,46.5 24.6,46.5 Z M22.1,32.9 C22.2,31.1 23,29.9 24.7,29.9 C26.6,29.9 27.3,31 27.3,33.2 L27.3,38.8 C27.3,40.9 26.5,42.1 24.7,42.1 C22.9,42.1 22.2,40.9 22.2,38.8 L22.2,32.9 L22.1,32.9 Z" id="Shape" fill="#FFFFFF"></path>
            <path d="M110.3,65.2 C110.2,65.1 110,65 109.8,65 L51.4,65 C51.2,65 51,65.1 50.9,65.2 C50.8,65.4 50.7,65.6 50.8,65.8 L60.6,125.1 C60.7,125.4 60.9,125.7 61.3,125.7 L73.3,125.7 L74.1,135.4 L69,135.4 L80.8,147.2 L92.6,135.4 L87.5,135.4 L88.3,125.8 L100.6,125.8 C100.9,125.8 101.2,125.6 101.3,125.2 L110.5,65.9 C110.5,65.6 110.5,65.4 110.3,65.2 Z M87.8,112.7 C87.8,112.7 85.1,115.4 80.8,115.1 C76.5,115.4 73.8,112.7 73.8,112.7 C69.4,108.3 71,102.9 72.5,100.1 C73.4,98.3 80.2,88.2 80.7,87.4 L80.7,87.3 C80.7,87.3 80.7,87.3 80.7,87.3 L80.7,87.4 C81.3,88.3 88,98.4 88.9,100.1 C90.6,102.9 92.1,108.3 87.8,112.7 Z M106.3,77.7 C104.7,77 102.7,77.3 100.8,78 C93.6,80.9 88.6,82 81,79.6 C76.2,78.1 71.7,75 66.4,76.9 C62.9,78.2 59.6,79.4 55.6,79.3 L53.3,67.5 L107.9,67.5 L106.3,77.7 Z" id="Shape" fill="#FFFFFF"></path>
        </g>
    </g>
</svg>