<?xml version="1.0" encoding="UTF-8"?>
<svg width="98px" height="97px" viewBox="0 0 98 97" version="1.1" xmlns="http://www.w3.org/2000/svg" xmlns:xlink="http://www.w3.org/1999/xlink">
    <!-- Generator: Sketch 49.2 (51160) - http://www.bohemiancoding.com/sketch -->
    <title>round</title>
    <desc>Created with Sketch.</desc>
    <defs></defs>
    <g id="Dashboard-+-Module-03" stroke="none" stroke-width="1" fill="none" fill-rule="evenodd">
        <g id="round" fill-rule="nonzero">
            <path d="M25.91,34.65 C27.1130593,32.6070028 28.5751756,30.7280995 30.26,29.06 L16.01,13.43 C12.4075021,16.8697077 9.35518811,20.842775 6.96,25.21 L25.91,34.65 Z" id="Shape" fill="#5FBA46"></path>
            <path d="M60.81,23.61 C62.9646346,24.5936322 64.9816706,25.8542797 66.81,27.36 L81.12,11.77 C77.3250312,8.50488949 73.0521021,5.84063223 68.45,3.87 L60.81,23.61 Z" id="Shape" fill="#E4B634"></path>
            <path d="M93.58,28.31 L74.64,37.77 C75.5556529,39.9092392 76.1909172,42.1578733 76.53,44.46 L97.61,42.46 C97.0046591,37.5672313 95.6557815,32.795577 93.61,28.31" id="Shape" fill="#C4202E"></path>
            <path d="M73.28,35.02 L92.22,25.57 C89.8805171,21.2287447 86.8966394,17.2670991 83.37,13.82 L69.08,29.42 C70.7126635,31.1002786 72.1240784,32.982165 73.28,35.02" id="Shape" fill="#4D9F46"></path>
            <path d="M22.15,48.48 C22.15,48.05 22.15,47.62 22.15,47.2 L1.07,45.31 C1.01,46.31 0.97,47.41 0.97,48.48 C0.96987723,52.4301864 1.45006768,56.3657333 2.4,60.2 L22.81,54.36 C22.3833272,52.4291298 22.1687226,50.4574498 22.17,48.48" id="Shape" fill="#3F7F44"></path>
            <path d="M70.63,65.77 C69.1295614,67.5925219 67.4022183,69.2156867 65.49,70.6 L76.61,88.6 C80.7371246,85.8009689 84.4127931,82.3883298 87.51,78.48 L70.63,65.77 Z" id="Shape" fill="#F9C213"></path>
            <path d="M76.81,48.48 C76.8096532,50.4336929 76.5984299,52.3816414 76.18,54.29 L96.53,60.14 C97.4794009,56.3260109 97.9596199,52.4103785 97.96,48.48 C97.96,47.48 97.96,46.48 97.86,45.48 L76.79,47.48 C76.79,47.81 76.79,48.14 76.79,48.48" id="Shape" fill="#EE402B"></path>
            <path d="M28.69,66.2 L11.81,79 C14.944449,82.8755427 18.6541502,86.2479982 22.81,89 L33.93,71 C31.9709245,69.6452797 30.1960817,68.0418706 28.65,66.23" id="Shape" fill="#F89E28"></path>
            <path d="M22.49,44.16 C22.8580629,41.8192129 23.5304214,39.5365557 24.49,37.37 L5.55,27.94 C3.42402447,32.4717731 2.01392468,37.305919 1.37,42.27 L22.49,44.16 Z" id="Shape" fill="#1896D3"></path>
            <path d="M74.02,90.28 L62.91,72.28 C60.8721679,73.4318494 58.6941704,74.3158206 56.43,74.91 L60.35,95.77 C65.1583015,94.6573156 69.7682267,92.8160434 74.02,90.31" id="Shape" fill="#A11C44"></path>
            <path d="M75.39,57.24 C74.6457497,59.3862743 73.6380507,61.4319033 72.39,63.33 L89.29,76.08 C92.0668775,72.0943099 94.2246379,67.7113591 95.69,63.08 L75.39,57.24 Z" id="Shape" fill="#25BDE2"></path>
            <path d="M53.43,75.53 C52.1255104,75.7227498 50.8086529,75.8196759 49.49,75.82 C48.4272335,75.8177008 47.3654794,75.7542626 46.31,75.63 L42.39,96.44 C44.740901,96.7854996 47.1138466,96.9592928 49.49,96.96 C52.1225469,96.9584146 54.75081,96.7477523 57.35,96.33 L53.43,75.53 Z" id="Shape" fill="#F16A2B"></path>
            <path d="M51.24,21.19 C53.5398961,21.3372377 55.8115895,21.7774623 58,22.5 L65.6,2.74 C60.979747,1.1074623 56.1372383,0.190218309 51.24,0.02 L51.24,21.19 Z" id="Shape" fill="#E7223C"></path>
            <path d="M43.29,75.11 C40.9511964,74.5626546 38.6949932,73.7085926 36.58,72.57 L25.45,90.57 C29.7897461,93.054155 34.4891383,94.8488978 39.38,95.89 L43.29,75.11 Z" id="Shape" fill="#DC1768"></path>
            <path d="M41.27,22.4 C43.5093715,21.6885217 45.832668,21.2749682 48.18,21.17 L48.18,0 C43.2189614,0.134629287 38.3081733,1.03179249 33.62,2.66 L41.27,22.4 Z" id="Shape" fill="#17486A"></path>
            <path d="M26.81,63.77 C25.4500633,61.7667666 24.3637918,59.5908606 23.58,57.3 L3.24,63.14 C4.76426639,67.9403923 7.03180479,72.4720948 9.96,76.57 L26.81,63.77 Z" id="Shape" fill="#C7982E"></path>
            <path d="M32.55,27.03 C34.3462607,25.6049271 36.315141,24.4121754 38.41,23.48 L30.81,3.77 C26.2901486,5.66994809 22.0854356,8.24605126 18.34,11.41 L32.55,27.03 Z" id="Shape" fill="#03699C"></path>
        </g>
    </g>
</svg>