<svg xmlns="http://www.w3.org/2000/svg" xmlns:xlink="http://www.w3.org/1999/xlink" width="100" height="90" viewBox="0 0 100 90"><defs><path id="xxrca" d="M850 3815.55v59.97c0 4.54-3.7 8.23-8.25 8.23h-83.5a8.24 8.24 0 0 1-8.25-8.23v-59.97c0-4.53 3.7-8.22 8.25-8.22h22.89l1.78-7.1a8.23 8.23 0 0 1 8-6.23h18.16c3.8 0 7.08 2.56 8 6.23l1.78 7.1h22.9a8.24 8.24 0 0 1 8.24 8.22zm-65.63-8.22h3.65l1.38-5.48c.17-.7.8-1.19 1.52-1.19h18.16c.72 0 1.35.5 1.52 1.19l1.38 5.48h3.65l-1.58-6.34a5.1 5.1 0 0 0-4.97-3.87h-18.16a5.1 5.1 0 0 0-4.97 3.87zm23.5-3.54h-15.73l-.89 3.54h17.5zm-53.53 8.47l10.17 30.42a6.78 6.78 0 0 0 6.44 4.63h22.47v-3.44a3.24 3.24 0 0 1 3.24-3.23h6.68a3.24 3.24 0 0 1 3.24 3.23v3.44h22.47a6.77 6.77 0 0 0 6.44-4.63l10.17-30.42a5.11 5.11 0 0 0-3.9-1.81h-83.51c-1.57 0-2.97.7-3.9 1.81zm49.1 38.38v-6.77a.1.1 0 0 0-.1-.1h-6.68a.1.1 0 0 0-.1.1v6.77zm-6.88 3.12v3.44c0 .05.04.1.1.1h6.68a.1.1 0 0 0 .1-.1v-3.44zm50.3 21.76v-57l-8.4 25.15a9.9 9.9 0 0 1-9.4 6.76h-22.48v6.77a3.24 3.24 0 0 1-3.24 3.22h-6.68a3.24 3.24 0 0 1-3.24-3.22v-6.77h-22.47a9.9 9.9 0 0 1-9.41-6.76l-8.4-25.16v57.01c0 2.81 2.29 5.1 5.1 5.1h83.51a5.11 5.11 0 0 0 5.12-5.1z"/></defs><g><g transform="translate(-750 -3794)"><use fill="#3a3a3a" xlink:href="#xxrca"/></g></g></svg>