<?xml version="1.0" encoding="UTF-8"?>
<svg width="51px" height="50px" viewBox="0 0 51 50" version="1.1" xmlns="http://www.w3.org/2000/svg" xmlns:xlink="http://www.w3.org/1999/xlink">
    <!-- Generator: Sketch 52.5 (67469) - http://www.bohemiancoding.com/sketch -->
    <title>Group</title>
    <desc>Created with Sketch.</desc>
    <defs>
        <polygon id="path-1" points="0 0.104899497 21.5066493 0.104899497 21.5066493 49.9998744 0 49.9998744"></polygon>
    </defs>
    <g id="Page-1" stroke="none" stroke-width="1" fill="none" fill-rule="evenodd">
        <g id="Marker-Landing-Page" transform="translate(-856.000000, -660.000000)">
            <g id="Group-6" transform="translate(835.000000, 640.000000)">
                <g id="Group-11">
                    <g id="Group" transform="translate(21.000000, 20.000000)">
                        <g id="Group-4">
                            <mask id="mask-2" fill="white">
                                <use xlink:href="#path-1"></use>
                            </mask>
                            <g id="Clip-2"></g>
                            <path d="M14.3709627,10.6051508 C17.2992761,10.6051508 19.6725522,8.25502513 19.6725522,5.35527638 C19.6725522,2.45502513 17.2997836,0.104899497 14.3709627,0.104899497 C11.4421418,0.104899497 9.06886567,2.45502513 9.06886567,5.35527638 C9.06886567,8.25502513 11.4421418,10.6051508 14.3709627,10.6051508 Z" id="Fill-1" fill="#60779F" mask="url(#mask-2)"></path>
                            <path d="M20.7232537,36.8369347 C19.8396343,36.7103015 19.0387313,36.2582915 18.473291,35.5536432 C17.8003955,34.7154523 17.5540224,33.635804 17.7983657,32.5930905 L17.8300821,32.4571608 C16.8180746,32.5851759 15.8363881,32.3535176 15.0216567,31.8476131 C14.0597612,31.2498744 13.3907985,30.3169598 13.1370672,29.2207286 C12.8838433,28.1248744 13.0765522,26.9967337 13.6801791,26.0437186 L21.5066493,13.6919598 C20.7207164,12.5765075 19.5030597,11.9963568 18.2498806,11.9963568 L10.4916642,11.9963568 C8.9201791,11.9963568 7.54558955,12.9101759 6.87256716,14.2591709 L0.27758209,27.4894472 C-0.378059701,28.8050251 0.167462687,30.3979899 1.4956194,31.0472362 C2.82428358,31.6964824 4.43281343,31.1561558 5.08845522,29.8409548 L7.24770896,25.5103015 L7.94394776,34.5903266 L7.94394776,47.343593 C7.94394776,48.8104271 9.14473134,49.9998744 10.6265224,49.9998744 C12.1081866,49.9998744 13.3089701,48.8104271 13.3089701,47.343593 L13.3089701,35.319598 L15.4329552,35.319598 L15.4329552,47.343593 C15.4329552,48.8104271 16.6342463,49.9998744 18.1160373,49.9998744 C19.4292239,49.9998744 20.5210299,49.0650754 20.7524328,47.831407 C20.7336567,47.6708543 20.7232537,47.5084171 20.7232537,47.343593 L20.7232537,36.8369347 Z" id="Fill-3" fill="#60779F" mask="url(#mask-2)"></path>
                        </g>
                        <path d="M33.2091194,39.9065327 C32.5435821,39.7474874 31.946806,39.3734925 31.5097537,38.8287688 C30.9859254,38.1761307 30.7550299,37.3580402 30.8566493,36.5424623 C30.8476418,36.5424623 30.8387612,36.5424623 30.8298806,36.5424623 C30.4725,36.5424623 30.120194,36.4899497 29.781209,36.3898241 L29.781209,47.343593 C29.781209,48.810804 30.9825,49.9998744 32.4637836,49.9998744 C32.9057836,49.9998744 33.3225373,49.8934673 33.6898134,49.7059045 C33.3844478,49.175 33.2091194,48.5615578 33.2091194,47.9079146 L33.2091194,39.9065327 Z" id="Fill-5" fill="#60779F"></path>
                        <g id="Group-9" transform="translate(14.589552, 12.311558)" fill="#60779F">
                            <path d="M13.1241269,18.6473618 L19.7255821,8.22851759 C20.0775075,7.67349246 20.5675896,7.23278894 21.1369627,6.9379397 C20.2018358,5.94321608 19.6285299,4.61130653 19.6285299,3.14849246 C19.6285299,2.70037688 19.6834627,2.26469849 19.7850821,1.84698492 L19.4559925,1.32788945 C18.9669254,0.55540201 18.1422985,0.118718593 17.2864627,0.0853015075 C17.0238507,0.0494974874 11.2156866,0.0518844221 10.9718507,0.0853015075 C10.1165224,0.118718593 9.29189552,0.55540201 8.8023209,1.32788945 L0.419291045,14.5580402 C-0.368164179,15.8006281 0.0109104478,17.4400754 1.26573881,18.2199749 C2.52145522,19.0001256 4.17667164,18.6242462 4.96412687,17.3817839 L5.80905224,16.0483668 L4.73716418,20.6319095 C4.60230597,21.2075377 4.74008209,21.8130653 5.11179851,22.2758794 C5.48300746,22.7385678 6.04743284,23.0080402 6.64458955,23.0080402 L7.70214179,23.0080402 L7.70214179,35.0320352 C7.70214179,36.4992462 8.90343284,37.6883166 10.3845896,37.6883166 C11.8663806,37.6883166 13.0671642,36.4992462 13.0671642,35.0320352 L13.0671642,23.0080402 L13.4927985,23.0080402 C12.4333433,21.8277638 12.2350522,20.0508794 13.1241269,18.6473618 Z" id="Fill-6"></path>
                            <path d="M36.0467239,19.4732412 L29.4442537,9.05439698 C29.0592164,8.44648241 28.4095373,8.10188442 27.7360075,8.0758794 C27.6343881,8.06218593 26.4811791,8.05527638 25.3107164,8.05527638 C24.0950896,8.05527638 22.8610672,8.06268844 22.763,8.0758794 C22.0894701,8.10188442 21.439791,8.44648241 21.0547537,9.05439698 L14.452791,19.4732412 C13.8327985,20.4517588 14.1311866,21.7428392 15.1198507,22.3572864 C16.1085149,22.9717337 17.4123134,22.6747487 18.0317985,21.6967337 L18.6973358,20.646608 L17.8529179,24.256407 C17.7468582,24.7099246 17.8558358,25.1864322 18.1482612,25.551005 C18.4405597,25.9150754 18.885097,26.1276382 19.3553881,26.1276382 L20.1880075,26.1276382 L20.1880075,35.5963568 C20.1880075,36.7520101 21.1340448,37.6883166 22.3005746,37.6883166 C23.4676119,37.6883166 24.4132687,36.7520101 24.4132687,35.5963568 L24.4132687,26.1276382 L26.0857388,26.1276382 L26.0857388,35.5963568 C26.0857388,36.7520101 27.0317761,37.6883166 28.1984328,37.6883166 C29.3654701,37.6883166 30.311,36.7520101 30.311,35.5963568 L30.311,26.1276382 L31.1434925,26.1276382 C31.6137836,26.1276382 32.0583209,25.9150754 32.3507463,25.551005 C32.6431716,25.1864322 32.7516418,24.7099246 32.6455821,24.256407 L31.8016716,20.6461055 L32.4677164,21.6972362 C33.0880896,22.6762563 34.3925224,22.9712312 35.3796642,22.3572864 C36.3683284,21.7428392 36.6667164,20.4517588 36.0467239,19.4732412 Z" id="Fill-8"></path>
                        </g>
                        <path d="M28.7192164,11.235804 C31.5549179,11.235804 33.8652687,8.95929648 33.8652687,6.13994975 C33.8652687,3.32512563 31.5617687,1.04422111 28.7192164,1.04422111 C25.8761567,1.04422111 23.5731642,3.32512563 23.5731642,6.13994975 C23.5731642,8.96017588 25.8835149,11.235804 28.7192164,11.235804 Z" id="Fill-10" fill="#60779F"></path>
                        <path d="M37.6315299,18.825 C38.2668731,19.2342965 39.0245149,19.4732412 39.8392463,19.4732412 C40.6544851,19.4732412 41.4122537,19.2342965 42.047597,18.8244975 C43.1571642,18.1090452 43.8915896,16.8698492 43.8915896,15.4600503 C43.8915896,13.2433417 42.077791,11.4472362 39.8392463,11.4472362 C37.6008284,11.4472362 35.7870299,13.2433417 35.7870299,15.4600503 C35.7870299,16.8703518 36.5214552,18.1090452 37.6315299,18.825 Z" id="Fill-11" fill="#60779F"></path>
                    </g>
                </g>
            </g>
        </g>
    </g>
</svg>