<svg xmlns="http://www.w3.org/2000/svg" xmlns:xlink="http://www.w3.org/1999/xlink" width="40" height="40" viewBox="0 0 40 40"><defs><path id="ap4aa" d="M928 401a20 20 0 1 1 40 0 20 20 0 0 1-40 0zm2.5 0c0 9.65 7.85 17.5 17.5 17.5s17.5-7.85 17.5-17.5-7.85-17.5-17.5-17.5-17.5 7.85-17.5 17.5zm6.53 3.64h-1.6l-1.74-7.28h1.5l1.1 5 1.34-5h1.75l1.28 5.09 1.11-5.1h1.48l-1.77 7.3h-1.56l-1.45-5.45zm8 0l-1.73-7.28h1.5l1.1 5 1.34-5h1.74l1.28 5.09 1.12-5.1h1.48l-1.77 7.3h-1.56l-1.45-5.45-1.45 5.44zm9.62 0l-1.74-7.28h1.5l1.1 5 1.33-5h1.75l1.28 5.09 1.12-5.1h1.48l-1.77 7.3h-1.56l-1.45-5.45-1.45 5.44z"/></defs><g><g transform="translate(-928 -381)"><use fill="#0167ce" xlink:href="#ap4aa"/></g></g></svg>