<svg xmlns="http://www.w3.org/2000/svg" xmlns:xlink="http://www.w3.org/1999/xlink" width="40" height="40" viewBox="0 0 40 40"><defs><path id="8g87a" d="M1187 401a20 20 0 1 1 40 0 20 20 0 0 1-40 0zm2.5 0c0 9.65 7.85 17.5 17.5 17.5s17.5-7.85 17.5-17.5-7.85-17.5-17.5-17.5-17.5 7.85-17.5 17.5zm21.7 7.9c-1.51.8-3.05 1.1-4.89 1.1-4.5 0-8.31-3.27-8.31-8.52 0-5.62 3.92-10.48 10.02-10.48 4.77 0 7.98 3.33 7.98 7.89 0 4.1-2.3 6.5-4.88 6.5-1.1 0-2.12-.74-2.03-2.4h-.11c-.96 1.6-2.23 2.4-3.87 2.4-1.6 0-2.97-1.29-2.97-3.44a6.46 6.46 0 0 1 6.5-6.47c1.18 0 2.23.24 2.94.57l-.93 4.94c-.41 2.08-.08 3.03.82 3.06 1.4.03 2.97-1.83 2.97-5 0-3.96-2.4-6.8-6.65-6.8-4.47 0-8.23 3.53-8.23 9.07 0 4.56 3 7.37 7.05 7.37a8.6 8.6 0 0 0 4.15-.96zm-1.2-11.71a5.29 5.29 0 0 0-1.44-.19c-2.52 0-4.56 2.27-4.56 4.92 0 1.2.63 2.08 1.9 2.08 1.66 0 3.18-2.02 3.5-3.72z"/></defs><g><g transform="translate(-1187 -381)"><use fill="#0167ce" xlink:href="#8g87a"/></g></g></svg>