<?xml version="1.0" encoding="UTF-8"?>
<svg width="21px" height="21px" viewBox="0 0 21 21" version="1.1" xmlns="http://www.w3.org/2000/svg" xmlns:xlink="http://www.w3.org/1999/xlink">
    <!-- Generator: Sketch 49.2 (51160) - http://www.bohemiancoding.com/sketch -->
    <title>Disclimer icon</title>
    <desc>Created with Sketch.</desc>
    <defs></defs>
    <g id="Inner-pages" stroke="none" stroke-width="1" fill="none" fill-rule="evenodd">
        <g id="Open-UNDP-Homepage_Budget-Sources-Copy-5" transform="translate(-1095.000000, -1340.000000)">
            <g id="2" transform="translate(0.000000, 935.000000)">
                <g id="Map" transform="translate(0.000000, 301.000000)">
                    <g id="top-filter-copy">
                        <g id="sdg-disclaimer" transform="translate(1067.000000, 53.000000)">
                            <g id="Group-9">
                                <g id="Group-10" transform="translate(25.000000, 9.000000)">
                                    <g id="Disclimer-icon" transform="translate(3.000000, 42.000000)">
                                        <ellipse id="Oval-4" fill="#0167CE" cx="9" cy="10" rx="8" ry="9"></ellipse>
                                        <path d="M10.5,21 C4.70101013,21 0,16.2989899 0,10.5 C0,4.70101013 4.70101013,0 10.5,0 C16.2989899,0 21,4.70101013 21,10.5 C21,16.2989899 16.2989899,21 10.5,21 Z M13.5820943,14.4174426 C13.5115516,14.4702832 13.3943844,14.5377615 13.2317703,14.6202684 C13.0686738,14.702869 12.9181702,14.7580375 12.7816295,14.7845783 C12.490793,14.8411112 12.2764776,14.8317688 12.1383934,14.7560912 C12.0011778,14.6802448 11.9061935,14.5058534 11.8532863,14.2336698 C11.8323246,14.125831 11.8188304,13.9616163 11.8150825,13.7439899 C11.8099059,13.5251958 11.8147159,13.3289286 11.8287407,13.1553384 L11.9918955,10.9963409 C12.0103308,10.7975285 12.0078579,10.5833709 11.9842454,10.3537066 C11.9612119,10.1244459 11.940231,9.96499025 11.9228467,9.87555565 C11.8388257,9.443305 11.6236798,9.12109691 11.2770612,8.90765688 C10.9304813,8.69441581 10.4855092,8.64060495 9.94291673,8.74607424 C9.64098328,8.80476415 9.33252879,8.9221237 9.01618298,9.09831598 C8.69977917,9.27420982 8.37242221,9.47566847 8.03308914,9.70258105 L8.00560111,10.3663961 C8.10754174,10.3030131 8.22989952,10.2323577 8.37423829,10.1557777 C8.51794027,10.079528 8.66311765,10.0263241 8.80892188,9.99798258 C9.10660954,9.94011796 9.31729802,9.9534691 9.44241483,10.0361067 C9.56758965,10.1190427 9.65610804,10.292626 9.70719746,10.5554583 C9.73544941,10.700802 9.75014035,10.8655067 9.74960975,11.0477272 C9.74977434,11.2309482 9.74341978,11.425967 9.73154967,11.6327949 L9.56758748,13.8005183 C9.5594495,14.0265464 9.56039257,14.2271671 9.57072592,14.4034559 C9.58121358,14.5795083 9.60295135,14.7500701 9.63478072,14.913818 C9.71700335,15.3368168 9.93637489,15.6560354 10.2929535,15.8722885 C10.6493195,16.0874473 11.1011053,16.1428244 11.647461,16.0366236 C12.0032388,15.9674674 12.3061766,15.8588201 12.5561778,15.7101841 C12.8059474,15.5619029 13.1392844,15.352055 13.5548956,15.0806852 L13.5820943,14.4174426 Z M12.0517198,5.7839406 C11.9824533,5.42759495 11.7926838,5.14732567 11.480752,4.94438448 C11.169824,4.74197086 10.8296873,4.67624781 10.4608827,4.74793616 C10.0909202,4.8198496 9.7988588,5.00814977 9.58394601,5.31308621 C9.36911057,5.61842058 9.29610433,5.94966505 9.36539025,6.30611018 C9.43481153,6.66325168 9.62647207,6.9424307 9.93944482,7.14196907 C10.2530548,7.34220952 10.5936542,7.40670697 10.9637132,7.33477477 C11.3326143,7.26306766 11.6234794,7.07582595 11.8362508,6.77326734 C12.0498716,6.47147279 12.1211411,6.14108211 12.0517198,5.7839406 Z" id="disclaimer-icon-copy" fill="#FFFFFF"></path>
                                    </g>
                                </g>
                            </g>
                        </g>
                    </g>
                </g>
            </g>
        </g>
    </g>
</svg>