<svg xmlns="http://www.w3.org/2000/svg" xmlns:xlink="http://www.w3.org/1999/xlink" width="24" height="20" viewBox="0 0 24 20"><defs><path id="g5jca" d="M1290.44 1310.07l4.7 4.72a1.5 1.5 0 0 0 2.13 0c.59-.6.59-1.56 0-2.15l-3.63-3.64 3.63-3.64c.59-.6.59-1.55 0-2.15a1.5 1.5 0 0 0-2.14 0l-4.69 4.72a1.52 1.52 0 0 0 0 2.14zm16.3 4.72a1.5 1.5 0 0 0 2.13 0l4.69-4.72a1.52 1.52 0 0 0 0-2.14l-4.7-4.72a1.5 1.5 0 0 0-2.13 0c-.59.6-.59 1.56 0 2.15l3.63 3.64-3.63 3.64c-.59.6-.59 1.55 0 2.15zm-6.62 4.21c.71 0 1.34-.5 1.48-1.22l3.32-16.97a1.5 1.5 0 1 0-2.96-.58l-3.32 16.96a1.51 1.51 0 0 0 1.48 1.81z"/></defs><g><g transform="translate(-1290 -1299)"><use fill="#0167ce" xlink:href="#g5jca"/></g></g></svg>