<svg xmlns="http://www.w3.org/2000/svg" xmlns:xlink="http://www.w3.org/1999/xlink" width="102" height="102" viewBox="0 0 102 102"><defs><path id="rd30a" d="M1101 4124a49.17 49.17 0 1 1 98.34 0 49.17 49.17 0 0 1-98.34 0z"/><path id="rd30b" d="M1126.5 4124h-2.5a27.03 27.03 0 0 1 43.93-21.04v-4.12h2.5v8.03h-8.03v-2.5h3.28a24.53 24.53 0 0 0-39.19 19.63zm51.5 0a27.03 27.03 0 0 1-43.61 21.28v4.13h-2.5v-8.03h8.03v2.5h-3.26a24.53 24.53 0 0 0 38.84-19.88z"/><path id="rd30c" d="M1156.48 4125.42a2.87 2.87 0 0 1-.8 1.87c-.29.33-.69.63-1.2.89-.5.25-1.14.4-1.93.46v1.31h-.92v-1.31a4.29 4.29 0 0 1-2.75-1.07 4.17 4.17 0 0 1-1.15-2.77h2.22c-.01.6.14 1.05.47 1.4.32.33.73.55 1.2.64v-3.23a2.62 2.62 0 0 0-.5-.14c-.38-.1-.76-.22-1.14-.36a3.79 3.79 0 0 1-1.02-.56c-.3-.23-.53-.52-.71-.87a2.8 2.8 0 0 1-.27-1.29 3.03 3.03 0 0 1 1.12-2.4c.33-.28.72-.49 1.16-.64.44-.15.9-.24 1.37-.27v-1.19h.93v1.2c.47.04.91.15 1.33.3.41.14.77.35 1.09.61.31.27.57.6.77.98.2.4.31.86.35 1.4h-2.24a1.62 1.62 0 0 0-.4-1.05 1.17 1.17 0 0 0-.9-.44v2.74a40.55 40.55 0 0 0 .8.2c.77.2 1.37.46 1.8.77.4.3.72.62.92.95.2.33.31.66.35.99.04.33.06.62.05.88zm-4.85-4v-2.53c-.18 0-.35.03-.52.08-.17.05-.32.13-.46.24-.13.1-.24.24-.32.4-.08.16-.11.35-.11.57 0 .34.1.6.32.78.22.2.59.34 1.09.45zm2.63 3.9c0-.4-.13-.7-.39-.9-.26-.2-.7-.38-1.31-.55v2.97c.18-.02.38-.06.59-.13.2-.06.38-.16.55-.28.16-.13.3-.28.4-.46.1-.18.15-.4.16-.64z"/><path id="rd30d" d="M1169.83 4133.44h-35.44c-.88 0-1.59-.7-1.59-1.57v-17.9c0-.87.71-1.57 1.59-1.57h35.44c.87 0 1.58.7 1.58 1.56v17.91c0 .87-.71 1.57-1.58 1.57zm-1.61-19.49c.27.75.9 1.3 1.72 1.52v-1.51zm-33.84 1.5c.8-.25 1.41-.83 1.65-1.6h-1.64zm1.62 16.43a2.44 2.44 0 0 0-1.72-1.53v1.52zm11.42.04a10.8 10.8 0 0 1-4.35-8.9c0-3.93 1.9-7.36 4.69-9.13l-10.2-.03a3.92 3.92 0 0 1-3.2 3.08l-.07 11.92a3.94 3.94 0 0 1 3.25 3.02zm12.13-8.9c0-4.93-3.36-8.94-7.5-8.94-4.14 0-7.5 4-7.5 8.94 0 4.8 3.2 8.71 7.19 8.9l.6.01c4-.19 7.2-4.1 7.2-8.9zm10.39 5.84v-11.9a3.94 3.94 0 0 1-3.26-3.01l-10.3-.03c2.76 1.77 4.64 5.18 4.64 9.1 0 3.8-1.77 7.11-4.4 8.93l10.04.03c.3-1.6 1.6-2.84 3.28-3.12zm-1.76 3.12h1.65c.06 0 .1-.05.1-.1v-1.54c-.86.23-1.5.83-1.75 1.64z"/></defs><g><g transform="translate(-1099 -4073)"><use fill="#fff" fill-opacity="0" stroke="#386582" stroke-miterlimit="50" stroke-width="2.5" xlink:href="#rd30a"/></g><g transform="translate(-1099 -4073)"><use fill="#386582" xlink:href="#rd30b"/></g><g transform="translate(-1099 -4073)"><use fill="#386582" xlink:href="#rd30c"/></g><g transform="translate(-1099 -4073)"><use fill="#386582" xlink:href="#rd30d"/><use fill="#fff" fill-opacity="0" stroke="#386582" stroke-miterlimit="50" stroke-width=".63" xlink:href="#rd30d"/></g></g></svg>