<?xml version="1.0" encoding="UTF-8"?>
<svg width="95px" height="96px" viewBox="0 0 95 96" version="1.1" xmlns="http://www.w3.org/2000/svg" xmlns:xlink="http://www.w3.org/1999/xlink">
    <!-- Generator: Sketch 52.5 (67469) - http://www.bohemiancoding.com/sketch -->
    <title>Group 10</title>
    <desc>Created with Sketch.</desc>
    <defs>
        <circle id="path-1" cx="46.5" cy="46.5" r="46.5"></circle>
        <filter x="-2.7%" y="-1.6%" width="105.4%" height="106.5%" filterUnits="objectBoundingBox" id="filter-2">
            <feOffset dx="0" dy="2" in="SourceAlpha" result="shadowOffsetOuter1"></feOffset>
            <feGaussianBlur stdDeviation="0.5" in="shadowOffsetOuter1" result="shadowBlurOuter1"></feGaussianBlur>
            <feComposite in="shadowBlurOuter1" in2="SourceAlpha" operator="out" result="shadowBlurOuter1"></feComposite>
            <feColorMatrix values="0 0 0 0 0   0 0 0 0 0   0 0 0 0 0  0 0 0 0.03 0" type="matrix" in="shadowBlurOuter1"></feColorMatrix>
        </filter>
        <polygon id="path-3" points="0.00474530831 0.0651148649 58.9796891 0.0651148649 58.9796891 45.9331236 0.00474530831 45.9331236"></polygon>
    </defs>
    <g id="Page-1" stroke="none" stroke-width="1" fill="none" fill-rule="evenodd">
        <g id="Marker-Landing-Page" transform="translate(-153.000000, -640.000000)">
            <g id="Group-6" transform="translate(154.000000, 640.000000)">
                <g id="Group-8">
                    <g id="Group-10">
                        <g id="Oval">
                            <use fill="black" fill-opacity="1" filter="url(#filter-2)" xlink:href="#path-1"></use>
                            <circle stroke="#D6D6DE" stroke-width="1" stroke-linejoin="square" fill="#FFFFFF" fill-rule="evenodd" cx="46.5" cy="46.5" r="46"></circle>
                        </g>
                        <g id="Group-3" transform="translate(19.000000, 18.000000)">
                            <g id="Group-4">
                                <mask id="mask-4" fill="white">
                                    <use xlink:href="#path-3"></use>
                                </mask>
                                <g id="Clip-2"></g>
                                <path d="M3.87225067,21.0014088 C4.1821193,22.0455 4.61243968,23.0526047 5.15648928,23.9975473 L3.60659249,25.9182027 C3.10018901,26.5461959 3.15736997,27.4413311 3.72672788,28.0070845 L6.39659651,30.6301723 C6.97243968,31.1959257 7.88353887,31.2457331 8.5227319,30.7482027 L10.4649866,29.2378953 C11.464744,29.8033378 12.5274558,30.2446892 13.6346944,30.5555 L13.9257399,33.0110608 C14.0208834,33.8065811 14.7042869,34.4035709 15.5139946,34.4035709 L19.2914182,34.4035709 C20.101126,34.4035709 20.7845295,33.8065811 20.8793566,33.0110608 L21.157748,30.6426047 C22.3471595,30.3381655 23.4861917,29.8843818 24.5553887,29.2937635 L26.4343727,30.7545743 C27.0735657,31.2517939 27.9846649,31.1959257 28.560508,30.6365439 L31.2303767,28.0131453 C31.8062198,27.4473919 31.8569155,26.5522568 31.3505121,25.9245743 L29.8892735,24.1031453 C30.4966729,23.0711757 30.9712038,21.9711385 31.2875576,20.8211385 L33.539681,20.5661182 C34.3497051,20.4729527 34.9571046,19.8016014 34.9571046,19.0060034 L34.9571046,15.2948446 C34.9571046,14.4992466 34.3497051,13.8278953 33.539681,13.734652 L31.3190349,13.4797095 C31.0153351,12.3421419 30.5596273,11.2543041 29.9776153,10.2346892 L31.3443432,8.53773986 C31.8504303,7.90997973 31.7935657,7.0149223 31.2242078,6.44916892 L28.560508,3.83214189 C27.9846649,3.26638851 27.0735657,3.21658108 26.4343727,3.71403378 L24.7577761,5.01951689 C23.6696769,4.39152365 22.5053365,3.912875 21.2843686,3.58963176 L21.0313646,1.457625 C20.9362212,0.661793919 20.2528177,0.0651148649 19.4431099,0.0651148649 L15.6656863,0.0651148649 C14.8559786,0.0651148649 14.1725751,0.661793919 14.077748,1.457625 L13.824744,3.58963176 C12.5719826,3.91924662 11.3760858,4.41646622 10.2626783,5.06901351 L8.5227319,3.71403378 C7.88353887,3.21658108 6.97243968,3.27276014 6.39659651,3.83214189 L3.72672788,6.45522973 C3.15088472,7.02098311 3.10018901,7.91611824 3.60659249,8.54411149 L5.0616622,10.3527973 C4.47965013,11.3847669 4.03659651,12.4850372 3.74555094,13.6287432 L1.41742359,13.8900574 C0.607399464,13.9833007 0,14.654652 0,15.45025 L0,19.1614088 C0,19.9570068 0.607399464,20.6283581 1.41742359,20.7215236 L3.87225067,21.0014088 Z M17.5576408,10.9619865 C20.999571,10.9619865 23.8025456,13.715848 23.8025456,17.0974696 C23.8025456,20.4790135 20.999571,23.2329527 17.5576408,23.2329527 C14.1157105,23.2329527 11.3127359,20.4790135 11.3127359,17.0974696 C11.3127359,13.715848 14.1157105,10.9619865 17.5576408,10.9619865 Z" id="Fill-1" fill="#60779F" mask="url(#mask-4)"></path>
                                <path d="M54.9000536,21.9150372 L52.9071032,20.2616791 C52.2932185,19.7517939 51.3886836,19.7766588 50.8062761,20.3175473 L49.7055228,21.3307128 C48.7753633,20.8894392 47.7882601,20.5786284 46.7696796,20.3982804 L46.459811,18.9064662 C46.301634,18.1355 45.5737828,17.6009831 44.7767292,17.663223 L42.1763794,17.8808682 C41.3790094,17.9491689 40.7527869,18.5892838 40.7274786,19.3787432 L40.6767828,20.8955 C39.6771046,21.2499797 38.7345282,21.7346892 37.8738083,22.3438784 L36.5576971,21.4861182 C35.8873432,21.0509054 34.995067,21.1753074 34.4764048,21.7784358 L32.7933231,23.7488986 C32.2742654,24.3517162 32.2995737,25.2407905 32.8501086,25.8126047 L34.001874,27.018473 C33.6030308,27.9011757 33.3184705,28.8275473 33.1538083,29.778473 L31.508689,30.1080878 C30.7242895,30.2634932 30.180319,30.9782804 30.2432735,31.7616791 L30.4648003,34.3164662 C30.534319,35.0995541 31.1861662,35.7151149 31.9897051,35.7400574 L33.767693,35.795848 C34.0902158,36.6287432 34.5140509,37.4182027 35.0266233,38.1579324 L34.0333512,39.6312534 C33.5903767,40.2901723 33.7169973,41.1667365 34.3305657,41.6763885 L36.3238324,43.3299797 C36.9374008,43.8396318 37.842252,43.8147669 38.4243432,43.2738784 L39.7277212,42.0743041 C40.5819558,42.465848 41.4803217,42.7581655 42.4040751,42.9320642 L42.7646394,44.6849595 C42.9228164,45.4559257 43.6506676,45.9904426 44.4477212,45.9282027 L47.048071,45.7108682 C47.845441,45.6422568 48.4716635,45.0021419 48.4969718,44.2126824 L48.5541528,42.4968514 C49.5032145,42.1674696 50.4015804,41.7198243 51.2305067,41.1667365 L52.6667534,42.0991689 C53.3371072,42.5341486 54.2293834,42.4099797 54.7480456,41.8069291 L56.4312064,39.8488986 C56.9498686,39.2457703 56.9248767,38.3570068 56.3743418,37.7851926 L55.2164075,36.5792466 C55.6403217,35.6963108 55.9504276,34.7638784 56.1275067,33.8065811 L57.7092761,33.4897095 C58.493992,33.3343041 59.0379625,32.6194392 58.9746917,31.8360405 L58.7531649,29.2813311 C58.6836461,28.4981655 58.0321153,27.8826824 57.2285764,27.8577399 L55.6403217,27.8080101 C55.3112346,26.9004426 54.8685764,26.0426824 54.3180416,25.2468514 L55.1849303,23.9665439 C55.6403217,23.307625 55.5139383,22.4249223 54.9000536,21.9150372 Z M45.099252,36.6849223 C42.2901086,36.9210608 39.8098941,34.8634155 39.5757131,32.1034932 C39.3353633,29.3434932 41.4297051,26.9068142 44.2388485,26.6767365 C47.048071,26.440598 49.5282064,28.4981655 49.7623874,31.2581655 C50.0027373,34.0180878 47.9087909,36.4548446 45.099252,36.6849223 Z" id="Fill-3" fill="#60779F" mask="url(#mask-4)"></path>
                            </g>
                            <path d="M13.4774072,43.4843068 C12.6576244,43.5688453 12.0262339,44.2589045 12.0195637,45.085576 L12.0002039,46.7322471 C11.9871889,47.5589186 12.5988129,48.2619962 13.418921,48.3662252 L14.6292354,48.5222838 C14.8310493,49.2577448 15.1172981,49.9608225 15.4881445,50.6247634 L14.7074067,51.5881286 C14.1866438,52.2327045 14.2256888,53.1569331 14.804938,53.7493539 L15.9567661,54.9272794 C16.5360966,55.5197002 17.4600808,55.5848738 18.117176,55.0769916 L19.0869567,54.3285121 C19.7700819,54.7321654 20.4923335,55.0511988 21.2473666,55.272431 L21.377598,56.5222021 C21.4621142,57.3422017 22.151991,57.9736779 22.9784439,57.9803498 L24.6246797,57.9997961 C25.4511327,58.0128146 26.1540244,57.4009475 26.2582258,56.5806224 L26.4078984,55.3961063 C27.2276812,55.194239 28.0087443,54.8884682 28.7506811,54.4848149 L29.6616502,55.2203572 C30.3057304,55.7409325 31.2297146,55.7021212 31.8220601,55.1227189 L32.9999183,53.9705861 C33.5921825,53.3911838 33.6570135,52.4669553 33.1495909,51.8093609 L32.4533693,50.9047414 C32.8827019,50.1887267 33.2147472,49.4271474 33.4425099,48.6265128 L34.5225928,48.5159373 C35.342701,48.4310733 35.9737661,47.7410955 35.9804363,46.9146681 L35.9997961,45.2676716 C36.0128111,44.4410001 35.4011871,43.7379224 34.581323,43.6340189 L33.5270261,43.4973252 C33.3252935,42.7031185 33.0259483,41.9348672 32.6354981,41.2190966 L33.2929186,40.4118714 C33.8133562,39.7672955 33.7743112,38.8429856 33.1949807,38.2508903 L32.0431526,37.0726393 C31.4642288,36.4802185 30.5402446,36.4150448 29.882824,36.9230085 L29.0954161,37.5281222 C28.3534793,37.0790671 27.5597265,36.7341596 26.7266034,36.4999089 L26.6227273,35.4777979 C26.5378858,34.6577983 25.848009,34.0262408 25.0218814,34.0198943 L23.3753203,34.0002039 C22.5488673,33.9871855 21.8459756,34.5989712 21.7420996,35.4192962 L21.6117868,36.4348166 C20.7528777,36.6559675 19.9264247,36.9945286 19.1584579,37.4372372 L18.34502,36.7732963 C17.7009398,36.2523142 16.7766302,36.2914509 16.1846101,36.8708533 L15.0000817,38.0293325 C14.4080616,38.6087349 14.3429865,39.5330448 14.8504091,40.1906392 L15.5468747,41.0888308 C15.1433281,41.8049269 14.8243791,42.5664248 14.6162203,43.3670594 L13.4774072,43.4843068 Z M24.1042421,41.6224245 C26.4663846,41.6485427 28.3601495,43.5949636 28.3341195,45.9577307 C28.3080081,48.3204979 26.3621018,50.2147636 23.9999593,50.1887267 C21.6378168,50.1626084 19.7440519,48.216513 19.7700819,45.8534204 C19.7961933,43.4906533 21.7420996,41.5963876 24.1042421,41.6224245 Z" id="Fill-5" fill="#60779F"></path>
                        </g>
                    </g>
                </g>
            </g>
        </g>
    </g>
</svg>