<svg xmlns="http://www.w3.org/2000/svg" xmlns:xlink="http://www.w3.org/1999/xlink" width="104" height="104" viewBox="0 0 104 104"><defs><path id="qf76a" d="M211 4124a50 50 0 1 1 100 0 50 50 0 0 1-100 0z"/><path id="qf76b" d="M288 4134.33c-.06 3.6-4.52 6.4-10.2 6.4-5.7 0-10.15-2.8-10.2-6.4v-.03l-.01-.04v-.06-.03l.01-.05.01-.04v-.04l.02-.05.01-.03.02-.05 9.26-20.36v-2.67h-13.18v19c.56.31.93.9.93 1.58v12.9l5.55 1.72a2.73 2.73 0 0 1 1.92 2.62v1.43c0 .48-.4.87-.88.87h-20.52a.87.87 0 0 1-.88-.87v-1.43c0-1.2.77-2.26 1.92-2.62l5.55-1.73v-12.89c0-.68.37-1.27.93-1.58v-19h-13.18v2.67l9.25 20.35v.01l.03.05v.03l.02.05.01.04v.04a.51.51 0 0 1 .02.08.74.74 0 0 1 0 .06v.07c-.06 3.6-4.52 6.4-10.2 6.4-5.7 0-10.15-2.8-10.2-6.4v-.03l-.01-.04v-.06-.03l.01-.05.01-.04.01-.04a.62.62 0 0 1 .05-.14l9.25-20.35v-2.67h-.06c-1 0-1.8-.81-1.8-1.8v-.15c0-.89.63-1.64 1.5-1.78l15.29-2.55v-1.48A3.66 3.66 0 0 1 261 4097a3.68 3.68 0 0 1 2.74 6.12v1.56l15.28 2.47c.88.14 1.52.9 1.52 1.78v.14c0 1-.82 1.8-1.81 1.8h-.06v2.68l9.25 20.35v.01a1 1 0 0 1 .03.05v.03l.02.05.01.04v.04l.01.05a14.8 14.8 0 0 1 0 .09h.01v.07zm-51.77-.94h15.95l-7.97-17.54zm16.28 1.75h-16.6c.75 2.16 4.24 3.85 8.3 3.85 4.05 0 7.54-1.7 8.3-3.85zm10.36-3.73h-3.74a.06.06 0 0 0-.05.05v12.66h3.84v-12.66a.06.06 0 0 0-.05-.05zm-.88-1.75v-25.45a3.67 3.67 0 0 1-1.98 0v25.45zm-2.91-28.99a1.93 1.93 0 1 0 3.85 0 1.93 1.93 0 0 0-3.85 0zm-.82 8.46v-2.76l-15 2.5a.06.06 0 0 0-.05.06v.14c0 .03.03.06.06.06zm11.43 38.62l-6.02-1.88h-5.34l-6.02 1.88a.99.99 0 0 0-.7.95v.55h18.78v-.55a.99.99 0 0 0-.7-.95zm-5.95-38.62h14.99c.03 0 .06-.03.06-.06v-.14a.06.06 0 0 0-.05-.05l-15-2.42zm6.08 24.26h15.95l-7.98-17.54zm16.28 1.75h-16.6c.75 2.16 4.24 3.85 8.3 3.85 4.05 0 7.54-1.7 8.3-3.85z"/></defs><g><g transform="translate(-209 -4072)"><use fill="#fff" fill-opacity="0" stroke="#386582" stroke-miterlimit="50" stroke-width="2.5" xlink:href="#qf76a"/></g><g transform="translate(-209 -4072)"><use fill="#386582" xlink:href="#qf76b"/></g></g></svg>