<?xml version="1.0" encoding="UTF-8" standalone="no"?>
<svg width="22px" height="19px" viewBox="0 0 22 19" version="1.1" xmlns="http://www.w3.org/2000/svg" xmlns:xlink="http://www.w3.org/1999/xlink">
    <!-- Generator: Sketch 48.1 (47250) - http://www.bohemiancoding.com/sketch -->
    <title>list_blue</title>
    <desc>Created with Sketch.</desc>
    <defs></defs>
    <g id="Country-Profile---Recipient-Profile" stroke="none" stroke-width="1" fill="none" fill-rule="evenodd" transform="translate(-1331.000000, -633.000000)">
        <g id="L1" transform="translate(0.000000, 280.000000)" fill="#0167CE" fill-rule="nonzero" stroke="#0167CE" stroke-width="0.5">
            <g id="Map" transform="translate(0.000000, 320.000000)">
                <g id="list_unselected" transform="translate(1305.000000, 20.000000)">
                    <g id="Group-3" transform="translate(27.000000, 10.000000)">
                        <path d="M2.15233817,8.15932282 C3.34082091,8.15932282 4.30467633,7.22495362 4.30467633,6.08163265 C4.30467633,4.93831169 3.34082091,4 2.15233817,4 C0.963855422,4 0,4.9343692 0,6.07769017 C0,7.22101113 0.967939555,8.15932282 2.15233817,8.15932282 Z M2.15233817,4.96590909 C2.78946294,4.96590909 3.30406371,5.46660482 3.30406371,6.07769017 C3.30406371,6.68877551 2.7853788,7.18947124 2.15233817,7.18947124 C1.51929753,7.18947124 1.00061262,6.68877551 1.00061262,6.07769017 C1.00061262,5.46660482 1.51929753,4.96590909 2.15233817,4.96590909 Z M2.15233817,14.5776902 C0.967939555,14.5776902 0,13.6472635 0,12.5 C0,11.3527365 0.963855422,10.4223098 2.15233817,10.4223098 C3.34082091,10.4223098 4.30467633,11.356679 4.30467633,12.5 C4.30467633,13.643321 3.34082091,14.5776902 2.15233817,14.5776902 Z M2.15233817,11.3882189 C1.51929753,11.3882189 1.00061262,11.8849722 1.00061262,12.5 C1.00061262,13.1150278 1.51929753,13.6117811 2.15233817,13.6117811 C2.7853788,13.6117811 3.30406371,13.1110853 3.30406371,12.5 C3.30406371,11.8889147 2.78946294,11.3882189 2.15233817,11.3882189 Z M2.15233817,21 C0.967939555,21 0,20.0656308 0,18.9223098 C0,17.7789889 0.967939555,16.8446197 2.15233817,16.8446197 C3.33673678,16.8446197 4.30467633,17.7750464 4.30467633,18.9223098 C4.30467633,20.0656308 3.34082091,21 2.15233817,21 Z M2.15233817,17.8065863 C1.51929753,17.8065863 1.00061262,18.307282 1.00061262,18.9183673 C1.00061262,19.5294527 1.51929753,20.0301484 2.15233817,20.0301484 C2.7853788,20.0301484 3.30406371,19.5333952 3.30406371,18.9183673 C3.30406371,18.307282 2.78946294,17.8065863 2.15233817,17.8065863 Z M7.1839902,6.56261596 C6.90626914,6.56261596 6.68164182,6.34577922 6.68164182,6.07769017 C6.68164182,5.80960111 6.90626914,5.59276438 7.1839902,5.59276438 L19.4976516,5.59276438 C19.7753727,5.59276438 20,5.80960111 20,6.07769017 C20,6.34577922 19.7753727,6.56261596 19.4976516,6.56261596 L7.1839902,6.56261596 Z M7.1839902,12.9849258 C6.90626914,12.9849258 6.68164182,12.7680891 6.68164182,12.5 C6.68164182,12.2319109 6.90626914,12.0150742 7.1839902,12.0150742 L19.4976516,12.0150742 C19.7753727,12.0150742 20,12.2319109 20,12.5 C20,12.7680891 19.7753727,12.9849258 19.4976516,12.9849258 L7.1839902,12.9849258 Z M7.1839902,19.4032931 C6.90626914,19.4032931 6.68164182,19.1864564 6.68164182,18.9183673 C6.68164182,18.6502783 6.90626914,18.4334416 7.1839902,18.4334416 L19.4976516,18.4334416 C19.7753727,18.4334416 20,18.6502783 20,18.9183673 C20,19.1864564 19.7753727,19.4032931 19.4976516,19.4032931 L7.1839902,19.4032931 Z" id="list_blue"></path>
                    </g>
                </g>
            </g>
        </g>
    </g>
</svg>