<?xml version="1.0" encoding="UTF-8" standalone="no"?>
<svg width="18px" height="20px" viewBox="0 0 18 20" version="1.1" xmlns="http://www.w3.org/2000/svg" xmlns:xlink="http://www.w3.org/1999/xlink">
    <!-- Generator: Sketch 48.1 (47250) - http://www.bohemiancoding.com/sketch -->
    <title>map_blue</title>
    <desc>Created with Sketch.</desc>
    <defs></defs>
    <g id="Country-Profile---Recipient-Profile" stroke="none" stroke-width="1" fill="none" fill-rule="evenodd" transform="translate(-1193.000000, -693.000000)">
        <g id="L1" transform="translate(0.000000, 280.000000)" fill="#0167CE" fill-rule="nonzero">
            <g id="Map" transform="translate(0.000000, 320.000000)">
                <g id="map_unselected" transform="translate(1165.000000, 80.000000)">
                    <g id="Group" transform="translate(28.000000, 11.000000)">
                        <path d="M12.41904,15.2142578 C14.49024,15.5251172 18,16.4485547 18,18.484375 C18,20.8096875 13.321,22 9,22 C6.68924,22 4.50816,21.683125 2.85848,21.1077734 C0.49592,20.2837891 0,19.2263672 0,18.484375 C0,16.4489063 3.51388,15.5244922 5.58088,15.2142969 L3.6476,12.2517969 C2.82816,11.1441797 2.4,9.82421875 2.4,8.484375 C2.4,4.923125 5.36632,2 9,2 C12.64556,2 15.6,4.92890625 15.6,8.484375 C15.6,9.82507813 15.18064,11.1113672 14.3872,12.2042578 C14.3244,12.2913281 14.59836,11.8746875 12.41904,15.2142578 Z M4.64996,11.6072266 L9,18.2730078 C13.65792,11.1353516 13.35636,11.5928516 13.41416,11.5183984 C14.05916,10.6264453 14.4,9.57757812 14.4,8.484375 C14.4,5.55503906 11.97756,3.171875 9,3.171875 C6.01624,3.171875 3.6,5.55398437 3.6,8.484375 C3.6,9.57582031 3.9474,10.6615234 4.62928,11.5776172 C4.63648,11.5873047 4.64336,11.5971484 4.64996,11.6072266 Z M9,20.828125 C13.74748,20.828125 16.8,19.4649219 16.8,18.484375 C16.8,17.8196875 15.21724,16.7267578 11.70996,16.3007422 L9.50592,19.6782031 C9.3958,19.8469922 9.20496,19.9492187 8.99996,19.9492187 C8.79496,19.9492187 8.60416,19.8470312 8.494,19.6782031 L6.28992,16.3007422 C2.78272,16.7267578 1.2,17.8196875 1.2,18.484375 C1.2,19.4733203 4.28024,20.828125 9,20.828125 Z M9,5.5546875 C10.6542,5.5546875 12,6.86894531 12,8.484375 C12,10.0998047 10.6542,11.4140625 9,11.4140625 C7.3458,11.4140625 6,10.0998047 6,8.484375 C6,6.86894531 7.3458,5.5546875 9,5.5546875 Z M9,10.2421875 C9.99252,10.2421875 10.8,9.45363281 10.8,8.484375 C10.8,7.51511719 9.99252,6.7265625 9,6.7265625 C8.00748,6.7265625 7.2,7.51511719 7.2,8.484375 C7.2,9.45363281 8.00748,10.2421875 9,10.2421875 Z" id="map_blue"></path>
                    </g>
                </g>
            </g>
        </g>
    </g>
</svg>