<svg xmlns="http://www.w3.org/2000/svg" xmlns:xlink="http://www.w3.org/1999/xlink" width="30" height="30" viewBox="0 0 30 30"><defs><path id="sjcoa" d="M337 1599c0-8.27 6.73-15 15-15s15 6.73 15 15-6.73 15-15 15-15-6.73-15-15zm1.5 0c0 7.44 6.06 13.5 13.5 13.5s13.5-6.06 13.5-13.5-6.06-13.5-13.5-13.5-13.5 6.06-13.5 13.5zm6.23 0c0-.41.34-.75.75-.75h11.23l-2.94-2.93a.75.75 0 0 1 0-1.06c.3-.3.77-.3 1.06 0l4.22 4.21c.3.3.3.77 0 1.06l-4.22 4.22a.75.75 0 0 1-.53.22.75.75 0 0 1-.53-1.28l2.93-2.94h-11.22a.75.75 0 0 1-.75-.74z"/></defs><g><g transform="translate(-337 -1584)"><use fill="#fff" xlink:href="#sjcoa"/></g></g></svg>