<?xml version="1.0" encoding="UTF-8"?>
<svg width="65px" height="53px" viewBox="0 0 65 53" version="1.1" xmlns="http://www.w3.org/2000/svg" xmlns:xlink="http://www.w3.org/1999/xlink">
    <!-- Generator: Sketch 52.5 (67469) - http://www.bohemiancoding.com/sketch -->
    <title>Group 17</title>
    <desc>Created with Sketch.</desc>
    <defs>
        <polygon id="path-1" points="0.100493421 0.00084375 64.3166447 0.00084375 64.3166447 52.6107399 0.100493421 52.6107399"></polygon>
    </defs>
    <g id="Page-1" stroke="none" stroke-width="1" fill="none" fill-rule="evenodd">
        <g id="Marker-Landing-Page" transform="translate(-168.000000, -853.000000)">
            <g id="Group-6" transform="translate(154.000000, 833.000000)">
                <g id="Group-8">
                    <g id="Group-15">
                        <g id="Group-17" transform="translate(14.000000, 20.000000)">
                            <mask id="mask-2" fill="white">
                                <use xlink:href="#path-1"></use>
                            </mask>
                            <g id="Clip-2"></g>
                            <path d="M43.4298355,8.49065625 C43.2758882,8.34553125 43.0877303,8.23415625 42.8807566,8.16834375 L30.6008882,4.36471875 C25.6899671,2.84090625 22.4947039,5.49703125 21.6325987,6.34753125 C21.1314145,6.84196875 20.7448355,7.37015625 20.5515461,7.82409375 L15.0778618,20.5208438 C14.7648355,21.2464688 14.8708882,22.2150938 15.3583882,23.1769688 C16.0682566,24.5539688 17.3374671,25.5495938 18.8478618,25.9056563 C20.5447039,26.3089688 22.3014145,25.7605313 23.6783882,24.4105313 C24.0393092,24.0544688 24.3454934,23.6579063 24.5268092,23.3288438 L26.3639145,19.9605938 C26.6649671,19.4070938 27.1062829,18.8265938 27.5664145,18.3709688 C29.1503618,16.8167813 29.8978618,17.5272188 30.2125987,17.8309688 C32.9648355,20.4482813 47.3914145,34.7464688 47.3914145,34.7464688 C47.9062829,35.2459688 47.7985197,36.2095313 47.1570724,36.8423438 C46.515625,37.4684063 45.5474671,37.5797813 45.0325987,37.0718438 L40.9769408,33.0775313 C40.4552303,32.5645313 39.6136513,32.5645313 39.0919408,33.0775313 C38.5650987,33.5922188 38.5650987,34.4224688 39.0919408,34.9371563 L43.1424671,38.9382188 C43.655625,39.4461563 43.5495724,40.4012813 42.908125,41.0340938 C42.2666776,41.6669063 41.2916776,41.7732188 40.7836513,41.2652813 L36.7279934,37.2709688 C36.2062829,36.7562813 35.3647039,36.7562813 34.8429934,37.2709688 C34.3212829,37.7839688 34.3212829,38.6142188 34.8429934,39.1356563 L38.8918092,43.1299688 C39.4066776,43.6379063 39.2937829,44.5930313 38.6591776,45.2258438 C38.0177303,45.8586563 37.0478618,45.9649688 36.5329934,45.4570313 L32.4773355,41.4627188 C31.9573355,40.9480313 31.1140461,40.9480313 30.5940461,41.4627188 C30.0723355,41.9774063 30.0723355,42.8144063 30.5940461,43.3223438 L34.6428618,47.3234063 C35.1577303,47.8296563 35.0499671,48.7932188 34.4085197,49.4192813 C33.7670724,50.0520938 32.7920724,50.1567188 32.2840461,49.6555313 L27.3457566,44.7854063 C28.0539145,43.7374688 27.860625,42.2204063 26.8120724,41.1859688 C25.6420724,40.0317188 23.8443092,39.9270938 22.8025987,40.9547813 C23.8443092,39.9270938 23.7382566,38.1467813 22.5682566,36.9942188 C21.393125,35.8399688 19.5953618,35.7336563 18.5536513,36.7630313 C19.5953618,35.7336563 19.4893092,33.9617813 18.3124671,32.8007813 C17.1424671,31.6482188 15.3464145,31.5419063 14.2961513,32.5695938 C15.3464145,31.5419063 15.2386513,29.7683438 14.0635197,28.6090313 C12.9670724,27.5273438 11.3300987,27.3754688 10.2678618,28.2006563 L2.27628289,20.3166563 C1.75457237,19.8019688 0.906151316,19.8019688 0.386151316,20.3166563 C-0.128717105,20.8296563 -0.128717105,21.6683438 0.386151316,22.1813438 L8.35720395,30.0450938 L5.99838816,32.3789063 C4.95496711,33.4015313 5.05588816,35.1801563 6.23273026,36.3344063 C7.40786184,37.4937188 9.19878289,37.6000313 10.2473355,36.5655938 C9.19878289,37.6000313 9.30483553,39.3735938 10.4816776,40.5261563 C11.6499671,41.6871563 13.4545724,41.7917813 14.4979934,40.7640938 C13.4545724,41.7917813 13.5623355,43.5653438 14.730625,44.7195938 C15.9074671,45.8789063 17.7052303,45.9852188 18.7469408,44.9558438 C17.7052303,45.9852188 17.8112829,47.7570938 18.9812829,48.9180938 C20.1564145,50.0723438 21.9541776,50.1769688 22.9958882,49.1492813 L25.4949671,46.6838438 L30.3939145,51.5219063 C31.9573355,53.0642813 34.6018092,52.9529063 36.3003618,51.2839688 C37.1214145,50.4739688 37.5627303,49.4327813 37.6225987,48.4034063 C38.6643092,48.3443438 39.7214145,47.9089688 40.5493092,47.0922188 C41.3720724,46.2805313 41.8116776,45.2393438 41.8783882,44.2116563 C42.9218092,44.1525938 43.9703618,43.7104688 44.7982566,42.9004688 C45.6278618,42.0820313 46.0691776,41.0475938 46.1290461,40.0199063 C47.1707566,39.9591563 48.2261513,39.5254688 49.0489145,38.7070313 C50.7457566,37.0330313 50.8466776,34.4224688 49.2815461,32.8800938 L47.2169408,30.8432813 L55.7028618,22.4715938 C56.2245724,21.9569063 56.2245724,21.1266563 55.7028618,20.6136563 L43.4298355,8.49065625 Z" id="Fill-1" fill="#60779F" mask="url(#mask-2)"></path>
                            <path d="M63.5353618,11.4370313 L52.723125,0.77203125 C51.6745724,-0.25734375 49.9845724,-0.25734375 48.9411513,0.77203125 L45.1591776,4.49634375 C44.1174671,5.53078125 44.1174671,7.19803125 45.1591776,8.22740625 L55.9782566,18.8924063 C57.0199671,19.9200938 58.7099671,19.9200938 59.7533882,18.8924063 L63.5353618,15.1680938 C64.5770724,14.1404063 64.5770724,12.4647188 63.5353618,11.4370313 Z M57.8615461,16.8690938 C56.6522039,16.8690938 55.6635197,15.9055313 55.6635197,14.7074063 C55.6635197,13.5126563 56.6522039,12.5440313 57.8615461,12.5440313 C59.0708882,12.5440313 60.0527303,13.5126563 60.0527303,14.7074063 C60.0527303,15.9004688 59.0708882,16.8690938 57.8615461,16.8690938 Z" id="Fill-3" fill="#60779F" mask="url(#mask-2)"></path>
                        </g>
                    </g>
                </g>
            </g>
        </g>
    </g>
</svg>