<?xml version="1.0" encoding="UTF-8"?>
<svg width="19px" height="18px" viewBox="0 0 19 18" version="1.1" xmlns="http://www.w3.org/2000/svg" xmlns:xlink="http://www.w3.org/1999/xlink">
    <!-- Generator: Sketch 49 (51002) - http://www.bohemiancoding.com/sketch -->
    <title>Combined Shape</title>
    <desc>Created with Sketch.</desc>
    <defs></defs>
    <g id="Inner-pages" stroke="none" stroke-width="1" fill="none" fill-rule="evenodd">
        <g id="Map-Icons" transform="translate(-743.000000, -654.000000)" fill="#282710">
            <path d="M752.5,660.777227 C750.661252,660.777227 749.170651,659.260093 749.170651,657.388613 C749.170651,655.517134 750.661252,654 752.5,654 C754.338748,654 755.829349,655.517134 755.829349,657.388613 C755.829349,659.260093 754.338748,660.777227 752.5,660.777227 Z M758.920887,662.713578 C757.476156,662.713578 756.30497,661.521544 756.30497,660.051096 C756.30497,658.580647 757.476156,657.388613 758.920887,657.388613 C760.365618,657.388613 761.536803,658.580647 761.536803,660.051096 C761.536803,661.521544 760.365618,662.713578 758.920887,662.713578 Z M758.78317,669.810733 C758.57689,668.72038 758.3253,667.651432 758.0284,666.603888 C757.7315,665.556345 757.397388,664.558781 757.026066,663.611196 C757.693417,663.77532 758.345383,663.838746 758.981965,663.801475 C759.618546,663.764203 760.185785,663.629393 760.683681,663.397044 C760.973447,663.827522 761.227708,664.25555 761.446463,664.681129 C761.665219,665.106708 761.849731,665.532294 762,665.957887 C761.511893,666.78437 761.019396,667.495177 760.522509,668.090307 C760.025621,668.685437 759.445842,669.258912 758.78317,669.810733 Z M746.079113,662.713578 C744.634382,662.713578 743.463197,661.521544 743.463197,660.051096 C743.463197,658.580647 744.634382,657.388613 746.079113,657.388613 C747.523844,657.388613 748.69503,658.580647 748.69503,660.051096 C748.69503,661.521544 747.523844,662.713578 746.079113,662.713578 Z M746.21683,669.810733 C745.554158,669.258912 744.974379,668.685437 744.477491,668.090307 C743.980604,667.495177 743.488107,666.78437 743,665.957887 C743.150269,665.532294 743.334781,665.106708 743.553537,664.681129 C743.772292,664.25555 744.026553,663.827522 744.316319,663.397044 C744.814215,663.629393 745.381454,663.764203 746.018035,663.801475 C746.654617,663.838746 747.306583,663.77532 747.973934,663.611196 C747.602612,664.558781 747.2685,665.556345 746.9716,666.603888 C746.6747,667.651432 746.42311,668.72038 746.21683,669.810733 Z M750.251366,661.399473 C750.893424,661.730314 751.591954,661.895734 752.346956,661.895734 C753.101958,661.895734 753.858934,661.730314 754.617885,661.399473 C755.210112,662.46333 755.795852,663.832469 756.375105,665.506891 C756.954359,667.181312 757.419181,668.848988 757.769572,670.509918 C755.669415,671.503306 753.79205,672 752.137478,672 C750.482906,672 748.862086,671.503306 747.275017,670.509918 C747.622807,668.794167 748.036421,667.202524 748.515859,665.734989 C748.995298,664.267453 749.5738,662.822281 750.251366,661.399473 Z" id="Combined-Shape"></path>
        </g>
    </g>
</svg>