<svg xmlns="http://www.w3.org/2000/svg" xmlns:xlink="http://www.w3.org/1999/xlink" width="104" height="104" viewBox="0 0 104 104"><defs><path id="uwena" d="M675 4124a50 50 0 1 1 100 0 50 50 0 0 1-100 0z"/><path id="uwenb" d="M709.94 4153a.93.93 0 0 1-.49-.14.96.96 0 0 1-.38-1.18l10.55-25.28h-9.68a.94.94 0 0 1-.8-.45.96.96 0 0 1-.04-.92l14.12-28.5a.94.94 0 0 1 .84-.53h15.06c.34 0 .66.19.82.5.17.3.16.67-.03.96l-11 17.54h11.15c.37 0 .7.21.85.55.16.33.1.73-.13 1.01l-30.12 36.1a.94.94 0 0 1-.72.34"/></defs><g><g transform="translate(-673 -4072)"><use fill="#fff" fill-opacity="0" stroke="#386582" stroke-miterlimit="50" stroke-width="2.5" xlink:href="#uwena"/></g><g transform="translate(-673 -4072)"><use fill="#fff" fill-opacity="0" stroke="#386582" stroke-miterlimit="50" stroke-width="1.89" xlink:href="#uwenb"/></g></g></svg>