<?xml version="1.0" encoding="UTF-8"?>
<svg width="162px" height="161px" viewBox="0 0 162 161" version="1.1" xmlns="http://www.w3.org/2000/svg" xmlns:xlink="http://www.w3.org/1999/xlink">
    <!-- Generator: Sketch 49 (51002) - http://www.bohemiancoding.com/sketch -->
    <title>15</title>
    <desc>Created with Sketch.</desc>
    <defs></defs>
    <g id="Page-1" stroke="none" stroke-width="1" fill="none" fill-rule="evenodd">
        <g id="15" fill-rule="nonzero">
            <rect id="Rectangle-path" fill="#5CBA47" x="0.4" y="0.1" width="160.9" height="160.9"></rect>
            <polygon id="Shape" fill="#FFFFFF" points="12.2 19.4 12.2 25.1 12.2 25.1 16 21.1 16.1 21.1 16.1 46 21.5 46 21.5 13.5 17.2 13.5"></polygon>
            <path d="M34.5,23.8 C32.3,23.8 30.8,24.6 29.9,26 L29.9,18 L39.3,18 L39.3,13.6 L24.9,13.6 L24.9,31.9 L29.9,31.9 L29.9,31.2 C29.9,29.3 30.8,28.2 32.3,28.2 C34,28.2 34.6,29.3 34.6,31.1 L34.6,38.9 C34.6,40.6 34,41.8 32.3,41.8 C30.4,41.8 29.8,40.6 29.8,38.6 L29.8,34.5 L24.8,34.5 L24.8,38.2 C24.8,43.1 26.8,46.3 32.3,46.3 C37.8,46.3 40.1,43.4 40.1,38.9 L40.1,31 C40.1,25.9 37.4,23.8 34.5,23.8" id="Shape" fill="#FFFFFF"></path>
            <g id="Group" transform="translate(40.000000, 63.000000)" fill="#FFFFFF">
                <path d="M27,45.9 C27.2,45.9 27.4,46.1 27.4,46.3 L27.4,58 C27.4,58.2 27.2,58.4 27,58.4 L22.3,58.4 C22.1,58.4 21.9,58.2 21.9,58 L21.9,46.3 C21.9,46.1 22.1,45.9 22.3,45.9 L27,45.9 Z" id="Shape"></path>
                <path d="M79.1,63.3 L1,63.3 C0.8,63.3 0.6,63.5 0.6,63.7 L0.6,68.5 C0.6,68.7 0.8,68.9 1,68.9 L79.1,68.9 C79.3,68.9 79.5,68.7 79.5,68.5 L79.5,63.7 C79.5,63.5 79.3,63.3 79.1,63.3" id="Shape"></path>
                <path d="M79.1,72.8 L1,72.8 C0.8,72.8 0.6,73 0.6,73.2 L0.6,78 C0.6,78.2 0.8,78.4 1,78.4 L79.1,78.4 C79.3,78.4 79.5,78.2 79.5,78 L79.5,73.2 C79.5,73 79.3,72.8 79.1,72.8" id="Shape"></path>
                <path d="M64.2,32.9 C63.2,32.1 60.6,30.4 57.4,30.4 C55.1,30.4 53,31.3 51.1,33.1 C51,33.2 50.9,33.4 50.9,33.6 L50.9,34 C50.9,34.2 51,34.4 51.1,34.5 C51.3,34.6 51.4,34.7 51.7,34.6 C51.7,34.6 51.8,34.6 51.8,34.6 C51.9,34.5 52.1,34.5 52.2,34.4 C52.6,34.1 53.7,33.7 55.3,33.7 C57,33.7 60.2,34.1 63.4,37.1 L63.5,37.2 C63.7,37.4 63.9,37.5 64.2,37.5 C64.4,37.5 64.7,37.4 64.9,37.2 L65,37.1 C68.2,34.2 71.4,33.7 73.1,33.7 C74.7,33.7 75.8,34.1 76.2,34.4 C76.3,34.5 76.5,34.6 76.6,34.7 C76.7,34.7 76.9,34.8 77.1,34.7 C77.4,34.6 77.6,34.4 77.6,34.1 L77.6,33.7 C77.6,33.5 77.5,33.3 77.4,33.2 C75.5,31.4 73.4,30.5 71,30.5 C67.8,30.4 65.2,32.1 64.2,32.9" id="Shape"></path>
                <path d="M59.4,1.8 C59.2,1.9 59.1,2 59.1,2.2 L59,2.5 C58.9,2.7 59,2.9 59.1,3.1 C59.2,3.3 59.4,3.4 59.6,3.4 C59.6,3.4 59.7,3.4 59.7,3.4 C59.8,3.4 60,3.4 60.1,3.3 C60.2,3.3 60.3,3.2 60.6,3.2 C60.9,3.2 64.1,3.3 66.2,6.8 L66.2,6.9 C66.3,7.1 66.5,7.2 66.7,7.3 C66.8,7.3 66.9,7.3 66.9,7.3 C67,7.3 67.2,7.3 67.3,7.2 L67.4,7.2 C68.5,6.6 69.7,6.3 70.9,6.3 C72.9,6.3 74.2,7.1 74.5,7.4 C74.6,7.5 74.7,7.6 74.8,7.7 C74.9,7.7 75,7.8 75.1,7.8 C75.1,7.8 75.2,7.8 75.2,7.8 C75.2,7.8 75.2,7.8 75.3,7.8 C75.4,7.8 75.5,7.8 75.6,7.7 C75.8,7.6 75.9,7.5 75.9,7.3 L76,7.1 C76,7 76,7 76,6.9 C76,6.8 76,6.7 75.9,6.6 C74.4,4 72.2,3.4 70.6,3.4 C69.4,3.4 68.4,3.7 67.8,3.9 C67.1,2.9 65.3,0.9 62.5,0.9 C61.3,1 60.4,1.3 59.4,1.8" id="Shape"></path>
                <path d="M42.9,13.8 L42.9,14.2 C42.9,14.4 43,14.6 43.2,14.7 C43.4,14.8 43.6,14.8 43.7,14.8 C43.7,14.8 43.8,14.8 43.8,14.8 C43.9,14.7 44,14.7 44.1,14.6 C44.4,14.4 45.5,13.9 47.1,13.9 C48.6,13.9 50.9,14.3 53.3,16.2 L53.4,16.3 C53.6,16.4 53.8,16.5 54,16.5 L54.1,16.5 C54.3,16.5 54.6,16.4 54.7,16.2 L54.8,16.1 C57.4,13.3 60.2,12.9 61.7,12.9 C62.7,12.9 63.5,13.1 63.7,13.3 C63.8,13.4 63.9,13.5 64.1,13.5 C64.1,13.5 64.3,13.5 64.4,13.5 C64.5,13.5 64.5,13.5 64.6,13.5 C64.9,13.4 65.1,13.1 65,12.8 L65,12.5 C65,12.3 64.9,12.2 64.8,12 C63.2,10.7 61.6,10 59.8,10 C57.1,10 54.9,11.6 54,12.4 C53.2,11.8 51.2,10.7 48.8,10.7 C46.7,10.7 44.9,11.6 43.3,13.3 C42.9,13.4 42.9,13.6 42.9,13.8" id="Shape"></path>
                <path d="M3.3,20.1 C3.3,15.4 7.1,11.6 11.8,11.6 C12,11.6 12.2,11.6 12.3,11.6 C12.7,5.7 17.7,1 23.7,1 C30,1 35.2,6.1 35.2,12.5 C35.2,14.3 34.8,16 34,17.5 C39.7,18.8 44,23.9 44,30 C44,37.1 38.3,42.8 31.2,42.8 C30.7,42.8 14.1,42.7 14.1,42.7 C9.1,42.7 5,38.6 5,33.6 C5,31.2 5.9,29 7.5,27.4 C5,25.9 3.3,23.2 3.3,20.1 Z" id="Shape"></path>
            </g>
        </g>
    </g>
</svg>