<?xml version="1.0" encoding="UTF-8"?>
<svg width="161px" height="161px" viewBox="0 0 161 161" version="1.1" xmlns="http://www.w3.org/2000/svg" xmlns:xlink="http://www.w3.org/1999/xlink">
    <!-- Generator: Sketch 49 (51002) - http://www.bohemiancoding.com/sketch -->
    <title>10</title>
    <desc>Created with Sketch.</desc>
    <defs></defs>
    <g id="Page-1" stroke="none" stroke-width="1" fill="none" fill-rule="evenodd">
        <g id="10">
            <rect id="Rectangle-path" fill="#DD1768" fill-rule="nonzero" x="0" y="0" width="160.9" height="160.9"></rect>
            <polygon id="Shape" fill="#FFFFFF" fill-rule="nonzero" points="15.1 20.8 15.1 45.7 20.6 45.7 20.6 13.2 16.2 13.2 11.2 19.1 11.2 24.8 11.2 24.8"></polygon>
            <path d="M40.5,37.3 L40.5,21.6 C40.5,16.5 38,12.8 32.4,12.8 C26.9,12.8 24.4,16.5 24.4,21.6 L24.4,37.3 C24.4,42.3 26.9,46.1 32.4,46.1 C38,46 40.5,42.3 40.5,37.3 M29.8,38.1 L29.8,20.7 C29.8,18.7 30.5,17.3 32.4,17.3 C34.3,17.3 35,18.7 35,20.7 L35,38.1 C35,40.1 34.3,41.5 32.4,41.5 C30.5,41.5 29.8,40.1 29.8,38.1" id="Shape" fill="#FFFFFF" fill-rule="nonzero"></path>
            <g id="Group-2" transform="translate(40.000000, 64.000000)" fill="#FFFFFF">
                <path d="M54.3050865,14 L26.6949135,14 L40.5,0.194913472 L54.3050865,14 Z M67,26.6949135 L80.8050865,40.5 L67,54.3050865 L67,26.6949135 Z M55.3050865,66 L40.5,80.8050865 L25.6949135,66 L55.3050865,66 Z M15,55.3050865 L0.194913472,40.5 L15,25.6949135 L15,55.3050865 Z" id="Combined-Shape"></path>
                <polygon id="Rectangle-Copy" points="26 44 56 44 56 54 26 54"></polygon>
                <polygon id="Rectangle-Copy-3" points="26 26 56 26 56 36 26 36"></polygon>
            </g>
        </g>
    </g>
</svg>