<?xml version="1.0" encoding="UTF-8"?>
<svg width="162px" height="162px" viewBox="0 0 162 162" version="1.1" xmlns="http://www.w3.org/2000/svg" xmlns:xlink="http://www.w3.org/1999/xlink">
    <!-- Generator: Sketch 49 (51002) - http://www.bohemiancoding.com/sketch -->
    <title>8</title>
    <desc>Created with Sketch.</desc>
    <defs></defs>
    <g id="Page-1" stroke="none" stroke-width="1" fill="none" fill-rule="evenodd">
        <g id="8" fill-rule="nonzero">
            <rect id="Rectangle-path" fill="#A21C44" x="0.9" y="0.7" width="160.9" height="160.9"></rect>
            <path d="M32.2,38.7 L32.2,35.2 C32.2,32.1 31.1,29.8 28.6,28.7 C30.8,27.6 31.8,25.7 31.8,23.1 L31.8,21.8 C31.8,16.7 29.2,14 24.1,14 C19.1,14 16.5,16.7 16.5,21.8 L16.5,23.1 C16.5,25.7 17.5,27.7 19.6,28.7 C17.1,29.8 16,32.1 16,35.2 L16,38.7 C16,43.6 18.3,47.1 24.1,47.1 C29.8,47.1 32.2,43.6 32.2,38.7 Z M21.6,21.3 C21.6,19.3 22.3,18.2 24,18.2 C25.8,18.2 26.5,19.3 26.5,21.3 L26.5,23.5 C26.5,25.5 25.8,26.6 24,26.6 C22.2,26.6 21.6,25.4 21.6,23.5 L21.6,21.3 Z M26.7,39.3 C26.7,41.3 26,42.7 24,42.7 C22.1,42.7 21.4,41.3 21.4,39.3 L21.4,34 C21.4,32 22.1,30.7 24,30.7 C26,30.7 26.7,32.1 26.7,34 L26.7,39.3 Z" id="Shape" fill="#FFFFFF"></path>
            <path d="M111.9,79.9 L95.5,95.5 C94.9,96.1 94.6,96.6 94.6,97.8 L94.6,141.4 C94.6,141.9 95,142.3 95.5,142.3 L112.4,142.3 C112.9,142.3 113.3,141.9 113.3,141.4 L113.3,80.3 C113.4,79.8 113,78.8 111.9,79.9" id="Shape" fill="#FFFFFF"></path>
            <path d="M64.8,100.2 L48.4,115.8 C47.8,116.4 47.5,116.9 47.5,118.1 L47.5,141.4 C47.5,141.9 47.9,142.3 48.4,142.3 L65.3,142.3 C65.8,142.3 66.2,141.9 66.2,141.4 L66.2,100.6 C66.3,100 65.9,99.1 64.8,100.2" id="Shape" fill="#FFFFFF"></path>
            <path d="M119.3,61 C119.3,60.9 119.3,60.7 119.2,60.6 C119.1,60.5 119,60.5 118.9,60.5 L118.8,60.5 L118.7,60.5 L106.2,63.3 L106,63.3 C105.9,63.3 105.8,63.4 105.8,63.4 C105.6,63.6 105.6,63.9 105.8,64.1 L105.9,64.2 L108.8,67.1 L80.4,95.5 L67.3,82.4 C67.2,82.3 66.9,82.3 66.8,82.4 L63.2,86 L42.2,107 C42.1,107.1 42.1,107.4 42.2,107.5 L45.8,111.1 C45.9,111.2 46.2,111.2 46.3,111.1 L67.1,90.4 L76.6,99.9 C76.6,99.9 76.6,99.9 76.6,99.9 L80.2,103.5 C80.3,103.6 80.6,103.6 80.7,103.5 L112.9,71.3 L115.9,74.3 C116.1,74.5 116.4,74.5 116.6,74.3 C116.7,74.2 116.7,74.1 116.7,74 L119.5,61.2 L119.3,61 Z" id="Shape" fill="#FFFFFF"></path>
            <path d="M88.4,102.9 L80.5,110.9 C80.3,111 80.1,111 80,110.9 L72.8,103.6 C71.5,102.3 71.2,103.4 71.2,103.9 L71.2,141.5 C71.2,142 71.6,142.4 72.1,142.4 L89,142.4 C89.5,142.4 89.9,142 89.9,141.5 L89.9,103.3 C90,102.7 89.6,101.7 88.4,102.9" id="Shape" fill="#FFFFFF"></path>
        </g>
    </g>
</svg>