<?xml version="1.0" encoding="UTF-8"?>
<svg width="162px" height="161px" viewBox="0 0 162 161" version="1.1" xmlns="http://www.w3.org/2000/svg" xmlns:xlink="http://www.w3.org/1999/xlink">
    <!-- Generator: Sketch 49 (51002) - http://www.bohemiancoding.com/sketch -->
    <title>1</title>
    <desc>Created with Sketch.</desc>
    <defs></defs>
    <g id="Page-1" stroke="none" stroke-width="1" fill="none" fill-rule="evenodd">
        <g id="1">
            <rect id="Rectangle-path" fill="#E3253C" fill-rule="nonzero" x="0.5" y="0.1" width="160.9" height="160.9"></rect>
            <polygon id="Shape" fill="#FFFFFF" fill-rule="nonzero" points="23 21.3 23 21.3 23 46.2 28.5 46.2 28.5 13.7 24.1 13.7 19.1 19.6 19.1 25.3 19.2 25.3"></polygon>
            <g id="Group" transform="translate(118.000000, 72.000000)" fill="#FFFFFF" fill-rule="nonzero">
                <path d="M6.5,4.9 C6.5,2.4 8.5,0.4 11,0.4 C13.5,0.4 15.4,2.4 15.4,4.9 C15.4,7.4 13.4,9.4 11,9.4 C8.4,9.4 6.5,7.4 6.5,4.9" id="Shape"></path>
                <path d="M16.1,11.1 C19.1,11.4 21.5,13.9 21.5,17 L21.5,18.5 L21.5,19.1 L21.5,29.3 C21.5,30.2 20.7,31 19.8,31 C18.8,31 18.1,30.2 18.1,29.3 L18.1,18.7 C18.1,18.3 18,17.8 17.3,17.8 C16.8,17.8 16.7,18.3 16.7,18.7 L16.7,50.5 C16.7,51.9 15.6,53 14.2,53 C12.8,53 11.7,51.9 11.7,50.5 L11.7,32.2 C11.7,32 11.6,31.5 11,31.5 C10.4,31.5 10.3,32 10.3,32.2 L10.3,50.5 C10.3,51.9 9.2,53 7.8,53 C6.4,53 5.3,51.9 5.3,50.5 L5.3,18.7 C5.3,18.4 5.2,17.8 4.7,17.8 C4,17.8 3.9,18.3 3.9,18.7 L3.9,29.3 C3.9,30.2 3.1,31 2.2,31 C1.2,31 0.5,30.2 0.5,29.3 L0.5,19.1 L0.5,18.5 L0.5,17 C0.5,13.9 2.9,11.4 5.9,11.1 C6,11.1 6.1,11.1 6.2,11.1 L11.1,11.1 L16,11.1 C15.9,11.1 16,11.1 16.1,11.1" id="Shape"></path>
            </g>
            <g id="Group" transform="translate(81.000000, 75.000000)" fill="#FFFFFF" fill-rule="nonzero">
                <path d="M17,4.3 C17,2 15.1,0.1 12.8,0.1 C10.5,0.1 8.6,2 8.6,4.3 C8.6,6.6 10.5,8.5 12.8,8.5 C15.1,8.5 17,6.6 17,4.3" id="Shape"></path>
                <path d="M4.2,13.8 L0.7,25.2 C0.7,25.2 0.1,27.3 1.9,27.8 C3.7,28.3 4.2,26.3 4.2,26.3 L7,16.8 C7,16.8 7.2,16.1 7.7,16.2 C8.3,16.4 8,17.1 8,17.1 L3.1,35 L7.7,35 L7.7,47.8 C7.7,49 8.7,50 9.9,50 C11.1,50 12.1,49 12.1,47.8 L12.1,35 L12.7,35 L13.3,35 L13.3,47.8 C13.3,49 14.3,50 15.5,50 C16.7,50 17.7,49 17.7,47.8 L17.7,35 L22.3,35 L17.4,17.1 C17.4,17.1 17.2,16.3 17.7,16.2 C18.3,16 18.4,16.8 18.4,16.8 L21.2,26.3 C21.2,26.3 21.7,28.3 23.5,27.8 C25.3,27.3 24.7,25.2 24.7,25.2 L21.2,13.8 C21.2,13.8 19.9,10.5 17.2,10.5 L12.7,10.5 L8.2,10.5 C5.5,10.5 4.2,13.8 4.2,13.8" id="Shape"></path>
            </g>
            <g id="Group" transform="translate(56.000000, 75.000000)" fill="#FFFFFF" fill-rule="nonzero">
                <path d="M16.7,4.3 C16.7,2 14.8,0.1 12.5,0.1 C10.2,0.1 8.3,2 8.3,4.3 C8.3,6.6 10.2,8.5 12.5,8.5 C14.8,8.5 16.7,6.6 16.7,4.3" id="Shape"></path>
                <path d="M4,13.8 L0.5,25.2 C0.5,25.2 -0.1,27.3 1.6,27.8 C3.4,28.3 3.9,26.3 3.9,26.3 L6.7,16.8 C6.7,16.8 6.9,16.1 7.4,16.2 C8,16.4 7.7,17.1 7.7,17.1 L2.9,35 L7.5,35 L7.5,47.8 C7.5,49 8.5,50 9.7,50 C10.9,50 11.9,49 11.9,47.8 L11.9,35 L12.5,35 L13.1,35 L13.1,47.8 C13.1,49 14.1,50 15.3,50 C16.5,50 17.5,49 17.5,47.8 L17.5,35 L22.1,35 L17.2,17.1 C17.2,17.1 17,16.3 17.5,16.2 C18.1,16 18.2,16.8 18.2,16.8 L21,26.3 C21,26.3 21.5,28.3 23.3,27.8 C25.1,27.3 24.5,25.2 24.5,25.2 L21,13.8 C21,13.8 19.7,10.5 17,10.5 L12.5,10.5 L8,10.5 C5.2,10.5 4,13.8 4,13.8" id="Shape"></path>
            </g>
            <g id="Group" transform="translate(103.000000, 95.000000)" fill="#FFFFFF" fill-rule="nonzero">
                <path d="M9.1,7.9 C11,7.9 12.6,6.3 12.6,4.4 C12.6,2.5 11,0.9 9.1,0.9 C7.2,0.9 5.6,2.5 5.6,4.4 C5.6,6.3 7.2,7.9 9.1,7.9" id="Shape"></path>
                <path d="M0.7,18.8 C0.5,19.2 0.4,20.1 1.2,20.5 C2.2,20.9 2.7,20 2.7,20 L4.6,13.9 C4.6,13.9 4.9,13.5 4.9,13.9 L4.9,28.2 C4.9,29.2 5.7,30 6.7,30 C7.7,30 8.5,29.2 8.5,28.2 L8.5,22.5 C8.5,22.5 8.4,21.7 9,21.7 C9.6,21.7 9.5,22.5 9.5,22.5 L9.5,28.2 C9.5,29.2 10.3,30 11.3,30 C12.3,30 13.1,29.2 13.1,28.2 L13.1,13.9 C13.1,13.5 13.3,13.8 13.3,13.8 L14.8,18 C14.8,18 15.4,19.9 15.6,19.9 C16.3,20.2 17.1,19.9 17.3,19.2 C17.5,18.8 17.4,18.3 17.2,17.9 C17.2,17.8 15,12.4 14.7,11.6 C13.9,9.3 12.5,9.3 11.1,9.3 C9.7,9.3 8.9,9.3 8.9,9.3 C8.9,9.3 8,9.3 6.2,9.3 C4.4,9.4 3.8,10.3 1.8,15.5 C1.7,16.2 0.7,18.6 0.7,18.8 Z" id="Shape"></path>
            </g>
            <g id="Group" transform="translate(17.000000, 72.000000)">
                <g transform="translate(3.000000, 0.000000)" fill="#FFFFFF" fill-rule="nonzero" id="Shape">
                    <path d="M15,4.9 C15,2.4 13,0.4 10.5,0.4 C8,0.4 6.1,2.4 6.1,4.9 C6.1,7.4 8.1,9.4 10.5,9.4 C13,9.4 15,7.4 15,4.9"></path>
                    <path d="M5.4,11.1 C2.4,11.4 0,13.9 0,17 L0,18.5 L0,19.1 L0,29.3 C0,30.2 0.8,31 1.7,31 C2.7,31 3.4,30.2 3.4,29.3 L3.4,18.7 C3.4,18.3 3.5,17.8 4.2,17.8 C4.7,17.8 4.8,18.3 4.8,18.7 L4.8,50.5 C4.8,51.9 5.9,53 7.3,53 C8.7,53 9.8,51.9 9.8,50.5 L9.8,32.2 C9.8,32 9.9,31.5 10.5,31.5 C11.1,31.5 11.2,32 11.2,32.2 L11.2,50.5 C11.2,51.9 12.3,53 13.7,53 C15.1,53 16.2,51.9 16.2,50.5 L16.2,18.7 C16.2,18.4 16.3,17.8 16.8,17.8 C17.5,17.8 17.6,18.3 17.6,18.7 L17.6,29.3 C17.6,30.2 18.4,31 19.3,31 C20.3,31 21,30.2 21,29.3 L21,19.1 L21,18.5 L21,17 C21,13.9 18.6,11.4 15.6,11.1 C15.5,11.1 15.4,11.1 15.3,11.1 L10.4,11.1 L5.5,11.1 C5.6,11.1 5.5,11.1 5.4,11.1"></path>
                </g>
                <path d="M4.5,31.2 L0.5,52.1" id="Shape" stroke="#FFFFFF" stroke-width="1.3067" stroke-linecap="round"></path>
            </g>
            <g id="Group" transform="translate(40.000000, 95.000000)" fill="#FFFFFF" fill-rule="nonzero">
                <path d="M3.3,6 C3.1,5.6 2.7,5.4 2.2,5.4 C1.5,5.4 0.9,6 0.9,6.7 C0.9,6.9 1,7.3 1,7.3 L4.5,13.7 C4.5,13.7 4.7,14.1 4.7,14.5 L4.7,28.3 C4.7,29.3 5.5,30 6.4,30 C7.4,30 8.1,29.2 8.1,28.3 L8.1,22.9 C8.1,22.9 8,22.1 8.6,22.1 C9.2,22.1 9.1,22.9 9.1,22.9 L9.1,28.3 C9.1,29.3 9.9,30 10.8,30 C11.8,30 12.5,29.2 12.5,28.3 L12.5,14.5 C12.5,14.1 12.7,13.7 12.7,13.7 L16,7.8 C16,7.8 16.4,7 16.4,6.7 C16.4,6 15.8,5.4 15.1,5.4 C14.6,5.4 14.2,5.6 14,6 C13.9,6.1 12.3,9 11.7,9.5 C11.1,10.1 10.6,10 10.6,10 L8.5,10 L6.4,10 C6.4,10 5.9,10.1 5.3,9.5 C5,9 3.4,6.1 3.3,6 Z" id="Shape"></path>
                <path d="M8.8,7.9 C10.7,7.9 12.3,6.3 12.3,4.4 C12.3,2.5 10.7,0.9 8.8,0.9 C6.9,0.9 5.3,2.5 5.3,4.4 C5.3,6.3 6.8,7.9 8.8,7.9" id="Shape"></path>
                <polygon id="Shape" points="8.8 12.8 12.8 15.7 14.6 22.6 8.8 22.6 2.9 22.6 4.8 15.7"></polygon>
            </g>
        </g>
    </g>
</svg>