<?xml version="1.0" encoding="UTF-8"?>
<svg width="162px" height="162px" viewBox="0 0 162 162" version="1.1" xmlns="http://www.w3.org/2000/svg" xmlns:xlink="http://www.w3.org/1999/xlink">
    <!-- Generator: Sketch 49 (51002) - http://www.bohemiancoding.com/sketch -->
    <title>7</title>
    <desc>Created with Sketch.</desc>
    <defs></defs>
    <g id="Page-1" stroke="none" stroke-width="1" fill="none" fill-rule="evenodd">
        <g id="7" fill-rule="nonzero">
            <rect id="Rectangle-path" fill="#FAC315" x="0.7" y="0.7" width="160.9" height="160.9"></rect>
            <polygon id="Shape" fill="#FFFFFF" points="17.2 18.7 25.7 18.7 18.4 46.6 23.8 46.6 30.9 19.2 30.9 14.2 17.2 14.2"></polygon>
            <path d="M81.2,78.7 C68.2,78.7 57.6,89.3 57.6,102.3 C57.6,115.3 68.2,125.9 81.2,125.9 C94.2,125.9 104.8,115.3 104.8,102.3 C104.8,89.2 94.3,78.7 81.2,78.7 Z M79.5,88 C79.5,87.2 80.3,86.4 81.3,86.4 C82.3,86.4 83,87.3 83,88 L83,96.1 C83,96.9 82.2,97.7 81.3,97.7 C80.3,97.7 79.5,96.8 79.5,96.1 L79.5,88 Z M81.3,114.4 C74.5,114.4 69,108.9 69,102.1 C69,96.6 72.6,91.9 77.6,90.4 L77.6,95 C75,96.3 73.2,99 73.2,102.1 C73.2,106.5 76.8,110.1 81.2,110.1 C85.6,110.1 89.2,106.5 89.2,102.1 C89.2,99 87.4,96.3 84.8,94.9 L84.8,90.3 C89.8,91.8 93.4,96.5 93.4,102 C93.5,108.9 88,114.4 81.3,114.4 Z" id="Shape" fill="#FFFFFF"></path>
            <path d="M54.2,102.1 C54.2,101 53.3,100.2 52.4,100.2 L42,100.2 C41.1,100.2 40.2,101.1 40.2,102.1 C40.2,103.2 41.2,104 42,104 L52.3,104 C53.2,104 54.2,103.1 54.2,102.1" id="Shape" fill="#FFFFFF"></path>
            <path d="M122.3,102.1 C122.3,101 121.4,100.2 120.5,100.2 L110.2,100.2 C109.3,100.2 108.4,101.1 108.4,102.1 C108.4,103.2 109.4,104 110.2,104 L120.5,104 C121.4,104 122.3,103.1 122.3,102.1" id="Shape" fill="#FFFFFF"></path>
            <path d="M81.3,75 C82.4,75 83.2,74.1 83.2,73.2 L83.2,62.9 C83.2,62 82.3,61.1 81.3,61.1 C80.2,61.1 79.4,62.1 79.4,62.9 L79.4,73.2 C79.3,74 80.2,75 81.3,75" id="Shape" fill="#FFFFFF"></path>
            <path d="M81.3,143.1 C82.4,143.1 83.2,142.2 83.2,141.3 L83.2,131 C83.2,130.1 82.3,129.2 81.3,129.2 C80.2,129.2 79.4,130.2 79.4,131 L79.4,141.3 C79.3,142.2 80.2,143.1 81.3,143.1" id="Shape" fill="#FFFFFF"></path>
            <path d="M57.8,88.6 C58.3,87.7 57.9,86.4 57.2,86 L48.2,80.9 C47.4,80.5 46.2,80.7 45.7,81.7 C45.2,82.6 45.6,83.9 46.3,84.3 L55.3,89.4 C56,89.8 57.2,89.5 57.8,88.6" id="Shape" fill="#FFFFFF"></path>
            <path d="M116.9,122.5 C117.4,121.6 117,120.3 116.3,119.9 L107.3,114.8 C106.5,114.4 105.3,114.6 104.8,115.6 C104.3,116.5 104.7,117.8 105.4,118.2 L114.4,123.3 C115.1,123.7 116.3,123.4 116.9,122.5" id="Shape" fill="#FFFFFF"></path>
            <path d="M94.7,78.6 C95.6,79.1 96.8,78.7 97.3,78 L102.4,69 C102.8,68.2 102.6,67 101.6,66.5 C100.7,66 99.4,66.4 99,67.1 L93.9,76.1 C93.5,76.8 93.8,78 94.7,78.6" id="Shape" fill="#FFFFFF"></path>
            <path d="M60.9,137.7 C61.8,138.2 63,137.8 63.5,137.1 L68.6,128.1 C69,127.3 68.8,126.1 67.8,125.6 C66.9,125.1 65.6,125.5 65.2,126.2 L60.1,135.2 C59.7,135.9 59.9,137.2 60.9,137.7" id="Shape" fill="#FFFFFF"></path>
            <path d="M67.8,78.6 C68.7,78.1 69,76.8 68.6,76.1 L63.5,67.1 C63.1,66.3 61.8,65.9 60.9,66.5 C60,67 59.7,68.3 60.1,69.1 L65.2,78.1 C65.6,78.7 66.8,79.1 67.8,78.6" id="Shape" fill="#FFFFFF"></path>
            <path d="M101.7,137.6 C102.6,137.1 102.9,135.8 102.5,135.1 L97.4,126.1 C97,125.3 95.7,124.9 94.8,125.5 C93.9,126 93.6,127.3 94,128.1 L99.1,137.1 C99.6,137.8 100.8,138.2 101.7,137.6" id="Shape" fill="#FFFFFF"></path>
            <path d="M104.7,88.6 C105.2,89.5 106.5,89.8 107.2,89.4 L116.2,84.3 C117,83.9 117.4,82.6 116.8,81.7 C116.3,80.8 115,80.5 114.2,80.9 L105.2,86 C104.6,86.4 104.2,87.6 104.7,88.6" id="Shape" fill="#FFFFFF"></path>
            <path d="M45.7,122.5 C46.2,123.4 47.5,123.7 48.2,123.3 L57.2,118.2 C58,117.8 58.4,116.5 57.8,115.6 C57.3,114.7 56,114.4 55.2,114.8 L46.2,119.9 C45.5,120.4 45.1,121.6 45.7,122.5" id="Shape" fill="#FFFFFF"></path>
        </g>
    </g>
</svg>