<?xml version="1.0" encoding="UTF-8"?>
<svg width="16px" height="16px" viewBox="0 0 16 16" version="1.1" xmlns="http://www.w3.org/2000/svg" xmlns:xlink="http://www.w3.org/1999/xlink">
    <!-- Generator: Sketch 49 (51002) - http://www.bohemiancoding.com/sketch -->
    <title>Shape</title>
    <desc>Created with Sketch.</desc>
    <defs></defs>
    <g id="Inner-pages" stroke="none" stroke-width="1" fill="none" fill-rule="evenodd">
        <g id="Map-Icons" transform="translate(-826.000000, -619.000000)" fill="#282710" fill-rule="nonzero">
            <g id="Group-5" transform="translate(816.000000, 609.000000)">
                <g id="Group-8">
                    <path d="M21.6,15.7934392 L21.6,10.768254 L14.4,10.768254 L14.4,15.7934392 L10.8,15.7934392 L10.8,25.1259259 L14.4,25.1259259 L14.832,25.1259259 L16.56,25.1259259 L16.56,21.5365079 L19.44,21.5365079 L19.44,25.1259259 L21.528,25.1259259 L21.6,25.1259259 L25.2,25.1259259 L25.2,15.7934392 L21.6,15.7934392 Z M14,21.9353322 L12.4,21.9353322 L12.4,20.3400353 L14,20.3400353 L14,21.9353322 Z M14,18.7447384 L12.4,18.7447384 L12.4,17.1494415 L14,17.1494415 L14,18.7447384 Z M18.8,17.1494415 L17.2,17.1494415 L17.2,15.5541446 L15.6,15.5541446 L15.6,13.9588477 L17.2,13.9588477 L17.2,12.3635509 L18.8,12.3635509 L18.8,13.9588477 L20.4,13.9588477 L20.4,15.5541446 L18.8,15.5541446 L18.8,17.1494415 Z M23.6,21.9353322 L22,21.9353322 L22,20.3400353 L23.6,20.3400353 L23.6,21.9353322 Z M23.6,18.7447384 L22,18.7447384 L22,17.1494415 L23.6,17.1494415 L23.6,18.7447384 Z" id="Shape"></path>
                </g>
            </g>
        </g>
    </g>
</svg>