<?xml version="1.0" encoding="UTF-8"?>
<svg width="104px" height="104px" viewBox="0 0 104 104" version="1.1" xmlns="http://www.w3.org/2000/svg" xmlns:xlink="http://www.w3.org/1999/xlink">
    <!-- Generator: Sketch 56.3 (81716) - https://sketch.com -->
    <title>Crisis</title>
    <desc>Created with Sketch.</desc>
    <g id="Crisis" stroke="none" stroke-width="1" fill="none" fill-rule="evenodd">
        <circle id="Oval-Copy" stroke="#386582" stroke-width="2.5" fill-opacity="0" fill="#FFFFFF" fill-rule="nonzero" stroke-linecap="round" cx="52" cy="52" r="50"></circle>
        <path d="M40.3333333,24.1666667 L63.6666667,24.1666667 C64.126904,24.1666667 64.5,24.5397627 64.5,25 L64.5,32.9166667 C64.5,33.376904 64.126904,33.75 63.6666667,33.75 L40.3333333,33.75 C39.873096,33.75 39.5,33.376904 39.5,32.9166667 L39.5,25 C39.5,24.5397627 39.873096,24.1666667 40.3333333,24.1666667 Z" id="Rectangle" stroke="#386582" stroke-width="2.5" fill-opacity="0" fill="#FFFFFF" fill-rule="nonzero" stroke-linecap="round"></path>
        <path d="M83.6666667,34.375 L83.6666667,33.75 L83.6666667,34.375 Z M83.6666667,34.375 L83.6666667,76.6666667 L20.3333333,76.6666667 L20.3333333,34.375 L20.3333333,35 L47.0223627,49.8074225 C47.007739,49.8692379 47,49.9337152 47,50 L47,54.1666667 C47,54.626904 47.373096,55 47.8333333,55 L57,55 C57.4602373,55 57.8333333,54.626904 57.8333333,54.1666667 L57.8333333,50 C57.8333333,49.7513398 57.7244229,49.528117 57.5517014,49.375431 L83.6666667,35 L83.6666667,34.375 Z M60.3333333,50.6979751 L60.3333333,54.1666667 C60.3333333,56.0076158 58.8409492,57.5 57,57.5 L47.8333333,57.5 C45.9923842,57.5 44.5,56.0076158 44.5,54.1666667 L44.5,51.2669789 L22.8333333,39.246029 L22.8333333,74.1666667 L81.1666667,74.1666667 L81.1666667,39.229909 L60.3333333,50.6979751 Z M20.3333333,34.375 L20.3333333,33.75 L20.3333333,34.375 Z" id="Combined-Shape" fill="#386582" fill-rule="nonzero"></path>
        <path d="M22,32.5 L82.8333333,32.5 L57.1247996,47.0388772 L46.8203461,47.0388772 L22,32.5 Z M31.2141578,35 L47.4986501,44.5388772 L56.4668531,44.5388772 L73.3340804,35 L31.2141578,35 Z" id="Rectangle" fill="#386582" fill-rule="nonzero"></path>
    </g>
</svg>