<?xml version="1.0" encoding="UTF-8"?>
<svg width="104px" height="104px" viewBox="0 0 104 104" version="1.1" xmlns="http://www.w3.org/2000/svg" xmlns:xlink="http://www.w3.org/1999/xlink">
    <!-- Generator: Sketch 56.3 (81716) - https://sketch.com -->
    <title>Poverty</title>
    <desc>Created with Sketch.</desc>
    <g id="Poverty" stroke="none" stroke-width="1" fill="none" fill-rule="evenodd" stroke-linecap="round">
        <g transform="translate(2.000000, 2.000000)" fill="#FFFFFF" fill-rule="nonzero" stroke="#386582">
            <circle id="Oval-Copy-2" stroke-width="2.5" fill-opacity="0" cx="50" cy="50" r="50"></circle>
            <g id="Group-4-Copy" transform="translate(14.166667, 34.500000)" stroke-width="2.25">
                <g id="Group">
                    <path d="M2.87899998,16.6528725 L2.87899998,16.857819 L3.31440085,16.857819 L3.13395295,16.7207883 L2.89269882,16.6827912 C2.89683589,16.6565238 2.91184314,16.6360325 2.93344642,16.6249556 L2.87899998,16.6528725 Z M3.04740162,16.6550619 L3.01724093,16.6321581 C3.03524804,16.6458325 3.04740162,16.6697808 3.04740162,16.6935999 L3.04740162,16.6550619 Z M3.69260161,22.3901754 L2.20368489,30.2805838 C2.03201017,31.1903618 1.15531954,31.7887127 0.245541554,31.617038 C0.241028992,31.6161822 0.241028992,31.6161822 0.236519586,31.61531 C-0.672065813,31.4386989 -1.26735358,30.5613433 -1.09572386,29.6518037 L1.1311066,17.8508738 C0.916815308,17.510715 0.797401621,17.1116648 0.797401621,16.6935999 L0.797401621,9.73279995 C0.797401621,7.10425592 2.92825757,4.97339997 5.5568016,4.97339997 L10.6696016,4.97339997 C13.2981456,4.97339997 15.4290016,7.10425592 15.4290016,9.73279995 L15.4290016,16.6935999 C15.4290016,17.8932728 14.4564745,18.8657999 13.2568016,18.8657999 C12.9960677,18.8657999 12.7460632,18.819862 12.5144402,18.7356384 L12.5314032,28.9809392 C12.5337535,30.4004224 11.3849402,31.5530461 9.96545705,31.5553963 C9.96332931,31.5553992 9.96332931,31.5553992 9.96120158,31.5553998 C9.23598081,31.5553998 8.58084861,31.255315 8.11320159,30.7725421 C7.64555457,31.255315 6.99042236,31.5553998 6.2652016,31.5553998 C4.84439385,31.5553998 3.69260161,30.4036076 3.69260161,28.9827998 L3.69260161,22.3901754 Z M8.14400159,6.29939997 C6.09381015,6.29939997 4.4318016,4.63739143 4.4318016,2.58719999 C4.4318016,0.537008545 6.09381015,-1.125 8.14400159,-1.125 C10.194193,-1.125 11.8562016,0.537008545 11.8562016,2.58719999 C11.8562016,4.63739143 10.194193,6.29939997 8.14400159,6.29939997 Z" id="Combined-Shape" fill-opacity="0"></path>
                    <path d="M18.9419999,31.1425779 C18.5793811,31.4391095 18.1159648,31.6169998 17.6109999,31.6169998 C16.4489928,31.6169998 15.5069999,30.675007 15.5069999,29.5129998 L15.5069999,27.3721342 L14.0883181,27.3721342 L15.4838735,22.2342733 C15.4992231,22.1777622 15.5069999,22.1194629 15.5069999,22.0609043 L15.5069999,21.8371999 C15.5069999,21.7318594 15.4792923,21.6283719 15.4266578,21.5371237 L13.3971243,18.018684 C12.8590113,17.0858006 13.1788408,15.8933295 14.1115616,15.3549345 C15.0235289,14.8285191 16.1869735,15.0920138 16.7831419,15.9599889 L18.0374742,17.7861999 L19.8465256,17.7861999 L21.1008579,15.9599889 C21.6970263,15.0920138 22.8604709,14.8285191 23.7724382,15.3549345 C24.705159,15.8933295 25.0249885,17.0858006 24.4868755,18.018684 L22.457342,21.5371237 C22.4047075,21.6283719 22.3769999,21.7318594 22.3769999,21.8371999 L22.3769999,22.0609043 C22.3769999,22.1194629 22.3847767,22.1777622 22.4001263,22.2342733 L23.7956817,27.3721342 L22.3769999,27.3721342 L22.3769999,29.5129998 C22.3769999,30.675007 21.435007,31.6169998 20.2729999,31.6169998 C19.768035,31.6169998 19.3046187,31.4391095 18.9419999,31.1425779 Z M18.9111999,18.8657999 C17.1331744,18.8657999 15.6917999,17.4244254 15.6917999,15.6463999 C15.6917999,13.8683744 17.1331744,12.4269999 18.9111999,12.4269999 C20.6892254,12.4269999 22.1305999,13.8683744 22.1305999,15.6463999 C22.1305999,17.4244254 20.6892254,18.8657999 18.9111999,18.8657999 Z" id="Combined-Shape"></path>
                    <path d="M30.5227998,7.59299996 C28.5576602,7.59299996 26.9645998,5.99993957 26.9645998,4.03479998 C26.9645998,2.06966039 28.5576602,0.476599991 30.5227998,0.476599991 C32.4879394,0.476599991 34.0809998,2.06966039 34.0809998,4.03479998 C34.0809998,5.99993957 32.4879394,7.59299996 30.5227998,7.59299996 Z M31.2080833,8.76339996 L31.8625668,8.76339996 L31.8625668,6.51339996 L31.2080833,6.51339996 L31.2080833,8.76339996 Z M30.5217669,30.9354409 C30.0920666,31.357019 29.5032608,31.6169998 28.8537332,31.6169998 C27.5382277,31.6169998 26.4717999,30.550572 26.4717999,29.2350665 L26.4717999,22.9929999 L23.6269592,22.9929999 L24.7245988,18.9822474 C24.4995017,18.991024 24.2691953,18.9646563 24.0408384,18.899176 C22.8881458,18.5686467 22.2216508,17.3662578 22.5521801,16.2135652 C22.5524533,16.2126131 22.5524533,16.2126131 22.552727,16.2116611 L24.5682347,9.21067428 C24.9478831,7.63869719 26.3590189,6.51339996 27.9971338,6.51339996 L29.1983998,6.51339996 L30.5073668,6.51339996 L33.0638328,6.51339996 C34.7019478,6.51339996 36.1130836,7.63869719 36.4803081,9.16370136 L38.5082396,16.2116611 C38.5085134,16.2126131 38.5085134,16.2126131 38.5087866,16.2135652 C38.8393158,17.3662578 38.1728208,18.5686467 37.0201282,18.899176 C36.7917714,18.9646563 36.561465,18.991024 36.3363678,18.9822474 L37.4340075,22.9929999 L34.5737998,22.9929999 L34.5737998,29.2335998 C34.5737998,30.5499153 33.5067153,31.6169998 32.1903998,31.6169998 C31.5406879,31.6169998 30.9516948,31.3570314 30.5217669,30.9354409 Z M31.2080833,6.51339996 L31.8625668,6.51339996 L31.8625668,8.76339996 L31.2080833,8.76339996 L31.2080833,6.51339996 Z" id="Combined-Shape" fill-opacity="0"></path>
                    <path d="M44.9371998,7.59299996 C42.9720602,7.59299996 41.3789998,5.99993957 41.3789998,4.03479998 C41.3789998,2.06966039 42.9720602,0.476599991 44.9371998,0.476599991 C46.9023393,0.476599991 48.4953997,2.06966039 48.4953997,4.03479998 C48.4953997,5.99993957 46.9023393,7.59299996 44.9371998,7.59299996 Z M45.6224832,8.76339996 L46.2769667,8.76339996 L46.2769667,6.51339996 L45.6224832,6.51339996 L45.6224832,8.76339996 Z M44.9382327,30.9354409 C44.5083048,31.3570314 43.9193117,31.6169998 43.2695998,31.6169998 C41.9532843,31.6169998 40.8861998,30.5499153 40.8861998,29.2335998 L40.8861998,22.9929999 L38.0413591,22.9929999 L39.1389987,18.9822474 C38.9139016,18.991024 38.6835952,18.9646563 38.4552384,18.899176 C37.3025458,18.5686467 36.6360507,17.3662578 36.96658,16.2135652 C36.9668532,16.2126131 36.9668532,16.2126131 36.967127,16.2116611 L38.9826346,9.21067428 C39.362283,7.63869719 40.7734188,6.51339996 42.4115337,6.51339996 L43.6127998,6.51339996 L44.9217667,6.51339996 L47.4782328,6.51339996 C49.1163477,6.51339996 50.5274835,7.63869719 50.894708,9.16370136 L52.9226395,16.2116611 C52.9229133,16.2126131 52.9229133,16.2126131 52.9231865,16.2135652 C53.2537158,17.3662578 52.5872207,18.5686467 51.4345281,18.899176 C51.2061713,18.9646563 50.9758649,18.991024 50.7507678,18.9822474 L51.8484074,22.9929999 L48.9881997,22.9929999 L48.9881997,29.2350665 C48.9881997,30.550572 47.9217719,31.6169998 46.6062664,31.6169998 C45.9567388,31.6169998 45.367933,31.357019 44.9382327,30.9354409 Z M45.6224832,6.51339996 L46.2769667,6.51339996 L46.2769667,8.76339996 L45.6224832,8.76339996 L45.6224832,6.51339996 Z" id="Combined-Shape-Copy-6"></path>
                    <path d="M60.8574013,18.7423387 C60.6306144,18.8224074 60.3871072,18.8657999 60.1344013,18.8657999 C58.9347284,18.8657999 57.9622013,17.8932728 57.9622013,16.6935999 L57.9622013,9.73279995 C57.9622013,7.10425592 60.0930573,4.97339997 62.7216013,4.97339997 L67.8344013,4.97339997 C70.4629453,4.97339997 72.5938012,7.10425592 72.5938012,9.73279995 L72.5938012,16.6935999 C72.5938012,17.8932728 71.6212742,18.8657999 70.4216013,18.8657999 C70.1608674,18.8657999 69.9108629,18.819862 69.6792398,18.7356384 L69.6962029,28.9809392 C69.6985532,30.4004224 68.5497399,31.5530461 67.1302567,31.5553963 C67.128129,31.5553992 67.128129,31.5553992 67.1260013,31.5553998 C66.4007805,31.5553998 65.7456483,31.255315 65.2780013,30.7725421 C64.8103543,31.255315 64.1552221,31.5553998 63.4300013,31.5553998 C62.0091935,31.5553998 60.8574013,30.4036076 60.8574013,28.9827998 L60.8574013,18.7423387 Z M65.3088013,6.29939997 C63.2586098,6.29939997 61.5966013,4.63739143 61.5966013,2.58719999 C61.5966013,0.537008545 63.2586098,-1.125 65.3088013,-1.125 C67.3589927,-1.125 69.0210013,0.537008545 69.0210013,2.58719999 C69.0210013,4.63739143 67.3589927,6.29939997 65.3088013,6.29939997 Z" id="Combined-Shape-Copy-3" fill-opacity="0"></path>
                    <path d="M55.5939997,18.8041999 C53.8329846,18.8041999 52.4053997,17.3766151 52.4053997,15.6155999 C52.4053997,13.8545848 53.8329846,12.4269999 55.5939997,12.4269999 C57.3550148,12.4269999 58.7825997,13.8545848 58.7825997,15.6155999 C58.7825997,17.3766151 57.3550148,18.8041999 55.5939997,18.8041999 Z M55.5939997,31.2495147 C55.2244209,31.5559749 54.7498243,31.7401998 54.2321997,31.7401998 C53.0531822,31.7401998 52.0973997,30.7844173 52.0973997,29.6053998 L52.0974059,25.993154 C51.6686151,26.2042715 51.1585807,26.2496493 50.6719344,26.0789881 C50.6657872,26.0768243 50.6657872,26.0768243 50.6596503,26.0746315 C49.7093659,25.7338194 49.2152909,24.6871789 49.556103,23.7368945 C49.5657202,23.7105049 49.5657202,23.7105049 49.575876,23.6843179 L51.4337399,18.9656108 C51.8163497,17.9938369 52.7544439,17.3549999 53.7988264,17.3549999 L57.4053895,17.3549999 C58.4366069,17.3549999 59.3656297,17.9780464 59.7570091,18.9321069 L61.674431,23.606181 C61.6858985,23.634592 61.6858985,23.634592 61.6967202,23.6632553 C62.043524,24.5978036 61.5670631,25.6365447 60.6325148,25.9833486 C60.1167712,26.1747372 59.5694237,26.1194432 59.1204972,25.8764501 L59.1204972,26.6889999 L59.1125384,26.6889999 L59.0962201,29.6116967 C59.089646,30.789154 58.1332753,31.7401998 56.9557997,31.7401998 C56.4381751,31.7401998 55.9635785,31.5559749 55.5939997,31.2495147 Z" id="Combined-Shape"></path>
                </g>
            </g>
        </g>
    </g>
</svg>