<?xml version="1.0" encoding="UTF-8"?>
<svg width="104px" height="104px" viewBox="0 0 104 104" version="1.1" xmlns="http://www.w3.org/2000/svg" xmlns:xlink="http://www.w3.org/1999/xlink">
    <!-- Generator: Sketch 56.3 (81716) - https://sketch.com -->
    <title>Countries</title>
    <desc>Created with Sketch.</desc>
    <g id="Countries" stroke="none" stroke-width="1" fill="none" fill-rule="evenodd">
        <g id="Countries-Copy" transform="translate(1.000000, 1.000000)" fill="#386582" fill-rule="nonzero">
            <path d="M51.25,102.5 C22.9454066,102.5 0,79.5545934 0,51.25 C0,22.9454066 22.9454066,0 51.25,0 C79.5545934,0 102.5,22.9454066 102.5,51.25 C102.5,79.5545934 79.5545934,102.5 51.25,102.5 Z M51.25,100 C78.1738816,100 100,78.1738816 100,51.25 C100,24.3261184 78.1738816,2.5 51.25,2.5 C24.3261184,2.5 2.5,24.3261184 2.5,51.25 C2.5,78.1738816 24.3261184,100 51.25,100 Z M50.8333333,16.25 C55.2055876,16.25 58.75,19.7944124 58.75,24.1666667 C58.75,28.5389209 55.2055876,32.0833333 50.8333333,32.0833333 C48.6575049,32.0833333 46.6866915,31.2055593 45.2556881,29.784806 C44.4914364,30.6814035 43.3537863,31.25 42.0833333,31.25 C39.7821469,31.25 37.9166667,29.3845198 37.9166667,27.0833333 C37.9166667,24.7821469 39.7821469,22.9166667 42.0833333,22.9166667 C42.3980711,22.9166667 42.7046582,22.9515634 42.9994367,23.0176987 C43.5559447,19.1899625 46.8513065,16.25 50.8333333,16.25 Z M42.4521515,25.4570591 C42.3331224,25.4303542 42.2100022,25.4166667 42.0833333,25.4166667 C41.1628588,25.4166667 40.4166667,26.1628588 40.4166667,27.0833333 C40.4166667,28.0038079 41.1628588,28.75 42.0833333,28.75 C42.5800657,28.75 43.0362663,28.5347296 43.3530866,28.1630454 L45.1028991,26.1102171 L47.0170897,28.0106966 C48.0267826,29.0131571 49.3818025,29.5833333 50.8333333,29.5833333 C53.8248757,29.5833333 56.25,27.1582091 56.25,24.1666667 C56.25,21.1751243 53.8248757,18.75 50.8333333,18.75 C48.134998,18.75 45.8573493,20.7367129 45.4734261,23.3773878 L45.0851802,26.0477949 L42.4521515,25.4570591 Z M69.2087809,38.223776 C69.0913076,36.6238052 68.7518824,36.1088264 68.1827799,35.425314 C67.6136775,34.7418017 66.9269816,34.7143555 65.860494,34.7143555 C64.7940063,34.7143555 60.4166667,35.425314 60.4166667,32.5548306 C60.4166667,29.6843473 64.5184326,30.2328499 65.90861,30.6338508 C67.2987874,31.0348518 71.1973063,33.1059781 71.1973063,37.7485155 C71.2819062,42.3812446 71.2996263,47.0129565 71.3033379,48.75 L75.4166667,48.75 L67.9166667,58.75 L67.9166667,85.4166667 L65.4166667,85.4166667 L65.4166667,58.75 L38.75,58.75 L38.75,85.4166667 L36.25,85.4166667 L36.25,58.75 L27.9166667,48.75 L40.4166667,48.75 L40.4166667,44.5833333 C40.4166667,38.6002485 45.2669152,33.75 51.25,33.75 C57.2330848,33.75 62.0833333,38.6002485 62.0833333,44.5833333 L62.0833333,48.75 L69.2165845,48.75 C69.2870038,42.7624746 69.2844026,39.2537332 69.2087809,38.223776 Z M70.7423504,51.25 L59.5833333,51.25 L59.5833333,44.5833333 C59.5833333,39.9809604 55.8523729,36.25 51.25,36.25 C46.6476271,36.25 42.9166667,39.9809604 42.9166667,44.5833333 L42.9166667,51.25 L33.2542707,51.25 L37.4209374,56.25 L66.6666667,56.25 L70.7423504,51.25 Z" id="Combined-Shape"></path>
        </g>
    </g>
</svg>