<?xml version="1.0" encoding="UTF-8"?>
<svg width="61px" height="52px" viewBox="0 0 61 52" version="1.1" xmlns="http://www.w3.org/2000/svg" xmlns:xlink="http://www.w3.org/1999/xlink">
    <!-- Generator: Sketch 52.5 (67469) - http://www.bohemiancoding.com/sketch -->
    <title>Fill 1</title>
    <desc>Created with Sketch.</desc>
    <g id="Page-1" stroke="none" stroke-width="1" fill="none" fill-rule="evenodd">
        <path d="M49.1152156,10.8647786 C53.1149704,17.0403113 53.1631284,26.9510137 49.0651691,33.0760982 C44.5702372,40.2969567 37.1116076,44.3309134 28.6669673,43.6332045 C21.0116455,43.3342272 13.701078,37.8564034 10.5905458,30.7353943 C7.38010948,23.8631998 8.56507862,14.3513241 13.2562307,8.57452303 C18.9861783,0.955789522 28.6176762,-1.78374108 37.4579672,1.15482217 C42.001907,2.74813035 46.6449011,6.33376385 49.1152156,10.8647786 Z M30.9378513,1.00538111 C31.1851566,1.95133348 30.8886546,3.09650886 30.9878978,3.89321055 L31.0869521,3.79421774 C31.1851566,3.64477669 31.2844942,3.79421774 31.3345407,3.84390452 C31.4317065,4.09319504 31.481753,4.19218784 31.2844942,4.39103012 C33.9020211,4.3416289 36.2729981,5.18782699 38.4456776,6.43275665 C38.9395327,6.13492158 39.5808835,5.93493708 40.0754941,6.18422761 C41.1132509,6.78218221 42.0509148,7.77782135 42.54477,8.87321477 C42.8914129,8.02711188 43.8791232,7.22955352 44.5702372,6.68233274 C40.7176947,3.04710765 36.0757393,1.35375962 30.9378513,1.00538111 Z M16.1713926,6.78218221 L18.6406685,9.12279086 C21.8009639,6.18422761 25.4562477,4.49116514 29.753732,4.29203731 C29.753732,3.34608494 29.4562858,2.10086972 29.753732,1.10437391 C24.4686318,1.20422338 19.924692,3.44507775 16.1713926,6.78218221 Z M46.4958002,2.00102025 L47.6326114,3.14610045 C49.1633736,5.48680428 51.2870453,7.82712738 53.5598178,9.57101884 L52.916673,7.42944283 C52.1272601,4.64032064 49.1152156,2.64828088 46.4958002,2.00102025 Z M13.8983368,2.29999755 L12.2195125,2.99742087 C9.35553019,4.04274679 7.57661285,7.03071125 7.18181199,9.8194527 C10.1448486,8.12610468 11.5782562,4.78985688 13.8983368,2.29999755 Z M33.3588748,2.84826537 C32.7660597,3.14610045 32.0746625,3.44507775 31.481753,3.54492722 C31.6790118,3.89321055 32.0256547,3.99334557 32.4204555,4.04274679 C33.2599149,3.54492722 34.4459228,4.29203731 35.0388322,3.39539097 C34.593135,2.8975714 34.0010754,2.84826537 33.3588748,2.84826537 Z M52.522061,4.88884969 L53.6088256,6.28436264 C54.4484739,8.6743725 54.8922825,11.2139186 55.6834895,13.454773 L55.5842463,13.454773 C54.5475282,10.4171217 51.0404954,9.67001164 49.3614822,7.13046554 C49.7062366,11.2139186 54.4974817,12.4591338 56.4238946,15.6953418 C56.2263525,13.6536152 56.8184121,11.4624477 56.3738481,9.4214826 C55.9300394,7.5292923 54.3984273,5.48680428 52.522061,4.88884969 Z M8.12051454,5.23827524 C7.38010948,5.58665375 6.638949,5.98538534 6.04575623,6.73173395 C3.47752045,9.07319927 4.51423861,13.0062594 4.41593971,16.0940734 C6.44140693,12.9569534 10.9353002,11.3140536 11.3801476,7.32940299 C10.293194,9.22187884 8.16942792,10.0688384 6.638949,11.6127454 C5.99684285,12.3600458 5.55190105,13.2556451 5.10733696,13.9039528 L5.00799936,13.8535046 C6.34235262,11.0644776 5.89854395,7.57897908 8.12051454,5.23827524 Z M30.8886546,5.3877163 C31.1851566,6.38335544 31.0369056,7.57897908 30.9878978,8.62497129 C33.5072202,8.72405927 35.9274883,9.62061043 38.05116,11.0644776 L37.5573048,10.4171217 C38.0018689,10.0183902 37.1116076,9.71969842 37.4579672,9.37103435 C37.8527681,9.71969842 38.1001678,10.11843 38.4456776,10.4668085 C38.7422739,10.3172723 38.9895792,10.716099 39.2361291,10.8647786 C39.4333879,12.3600458 40.5693492,13.1565572 41.162542,14.5008604 C41.4588551,14.5501664 41.7064437,14.4511736 41.9026638,14.2523313 C42.4465655,14.4511736 41.853656,14.7995521 41.9527103,15.0984342 L42.2974647,15.0491282 C42.742312,15.3469633 41.9026638,15.4468127 42.2002989,15.74579 C43.2862137,16.1445216 42.6941541,17.339003 42.9403262,18.3356892 C42.54477,19.0820378 42.3964245,20.2279747 41.4088086,20.4271025 C41.3598008,20.7257943 41.6563972,21.522496 40.9649999,21.3226066 L42.6440131,21.2236138 C42.001907,20.4271025 42.8413663,19.4314634 43.0886716,18.6336195 C43.1879148,18.5346267 43.3362602,18.2359349 43.4834725,18.4347772 C42.9896173,19.5301706 43.9291697,20.1775264 43.68177,21.3226066 L46.793152,21.2236138 C46.4958002,19.3313284 46.2992969,17.1401608 45.4106408,15.3974115 C44.372884,15.9446323 44.2739241,14.5008604 43.6317235,14.0523468 C42.8914129,13.7040635 41.9026638,13.454773 41.6563972,12.5589833 C40.1255406,12.6579761 40.9649999,10.9152269 40.0754941,10.3172723 C39.6809765,10.2182795 39.3843801,10.4668085 39.0877837,10.6171062 C38.9395327,10.0688384 38.3966697,9.62061043 38.7422739,8.9733498 C37.8035714,8.52493145 38.4957241,7.5292923 37.4579672,7.08115951 C35.3835866,6.18422761 33.1605773,5.68640804 30.8886546,5.3877163 Z M29.753732,5.53725254 C25.8018519,5.78654307 22.2948191,7.22955352 19.3317825,9.8194527 L21.6037052,12.1601565 C23.8757223,9.96898894 26.6912633,8.82390874 29.753732,8.6743725 L29.753732,5.53725254 Z M40.1748317,5.53725254 C40.2730361,5.83594428 40.7677412,6.28436264 41.1132509,6.48320491 C41.162542,6.43275665 41.2615963,6.38335544 41.2615963,6.28436264 C41.3598008,5.68640804 40.6193958,5.53725254 40.1748317,5.53725254 Z M45.26154,7.37899458 C44.5201907,8.2262397 43.7307778,9.2723271 42.8413663,9.8194527 C43.9291697,10.9152269 45.0142347,12.0600215 45.8054417,13.355685 C46.8421598,15.8952311 47.9280747,18.4347772 47.8298702,21.3730549 C48.8676271,21.1237644 50.0528795,21.3226066 51.1387943,21.1742126 C50.8922444,15.9950806 48.9168237,11.1645174 45.26154,7.37899458 Z M15.5292865,7.42944283 C12.0220649,11.4130464 10.0966907,15.9950806 9.89829875,21.3226066 L13.1580262,21.3730549 C13.2072229,17.0403113 14.9360937,13.1061089 17.850217,9.86999614 C17.0597654,9.07319927 16.1213461,8.27564092 15.5292865,7.42944283 Z M57.0660007,8.9733498 C58.5965741,12.5085351 56.6211534,16.3930507 57.6088637,20.1281252 C57.5598559,20.1281252 57.5106592,20.2775663 57.4116049,20.2279747 C57.4605183,16.8908702 53.9543354,15.0984342 52.0782523,12.6579761 C52.4728643,16.7918774 56.8677032,19.3313284 57.6088637,23.2652452 C57.7579645,21.67089 58.3500242,20.1775264 58.943217,18.7336593 C60.0291318,15.3974115 59.2887267,11.5622019 57.0660007,8.9733498 Z M3.52652826,9.57101884 L2.34155911,11.5128959 C0.168596332,15.3469633 2.29226802,19.8291479 3.47752045,23.4147814 C4.41593971,19.6303057 8.26876552,17.0403113 8.6632831,13.0568029 C7.23100865,14.9489932 4.86078708,16.3433639 4.07042994,18.4840832 C3.67562908,19.1324861 3.92321766,20.1281252 3.42936249,20.6259448 C3.37931598,19.5798574 3.52652826,18.4347772 3.52652826,17.2896018 C3.47752045,14.7490087 2.63787222,12.0107155 3.52652826,9.57101884 Z M29.8029287,9.71969842 C27.0371508,10.11843 24.4196239,11.1140691 22.3941567,13.0062594 L24.764095,15.148121 C26.0984483,13.9039528 27.8765158,12.9072666 29.8029287,13.0062594 C29.7036855,11.8611792 29.7036855,10.8647786 29.8029287,9.71969842 Z M30.9378513,9.77014667 C31.1362432,10.7657858 30.9878978,11.910866 31.0369056,13.0062594 C32.9633185,13.1061089 34.8897314,13.7534647 36.2229515,15.148121 L38.5939285,12.8578654 C36.371297,11.0150763 33.8038166,10.0688384 30.9378513,9.77014667 Z M18.5413309,10.566658 C15.9730951,13.7040635 14.5415761,17.2896018 14.1957831,21.3730549 C15.3317444,21.4720477 16.4176592,21.1237644 17.4554161,21.4227417 L17.3563618,21.0246764 C17.6529582,17.9369576 18.6896763,15.1975222 20.8633945,12.9569534 L18.5413309,10.566658 Z M39.2361291,13.604214 L36.371297,16.5918929 C36.1237084,16.7918774 36.0757393,17.1898475 36.371297,17.2896018 C36.371297,16.4929001 37.2607084,16.1942084 37.9028146,16.3930507 C38.7912817,16.3930507 39.5327255,16.7918774 39.9272431,17.5389875 C39.8281888,17.7381154 39.779181,17.9863589 39.8782353,18.1853915 C40.1748317,18.285241 40.3220439,17.9863589 40.5203414,17.8371082 C41.1132509,17.7381154 41.3097543,18.385376 41.7064437,18.6840677 C41.3097543,18.9325968 41.2615963,19.4314634 41.2615963,19.8795962 L41.4088086,19.8795962 C41.9026638,19.8291479 42.0509148,19.2314789 42.2002989,18.7830605 C42.1001114,17.6379803 41.3097543,16.9413185 40.3720905,16.3930507 L40.5203414,16.0940734 C40.9649999,15.0491282 39.7299843,14.4007253 39.2361291,13.604214 Z M21.5536586,13.7040635 C19.7273388,15.9446323 18.6896763,18.5346267 18.4431264,21.4227417 L19.7766299,21.3226066 C19.6772923,20.9742281 19.5290413,20.576258 19.6772923,20.1775264 C20.1222341,19.5798574 20.1711474,18.3356892 21.2581954,18.4347772 C21.3072032,17.6379803 22.2948191,17.7874214 22.641462,16.9907197 C23.332576,16.9907197 23.3818671,16.1445216 24.072981,15.9950806 L21.5536586,13.7040635 Z M30.9378513,14.0523468 L31.0869521,16.3930507 C31.9263171,17.0907596 32.3712589,16.0446722 33.0623728,15.7950961 L33.2599149,15.9950806 C33.4071272,17.0403113 32.3222511,17.3894513 31.7783494,17.8872709 C32.4204555,17.1401608 32.865114,18.6840677 33.6054247,18.1357999 C33.7537701,17.2391536 35.0388322,17.3894513 35.1860445,16.4424519 C35.0388322,16.5918929 34.8404403,16.4929001 34.741386,16.3433639 L35.3835866,15.74579 C34.0010754,14.899592 32.5685177,14.3017325 30.9378513,14.0523468 Z M25.1107379,16.3930507 C25.5055388,16.5424917 25.9501029,16.5918929 26.2466992,16.9413185 C26.1966527,17.0907596 25.9011895,17.2896018 26.1966527,17.4391381 C26.443958,17.4885393 26.443958,17.2896018 26.5923034,17.1898475 C26.9378132,17.7381154 27.3326141,17.0403113 27.7272261,17.5389875 C28.6176762,17.6379803 28.2212701,16.4424519 28.9132339,16.1445216 L28.9624306,16.2436096 C28.8642261,16.2929156 28.9132339,16.4424519 28.9132339,16.5424917 C29.3090735,16.6415797 29.6546777,16.2436096 29.9009443,16.5918929 C29.753732,15.8455443 29.7036855,15.0491282 29.753732,14.2018831 C27.9748147,14.4007253 26.3457536,15.0491282 25.1107379,16.3930507 Z M60.2764371,17.1898475 C60.522987,21.4720477 57.3623138,24.3113326 57.2632595,28.3950712 L56.9677963,28.7927558 L56.8677032,28.693763 C58.4982752,24.8091522 55.2386421,21.9213227 54.0036265,18.6840677 L54.3002229,21.9213227 C54.6457326,25.1081295 56.7202077,27.7971166 56.1272982,31.2332139 L59.4859855,26.7510292 C60.9185432,24.0620421 61.4624449,20.1281252 60.2764371,17.1898475 Z M0.563397192,17.6379803 C-0.177763284,19.7292985 -0.0286624573,22.368694 0.46519272,24.5104604 C0.91004009,27.3489838 3.57657477,29.3410236 4.95908598,31.6816322 L4.91083359,31.3323019 C4.66352829,26.9005655 7.28105516,23.1665379 6.93526211,18.9325968 C6.44140693,20.9249221 4.7125361,22.4687339 4.21868092,24.4608688 C3.62558257,25.8555251 3.77383356,27.7477154 4.07042994,29.1421813 L3.97137563,29.1421813 C3.47752045,28.2949362 3.47752045,27.2488488 3.23097057,26.3028964 C2.63787222,23.314932 0.416184912,20.9249221 0.563397192,17.6379803 Z M29.5553401,18.1853915 L29.7036855,18.3356892 C30.4439961,19.3810151 28.9132339,19.6797069 28.4193787,19.9786842 C27.4316684,20.4271025 27.7272261,21.622631 27.4316684,22.4191423 C26.9378132,22.5685834 27.0371508,21.8708745 26.7895622,21.67089 C26.7405544,21.7214334 26.5432956,22.0203155 26.443958,21.7214334 C25.8018519,21.4227417 25.7518054,22.2191578 25.6045931,22.5685834 C25.5545466,22.7674256 25.2579502,22.5685834 25.3572878,22.8665136 C26.0984483,22.9665535 26.8888054,22.4191423 27.4809595,22.8171124 C27.7272261,22.6182701 27.4316684,22.0700023 27.9255236,22.0700023 C28.2212701,22.1204506 28.0248612,22.4687339 28.2212701,22.6182701 C27.7272261,22.9169619 27.9255236,23.464373 27.531006,23.7630648 C27.4809595,23.7137587 27.4316684,23.5642225 27.3326141,23.5642225 L27.3326141,23.7630648 C27.3826606,23.8631998 27.4316684,24.1124903 27.6300603,24.0620421 C27.7772726,23.464373 28.7159751,23.5148213 28.4193787,22.6676713 C28.9132339,22.5181351 29.6546777,22.2191578 30.0992418,22.6676713 C30.4439961,23.2652452 29.8529752,23.5642225 29.8529752,24.1124903 C29.7036855,24.9092872 28.6669673,24.6095484 28.4193787,24.9578317 C28.8642261,25.2071223 29.2598768,25.5060996 29.8029287,25.5060996 C30.2467373,25.5060996 31.3824154,25.8555251 31.1851566,24.9578317 C31.2844942,24.1124903 31.9756082,24.3610194 32.5685177,24.2114831 C32.7167686,23.8631998 33.1115695,23.2652452 32.7167686,22.9665535 C33.013365,22.0700023 31.3345407,21.67089 32.4204555,20.8258341 C32.1238591,20.7257943 32.2722046,20.3774158 32.2229135,20.1775264 L32.1238591,20.1775264 C31.5808073,18.9325968 30.4439961,19.8291479 29.8529752,18.6336195 C29.753732,18.0359504 30.642388,18.3356892 30.5930969,18.2359349 C30.3457916,17.9863589 29.8029287,18.0359504 29.5553401,18.1853915 Z M21.7027595,20.8752353 C21.3572497,20.9249221 20.9123079,20.7753859 20.6650026,21.0246764 C20.5659483,21.4227417 20.813348,21.8214733 20.9624488,22.2191578 C20.9624488,22.6182701 20.5167516,22.4687339 20.270485,22.5181351 L20.2211939,22.9169619 C20.1222341,23.314932 19.6772923,23.314932 19.3807903,23.4147814 L19.4800335,24.5104604 C20.072943,25.1578162 20.4685937,25.8050769 20.3695394,26.701628 C20.813348,27.4488333 20.4685937,28.494064 21.10985,29.1915825 C21.4064464,29.7883949 21.0116455,30.1378205 20.7150491,30.5862388 L21.0116455,30.6860883 L23.7763847,27.8972516 C22.6904698,26.6015882 21.9993559,25.2071223 21.6037052,23.6139093 L21.3072032,23.5148213 C21.2581954,23.912601 21.2089043,24.3113326 20.9624488,24.6095484 L20.5167516,24.2114831 C20.270485,23.9621926 20.7643402,23.912601 20.8633945,23.912601 C21.0598035,23.5642225 20.7150491,23.1160897 20.9123079,22.8171124 C21.10985,23.0159547 21.3072032,23.2652452 21.6037052,23.1665379 C21.9993559,22.9665535 21.9993559,22.4191423 21.9003015,22.1204506 L21.7027595,20.8752353 Z M40.5693492,22.3192928 L41.0632044,22.8665136 C40.9649999,23.7137587 42.1001114,24.0620421 42.2002989,24.6599967 L42.54477,22.5181351 C41.9026638,22.4191423 41.1132509,22.6676713 40.5693492,22.3192928 Z M47.7808624,22.3192928 C47.8799167,26.6520364 46.1510459,30.5357906 43.1879148,33.6739576 L45.607994,36.1134638 C49.1633736,32.2291386 50.9412522,27.3994321 51.1878021,22.368694 C50.0528795,22.368694 48.8175806,22.7169774 47.7808624,22.3192928 Z M43.6317235,22.368694 L43.4834725,24.4104206 C43.6317235,24.6599967 44.224633,25.0587282 43.68177,25.3072573 C43.4834725,25.3566585 43.385268,25.2575705 43.2369226,25.2071223 C42.6440131,27.1994476 41.7546017,29.1915825 40.1748317,30.7353943 C40.5203414,31.0343716 40.8169378,31.3818935 41.162542,31.581878 L41.3598008,31.1839079 C42.1502524,31.2829007 42.2492123,32.4288375 42.4465655,33.0256499 C44.372884,30.9345221 45.607994,28.5445123 46.2992969,25.9049263 C46.6939089,24.8091522 46.4465091,23.464373 46.9414974,22.4191423 C45.8544495,22.5181351 44.6194338,22.5685834 43.6317235,22.368694 Z M13.1580262,22.4191423 C12.121308,22.6676713 10.9853467,22.5181351 9.89829875,22.5685834 C10.1448486,27.7971166 11.9730571,32.3289881 15.3799024,36.2629049 L17.850217,33.8717528 C17.2581573,32.9266571 16.0721495,32.7277196 15.8247497,31.6816322 C15.5292865,32.1794518 15.0844391,31.581878 14.7888814,31.3818935 C14.6395917,30.4861038 13.4044817,30.5862388 13.1580262,29.8388432 C12.664171,30.63564 12.4669122,29.1421813 11.9230105,29.4904646 C11.4792019,29.1915825 11.5782562,28.693763 11.3308565,28.3453844 C11.1818501,27.7477154 11.1818501,27.0500065 11.6756108,26.6015882 C11.8740027,26.4531942 12.1703158,26.4027459 12.2696534,26.701628 C12.6151632,26.6520364 12.6151632,26.5017387 12.8617131,26.2532097 C13.3555683,25.7553901 13.5038193,26.6520364 13.8494235,26.7510292 C13.3555683,25.4071068 13.1580262,23.8631998 13.1580262,22.4191423 Z M17.4053696,22.4191423 C16.3676127,22.5685834 15.2326901,22.7169774 14.1957831,22.5181351 L14.9360937,27.0003198 C15.3799024,26.6015882 15.3317444,25.7553901 15.47924,25.1081295 C15.5782943,24.2608843 16.5659102,24.4104206 16.8614679,23.6139093 C17.2081108,23.464373 17.4053696,23.912601 17.6529582,24.0620421 C17.3071651,23.6139093 17.3071651,22.9665535 17.4053696,22.4191423 Z M18.4431264,22.4191423 C18.590622,23.2147969 18.7889195,24.0126408 18.7397228,24.8091522 C18.6896763,24.5104604 19.4800335,24.0620421 18.9369816,23.7630648 C19.0351861,23.314932 18.9861783,22.7674256 19.4308368,22.5685834 C19.0351861,22.5181351 18.7397228,22.6676713 18.4431264,22.4191423 Z M22.9870662,23.8127515 C23.332576,24.9578317 23.8757223,26.0543674 24.5668362,27.0500065 L25.4562477,26.0039191 C25.5545466,25.5060996 25.3079967,25.1081295 25.1607844,24.7104449 L25.1107379,25.3072573 C24.8634326,25.0587282 24.3202863,24.9092872 24.4196239,24.4104206 C23.8757223,24.3113326 23.5799757,23.912601 22.9870662,23.8127515 Z M26.7895622,24.8091522 L26.3457536,24.6599967 L25.9011895,25.4071068 L26.7895622,24.8091522 Z M35.4826409,26.552187 C35.6298532,26.552187 35.7791429,26.6015882 35.8281507,26.5017387 C36.0265426,25.9049263 35.3342955,25.9049263 35.236091,25.4071068 C34.3465852,25.7049418 35.4336331,26.0039191 35.4826409,26.552187 Z M39.5327255,25.9542324 C39.3843801,25.8555251 39.2361291,25.7049418 39.2361291,25.5565478 C38.8404784,26.0039191 38.7422739,26.9510137 37.9028146,26.8511643 C37.8035714,27.4488333 37.1116076,27.3489838 36.9151986,27.6476756 C37.9518224,28.0456457 37.6555093,26.6520364 38.6432196,26.8014775 C39.63093,27.7971166 38.5450152,28.9421968 38.199411,29.8884347 C37.1116076,29.9882842 36.1737549,29.2905753 34.9397779,29.3906152 L34.9397779,29.5895526 C36.2229515,29.7389937 37.2106619,30.8849306 38.5939285,30.1871265 C38.6432196,29.7883949 38.8404784,29.3906152 39.1871213,29.0917331 C39.4333879,29.2905753 39.3343336,29.7389937 39.5808835,29.8388432 C40.6686868,28.494064 41.5570596,27.1004548 41.9026638,25.4071068 C41.0632044,25.8555251 40.0754941,25.1578162 39.5327255,25.9542324 Z M27.3826606,25.5565478 L25.4073343,27.7971166 C26.5923034,28.7927558 27.8765158,29.3906152 29.3090735,29.5895526 L29.3090735,28.843204 C29.4562858,28.494064 29.8029287,28.4443773 30.1485329,28.494064 C29.6546777,27.9465577 30.0992418,27.2488488 30.1485329,26.701628 C29.1608225,26.9510137 28.0248612,26.3028964 27.3826606,25.5565478 Z M54.2008853,25.5565478 C52.5721075,29.5401514 53.6569836,34.6695967 51.6815629,38.5045207 C55.9300394,36.0146614 61.7580026,31.9806095 60.9185432,26.2038084 L60.9185432,26.3028964 C59.8807864,30.1378205 55.5352385,32.4288375 53.9045722,36.0146614 C53.8553755,35.9631661 53.7070301,36.0640626 53.7070301,35.9631661 C56.0781015,33.0256499 54.3984273,28.8928908 54.2008853,25.5565478 Z M6.73715348,25.9542324 C6.8862543,28.8928908 5.15738347,31.631184 6.44140693,34.4704689 C6.638949,35.1674163 7.28105516,35.7146371 7.28105516,36.4115845 C5.50185454,32.9762487 1.2063532,30.4861038 0.069542014,26.8511643 C-0.720815125,32.6772714 5.40468877,36.4620327 9.35553019,38.7530498 C7.33006297,34.9682884 8.51503211,29.7883949 6.73715348,25.9542324 Z M34.5441272,27.149856 C34.4949306,27.5982744 33.9510289,27.5982744 33.6544325,27.7971166 C33.556228,27.3994321 34.0992799,27.0500065 34.5441272,27.149856 Z M34.0511219,28.843204 L33.4571737,28.5939135 L33.6054247,28.8928908 C33.3099614,29.4904646 33.013365,28.693763 32.7167686,28.9421968 C32.3712589,29.0423318 31.9263171,28.7927558 31.5808073,28.5939135 C30.6913014,28.5939135 30.5930969,29.938883 29.6053866,29.8388432 C30.2467373,30.7353943 30.8406855,29.3906152 31.6790118,29.8388432 C31.7783494,30.6860883 32.5195098,30.2375747 33.0623728,30.4367026 C33.1605773,30.0884192 33.6544325,29.7389937 34.0511219,29.7883949 C34.593135,29.4400164 35.0388322,29.0423318 35.0388322,28.3453844 C34.593135,28.1959434 34.3465852,28.5939135 34.0511219,28.843204 Z M24.4686318,28.5939135 L22.2948191,30.8849306 C24.1230276,32.4784291 26.3949502,33.4740683 28.6176762,33.8717528 C28.0248612,33.5739177 27.3326141,32.8761137 27.1854018,32.1794518 C27.4316684,32.0300108 27.4809595,31.7807202 27.531006,31.5321912 C27.7772726,31.0343716 28.3211743,30.6860883 28.8150295,30.5862388 C27.0861586,30.8849306 25.6546396,29.6893069 24.4686318,28.5939135 Z M39.3843801,31.3818935 L38.9395327,31.9806095 C38.6932661,32.7774064 39.4834344,32.6279654 39.8281888,33.0760982 C40.3720905,33.4243815 40.0264863,33.9222011 39.63093,34.2211783 C38.9895792,34.720045 40.2248782,35.1674163 39.4834344,35.6652358 C40.1255406,35.0179752 41.0141966,34.5695569 41.6071061,33.7233588 C41.3097543,33.9726493 41.0632044,33.6235093 40.8659456,33.4243815 C40.8169378,32.5782786 39.779181,32.1290036 39.3843801,31.3818935 Z M52.0282058,31.8311685 C48.6203218,35.1674163 49.0651691,40.1971073 46.0027949,43.5342117 L51.0895032,42.4376761 C54.4974817,41.3430441 58.2017732,37.8564034 58.8438794,34.5201556 C57.0660007,37.6572756 53.7070301,38.5045207 51.0404954,40.146659 C49.9045341,40.6452401 49.1152156,41.9903048 47.9280747,42.1386988 C51.4851539,39.6488395 51.0404954,35.3169525 52.0282058,31.8311685 Z M8.95987948,32.2291386 C9.99659765,35.7650853 9.60283549,39.9475312 13.1580262,42.3882749 C12.121308,42.2395953 11.2819431,41.2936429 10.441445,40.6452401 C7.67566717,38.802451 3.87317116,38.0563879 2.19406355,34.9682884 C2.39160562,35.9631661 2.8854608,36.8607643 3.42936249,37.7574106 C6.14509383,42.039706 10.7880879,43.2352344 15.2326901,43.733054 C11.7757983,40.495799 12.5161089,35.4159453 8.95987948,32.2291386 Z M22.1966147,32.2291386 C22.3448656,32.6279654 23.2335217,33.1762332 22.5914155,33.6235093 C21.6037052,33.4740683 20.9123079,34.0223361 20.072943,34.1717771 C19.7766299,33.9726493 19.4308368,33.5739177 19.0844772,33.7233588 C22.1476068,36.5618822 25.9501029,38.0067012 29.9009443,38.4036242 C29.6053866,37.4079851 29.8029287,36.2629049 29.753732,35.1674163 L29.2098303,35.2672657 C26.5923034,34.9682884 24.1730741,34.0223361 22.1966147,32.2291386 Z M42.4465655,34.3707146 C41.6071061,35.3662585 40.5693492,36.2629049 39.4834344,36.8607643 C38.4957241,38.0067012 37.4579672,39.6002949 35.9274883,39.9475312 C34.6921893,38.0563879 32.7167686,39.7991372 31.0369056,39.3507188 L31.0369056,42.8364077 C36.2229515,42.2892821 41.0632044,40.5958389 44.8166926,36.8607643 L42.4465655,34.3707146 Z M18.4923231,34.6191484 L16.2204004,37.0597018 C20.1711474,40.495799 24.7150872,42.4881243 30.0001875,42.7374149 L29.753732,42.3882749 C29.8029287,41.3915887 29.6053866,40.2969567 29.9009443,39.4003104 C25.7027976,39.3013176 21.7027595,37.7069624 18.4923231,34.6191484 Z M30.790639,35.4159453 C31.2344477,36.2124566 30.9878978,37.3585839 31.0369056,38.3550797 L33.704479,37.9554914 C33.3099614,37.7574106 32.8161062,37.7574106 32.5195098,37.2595911 C32.0746625,36.8111727 32.3712589,36.2124566 32.4204555,35.7650853 C31.8774037,35.6156443 31.2344477,35.8147721 30.790639,35.4159453 Z M47.6816192,38.204782 C44.422175,40.3462628 42.1502524,44.9782692 38.1001678,45.2275598 L44.5702372,46.5714822 C48.4229686,47.218838 52.0782523,45.2275598 54.053673,42.2395953 C53.0159161,43.1343379 51.8799548,43.6332045 50.5967812,43.9321818 C47.6326114,44.4804497 44.422175,44.5791569 41.4588551,45.0276704 L41.6071061,44.927821 C45.113289,44.6782449 46.4465091,40.6949268 47.6816192,38.204782 Z M13.2562307,38.4540725 C14.6395917,40.495799 15.1834934,43.3342272 17.7520125,44.4804497 C18.3440721,44.828733 19.3317825,44.7286932 19.6772923,45.276961 C18.8869351,45.2275598 18.1468133,45.1266633 17.4053696,44.927821 C13.8001324,44.3309134 9.70028454,45.0276704 6.93526211,42.3882749 L8.16942792,43.9321818 C11.9230105,48.4637677 18.5413309,46.5714822 23.0852707,45.3265526 C18.9861783,45.0276704 16.6152013,40.5958389 13.2562307,38.4540725 Z M45.4106408,48.2649254 C40.4711448,48.1639337 36.9151986,44.0824796 31.6790118,45.5265371 C30.8886546,46.2231989 29.9009443,45.6244828 29.0124771,45.4256405 C22.641462,44.0824796 18.2950643,51.1023066 12.0220649,47.4681286 C13.1090184,48.6124473 14.4422385,49.2616116 15.7765918,49.8087372 C19.3317825,51.0043609 22.7886743,49.2616116 25.4562477,47.0199958 C26.5432956,46.1727506 28.2711278,45.6244828 29.4070891,46.2726001 C26.9378132,47.4176803 24.6658905,49.1110283 22.641462,51.2032031 L23.6781802,52 L26.8888054,48.8617378 C28.1238211,47.9154999 29.3580813,46.8200113 30.8886546,46.5714822 C33.3099614,47.8164119 35.4336331,49.8087372 37.5080137,52 L38.5939285,51.0043609 C36.5203034,49.0120355 34.2475308,47.4681286 31.8283959,46.2726001 L31.8283959,46.1727506 C35.3342955,45.1266633 37.2106619,48.9615873 40.2248782,49.5594467 C43.3362602,50.7053836 46.793152,49.7089829 49.0651691,47.3186875 C47.9280747,47.8164119 46.7431055,48.3142315 45.4106408,48.2649254 Z" id="Fill-1" fill="#009EE0"></path>
    </g>
</svg>