<?xml version="1.0" encoding="UTF-8"?>
<svg width="161px" height="162px" viewBox="0 0 161 162" version="1.1" xmlns="http://www.w3.org/2000/svg" xmlns:xlink="http://www.w3.org/1999/xlink">
    <!-- Generator: Sketch 52.5 (67469) - http://www.bohemiancoding.com/sketch -->
    <title>Group 2</title>
    <desc>Created with Sketch.</desc>
    <g id="Page-1" stroke="none" stroke-width="1" fill="none" fill-rule="evenodd">
        <g id="Group-2">
            <polygon id="Fill-59" fill="#E5243B" points="0.06 161.079 160.922 161.079 160.922 0.151 0.06 0.151"></polygon>
            <polyline id="Fill-61" fill="#FFFFFE" points="22.467 21.315 22.515 21.315 22.515 46.153 27.969 46.153 27.969 13.706 23.614 13.706 18.59 19.593 18.59 25.286 18.638 25.286 22.467 21.315"></polyline>
            <path d="M131.188,81.383 C133.645,81.383 135.636,79.388 135.636,76.928 C135.636,74.465 133.645,72.471 131.188,72.471 C128.727,72.471 126.73,74.465 126.73,76.928 C126.73,79.388 128.727,81.383 131.188,81.383" id="Fill-62" fill="#FFFFFE"></path>
            <path d="M136.388,83.101 C136.282,83.088 136.177,83.074 136.049,83.074 L126.313,83.074 C126.194,83.074 126.086,83.088 125.987,83.101 C122.96,83.374 120.589,85.917 120.589,89.018 L120.589,101.367 C120.589,102.317 121.358,103.093 122.313,103.093 C123.267,103.093 124.042,102.317 124.042,101.367 L124.042,90.761 C124.042,90.363 124.152,89.824 124.883,89.824 C125.382,89.824 125.491,90.357 125.507,90.697 L125.507,122.487 C125.507,123.853 126.614,124.968 127.99,124.968 C129.363,124.968 130.468,123.853 130.468,122.487 L130.468,104.167 C130.475,103.965 130.552,103.44 131.185,103.44 L131.188,103.44 C131.818,103.44 131.885,103.965 131.892,104.167 L131.892,122.487 C131.892,123.853 133.005,124.968 134.379,124.968 C135.752,124.968 136.858,123.853 136.858,122.487 L136.858,90.697 C136.877,90.357 136.981,89.824 137.484,89.824 C138.212,89.824 138.327,90.363 138.327,90.761 L138.327,101.367 C138.327,102.317 139.097,103.093 140.055,103.093 C141.006,103.093 141.78,102.317 141.78,101.367 L141.78,89.018 C141.78,85.917 139.411,83.374 136.388,83.101" id="Fill-63" fill="#FFFFFE"></path>
            <path d="M96.023,83.487 C98.354,83.487 100.238,81.599 100.238,79.268 C100.238,76.937 98.354,75.044 96.023,75.044 C93.691,75.044 91.802,76.937 91.802,79.268 C91.802,81.599 93.691,83.487 96.023,83.487" id="Fill-64" fill="#FFFFFE"></path>
            <path d="M101.042,91.233 C101.593,91.074 101.747,91.807 101.747,91.807 L104.574,101.335 C104.574,101.335 105.112,103.378 106.876,102.855 C108.655,102.332 108.027,100.24 108.027,100.24 L104.52,88.824 C104.52,88.824 103.267,85.523 100.492,85.523 L91.552,85.523 C88.778,85.523 87.522,88.824 87.522,88.824 L84.015,100.24 C84.015,100.24 83.39,102.332 85.166,102.855 C86.932,103.378 87.468,101.335 87.468,101.335 L90.296,91.807 C90.296,91.807 90.45,91.074 91.001,91.233 C91.552,91.391 91.345,92.175 91.345,92.175 L86.423,110.03 L91.001,110.03 L91.001,122.819 C91.001,124.029 91.986,125.014 93.201,125.014 C94.414,125.014 95.395,124.029 95.395,122.819 L95.395,110.03 L96.644,110.03 L96.644,122.819 C96.644,124.029 97.624,125.014 98.84,125.014 C100.058,125.014 101.042,124.029 101.042,122.819 L101.042,110.03 L105.617,110.03 L100.699,92.175 C100.699,92.175 100.492,91.391 101.042,91.233" id="Fill-65" fill="#FFFFFE"></path>
            <path d="M70.754,83.487 C73.085,83.487 74.971,81.599 74.971,79.268 C74.971,76.937 73.085,75.044 70.754,75.044 C68.422,75.044 66.536,76.937 66.536,79.268 C66.536,81.599 68.422,83.487 70.754,83.487" id="Fill-66" fill="#FFFFFE"></path>
            <path d="M79.251,88.824 C79.251,88.824 78.001,85.523 75.224,85.523 L66.285,85.523 C63.511,85.523 62.254,88.824 62.254,88.824 L58.749,100.24 C58.749,100.24 58.66,100.542 58.645,100.945 C58.411,100.644 58.062,100.438 57.65,100.438 C57.187,100.438 56.792,100.679 56.567,101.038 L56.552,101.031 C56.45,101.12 54.811,104.038 54.27,104.579 C53.698,105.155 53.186,105.091 53.186,105.091 L48.931,105.091 C48.931,105.091 48.416,105.155 47.846,104.579 C47.298,104.038 45.667,101.12 45.562,101.031 L45.551,101.038 C45.321,100.679 44.924,100.438 44.467,100.438 C44.034,100.438 43.668,100.67 43.436,101.001 L43.436,89.018 C43.436,85.917 41.066,83.374 38.039,83.101 C37.938,83.088 37.832,83.074 37.711,83.074 L27.975,83.074 C27.847,83.074 27.741,83.088 27.635,83.101 C24.614,83.374 22.242,85.917 22.242,89.018 L22.242,101.367 C22.242,102.028 22.621,102.598 23.17,102.888 C23.147,102.937 23.12,102.985 23.109,103.041 L19.153,124.01 C19.086,124.365 19.319,124.706 19.673,124.773 C19.714,124.781 19.755,124.785 19.795,124.785 C20.103,124.785 20.378,124.566 20.436,124.252 L24.392,103.283 C24.409,103.199 24.405,103.116 24.389,103.036 C25.14,102.848 25.698,102.172 25.698,101.367 L25.698,90.761 C25.698,90.363 25.813,89.824 26.541,89.824 C27.043,89.824 27.147,90.357 27.169,90.697 L27.169,122.487 C27.169,123.853 28.273,124.968 29.647,124.968 C31.019,124.968 32.128,123.853 32.128,122.487 L32.128,104.167 C32.139,103.965 32.206,103.44 32.837,103.44 L32.839,103.44 C33.471,103.44 33.548,103.965 33.554,104.167 L33.554,122.487 C33.554,123.853 34.662,124.968 36.034,124.968 C37.409,124.968 38.515,123.853 38.515,122.487 L38.515,90.697 C38.53,90.357 38.643,89.824 39.141,89.824 C39.873,89.824 39.982,90.363 39.982,90.761 L39.982,101.367 C39.982,102.317 40.756,103.093 41.711,103.093 C42.397,103.093 42.984,102.688 43.262,102.109 C43.289,102.203 43.313,102.276 43.313,102.276 L46.853,108.683 C46.853,108.683 47.07,109.124 47.07,109.527 L47.07,110.788 L45.203,117.646 L47.07,117.646 L47.07,123.284 L47.077,123.284 C47.077,124.244 47.851,125.014 48.808,125.014 C49.763,125.014 50.534,124.244 50.534,123.284 L50.534,117.855 C50.534,117.855 50.524,117.763 50.534,117.646 L51.578,117.646 C51.587,117.763 51.578,117.855 51.578,117.855 L51.578,123.284 C51.578,124.244 52.354,125.014 53.31,125.014 C54.265,125.014 55.044,124.244 55.044,123.284 L55.044,117.646 L56.917,117.646 L55.044,110.748 L55.044,109.527 C55.044,109.124 55.257,108.683 55.257,108.683 L58.53,102.768 C58.53,102.768 58.74,102.323 58.855,101.999 C59.033,102.363 59.336,102.69 59.898,102.855 C61.664,103.378 62.2,101.335 62.2,101.335 L65.028,91.807 C65.028,91.807 65.181,91.074 65.732,91.233 C66.285,91.391 66.076,92.175 66.076,92.175 L61.156,110.03 L65.732,110.03 L65.732,122.819 C65.732,124.029 66.72,125.014 67.932,125.014 C69.147,125.014 70.129,124.029 70.129,122.819 L70.129,110.03 L71.378,110.03 L71.378,122.819 C71.378,124.029 72.355,125.014 73.575,125.014 C74.793,125.014 75.773,124.029 75.773,122.819 L75.773,110.03 L80.35,110.03 L75.433,92.175 C75.433,92.175 75.224,91.391 75.773,91.233 C76.324,91.074 76.479,91.807 76.479,91.807 L79.304,101.335 C79.304,101.335 79.842,103.378 81.607,102.855 C83.385,102.332 82.757,100.24 82.757,100.24 L79.251,88.824" id="Fill-67" fill="#FFFFFE"></path>
            <path d="M114.406,102.878 C116.348,102.878 117.916,101.307 117.916,99.364 C117.916,97.422 116.348,95.855 114.406,95.855 C112.464,95.855 110.894,97.422 110.894,99.364 C110.894,101.307 112.464,102.878 114.406,102.878" id="Fill-68" fill="#FFFFFE"></path>
            <path d="M122.729,112.863 C122.686,112.728 120.493,107.35 120.235,106.595 C119.443,104.283 118.002,104.303 116.614,104.265 C115.225,104.231 114.395,104.265 114.395,104.265 C114.395,104.265 113.508,104.228 111.675,104.283 C109.846,104.34 109.268,105.278 107.25,110.471 C106.962,111.219 105.987,113.639 105.974,113.784 L105.987,113.787 C105.815,114.198 105.674,115.068 106.499,115.448 C107.465,115.892 108.004,114.958 108.004,114.958 L109.913,108.871 C109.913,108.871 110.244,108.463 110.244,108.884 L110.244,123.215 L110.253,123.215 C110.253,124.212 111.055,125.017 112.054,125.017 C113.05,125.017 113.855,124.212 113.855,123.215 L113.855,117.559 C113.855,117.559 113.751,116.76 114.395,116.76 C115.04,116.76 114.94,117.559 114.94,117.559 L114.94,123.215 C114.94,124.212 115.749,125.017 116.745,125.017 C117.739,125.017 118.55,124.212 118.55,123.215 L118.55,108.884 C118.55,108.463 118.773,108.764 118.773,108.764 L120.269,112.932 C120.269,112.932 120.919,114.795 121.119,114.877 C121.794,115.161 122.574,114.838 122.859,114.157 C123.046,113.713 122.974,113.236 122.716,112.876 L122.729,112.863" id="Fill-69" fill="#FFFFFE"></path>
            <path d="M32.837,81.383 C35.296,81.383 37.296,79.388 37.296,76.928 C37.296,74.465 35.296,72.471 32.837,72.471 C30.379,72.471 28.387,74.465 28.387,76.928 C28.387,79.388 30.379,81.383 32.837,81.383" id="Fill-70" fill="#FFFFFE"></path>
            <path d="M51.056,102.878 C52.999,102.878 54.566,101.307 54.566,99.364 C54.566,97.422 52.999,95.855 51.056,95.855 C49.115,95.855 47.546,97.422 47.546,99.364 C47.546,101.307 49.115,102.878 51.056,102.878" id="Fill-71" fill="#FFFFFE"></path>
            <polyline id="Fill-72" fill="#FFFFFE" points="48.142 18.362 48.142 26.623 46.28 26.623 46.28 13.475 48.453 13.475 50.837 21.018 50.837 13.475 52.68 13.475 52.68 26.623 50.741 26.623 48.142 18.362"></polyline>
            <path d="M58.617,23.579 L58.617,16.519 C58.617,15.724 58.268,15.162 57.472,15.162 C56.697,15.162 56.347,15.724 56.347,16.519 L56.347,23.579 C56.347,24.374 56.697,24.936 57.472,24.936 C58.268,24.936 58.617,24.374 58.617,23.579 Z M54.136,23.229 L54.136,16.868 C54.136,14.812 55.145,13.319 57.472,13.319 C59.819,13.319 60.828,14.812 60.828,16.868 L60.828,23.229 C60.828,25.266 59.819,26.779 57.472,26.779 C55.145,26.779 54.136,25.266 54.136,23.229 Z" id="Fill-73" fill="#FFFFFE"></path>
            <path d="M48.491,34.737 L48.491,39.915 L49.306,39.915 C50.062,39.915 50.392,39.547 50.392,38.829 L50.392,35.804 C50.392,35.086 50.062,34.737 49.306,34.737 L48.491,34.737 Z M46.28,32.934 L49.558,32.934 C51.789,32.934 52.603,34.039 52.603,35.881 L52.603,38.655 C52.603,40.497 51.789,41.622 49.558,41.622 L48.491,41.622 L48.491,46.082 L46.28,46.082 L46.28,32.934 Z" id="Fill-74" fill="#FFFFFE"></path>
            <path d="M58.423,43.038 L58.423,35.978 C58.423,35.183 58.075,34.621 57.279,34.621 C56.503,34.621 56.154,35.183 56.154,35.978 L56.154,43.038 C56.154,43.833 56.503,44.395 57.279,44.395 C58.075,44.395 58.423,43.833 58.423,43.038 Z M53.943,42.688 L53.943,36.327 C53.943,34.271 54.952,32.778 57.279,32.778 C59.626,32.778 60.634,34.271 60.634,36.327 L60.634,42.688 C60.634,44.725 59.626,46.238 57.279,46.238 C54.952,46.238 53.943,44.725 53.943,42.688 Z" id="Fill-75" fill="#FFFFFE"></path>
            <polyline id="Fill-76" fill="#FFFFFE" points="68.782 32.934 66.28 46.082 63.876 46.082 61.374 32.934 63.624 32.934 65.136 42.107 65.155 42.107 66.707 32.934 68.782 32.934"></polyline>
            <polyline id="Fill-77" fill="#FFFFFE" points="69.889 32.934 75.165 32.934 75.165 34.737 72.1 34.737 72.1 38.499 74.293 38.499 74.293 40.284 72.1 40.284 72.1 44.279 75.165 44.279 75.165 46.082 69.889 46.082 69.889 32.934"></polyline>
            <path d="M78.754,34.737 L78.754,38.829 L79.492,38.829 C80.249,38.829 80.578,38.441 80.578,37.743 L80.578,35.804 C80.578,35.086 80.249,34.737 79.492,34.737 L78.754,34.737 Z M78.754,40.051 L78.754,46.082 L76.544,46.082 L76.544,32.934 L79.763,32.934 C81.994,32.934 82.808,34.039 82.808,35.881 L82.808,37.568 C82.808,38.984 82.304,39.818 81.044,40.109 L83.158,46.082 L80.83,46.082 L78.754,40.051 Z" id="Fill-78" fill="#FFFFFE"></path>
            <polyline id="Fill-79" fill="#FFFFFE" points="83.76 32.934 89.637 32.934 89.637 34.737 87.814 34.737 87.814 46.082 85.584 46.082 85.584 34.737 83.76 34.737 83.76 32.934"></polyline>
            <polyline id="Fill-80" fill="#FFFFFE" points="95.166 41.079 95.166 46.082 92.955 46.082 92.955 41.079 90.492 32.934 92.799 32.934 94.138 37.917 94.158 37.917 95.496 32.934 97.61 32.934 95.166 41.079"></polyline>
        </g>
    </g>
</svg>