<?xml version="1.0" encoding="UTF-8"?>
<svg width="162px" height="162px" viewBox="0 0 162 162" version="1.1" xmlns="http://www.w3.org/2000/svg" xmlns:xlink="http://www.w3.org/1999/xlink">
    <!-- Generator: Sketch 52.5 (67469) - http://www.bohemiancoding.com/sketch -->
    <title>Group 10</title>
    <desc>Created with Sketch.</desc>
    <g id="Page-1" stroke="none" stroke-width="1" fill="none" fill-rule="evenodd">
        <g id="Group-10">
            <polygon id="Fill-298" fill="#FD9D24" points="0.973 161.644 161.894 161.644 161.894 0.719 0.973 0.719"></polygon>
            <polyline id="Fill-299" fill="#FFFFFE" points="12.505 20.093 12.505 25.787 12.551 25.787 16.38 21.814 16.427 21.814 16.427 46.652 21.883 46.652 21.883 14.205 17.527 14.205 12.505 20.093"></polyline>
            <polyline id="Fill-300" fill="#FFFFFE" points="24.946 20.093 24.946 25.787 24.994 25.787 28.823 21.814 28.869 21.814 28.869 46.652 34.327 46.652 34.327 14.205 29.973 14.205 24.946 20.093"></polyline>
            <path d="M27.518,123.232 L51.724,123.232 C52.051,123.232 52.318,122.965 52.318,122.637 C52.318,122.484 52.256,122.348 52.162,122.242 L52.129,122.207 L40.086,106.625 L39.968,106.496 C39.859,106.377 39.704,106.303 39.53,106.303 C39.38,106.303 39.247,106.365 39.14,106.455 L39.068,106.539 L38.955,106.666 L27.206,122.084 L27.025,122.305 C26.961,122.398 26.923,122.514 26.923,122.637 C26.923,122.965 27.19,123.232 27.518,123.232" id="Fill-301" fill="#FFFFFE"></path>
            <path d="M51.651,125.43 L27.397,125.43 C27.069,125.43 26.803,125.695 26.803,126.023 L26.803,145.004 C26.803,145.332 27.069,145.6 27.397,145.6 L35.204,145.6 L35.204,133.658 C35.204,133.328 35.468,133.064 35.797,133.064 L43.044,133.064 C43.372,133.064 43.637,133.328 43.637,133.658 L43.637,145.6 L51.651,145.6 C51.978,145.6 52.245,145.332 52.245,145.004 L52.245,126.023 C52.245,125.695 51.978,125.43 51.651,125.43" id="Fill-302" fill="#FFFFFE"></path>
            <path d="M133.302,128.23 C133.302,128.547 133.041,128.803 132.714,128.803 L125.545,128.803 C125.218,128.803 124.957,128.547 124.957,128.23 L124.957,123.869 C124.957,123.555 125.218,123.299 125.545,123.299 L132.714,123.299 C133.041,123.299 133.302,123.555 133.302,123.869 L133.302,128.23 Z M133.302,136.285 C133.302,136.603 133.041,136.859 132.714,136.859 L125.545,136.859 C125.218,136.859 124.957,136.603 124.957,136.285 L124.957,131.928 C124.957,131.609 125.218,131.355 125.545,131.355 L132.714,131.355 C133.041,131.355 133.302,131.609 133.302,131.928 L133.302,136.285 Z M122.341,128.23 C122.341,128.547 122.08,128.803 121.755,128.803 L114.584,128.803 C114.257,128.803 113.994,128.547 113.994,128.23 L113.994,123.869 C113.994,123.555 114.257,123.299 114.584,123.299 L121.755,123.299 C122.08,123.299 122.341,123.555 122.341,123.869 L122.341,128.23 Z M122.341,136.285 C122.341,136.603 122.08,136.859 121.755,136.859 L114.584,136.859 C114.257,136.859 113.994,136.603 113.994,136.285 L113.994,131.928 C113.994,131.609 114.257,131.355 114.584,131.355 L121.755,131.355 C122.08,131.355 122.341,131.609 122.341,131.928 L122.341,136.285 Z M135.476,120.461 L111.47,120.461 C111.146,120.461 110.884,120.713 110.884,121.031 L110.884,145.271 C110.884,145.586 111.146,145.842 111.47,145.842 L135.476,145.842 C135.802,145.842 136.064,145.586 136.064,145.271 L136.064,121.031 C136.064,120.713 135.802,120.461 135.476,120.461 Z" id="Fill-303" fill="#FFFFFE"></path>
            <path d="M76.248,81.422 C76.248,81.59 76.109,81.728 75.937,81.728 L70.56,81.728 C70.388,81.728 70.252,81.59 70.252,81.422 L70.252,75.426 C70.252,75.254 70.388,75.117 70.56,75.117 L75.937,75.117 C76.109,75.117 76.248,75.254 76.248,75.426 L76.248,81.422 Z M76.248,95.185 C76.248,95.355 76.109,95.494 75.937,95.494 L70.56,95.494 C70.388,95.494 70.252,95.355 70.252,95.185 L70.252,89.189 C70.252,89.019 70.388,88.885 70.56,88.885 L75.937,88.885 C76.109,88.885 76.248,89.019 76.248,89.189 L76.248,95.185 Z M76.248,108.953 C76.248,109.123 76.109,109.262 75.937,109.262 L70.56,109.262 C70.388,109.262 70.252,109.123 70.252,108.953 L70.252,102.957 C70.252,102.787 70.388,102.648 70.56,102.648 L75.937,102.648 C76.109,102.648 76.248,102.787 76.248,102.957 L76.248,108.953 Z M76.248,122.717 C76.248,122.891 76.109,123.025 75.937,123.025 L70.56,123.025 C70.388,123.025 70.252,122.891 70.252,122.717 L70.252,116.725 C70.252,116.551 70.388,116.416 70.56,116.416 L75.937,116.416 C76.109,116.416 76.248,116.551 76.248,116.725 L76.248,122.717 Z M76.248,136.484 C76.248,136.654 76.109,136.793 75.937,136.793 L70.56,136.793 C70.388,136.793 70.252,136.654 70.252,136.484 L70.252,130.49 C70.252,130.32 70.388,130.184 70.56,130.184 L75.937,130.184 C76.109,130.184 76.248,130.32 76.248,130.49 L76.248,136.484 Z M65.699,81.422 C65.699,81.59 65.56,81.728 65.39,81.728 L60.011,81.728 C59.841,81.728 59.703,81.59 59.703,81.422 L59.703,75.426 C59.703,75.254 59.841,75.117 60.011,75.117 L65.39,75.117 C65.56,75.117 65.699,75.254 65.699,75.426 L65.699,81.422 Z M65.699,95.185 C65.699,95.355 65.56,95.494 65.39,95.494 L60.011,95.494 C59.841,95.494 59.703,95.355 59.703,95.185 L59.703,89.189 C59.703,89.019 59.841,88.885 60.011,88.885 L65.39,88.885 C65.56,88.885 65.699,89.019 65.699,89.189 L65.699,95.185 Z M65.699,108.953 C65.699,109.123 65.56,109.262 65.39,109.262 L60.011,109.262 C59.841,109.262 59.703,109.123 59.703,108.953 L59.703,102.957 C59.703,102.787 59.841,102.648 60.011,102.648 L65.39,102.648 C65.56,102.648 65.699,102.787 65.699,102.957 L65.699,108.953 Z M65.699,122.717 C65.699,122.891 65.56,123.025 65.39,123.025 L60.011,123.025 C59.841,123.025 59.703,122.891 59.703,122.717 L59.703,116.725 C59.703,116.551 59.841,116.416 60.011,116.416 L65.39,116.416 C65.56,116.416 65.699,116.551 65.699,116.725 L65.699,122.717 Z M65.699,136.484 C65.699,136.654 65.56,136.793 65.39,136.793 L60.011,136.793 C59.841,136.793 59.703,136.654 59.703,136.484 L59.703,130.49 C59.703,130.32 59.841,130.184 60.011,130.184 L65.39,130.184 C65.56,130.184 65.699,130.32 65.699,130.49 L65.699,136.484 Z M79.673,64.194 L56.181,64.194 C55.867,64.194 55.607,64.45 55.607,64.77 L55.607,145.057 C55.607,145.373 55.867,145.631 56.181,145.631 L79.673,145.631 C79.988,145.631 80.252,145.373 80.252,145.057 L80.252,64.77 C80.252,64.45 79.988,64.194 79.673,64.194 Z" id="Fill-304" fill="#FFFFFE"></path>
            <path d="M136.037,118.021 C136.037,118.291 135.822,118.506 135.554,118.506 L111.392,118.506 C111.127,118.506 110.91,118.291 110.91,118.021 L110.91,113.189 C110.91,112.924 111.127,112.707 111.392,112.707 L135.554,112.707 C135.822,112.707 136.037,112.924 136.037,113.189 L136.037,118.021" id="Fill-305" fill="#FFFFFE"></path>
            <path d="M105.379,103.887 C105.379,104.205 105.119,104.461 104.804,104.461 L97.804,104.461 C97.484,104.461 97.226,104.205 97.226,103.887 L97.226,99.504 C97.226,99.184 97.484,98.928 97.804,98.928 L104.804,98.928 C105.119,98.928 105.379,99.184 105.379,99.504 L105.379,103.887 Z M105.379,111.986 C105.379,112.303 105.119,112.559 104.804,112.559 L97.804,112.559 C97.484,112.559 97.226,112.303 97.226,111.986 L97.226,107.603 C97.226,107.285 97.484,107.029 97.804,107.029 L104.804,107.029 C105.119,107.029 105.379,107.285 105.379,107.603 L105.379,111.986 Z M105.379,120.086 C105.379,120.4 105.119,120.658 104.804,120.658 L97.804,120.658 C97.484,120.658 97.226,120.4 97.226,120.086 L97.226,115.701 C97.226,115.383 97.484,115.127 97.804,115.127 L104.804,115.127 C105.119,115.127 105.379,115.383 105.379,115.701 L105.379,120.086 Z M105.379,128.184 C105.379,128.502 105.119,128.758 104.804,128.758 L97.804,128.758 C97.484,128.758 97.226,128.502 97.226,128.184 L97.226,123.801 C97.226,123.48 97.484,123.226 97.804,123.226 L104.804,123.226 C105.119,123.226 105.379,123.48 105.379,123.801 L105.379,128.184 Z M105.379,136.281 C105.379,136.6 105.119,136.855 104.804,136.855 L97.804,136.855 C97.484,136.855 97.226,136.6 97.226,136.281 L97.226,131.898 C97.226,131.582 97.484,131.326 97.804,131.326 L104.804,131.326 C105.119,131.326 105.379,131.582 105.379,131.898 L105.379,136.281 Z M94.695,102.34 L94.695,111.994 C94.695,112.312 94.435,112.568 94.121,112.568 L87.121,112.568 C86.8,112.568 86.543,112.312 86.543,111.994 L86.543,110.779 C86.546,110.703 86.56,110.631 86.587,110.564 C86.598,110.541 86.6,110.531 86.622,110.498 C86.635,110.471 86.655,110.445 86.672,110.422 C86.69,110.394 86.716,110.359 86.738,110.328 C87.632,109.047 91.672,104.072 93.368,101.992 L93.538,101.787 C93.661,101.639 93.846,101.543 94.054,101.543 C94.376,101.543 94.632,101.777 94.695,102.08 L94.695,102.34 Z M94.675,120.086 C94.675,120.4 94.42,120.658 94.101,120.658 L87.099,120.658 C86.781,120.658 86.525,120.4 86.525,120.086 L86.525,115.701 C86.525,115.383 86.781,115.127 87.099,115.127 L94.101,115.127 C94.42,115.127 94.675,115.383 94.675,115.701 L94.675,120.086 Z M94.675,128.184 C94.675,128.502 94.42,128.758 94.101,128.758 L87.099,128.758 C86.781,128.758 86.525,128.502 86.525,128.184 L86.525,123.801 C86.525,123.48 86.781,123.226 87.099,123.226 L94.101,123.226 C94.42,123.226 94.675,123.48 94.675,123.801 L94.675,128.184 Z M94.675,136.281 C94.675,136.6 94.42,136.855 94.101,136.855 L87.099,136.855 C86.781,136.855 86.525,136.6 86.525,136.281 L86.525,131.898 C86.525,131.582 86.781,131.326 87.099,131.326 L94.101,131.326 C94.42,131.326 94.675,131.582 94.675,131.898 L94.675,136.281 Z M98.329,95.262 L98.494,95.055 C100.074,93.027 102.736,89.75 104.034,88.158 L104.204,87.955 C104.327,87.807 104.512,87.711 104.72,87.711 C105.042,87.711 105.298,87.943 105.361,88.248 L105.361,95.658 C105.361,96.016 105.077,96.303 104.723,96.318 C104.713,96.318 104.704,96.324 104.694,96.324 C104.684,96.324 104.675,96.318 104.665,96.318 L98.895,96.318 C98.884,96.318 98.876,96.324 98.866,96.324 C98.856,96.324 98.847,96.318 98.837,96.318 C98.483,96.303 98.199,96.016 98.199,95.658 C98.199,95.51 98.247,95.373 98.329,95.262 Z M108.049,79.355 C107.971,79.098 107.743,78.906 107.46,78.906 C107.333,78.906 107.222,78.953 107.124,79.018 C107.109,79.027 107.094,79.035 107.08,79.047 L106.881,79.297 L83.793,108.586 L83.686,108.728 C83.567,108.846 83.491,109.006 83.486,109.185 L83.486,145.178 C83.486,145.494 83.744,145.75 84.062,145.75 L107.531,145.75 C107.849,145.75 108.105,145.494 108.105,145.178 L108.105,79.596 C108.105,79.51 108.083,79.428 108.049,79.355 Z" id="Fill-306" fill="#FFFFFE"></path>
            <path d="M44.925,24.501 L44.925,22.736 L46.982,22.736 L46.982,24.539 C46.982,25.277 47.312,25.704 48.068,25.704 C48.765,25.704 49.076,25.238 49.076,24.539 L49.076,24.036 C49.076,23.279 48.765,22.814 48.088,22.174 L46.789,20.874 C45.527,19.633 44.945,18.877 44.945,17.364 L44.945,16.918 C44.945,15.289 45.896,14.028 48.048,14.028 C50.259,14.028 51.132,15.114 51.132,17.015 L51.132,18.081 L49.115,18.081 L49.115,16.937 C49.115,16.181 48.765,15.812 48.068,15.812 C47.447,15.812 47.021,16.162 47.021,16.898 L47.021,17.17 C47.021,17.907 47.427,18.333 48.068,18.955 L49.484,20.351 C50.687,21.573 51.267,22.309 51.267,23.764 L51.267,24.404 C51.267,26.207 50.298,27.488 48.048,27.488 C45.798,27.488 44.925,26.227 44.925,24.501" id="Fill-307" fill="#FFFFFE"></path>
            <path d="M58.66,14.184 L58.66,24.132 C58.66,26.169 57.787,27.488 55.537,27.488 C53.209,27.488 52.24,26.169 52.24,24.132 L52.24,14.184 L54.451,14.184 L54.451,24.346 C54.451,25.122 54.761,25.645 55.537,25.645 C56.312,25.645 56.623,25.122 56.623,24.346 L56.623,14.184 L58.66,14.184" id="Fill-308" fill="#FFFFFE"></path>
            <path d="M59.787,24.501 L59.787,22.736 L61.841,22.736 L61.841,24.539 C61.841,25.277 62.172,25.704 62.929,25.704 C63.627,25.704 63.937,25.238 63.937,24.539 L63.937,24.036 C63.937,23.279 63.627,22.814 62.947,22.174 L61.648,20.874 C60.388,19.633 59.806,18.877 59.806,17.364 L59.806,16.918 C59.806,15.289 60.755,14.028 62.91,14.028 C65.121,14.028 65.992,15.114 65.992,17.015 L65.992,18.081 L63.976,18.081 L63.976,16.937 C63.976,16.181 63.627,15.812 62.929,15.812 C62.308,15.812 61.88,16.162 61.88,16.898 L61.88,17.17 C61.88,17.907 62.289,18.333 62.929,18.955 L64.343,20.351 C65.547,21.573 66.129,22.309 66.129,23.764 L66.129,24.404 C66.129,26.207 65.158,27.488 62.91,27.488 C60.66,27.488 59.787,26.227 59.787,24.501" id="Fill-309" fill="#FFFFFE"></path>
            <polyline id="Fill-310" fill="#FFFFFE" points="66.654 14.184 72.531 14.184 72.531 15.987 70.707 15.987 70.707 27.332 68.476 27.332 68.476 15.987 66.654 15.987 66.654 14.184"></polyline>
            <path d="M74.898,23.163 L76.664,23.163 L75.791,17.888 L75.771,17.888 L74.898,23.163 Z M72.125,27.332 L74.607,14.184 L77.129,14.184 L79.63,27.332 L77.361,27.332 L76.955,24.928 L74.607,24.928 L74.22,27.332 L72.125,27.332 Z" id="Fill-311" fill="#FFFFFE"></path>
            <polygon id="Fill-312" fill="#FFFFFE" points="80.523 27.332 82.734 27.332 82.734 14.184 80.523 14.184"></polygon>
            <polyline id="Fill-313" fill="#FFFFFE" points="85.859 19.071 85.859 27.332 83.996 27.332 83.996 14.184 86.17 14.184 88.554 21.727 88.554 14.184 90.396 14.184 90.396 27.332 88.457 27.332 85.859 19.071"></polyline>
            <path d="M93.89,23.163 L95.654,23.163 L94.781,17.888 L94.763,17.888 L93.89,23.163 Z M91.117,27.332 L93.599,14.184 L96.121,14.184 L98.623,27.332 L96.353,27.332 L95.945,24.928 L93.599,24.928 L93.211,27.332 L91.117,27.332 Z" id="Fill-314" fill="#FFFFFE"></path>
            <path d="M101.533,21.417 L101.533,25.529 L102.504,25.529 C103.24,25.529 103.589,25.161 103.589,24.462 L103.589,22.484 C103.589,21.786 103.259,21.417 102.484,21.417 L101.533,21.417 Z M101.533,19.73 L102.31,19.73 C103.027,19.73 103.357,19.362 103.357,18.663 L103.357,17.054 C103.357,16.336 103.027,15.987 102.291,15.987 L101.533,15.987 L101.533,19.73 Z M99.322,14.184 L102.523,14.184 C104.734,14.184 105.47,15.211 105.47,17.073 L105.47,18.411 C105.47,19.517 105.064,20.215 104.152,20.506 C105.257,20.758 105.8,21.495 105.8,22.697 L105.8,24.443 C105.8,26.305 104.966,27.332 102.755,27.332 L99.322,27.332 L99.322,14.184 Z" id="Fill-315" fill="#FFFFFE"></path>
            <polyline id="Fill-316" fill="#FFFFFE" points="106.713 14.184 108.923 14.184 108.923 25.529 111.562 25.529 111.562 27.332 106.713 27.332 106.713 14.184"></polyline>
            <polyline id="Fill-317" fill="#FFFFFE" points="112.379 14.184 117.654 14.184 117.654 15.987 114.589 15.987 114.589 19.749 116.781 19.749 116.781 21.534 114.589 21.534 114.589 25.529 117.654 25.529 117.654 27.332 112.379 27.332 112.379 14.184"></polyline>
            <path d="M121.379,23.938 L121.379,17.577 C121.379,15.521 122.349,14.028 124.677,14.028 C127.121,14.028 127.798,15.386 127.798,17.325 L127.798,18.877 L125.783,18.877 L125.783,17.151 C125.783,16.336 125.511,15.871 124.714,15.871 C123.92,15.871 123.589,16.433 123.589,17.228 L123.589,24.288 C123.589,25.083 123.92,25.645 124.714,25.645 C125.511,25.645 125.783,25.141 125.783,24.365 L125.783,21.941 L127.798,21.941 L127.798,24.21 C127.798,26.091 127.023,27.488 124.677,27.488 C122.349,27.488 121.379,25.975 121.379,23.938" id="Fill-318" fill="#FFFFFE"></path>
            <polygon id="Fill-319" fill="#FFFFFE" points="128.828 27.332 131.039 27.332 131.039 14.184 128.828 14.184"></polygon>
            <polyline id="Fill-320" fill="#FFFFFE" points="131.875 14.184 137.752 14.184 137.752 15.987 135.927 15.987 135.927 27.332 133.697 27.332 133.697 15.987 131.875 15.987 131.875 14.184"></polyline>
            <polygon id="Fill-321" fill="#FFFFFE" points="138.625 27.332 140.836 27.332 140.836 14.184 138.625 14.184"></polygon>
            <polyline id="Fill-322" fill="#FFFFFE" points="141.982 14.184 147.257 14.184 147.257 15.987 144.193 15.987 144.193 19.749 146.384 19.749 146.384 21.534 144.193 21.534 144.193 25.529 147.257 25.529 147.257 27.332 141.982 27.332 141.982 14.184"></polyline>
            <path d="M147.859,24.501 L147.859,22.736 L149.916,22.736 L149.916,24.539 C149.916,25.277 150.246,25.704 151.002,25.704 C151.699,25.704 152.009,25.238 152.009,24.539 L152.009,24.036 C152.009,23.279 151.699,22.814 151.021,22.174 L149.722,20.874 C148.461,19.633 147.879,18.877 147.879,17.364 L147.879,16.918 C147.879,15.289 148.83,14.028 150.982,14.028 C153.193,14.028 154.066,15.114 154.066,17.015 L154.066,18.081 L152.048,18.081 L152.048,16.937 C152.048,16.181 151.699,15.812 151.002,15.812 C150.38,15.812 149.955,16.162 149.955,16.898 L149.955,17.17 C149.955,17.907 150.361,18.333 151.002,18.955 L152.418,20.351 C153.621,21.573 154.201,22.309 154.201,23.764 L154.201,24.404 C154.201,26.207 153.232,27.488 150.982,27.488 C148.732,27.488 147.859,26.227 147.859,24.501" id="Fill-323" fill="#FFFFFE"></path>
            <path d="M47.738,42.482 L49.504,42.482 L48.63,37.207 L48.611,37.207 L47.738,42.482 Z M44.964,46.652 L47.447,33.503 L49.968,33.503 L52.47,46.652 L50.201,46.652 L49.795,44.247 L47.447,44.247 L47.06,46.652 L44.964,46.652 Z" id="Fill-324" fill="#FFFFFE"></path>
            <polyline id="Fill-325" fill="#FFFFFE" points="55.207 38.39 55.207 46.652 53.345 46.652 53.345 33.503 55.517 33.503 57.902 41.047 57.902 33.503 59.746 33.503 59.746 46.652 57.806 46.652 55.207 38.39"></polyline>
            <path d="M64.111,44.848 C65.023,44.848 65.373,44.305 65.373,43.51 L65.373,36.625 C65.373,35.85 65.023,35.307 64.111,35.307 L63.179,35.307 L63.179,44.848 L64.111,44.848 Z M67.584,37.033 L67.584,43.122 C67.584,45.139 66.75,46.652 64.382,46.652 L60.968,46.652 L60.968,33.503 L64.382,33.503 C66.75,33.503 67.584,34.996 67.584,37.033 Z" id="Fill-326" fill="#FFFFFE"></path>
            <path d="M70.804,43.258 L70.804,36.896 C70.804,34.841 71.775,33.348 74.103,33.348 C76.547,33.348 77.224,34.705 77.224,36.644 L77.224,38.196 L75.209,38.196 L75.209,36.47 C75.209,35.655 74.937,35.19 74.14,35.19 C73.345,35.19 73.015,35.752 73.015,36.548 L73.015,43.607 C73.015,44.402 73.345,44.964 74.14,44.964 C74.937,44.964 75.209,44.46 75.209,43.684 L75.209,41.26 L77.224,41.26 L77.224,43.529 C77.224,45.411 76.449,46.807 74.103,46.807 C71.775,46.807 70.804,45.294 70.804,43.258" id="Fill-327" fill="#FFFFFE"></path>
            <path d="M82.871,43.607 L82.871,36.548 C82.871,35.752 82.521,35.19 81.726,35.19 C80.951,35.19 80.601,35.752 80.601,36.548 L80.601,43.607 C80.601,44.402 80.951,44.964 81.726,44.964 C82.521,44.964 82.871,44.402 82.871,43.607 Z M78.39,43.258 L78.39,36.896 C78.39,34.841 79.398,33.348 81.726,33.348 C84.072,33.348 85.082,34.841 85.082,36.896 L85.082,43.258 C85.082,45.294 84.072,46.807 81.726,46.807 C79.398,46.807 78.39,45.294 78.39,43.258 Z" id="Fill-328" fill="#FFFFFE"></path>
            <polyline id="Fill-329" fill="#FFFFFE" points="92.394 38.119 92.338 38.119 90.843 46.652 89.816 46.652 88.168 38.119 88.129 38.119 88.129 46.652 86.304 46.652 86.304 33.503 88.884 33.503 90.32 40.911 90.339 40.911 91.619 33.503 94.412 33.503 94.412 46.652 92.394 46.652 92.394 38.119"></polyline>
            <polyline id="Fill-330" fill="#FFFFFE" points="101.726 38.119 101.668 38.119 100.175 46.652 99.146 46.652 97.498 38.119 97.459 38.119 97.459 46.652 95.636 46.652 95.636 33.503 98.216 33.503 99.65 40.911 99.67 40.911 100.951 33.503 103.744 33.503 103.744 46.652 101.726 46.652 101.726 38.119"></polyline>
            <path d="M111.386,33.503 L111.386,43.452 C111.386,45.488 110.513,46.807 108.265,46.807 C105.937,46.807 104.966,45.488 104.966,43.452 L104.966,33.503 L107.177,33.503 L107.177,43.665 C107.177,44.441 107.488,44.964 108.265,44.964 C109.041,44.964 109.351,44.441 109.351,43.665 L109.351,33.503 L111.386,33.503" id="Fill-331" fill="#FFFFFE"></path>
            <polyline id="Fill-332" fill="#FFFFFE" points="114.472 38.39 114.472 46.652 112.611 46.652 112.611 33.503 114.783 33.503 117.168 41.047 117.168 33.503 119.011 33.503 119.011 46.652 117.072 46.652 114.472 38.39"></polyline>
            <polygon id="Fill-333" fill="#FFFFFE" points="120.234 46.652 122.445 46.652 122.445 33.503 120.234 33.503"></polygon>
            <polyline id="Fill-334" fill="#FFFFFE" points="123.416 33.503 129.293 33.503 129.293 35.307 127.47 35.307 127.47 46.652 125.24 46.652 125.24 35.307 123.416 35.307 123.416 33.503"></polyline>
            <polygon id="Fill-335" fill="#FFFFFE" points="130.283 46.652 132.494 46.652 132.494 33.503 130.283 33.503"></polygon>
            <polyline id="Fill-336" fill="#FFFFFE" points="133.736 33.503 139.011 33.503 139.011 35.307 135.947 35.307 135.947 39.069 138.14 39.069 138.14 40.853 135.947 40.853 135.947 44.848 139.011 44.848 139.011 46.652 133.736 46.652 133.736 33.503"></polyline>
            <path d="M139.945,43.82 L139.945,42.056 L142,42.056 L142,43.859 C142,44.596 142.33,45.023 143.088,45.023 C143.785,45.023 144.095,44.557 144.095,43.859 L144.095,43.355 C144.095,42.599 143.785,42.133 143.105,41.493 L141.806,40.194 C140.547,38.953 139.964,38.196 139.964,36.684 L139.964,36.237 C139.964,34.608 140.914,33.348 143.068,33.348 C145.279,33.348 146.15,34.434 146.15,36.334 L146.15,37.401 L144.134,37.401 L144.134,36.257 C144.134,35.5 143.785,35.132 143.088,35.132 C142.466,35.132 142.039,35.481 142.039,36.218 L142.039,36.489 C142.039,37.226 142.447,37.653 143.088,38.274 L144.502,39.67 C145.705,40.892 146.287,41.629 146.287,43.083 L146.287,43.723 C146.287,45.527 145.316,46.807 143.068,46.807 C140.818,46.807 139.945,45.546 139.945,43.82" id="Fill-337" fill="#FFFFFE"></path>
        </g>
    </g>
</svg>