<?xml version="1.0" encoding="UTF-8"?>
<svg width="161px" height="162px" viewBox="0 0 161 162" version="1.1" xmlns="http://www.w3.org/2000/svg" xmlns:xlink="http://www.w3.org/1999/xlink">
    <!-- Generator: Sketch 52.5 (67469) - http://www.bohemiancoding.com/sketch -->
    <title>Group 3</title>
    <desc>Created with Sketch.</desc>
    <g id="Page-1" stroke="none" stroke-width="1" fill="none" fill-rule="evenodd">
        <g id="Group-3">
            <polygon id="Fill-420" fill="#C5192D" points="0.062 161.079 160.984 161.079 160.984 0.151 0.062 0.151"></polygon>
            <path d="M20.437,36.562 L25.318,23.21 L25.367,23.21 L25.367,36.562 L20.437,36.562 Z M25.271,46.084 L30.439,46.084 L30.439,40.82 L32.642,40.82 L32.642,36.562 L30.439,36.562 L30.439,13.637 L25.078,13.637 L15.652,37.471 L15.652,40.82 L25.271,40.82 L25.271,46.084 Z" id="Fill-421" fill="#FFFFFE"></path>
            <polyline id="Fill-422" fill="#FFFFFE" points="70.594 86.438 41.733 69.773 41.733 123.684 70.594 132.392 70.594 86.438"></polyline>
            <polyline id="Fill-423" fill="#FFFFFE" points="73.768 86.548 73.768 132.411 102.817 123.677 102.817 69.775 73.768 86.548"></polyline>
            <path d="M125.473,68.409 C125.473,66.521 123.944,64.993 122.061,64.993 C120.172,64.993 118.645,66.521 118.645,68.409 L118.645,72.089 L125.473,72.089 L125.473,68.409" id="Fill-424" fill="#FFFFFE"></path>
            <polyline id="Fill-425" fill="#FFFFFE" points="119.493 122.728 118.645 122.728 122.061 134.663 125.471 122.728 124.624 122.728 125.471 122.728 125.471 74.763 118.643 74.763 118.643 122.728 119.493 122.728"></polyline>
            <polyline id="Fill-426" fill="#FFFFFE" points="109.016 72.088 105.922 69.644 105.922 125.146 73.854 135.508 70.594 135.508 38.669 126.589 38.669 69.644 35.573 72.088 35.573 128.76 70.448 138.414 73.999 138.414 106.174 128.199 109.016 127.363 109.016 72.088"></polyline>
            <polyline id="Fill-427" fill="#FFFFFE" points="46.015 32.913 51.291 32.913 51.291 34.717 48.226 34.717 48.226 38.479 50.419 38.479 50.419 40.263 48.226 40.263 48.226 44.258 51.291 44.258 51.291 46.062 46.015 46.062 46.015 32.913"></polyline>
            <path d="M55.773,44.258 C56.684,44.258 57.034,43.715 57.034,42.92 L57.034,36.035 C57.034,35.26 56.684,34.717 55.773,34.717 L54.841,34.717 L54.841,44.258 L55.773,44.258 Z M59.245,36.443 L59.245,42.532 C59.245,44.549 58.411,46.062 56.045,46.062 L52.63,46.062 L52.63,32.913 L56.045,32.913 C58.411,32.913 59.245,34.406 59.245,36.443 Z" id="Fill-428" fill="#FFFFFE"></path>
            <path d="M67.121,32.913 L67.121,42.862 C67.121,44.898 66.248,46.217 63.999,46.217 C61.671,46.217 60.701,44.898 60.701,42.862 L60.701,32.913 L62.912,32.913 L62.912,43.075 C62.912,43.851 63.222,44.374 63.999,44.374 C64.774,44.374 65.085,43.851 65.085,43.075 L65.085,32.913 L67.121,32.913" id="Fill-429" fill="#FFFFFE"></path>
            <path d="M68.577,42.668 L68.577,36.307 C68.577,34.251 69.547,32.758 71.875,32.758 C74.318,32.758 74.997,34.115 74.997,36.055 L74.997,37.606 L72.98,37.606 L72.98,35.88 C72.98,35.065 72.709,34.6 71.913,34.6 C71.118,34.6 70.788,35.163 70.788,35.958 L70.788,43.017 C70.788,43.812 71.118,44.374 71.913,44.374 C72.709,44.374 72.98,43.871 72.98,43.095 L72.98,40.67 L74.997,40.67 L74.997,42.939 C74.997,44.821 74.221,46.217 71.875,46.217 C69.547,46.217 68.577,44.705 68.577,42.668" id="Fill-430" fill="#FFFFFE"></path>
            <path d="M78.47,41.892 L80.235,41.892 L79.362,36.617 L79.343,36.617 L78.47,41.892 Z M75.697,46.062 L78.179,32.913 L80.701,32.913 L83.203,46.062 L80.933,46.062 L80.526,43.657 L78.179,43.657 L77.792,46.062 L75.697,46.062 Z" id="Fill-431" fill="#FFFFFE"></path>
            <polyline id="Fill-432" fill="#FFFFFE" points="82.914 32.913 88.791 32.913 88.791 34.717 86.967 34.717 86.967 46.062 84.737 46.062 84.737 34.717 82.914 34.717 82.914 32.913"></polyline>
            <polygon id="Fill-433" fill="#FFFFFE" points="90.013 46.062 92.224 46.062 92.224 32.913 90.013 32.913"></polygon>
            <path d="M98.179,43.017 L98.179,35.958 C98.179,35.163 97.831,34.6 97.035,34.6 C96.259,34.6 95.91,35.163 95.91,35.958 L95.91,43.017 C95.91,43.812 96.259,44.374 97.035,44.374 C97.831,44.374 98.179,43.812 98.179,43.017 Z M93.699,42.668 L93.699,36.307 C93.699,34.251 94.708,32.758 97.035,32.758 C99.381,32.758 100.39,34.251 100.39,36.307 L100.39,42.668 C100.39,44.705 99.381,46.217 97.035,46.217 C94.708,46.217 93.699,44.705 93.699,42.668 Z" id="Fill-434" fill="#FFFFFE"></path>
            <polyline id="Fill-435" fill="#FFFFFE" points="103.71 37.8 103.71 46.062 101.847 46.062 101.847 32.913 104.02 32.913 106.405 40.457 106.405 32.913 108.248 32.913 108.248 46.062 106.308 46.062 103.71 37.8"></polyline>
            <path d="M50.497,23.841 L50.497,16.666 C50.497,15.871 50.148,15.308 49.352,15.308 C48.577,15.308 48.227,15.871 48.227,16.666 L48.227,23.841 C48.227,24.617 48.577,25.199 49.352,25.199 C50.148,25.199 50.497,24.617 50.497,23.841 Z M48.538,27.662 L48.538,26.77 C46.773,26.459 46.016,25.16 46.016,23.376 L46.016,17.015 C46.016,14.959 47.025,13.466 49.352,13.466 C51.699,13.466 52.708,14.959 52.708,17.015 L52.708,23.376 C52.708,24.811 52.204,25.936 51.079,26.479 L52.708,26.789 L52.708,28.438 L48.538,27.662 Z" id="Fill-436" fill="#FFFFFE"></path>
            <path d="M60.564,13.621 L60.564,23.57 C60.564,25.606 59.691,26.925 57.442,26.925 C55.114,26.925 54.144,25.606 54.144,23.57 L54.144,13.621 L56.355,13.621 L56.355,23.783 C56.355,24.559 56.666,25.082 57.442,25.082 C58.217,25.082 58.528,24.559 58.528,23.783 L58.528,13.621 L60.564,13.621" id="Fill-437" fill="#FFFFFE"></path>
            <path d="M64.174,22.6 L65.939,22.6 L65.066,17.325 L65.047,17.325 L64.174,22.6 Z M61.401,26.77 L63.883,13.621 L66.405,13.621 L68.907,26.77 L66.637,26.77 L66.23,24.365 L63.883,24.365 L63.496,26.77 L61.401,26.77 Z" id="Fill-438" fill="#FFFFFE"></path>
            <polyline id="Fill-439" fill="#FFFFFE" points="69.974 13.621 72.185 13.621 72.185 24.966 74.823 24.966 74.823 26.77 69.974 26.77 69.974 13.621"></polyline>
            <polygon id="Fill-440" fill="#FFFFFE" points="75.852 26.77 78.063 26.77 78.063 13.621 75.852 13.621"></polygon>
            <polyline id="Fill-441" fill="#FFFFFE" points="79.092 13.621 84.969 13.621 84.969 15.425 83.146 15.425 83.146 26.77 80.916 26.77 80.916 15.425 79.092 15.425 79.092 13.621"></polyline>
            <polyline id="Fill-442" fill="#FFFFFE" points="90.343 21.767 90.343 26.77 88.132 26.77 88.132 21.767 85.67 13.621 87.977 13.621 89.316 18.605 89.336 18.605 90.673 13.621 92.788 13.621 90.343 21.767"></polyline>
        </g>
    </g>
</svg>