<?xml version="1.0" encoding="UTF-8"?>
<svg width="162px" height="162px" viewBox="0 0 162 162" version="1.1" xmlns="http://www.w3.org/2000/svg" xmlns:xlink="http://www.w3.org/1999/xlink">
    <!-- Generator: Sketch 52.5 (67469) - http://www.bohemiancoding.com/sketch -->
    <title>Group 4</title>
    <desc>Created with Sketch.</desc>
    <g id="Page-1" stroke="none" stroke-width="1" fill="none" fill-rule="evenodd">
        <g id="Group-4">
            <polygon id="Fill-443" fill="#FF3A21" points="0.419 161.079 161.339 161.079 161.339 0.151 0.419 0.151"></polygon>
            <path d="M26.077,23.91 C23.924,23.91 22.344,24.675 21.483,26.159 L21.434,26.159 L21.434,18.071 L30.815,18.071 L30.815,13.621 L16.46,13.621 L16.46,31.903 L21.434,31.903 L21.434,31.183 C21.434,29.268 22.297,28.216 23.827,28.216 C25.503,28.216 26.174,29.366 26.174,31.138 L26.174,38.985 C26.174,40.709 25.551,41.904 23.876,41.904 C22.008,41.904 21.34,40.66 21.34,38.747 L21.34,34.679 L16.36,34.679 L16.36,38.363 C16.36,43.292 18.323,46.451 23.876,46.451 C29.38,46.451 31.628,43.532 31.628,39.033 L31.628,31.089 C31.628,25.968 28.997,23.91 26.077,23.91" id="Fill-444" fill="#FFFFFE"></path>
            <path d="M80.6,116.927 C69.968,116.927 61.321,108.277 61.321,97.646 C61.321,87.014 69.968,78.364 80.6,78.364 C91.233,78.364 99.882,87.014 99.882,97.646 C99.882,108.277 91.233,116.927 80.6,116.927 M117.63,61.043 L97.63,61.043 C97.493,61.043 97.376,61.156 97.376,61.298 L97.376,67.944 C97.376,68.086 97.493,68.2 97.63,68.2 L105.593,68.2 L96.751,77.044 C92.297,73.545 86.692,71.451 80.6,71.451 C66.158,71.451 54.405,83.202 54.405,97.646 C54.405,110.945 64.369,121.95 77.219,123.615 L77.219,131.273 L69.331,131.273 C69.184,131.273 69.073,131.387 69.073,131.526 L69.073,138.65 C69.073,138.791 69.184,138.904 69.331,138.904 L77.219,138.904 L77.219,146.441 C77.219,146.581 77.333,146.695 77.473,146.695 L84.593,146.695 C84.735,146.695 84.851,146.581 84.851,146.441 L84.851,138.904 L92.739,138.904 C92.88,138.904 92.993,138.791 92.993,138.65 L92.993,131.526 C92.993,131.387 92.88,131.273 92.739,131.273 L84.851,131.273 L84.851,123.491 C97.28,121.452 106.795,110.643 106.795,97.646 C106.795,92.039 105.02,86.844 102.01,82.579 L110.727,73.861 L110.727,81.299 C110.727,81.44 110.844,81.553 110.985,81.553 L117.63,81.553 C117.772,81.553 117.889,81.44 117.889,81.299 L117.889,61.298 C117.889,61.156 117.772,61.043 117.63,61.043" id="Fill-445" fill="#FFFFFE"></path>
            <path d="M92.569,89.731 L69.182,89.731 C69.042,89.731 68.928,89.835 68.928,89.959 L68.928,95.621 C68.928,95.754 69.042,95.853 69.182,95.853 L92.569,95.853 C92.714,95.853 92.828,95.754 92.828,95.621 L92.828,89.959 C92.828,89.835 92.714,89.731 92.569,89.731" id="Fill-446" fill="#FFFFFE"></path>
            <path d="M92.569,99.841 L69.182,99.841 C69.042,99.841 68.928,99.948 68.928,100.077 L68.928,105.738 C68.928,105.865 69.042,105.967 69.182,105.967 L92.569,105.967 C92.714,105.967 92.828,105.865 92.828,105.738 L92.828,100.077 C92.828,99.948 92.714,99.841 92.569,99.841" id="Fill-447" fill="#FFFFFE"></path>
            <polyline id="Fill-448" fill="#FFFFFE" points="46.371 32.913 51.646 32.913 51.646 34.717 48.582 34.717 48.582 38.479 50.774 38.479 50.774 40.263 48.582 40.263 48.582 44.258 51.646 44.258 51.646 46.062 46.371 46.062 46.371 32.913"></polyline>
            <path d="M57.136,43.133 L57.136,35.958 C57.136,35.163 56.788,34.6 55.992,34.6 C55.216,34.6 54.867,35.163 54.867,35.958 L54.867,43.133 C54.867,43.909 55.216,44.491 55.992,44.491 C56.788,44.491 57.136,43.909 57.136,43.133 Z M55.177,46.954 L55.177,46.062 C53.413,45.751 52.656,44.452 52.656,42.668 L52.656,36.307 C52.656,34.251 53.665,32.758 55.992,32.758 C58.339,32.758 59.347,34.251 59.347,36.307 L59.347,42.668 C59.347,44.103 58.843,45.228 57.718,45.771 L59.347,46.081 L59.347,47.73 L55.177,46.954 Z" id="Fill-449" fill="#FFFFFE"></path>
            <path d="M67.205,32.913 L67.205,42.862 C67.205,44.898 66.332,46.217 64.083,46.217 C61.755,46.217 60.785,44.898 60.785,42.862 L60.785,32.913 L62.996,32.913 L62.996,43.075 C62.996,43.851 63.306,44.374 64.083,44.374 C64.858,44.374 65.169,43.851 65.169,43.075 L65.169,32.913 L67.205,32.913" id="Fill-450" fill="#FFFFFE"></path>
            <path d="M71.086,41.892 L72.85,41.892 L71.977,36.617 L71.959,36.617 L71.086,41.892 Z M68.312,46.062 L70.795,32.913 L73.316,32.913 L75.818,46.062 L73.548,46.062 L73.141,43.657 L70.795,43.657 L70.407,46.062 L68.312,46.062 Z" id="Fill-451" fill="#FFFFFE"></path>
            <polyline id="Fill-452" fill="#FFFFFE" points="76.906 32.913 79.117 32.913 79.117 44.258 81.755 44.258 81.755 46.062 76.906 46.062 76.906 32.913"></polyline>
            <polygon id="Fill-453" fill="#FFFFFE" points="82.939 46.062 85.15 46.062 85.15 32.913 82.939 32.913"></polygon>
            <polyline id="Fill-454" fill="#FFFFFE" points="86.334 32.913 92.211 32.913 92.211 34.717 90.387 34.717 90.387 46.062 88.157 46.062 88.157 34.717 86.334 34.717 86.334 32.913"></polyline>
            <polyline id="Fill-455" fill="#FFFFFE" points="97.701 41.059 97.701 46.062 95.49 46.062 95.49 41.059 93.027 32.913 95.335 32.913 96.673 37.897 96.693 37.897 98.031 32.913 100.145 32.913 97.701 41.059"></polyline>
            <path d="M49.708,19.749 L52.85,19.749 L52.85,26.77 L51.259,26.77 L51.259,25.335 C50.968,26.324 50.348,26.925 49.145,26.925 C47.245,26.925 46.372,25.413 46.372,23.376 L46.372,17.015 C46.372,14.959 47.361,13.466 49.688,13.466 C52.132,13.466 52.85,14.823 52.85,16.763 L52.85,17.926 L50.833,17.926 L50.833,16.588 C50.833,15.773 50.522,15.308 49.727,15.308 C48.932,15.308 48.583,15.871 48.583,16.666 L48.583,23.725 C48.583,24.52 48.913,25.082 49.67,25.082 C50.386,25.082 50.755,24.675 50.755,23.822 L50.755,21.495 L49.708,21.495 L49.708,19.749" id="Fill-456" fill="#FFFFFE"></path>
            <polyline id="Fill-457" fill="#FFFFFE" points="54.306 13.621 59.582 13.621 59.582 15.425 56.517 15.425 56.517 19.187 58.71 19.187 58.71 20.971 56.517 20.971 56.517 24.966 59.582 24.966 59.582 26.77 54.306 26.77 54.306 13.621"></polyline>
            <polyline id="Fill-458" fill="#FFFFFE" points="62.827 18.508 62.827 26.77 60.964 26.77 60.964 13.621 63.137 13.621 65.522 21.165 65.522 13.621 67.365 13.621 67.365 26.77 65.425 26.77 62.827 18.508"></polyline>
            <path d="M71.964,24.966 C72.875,24.966 73.224,24.423 73.224,23.628 L73.224,16.743 C73.224,15.968 72.875,15.425 71.964,15.425 L71.032,15.425 L71.032,24.966 L71.964,24.966 Z M75.435,17.151 L75.435,23.24 C75.435,25.257 74.601,26.77 72.235,26.77 L68.821,26.77 L68.821,13.621 L72.235,13.621 C74.601,13.621 75.435,15.114 75.435,17.151 Z" id="Fill-459" fill="#FFFFFE"></path>
            <polyline id="Fill-460" fill="#FFFFFE" points="76.911 13.621 82.186 13.621 82.186 15.425 79.122 15.425 79.122 19.187 81.314 19.187 81.314 20.971 79.122 20.971 79.122 24.966 82.186 24.966 82.186 26.77 76.911 26.77 76.911 13.621"></polyline>
            <path d="M85.756,15.425 L85.756,19.517 L86.494,19.517 C87.251,19.517 87.58,19.129 87.58,18.431 L87.58,16.491 C87.58,15.773 87.251,15.425 86.494,15.425 L85.756,15.425 Z M85.756,20.738 L85.756,26.77 L83.546,26.77 L83.546,13.621 L86.765,13.621 C88.996,13.621 89.81,14.726 89.81,16.569 L89.81,18.256 C89.81,19.672 89.306,20.506 88.046,20.797 L90.16,26.77 L87.832,26.77 L85.756,20.738 Z" id="Fill-461" fill="#FFFFFE"></path>
        </g>
    </g>
</svg>