<?xml version="1.0" encoding="UTF-8"?>
<svg width="161px" height="161px" viewBox="0 0 161 161" version="1.1" xmlns="http://www.w3.org/2000/svg" xmlns:xlink="http://www.w3.org/1999/xlink">
    <!-- Generator: Sketch 52.5 (67469) - http://www.bohemiancoding.com/sketch -->
    <title>Group 2</title>
    <desc>Created with Sketch.</desc>
    <g id="Page-1" stroke="none" stroke-width="1" fill="none" fill-rule="evenodd">
        <g id="Group-2">
            <g id="Group">
                <polygon id="Fill-393" fill="#4C9F38" points="0.709592593 160.084685 160.630296 160.084685 160.630296 0.159012346 0.709592593 0.159012346"></polygon>
                <path d="M23.5298519,46.2407901 C29.0008704,46.2407901 31.3781049,43.337821 31.3781049,38.8685802 L31.3781049,34.1141111 C31.3781049,31.1654259 30.0940802,29.2612531 27.3829198,28.6440864 C29.618037,27.9315123 31.0928765,26.1237407 31.0928765,23.4135741 L31.0928765,20.6070062 C31.0928765,16.0413642 28.905463,13.2357901 23.9114815,13.2357901 C18.2983457,13.2357901 16.3484568,16.5631235 16.3484568,21.3195802 L16.3484568,24.172858 L21.2937407,24.172858 L21.2937407,20.8912407 C21.2937407,18.894642 21.9138889,17.7537284 23.6262531,17.7537284 C25.3396111,17.7537284 25.9547901,18.894642 25.9547901,20.653716 L25.9547901,24.1261481 C25.9547901,25.8385123 24.8138765,26.7409074 23.0557963,26.7409074 L21.0085123,26.7409074 L21.0085123,30.8801975 L23.293321,30.8801975 C25.1945123,30.8801975 25.9547901,31.7825926 25.9547901,33.4949568 L25.9547901,38.8218704 C25.9547901,40.5322469 25.1945123,41.7238457 23.5298519,41.7238457 C21.6753704,41.7238457 21.0085123,40.485537 21.0085123,38.5843457 L21.0085123,33.971 L16.0662099,33.971 L16.0662099,38.202716 C16.0662099,43.102284 18.0141111,46.2407901 23.5298519,46.2407901" id="Fill-394" fill="#FFFFFE"></path>
                <path d="M134.284932,100.107216 C134.284932,95.6071667 131.397864,91.9588272 127.024031,91.9588272 C124.837611,91.9588272 122.199994,94.3539506 120.766895,95.8268025 C119.33479,94.351963 116.871093,91.9548519 114.683679,91.9548519 C110.31084,91.9548519 107.245877,95.6041852 107.245877,100.105228 C107.245877,102.355253 108.131377,104.391605 109.566463,105.867438 L120.776833,117.098679 L131.972296,105.880358 L131.963352,105.872407 C133.397444,104.396574 134.284932,102.358235 134.284932,100.107216" id="Fill-395" fill="#FFFFFE"></path>
                <path d="M86.5553889,135.433796 C86.5176235,135.433796 86.479858,135.432802 86.4410988,135.430815 C85.5893889,135.379136 84.8857593,134.746068 84.7406605,133.904296 L79.0470247,100.740284 L70.4206049,116.732951 C70.0429506,117.433599 69.2538519,117.810259 68.4786667,117.671123 C67.6955309,117.531988 67.091284,116.90687 66.9779877,116.120753 L63.3167284,90.5257284 L56.6163457,105.574259 C56.321179,106.238136 55.6612778,106.666475 54.9347901,106.666475 L28.8955247,106.666475 C27.8778457,106.666475 27.053963,105.841599 27.053963,104.824914 C27.053963,103.809222 27.8778457,102.984346 28.8955247,102.984346 L53.739216,102.984346 L62.5514815,83.1902901 C62.8854074,82.4409444 63.6745062,82.0036605 64.4874568,82.115963 C65.3004074,82.2292593 65.9394383,82.8663025 66.055716,83.6782593 L69.8312654,110.06934 L78.3384259,94.2973025 C78.7111111,93.6046049 79.4803333,93.2259568 80.2565123,93.3541605 C81.0316975,93.4813704 81.6399198,94.0856173 81.7730926,94.8598086 L87.0463395,125.575031 L106.264969,61.7335617 C106.484605,61.0070741 107.127611,60.4882963 107.88292,60.4296605 C108.642204,60.3730123 109.357759,60.7804815 109.686716,61.4642346 L119.799901,82.4290185 C120.24116,83.3453272 119.856549,84.4454938 118.941235,84.8867531 C118.02592,85.3290062 116.924759,84.9443951 116.4835,84.0290802 L108.426543,67.326821 L88.3174444,134.123932 C88.0829012,134.906074 87.3633704,135.433796 86.5553889,135.433796" id="Fill-396" fill="#FFFFFE"></path>
                <path d="M49.6943395,19.6410062 L52.8169444,19.6410062 L52.8169444,26.6186667 L51.2357654,26.6186667 L51.2357654,25.1925247 C50.9465617,26.1744259 50.3303889,26.7727099 49.1348148,26.7727099 C47.2465432,26.7727099 46.3789321,25.2690494 46.3789321,23.2456173 L46.3789321,16.9228889 C46.3789321,14.8805741 47.3618272,13.3957963 49.674463,13.3957963 C52.1033765,13.3957963 52.8169444,14.7454136 52.8169444,16.6724444 L52.8169444,17.8292593 L50.8123951,17.8292593 L50.8123951,16.4995185 C50.8123951,15.6895494 50.5033148,15.2274198 49.7132222,15.2274198 C48.9231296,15.2274198 48.576284,15.7859506 48.576284,16.577037 L48.576284,23.592463 C48.576284,24.3825556 48.9042469,24.9410864 49.6555802,24.9410864 C50.3681543,24.9410864 50.7348765,24.5365988 50.7348765,23.6888642 L50.7348765,21.3752346 L49.6943395,21.3752346 L49.6943395,19.6410062" id="Fill-397" fill="#FFFFFE"></path>
                <path d="M58.7172963,23.592463 L58.7172963,16.577037 C58.7172963,15.7859506 58.3704506,15.2274198 57.5793642,15.2274198 C56.8091481,15.2274198 56.4613086,15.7859506 56.4613086,16.577037 L56.4613086,23.592463 C56.4613086,24.3825556 56.8091481,24.9410864 57.5793642,24.9410864 C58.3704506,24.9410864 58.7172963,24.3825556 58.7172963,23.592463 Z M54.2639568,23.2456173 L54.2639568,16.9228889 C54.2639568,14.8805741 55.2667284,13.3957963 57.5793642,13.3957963 C59.9118765,13.3957963 60.9146481,14.8805741 60.9146481,16.9228889 L60.9146481,23.2456173 C60.9146481,25.2690494 59.9118765,26.7727099 57.5793642,26.7727099 C55.2667284,26.7727099 54.2639568,25.2690494 54.2639568,23.2456173 Z" id="Fill-398" fill="#FFFFFE"></path>
                <path d="M66.8140062,23.592463 L66.8140062,16.577037 C66.8140062,15.7859506 66.4671605,15.2274198 65.6770679,15.2274198 C64.905858,15.2274198 64.5590123,15.7859506 64.5590123,16.577037 L64.5590123,23.592463 C64.5590123,24.3825556 64.905858,24.9410864 65.6770679,24.9410864 C66.4671605,24.9410864 66.8140062,24.3825556 66.8140062,23.592463 Z M62.3616605,23.2456173 L62.3616605,16.9228889 C62.3616605,14.8805741 63.3634383,13.3957963 65.6770679,13.3957963 C68.0085864,13.3957963 69.011358,14.8805741 69.011358,16.9228889 L69.011358,23.2456173 C69.011358,25.2690494 68.0085864,26.7727099 65.6770679,26.7727099 C63.3634383,26.7727099 62.3616605,25.2690494 62.3616605,23.2456173 Z" id="Fill-399" fill="#FFFFFE"></path>
                <path d="M73.5819691,24.8258025 C74.4873457,24.8258025 74.8341914,24.2861543 74.8341914,23.4960617 L74.8341914,16.6535617 C74.8341914,15.8823519 74.4873457,15.3427037 73.5819691,15.3427037 L72.6557222,15.3427037 L72.6557222,24.8258025 L73.5819691,24.8258025 Z M77.0315432,17.0580494 L77.0315432,23.1104568 C77.0315432,25.1150062 76.2026914,26.6186667 73.8512963,26.6186667 L70.4583704,26.6186667 L70.4583704,13.5508333 L73.8512963,13.5508333 C76.2026914,13.5508333 77.0315432,15.0346173 77.0315432,17.0580494 Z" id="Fill-400" fill="#FFFFFE"></path>
                <polyline id="Fill-401" fill="#FFFFFE" points="85.7851728 20.855463 83.6643457 20.855463 83.6643457 26.6186667 81.4669938 26.6186667 81.4669938 13.5508333 83.6643457 13.5508333 83.6643457 19.0824753 85.7851728 19.0824753 85.7851728 13.5508333 88.0014074 13.5508333 88.0014074 26.6186667 85.7851728 26.6186667 85.7851728 20.855463"></polyline>
                <polyline id="Fill-402" fill="#FFFFFE" points="89.5458148 13.5508333 94.7892469 13.5508333 94.7892469 15.3427037 91.7431667 15.3427037 91.7431667 19.0824753 93.9216358 19.0824753 93.9216358 20.855463 91.7431667 20.855463 91.7431667 24.8258025 94.7892469 24.8258025 94.7892469 26.6186667 89.5458148 26.6186667 89.5458148 13.5508333"></polyline>
                <path d="M98.5687716,22.4744074 L100.322877,22.4744074 L99.4552654,17.2319691 L99.4363827,17.2319691 L98.5687716,22.4744074 Z M95.8128889,26.6186667 L98.2795679,13.5508333 L100.786,13.5508333 L103.272556,26.6186667 L101.016568,26.6186667 L100.61208,24.2285123 L98.2795679,24.2285123 L97.8949568,26.6186667 L95.8128889,26.6186667 Z" id="Fill-403" fill="#FFFFFE"></path>
                <polyline id="Fill-404" fill="#FFFFFE" points="104.371728 13.5508333 106.56908 13.5508333 106.56908 24.8258025 109.190796 24.8258025 109.190796 26.6186667 104.371728 26.6186667 104.371728 13.5508333"></polyline>
                <polyline id="Fill-405" fill="#FFFFFE" points="108.883704 13.5508333 114.724426 13.5508333 114.724426 15.3427037 112.912679 15.3427037 112.912679 26.6186667 110.695451 26.6186667 110.695451 15.3427037 108.883704 15.3427037 108.883704 13.5508333"></polyline>
                <polyline id="Fill-406" fill="#FFFFFE" points="120.258056 20.855463 118.137228 20.855463 118.137228 26.6186667 115.939877 26.6186667 115.939877 13.5508333 118.137228 13.5508333 118.137228 19.0824753 120.258056 19.0824753 120.258056 13.5508333 122.47429 13.5508333 122.47429 26.6186667 120.258056 26.6186667 120.258056 20.855463"></polyline>
                <path d="M48.8038704,41.641358 L50.5579753,41.641358 L49.6903642,36.3989198 L49.6714815,36.3989198 L48.8038704,41.641358 Z M46.0479877,45.7856173 L48.5146667,32.717784 L51.0210988,32.717784 L53.5066605,45.7856173 L51.2516667,45.7856173 L50.847179,43.395463 L48.5146667,43.395463 L48.1290617,45.7856173 L46.0479877,45.7856173 Z" id="Fill-407" fill="#FFFFFE"></path>
                <polyline id="Fill-408" fill="#FFFFFE" points="56.2655247 37.5756111 56.2655247 45.7856173 54.4150185 45.7856173 54.4150185 32.717784 56.5736111 32.717784 58.9438889 40.215216 58.9438889 32.717784 60.7755123 32.717784 60.7755123 45.7856173 58.8484815 45.7856173 56.2655247 37.5756111"></polyline>
                <path d="M65.4415309,43.9937469 C66.3469074,43.9937469 66.6947469,43.4540988 66.6947469,42.6640062 L66.6947469,35.8205123 C66.6947469,35.0502963 66.3469074,34.5106481 65.4415309,34.5106481 L64.5162778,34.5106481 L64.5162778,43.9937469 L65.4415309,43.9937469 Z M68.8920988,36.2259938 L68.8920988,42.2774074 C68.8920988,44.2829506 68.0632469,45.7856173 65.7118519,45.7856173 L62.3189259,45.7856173 L62.3189259,32.717784 L65.7118519,32.717784 C68.0632469,32.717784 68.8920988,34.2015679 68.8920988,36.2259938 Z" id="Fill-409" fill="#FFFFFE"></path>
                <polyline id="Fill-410" fill="#FFFFFE" points="77.2988827 37.7097778 76.0655432 45.7856173 74.0033519 45.7856173 72.2492469 32.717784 74.3690802 32.717784 75.3907346 41.0063025 75.4106111 41.0063025 76.5087901 32.717784 78.3016543 32.717784 79.5151173 41.0063025 79.5349938 41.0063025 80.5367716 32.717784 82.3872778 32.717784 80.6908148 45.7856173 78.6087469 45.7856173 77.3177654 37.7097778 77.2988827 37.7097778"></polyline>
                <polyline id="Fill-411" fill="#FFFFFE" points="83.5271975 32.717784 88.7696358 32.717784 88.7696358 34.5106481 85.7235556 34.5106481 85.7235556 38.2494259 87.9030185 38.2494259 87.9030185 40.0224136 85.7235556 40.0224136 85.7235556 43.9937469 88.7696358 43.9937469 88.7696358 45.7856173 83.5271975 45.7856173 83.5271975 32.717784"></polyline>
                <polyline id="Fill-412" fill="#FFFFFE" points="90.1401235 32.717784 92.3374753 32.717784 92.3374753 43.9937469 94.9581975 43.9937469 94.9581975 45.7856173 90.1401235 45.7856173 90.1401235 32.717784"></polyline>
                <polyline id="Fill-413" fill="#FFFFFE" points="96.1557593 32.717784 98.3531111 32.717784 98.3531111 43.9937469 100.973833 43.9937469 100.973833 45.7856173 96.1557593 45.7856173 96.1557593 32.717784"></polyline>
                <polygon id="Fill-414" fill="#FFFFFE" points="100.685623 39.8306049 103.770463 39.8306049 103.770463 38.0566235 100.685623 38.0566235"></polygon>
                <path d="M107.278673,39.9071296 L107.278673,43.9937469 L108.242685,43.9937469 C108.975136,43.9937469 109.322975,43.6270247 109.322975,42.9333333 L109.322975,40.9675432 C109.322975,40.272858 108.995012,39.9071296 108.223802,39.9071296 L107.278673,39.9071296 Z M107.278673,38.2305432 L108.049883,38.2305432 C108.763451,38.2305432 109.09042,37.8648148 109.09042,37.1701296 L109.09042,35.5700679 C109.09042,34.8574938 108.763451,34.5106481 108.031,34.5106481 L107.278673,34.5106481 L107.278673,38.2305432 Z M105.081321,32.717784 L108.261568,32.717784 C110.45892,32.717784 111.19137,33.7394383 111.19137,35.5899444 L111.19137,36.9196852 C111.19137,38.0178642 110.786883,38.7125494 109.880512,39.0017531 C110.979685,39.2521975 111.520327,39.9846481 111.520327,41.1792284 L111.520327,42.9144506 C111.520327,44.763963 110.691475,45.7856173 108.494123,45.7856173 L105.081321,45.7856173 L105.081321,32.717784 Z" id="Fill-415" fill="#FFFFFE"></path>
                <polyline id="Fill-416" fill="#FFFFFE" points="112.812302 32.717784 118.055735 32.717784 118.055735 34.5106481 115.009654 34.5106481 115.009654 38.2494259 117.189117 38.2494259 117.189117 40.0224136 115.009654 40.0224136 115.009654 43.9937469 118.055735 43.9937469 118.055735 45.7856173 112.812302 45.7856173 112.812302 32.717784"></polyline>
                <polygon id="Fill-417" fill="#FFFFFE" points="119.426222 45.7856173 121.623574 45.7856173 121.623574 32.717784 119.426222 32.717784"></polygon>
                <polyline id="Fill-418" fill="#FFFFFE" points="125.036377 37.5756111 125.036377 45.7856173 123.18587 45.7856173 123.18587 32.717784 125.345457 32.717784 127.714741 40.215216 127.714741 32.717784 129.546364 32.717784 129.546364 45.7856173 127.619333 45.7856173 125.036377 37.5756111"></polyline>
                <path d="M134.406179,38.8089506 L137.528784,38.8089506 L137.528784,45.7856173 L135.948599,45.7856173 L135.948599,44.3594753 C135.659395,45.3423704 135.042228,45.9406543 133.846654,45.9406543 C131.958383,45.9406543 131.090772,44.4369938 131.090772,42.4125679 L131.090772,36.0908333 C131.090772,34.0475247 132.073667,32.5637407 134.386302,32.5637407 C136.81621,32.5637407 137.528784,33.9123642 137.528784,35.8403889 L137.528784,36.9962099 L135.524235,36.9962099 L135.524235,35.667463 C135.524235,34.8574938 135.215154,34.3943704 134.425062,34.3943704 C133.634969,34.3943704 133.288123,34.9538951 133.288123,35.7439877 L133.288123,42.7594136 C133.288123,43.5505 133.616086,44.1090309 134.368414,44.1090309 C135.080988,44.1090309 135.44771,43.7045432 135.44771,42.8558148 L135.44771,40.543179 L134.406179,40.543179 L134.406179,38.8089506" id="Fill-419" fill="#FFFFFE"></path>
            </g>
        </g>
    </g>
</svg>