<?xml version="1.0" encoding="UTF-8"?>
<svg width="161px" height="162px" viewBox="0 0 161 162" version="1.1" xmlns="http://www.w3.org/2000/svg" xmlns:xlink="http://www.w3.org/1999/xlink">
    <!-- Generator: Sketch 52.5 (67469) - http://www.bohemiancoding.com/sketch -->
    <title>Group 6</title>
    <desc>Created with Sketch.</desc>
    <g id="Page-1" stroke="none" stroke-width="1" fill="none" fill-rule="evenodd">
        <g id="Group-6">
            <polygon id="Fill-489" fill="#FCC30B" points="0.06 161.644 160.922 161.644 160.922 0.718 0.06 0.718"></polygon>
            <polyline id="Fill-491" fill="#FFFFFE" points="16.505 18.656 24.929 18.656 17.653 46.651 23.063 46.651 30.194 19.23 30.194 14.204 16.505 14.204 16.505 18.656"></polyline>
            <path d="M48.404,23.167 L50.169,23.167 L49.296,17.893 L49.277,17.893 L48.404,23.167 Z M45.63,27.337 L48.113,14.188 L50.634,14.188 L53.136,27.337 L50.867,27.337 L50.46,24.933 L48.113,24.933 L47.725,27.337 L45.63,27.337 Z" id="Fill-492" fill="#FFFFFE"></path>
            <polyline id="Fill-493" fill="#FFFFFE" points="53.952 14.188 59.13 14.188 59.13 15.992 56.163 15.992 56.163 19.754 58.374 19.754 58.374 21.538 56.163 21.538 56.163 27.337 53.952 27.337 53.952 14.188"></polyline>
            <polyline id="Fill-494" fill="#FFFFFE" points="60.004 14.188 65.183 14.188 65.183 15.992 62.215 15.992 62.215 19.754 64.426 19.754 64.426 21.538 62.215 21.538 62.215 27.337 60.004 27.337 60.004 14.188"></polyline>
            <path d="M70.344,24.292 L70.344,17.233 C70.344,16.438 69.996,15.875 69.2,15.875 C68.424,15.875 68.075,16.438 68.075,17.233 L68.075,24.292 C68.075,25.088 68.424,25.65 69.2,25.65 C69.996,25.65 70.344,25.088 70.344,24.292 Z M65.864,23.943 L65.864,17.582 C65.864,15.526 66.873,14.033 69.2,14.033 C71.546,14.033 72.555,15.526 72.555,17.582 L72.555,23.943 C72.555,25.98 71.546,27.493 69.2,27.493 C66.873,27.493 65.864,25.98 65.864,23.943 Z" id="Fill-495" fill="#FFFFFE"></path>
            <path d="M75.931,15.992 L75.931,20.084 L76.669,20.084 C77.425,20.084 77.754,19.696 77.754,18.998 L77.754,17.059 C77.754,16.341 77.425,15.992 76.669,15.992 L75.931,15.992 Z M75.931,21.306 L75.931,27.337 L73.72,27.337 L73.72,14.188 L76.94,14.188 C79.17,14.188 79.985,15.294 79.985,17.136 L79.985,18.823 C79.985,20.239 79.481,21.073 78.22,21.364 L80.335,27.337 L78.007,27.337 L75.931,21.306 Z" id="Fill-496" fill="#FFFFFE"></path>
            <path d="M84.235,25.534 C85.146,25.534 85.496,24.991 85.496,24.196 L85.496,17.31 C85.496,16.535 85.146,15.992 84.235,15.992 L83.303,15.992 L83.303,25.534 L84.235,25.534 Z M87.707,17.718 L87.707,23.808 C87.707,25.825 86.873,27.337 84.506,27.337 L81.092,27.337 L81.092,14.188 L84.506,14.188 C86.873,14.188 87.707,15.682 87.707,17.718 Z" id="Fill-497" fill="#FFFFFE"></path>
            <path d="M91.005,23.167 L92.77,23.167 L91.897,17.893 L91.879,17.893 L91.005,23.167 Z M88.232,27.337 L90.714,14.188 L93.236,14.188 L95.738,27.337 L93.468,27.337 L93.061,24.933 L90.714,24.933 L90.327,27.337 L88.232,27.337 Z" id="Fill-498" fill="#FFFFFE"></path>
            <path d="M98.764,21.422 L98.764,25.534 L99.734,25.534 C100.471,25.534 100.821,25.165 100.821,24.467 L100.821,22.489 C100.821,21.79 100.491,21.422 99.715,21.422 L98.764,21.422 Z M98.764,19.735 L99.541,19.735 C100.258,19.735 100.588,19.367 100.588,18.668 L100.588,17.059 C100.588,16.341 100.258,15.992 99.521,15.992 L98.764,15.992 L98.764,19.735 Z M96.553,14.188 L99.754,14.188 C101.964,14.188 102.702,15.216 102.702,17.078 L102.702,18.416 C102.702,19.521 102.295,20.22 101.382,20.511 C102.488,20.763 103.032,21.5 103.032,22.702 L103.032,24.448 C103.032,26.309 102.198,27.337 99.987,27.337 L96.553,27.337 L96.553,14.188 Z" id="Fill-499" fill="#FFFFFE"></path>
            <polyline id="Fill-500" fill="#FFFFFE" points="104.042 14.188 106.253 14.188 106.253 25.534 108.89 25.534 108.89 27.337 104.042 27.337 104.042 14.188"></polyline>
            <polyline id="Fill-501" fill="#FFFFFE" points="109.803 14.188 115.079 14.188 115.079 15.992 112.014 15.992 112.014 19.754 114.207 19.754 114.207 21.538 112.014 21.538 112.014 25.534 115.079 25.534 115.079 27.337 109.803 27.337 109.803 14.188"></polyline>
            <path d="M120.531,23.167 L122.296,23.167 L121.422,17.893 L121.404,17.893 L120.531,23.167 Z M117.757,27.337 L120.24,14.188 L122.761,14.188 L125.263,27.337 L122.994,27.337 L122.587,24.933 L120.24,24.933 L119.852,27.337 L117.757,27.337 Z" id="Fill-502" fill="#FFFFFE"></path>
            <polyline id="Fill-503" fill="#FFFFFE" points="127.942 19.076 127.942 27.337 126.08 27.337 126.08 14.188 128.253 14.188 130.637 21.732 130.637 14.188 132.48 14.188 132.48 27.337 130.541 27.337 127.942 19.076"></polyline>
            <path d="M136.788,25.534 C137.699,25.534 138.048,24.991 138.048,24.196 L138.048,17.31 C138.048,16.535 137.699,15.992 136.788,15.992 L135.856,15.992 L135.856,25.534 L136.788,25.534 Z M140.259,17.718 L140.259,23.808 C140.259,25.825 139.425,27.337 137.059,27.337 L133.645,27.337 L133.645,14.188 L137.059,14.188 C139.425,14.188 140.259,15.682 140.259,17.718 Z" id="Fill-504" fill="#FFFFFE"></path>
            <path d="M45.961,43.256 L45.961,36.925 C45.961,34.879 46.926,33.393 49.243,33.393 C51.675,33.393 52.351,34.744 52.351,36.674 L52.351,38.218 L50.343,38.218 L50.343,36.5 C50.343,35.69 50.073,35.226 49.282,35.226 C48.49,35.226 48.162,35.786 48.162,36.578 L48.162,43.604 C48.162,44.395 48.49,44.955 49.282,44.955 C50.073,44.955 50.343,44.453 50.343,43.681 L50.343,41.268 L52.351,41.268 L52.351,43.526 C52.351,45.399 51.579,46.788 49.243,46.788 C46.926,46.788 45.961,45.283 45.961,43.256" id="Fill-505" fill="#FFFFFE"></path>
            <polyline id="Fill-506" fill="#FFFFFE" points="53.739 33.547 55.939 33.547 55.939 44.839 58.565 44.839 58.565 46.634 53.739 46.634 53.739 33.547"></polyline>
            <polyline id="Fill-507" fill="#FFFFFE" points="59.76 33.547 65.01 33.547 65.01 35.342 61.961 35.342 61.961 39.087 64.142 39.087 64.142 40.863 61.961 40.863 61.961 44.839 65.01 44.839 65.01 46.634 59.76 46.634 59.76 33.547"></polyline>
            <path d="M68.794,42.484 L70.55,42.484 L69.681,37.234 L69.662,37.234 L68.794,42.484 Z M66.033,46.634 L68.503,33.547 L71.013,33.547 L73.504,46.634 L71.245,46.634 L70.839,44.241 L68.503,44.241 L68.118,46.634 L66.033,46.634 Z" id="Fill-508" fill="#FFFFFE"></path>
            <polyline id="Fill-509" fill="#FFFFFE" points="76.456 38.412 76.456 46.634 74.602 46.634 74.602 33.547 76.764 33.547 79.138 41.056 79.138 33.547 80.972 33.547 80.972 46.634 79.042 46.634 76.456 38.412"></polyline>
            <polyline id="Fill-510" fill="#FFFFFE" points="86.857 33.547 92.107 33.547 92.107 35.342 89.057 35.342 89.057 39.087 91.239 39.087 91.239 40.863 89.057 40.863 89.057 44.839 92.107 44.839 92.107 46.634 86.857 46.634 86.857 33.547"></polyline>
            <polyline id="Fill-511" fill="#FFFFFE" points="95.272 38.412 95.272 46.634 93.419 46.634 93.419 33.547 95.581 33.547 97.955 41.056 97.955 33.547 99.789 33.547 99.789 46.634 97.858 46.634 95.272 38.412"></polyline>
            <polyline id="Fill-512" fill="#FFFFFE" points="101.215 33.547 106.465 33.547 106.465 35.342 103.416 35.342 103.416 39.087 105.597 39.087 105.597 40.863 103.416 40.863 103.416 44.839 106.465 44.839 106.465 46.634 101.215 46.634 101.215 33.547"></polyline>
            <path d="M109.998,35.342 L109.998,39.415 L110.732,39.415 C111.484,39.415 111.812,39.029 111.812,38.334 L111.812,36.404 C111.812,35.69 111.484,35.342 110.732,35.342 L109.998,35.342 Z M109.998,40.631 L109.998,46.634 L107.797,46.634 L107.797,33.547 L111.002,33.547 C113.221,33.547 114.032,34.647 114.032,36.481 L114.032,38.161 C114.032,39.57 113.531,40.399 112.276,40.689 L114.38,46.634 L112.063,46.634 L109.998,40.631 Z" id="Fill-513" fill="#FFFFFE"></path>
            <path d="M118.741,39.647 L121.868,39.647 L121.868,46.634 L120.285,46.634 L120.285,45.206 C119.996,46.19 119.378,46.788 118.181,46.788 C116.29,46.788 115.421,45.283 115.421,43.256 L115.421,36.925 C115.421,34.879 116.405,33.393 118.721,33.393 C121.154,33.393 121.868,34.744 121.868,36.674 L121.868,37.832 L119.86,37.832 L119.86,36.5 C119.86,35.69 119.551,35.226 118.76,35.226 C117.968,35.226 117.621,35.786 117.621,36.578 L117.621,43.604 C117.621,44.395 117.949,44.955 118.702,44.955 C119.417,44.955 119.783,44.55 119.783,43.7 L119.783,41.384 L118.741,41.384 L118.741,39.647" id="Fill-514" fill="#FFFFFE"></path>
            <polyline id="Fill-515" fill="#FFFFFE" points="127.56 41.654 127.56 46.634 125.36 46.634 125.36 41.654 122.909 33.547 125.206 33.547 126.538 38.508 126.556 38.508 127.888 33.547 129.993 33.547 127.56 41.654"></polyline>
            <path d="M80.672,143.114 C81.74,143.114 82.607,142.166 82.607,141.301 L82.607,130.974 C82.607,130.104 81.74,129.147 80.672,129.147 C79.601,129.147 78.728,130.104 78.728,130.974 L78.728,141.301 C78.728,142.166 79.601,143.114 80.672,143.114" id="Fill-516" fill="#FFFFFE"></path>
            <path d="M80.46,114.357 C73.685,114.357 68.193,108.866 68.193,102.09 C68.193,96.583 71.818,91.926 76.814,90.373 L76.814,94.941 C74.213,96.269 72.429,98.968 72.429,102.09 C72.429,106.526 76.023,110.121 80.46,110.121 C84.896,110.121 88.49,106.526 88.49,102.09 C88.49,98.959 86.697,96.255 84.085,94.93 L84.085,90.368 C89.09,91.913 92.728,96.576 92.728,102.09 C92.728,108.866 87.236,114.357 80.46,114.357 Z M78.71,88.003 C78.71,87.218 79.498,86.354 80.465,86.354 C81.431,86.354 82.212,87.218 82.212,88.003 L82.212,96.101 C82.212,96.882 81.431,97.738 80.465,97.738 C79.498,97.738 78.71,96.882 78.71,96.101 L78.71,88.003 Z M80.456,78.686 C67.431,78.686 56.873,89.246 56.873,102.271 C56.873,115.302 67.431,125.859 80.456,125.859 C93.48,125.859 104.039,115.302 104.039,102.271 C104.039,89.246 93.48,78.686 80.456,78.686 Z" id="Fill-517" fill="#FFFFFE"></path>
            <path d="M53.382,102.065 C53.382,100.996 52.435,100.129 51.57,100.129 L41.242,100.129 C40.371,100.129 39.415,100.996 39.415,102.065 C39.415,103.137 40.371,104.008 41.242,104.008 L51.57,104.008 C52.435,104.008 53.382,103.137 53.382,102.065" id="Fill-518" fill="#FFFFFE"></path>
            <path d="M121.507,102.065 C121.507,100.996 120.56,100.129 119.695,100.129 L109.367,100.129 C108.497,100.129 107.541,100.996 107.541,102.065 C107.541,103.137 108.497,104.008 109.367,104.008 L119.695,104.008 C120.56,104.008 121.507,103.137 121.507,102.065" id="Fill-519" fill="#FFFFFE"></path>
            <path d="M80.465,74.99 C81.533,74.99 82.4,74.042 82.4,73.178 L82.4,62.849 C82.4,61.978 81.533,61.023 80.465,61.023 C79.394,61.023 78.521,61.978 78.521,62.849 L78.521,73.178 C78.521,74.042 79.394,74.99 80.465,74.99" id="Fill-520" fill="#FFFFFE"></path>
            <path d="M56.961,88.615 C57.493,87.686 57.101,86.464 56.349,86.035 L47.385,80.905 C46.629,80.471 45.37,80.748 44.839,81.676 C44.306,82.607 44.704,83.837 45.46,84.271 L54.423,89.401 C55.173,89.83 56.428,89.545 56.961,88.615" id="Fill-521" fill="#FFFFFE"></path>
            <path d="M116.088,122.454 C116.618,121.527 116.226,120.303 115.476,119.873 L106.512,114.744 C105.756,114.311 104.496,114.588 103.965,115.517 C103.433,116.446 103.83,117.678 104.586,118.11 L113.549,123.24 C114.3,123.669 115.554,123.384 116.088,122.454" id="Fill-522" fill="#FFFFFE"></path>
            <path d="M93.916,78.569 C94.843,79.099 96.064,78.707 96.495,77.957 L101.625,68.994 C102.058,68.237 101.781,66.977 100.853,66.446 C99.923,65.913 98.691,66.311 98.258,67.067 L93.128,76.03 C92.699,76.782 92.984,78.037 93.916,78.569" id="Fill-523" fill="#FFFFFE"></path>
            <path d="M60.077,137.695 C61.003,138.225 62.226,137.833 62.656,137.082 L67.786,128.12 C68.218,127.364 67.941,126.102 67.013,125.572 C66.085,125.039 64.851,125.437 64.42,126.192 L59.29,135.156 C58.86,135.906 59.146,137.163 60.077,137.695" id="Fill-524" fill="#FFFFFE"></path>
            <path d="M66.965,78.592 C67.892,78.059 68.171,76.806 67.74,76.056 L62.591,67.102 C62.156,66.347 60.93,65.952 60.003,66.485 C59.072,67.018 58.795,68.282 59.23,69.037 L64.378,77.989 C64.81,78.739 66.035,79.126 66.965,78.592" id="Fill-525" fill="#FFFFFE"></path>
            <path d="M100.925,137.649 C101.852,137.116 102.131,135.863 101.701,135.114 L96.552,126.16 C96.117,125.405 94.89,125.008 93.962,125.541 C93.033,126.075 92.754,127.338 93.191,128.094 L98.339,137.047 C98.769,137.796 99.996,138.183 100.925,137.649" id="Fill-526" fill="#FFFFFE"></path>
            <path d="M103.938,88.573 C104.47,89.498 105.723,89.778 106.473,89.347 L115.425,84.199 C116.181,83.764 116.58,82.537 116.047,81.61 C115.511,80.681 114.25,80.402 113.494,80.836 L104.541,85.985 C103.791,86.415 103.403,87.644 103.938,88.573" id="Fill-527" fill="#FFFFFE"></path>
            <path d="M44.881,122.534 C45.414,123.459 46.667,123.739 47.417,123.307 L56.369,118.159 C57.125,117.725 57.523,116.497 56.988,115.571 C56.456,114.641 55.191,114.363 54.437,114.796 L45.484,119.945 C44.734,120.375 44.347,121.604 44.881,122.534" id="Fill-528" fill="#FFFFFE"></path>
        </g>
    </g>
</svg>