<?xml version="1.0" encoding="UTF-8"?>
<svg width="162px" height="162px" viewBox="0 0 162 162" version="1.1" xmlns="http://www.w3.org/2000/svg" xmlns:xlink="http://www.w3.org/1999/xlink">
    <!-- Generator: Sketch 52.5 (67469) - http://www.bohemiancoding.com/sketch -->
    <title>Group 11</title>
    <desc>Created with Sketch.</desc>
    <g id="Page-1" stroke="none" stroke-width="1" fill="none" fill-rule="evenodd">
        <g id="Group-11">
            <polygon id="Fill-338" fill="#BF8B2E" points="0.773 161.644 161.69 161.644 161.69 0.718 0.773 0.718"></polygon>
            <polyline id="Fill-339" fill="#FFFFFE" points="16.837 21.863 16.885 21.863 16.885 46.701 22.34 46.701 22.34 14.254 17.981 14.254 12.96 20.141 12.96 25.835 13.006 25.835 16.837 21.863"></polyline>
            <path d="M25.592,20.955 L25.592,24.878 L30.569,24.878 L30.569,20.81 C30.569,18.849 31.528,18.275 32.674,18.275 C33.729,18.275 34.637,18.705 34.637,20.716 L34.637,23.394 C34.637,26.076 34.399,27.127 32.626,28.994 L29.565,32.248 C26.598,35.408 25.495,37.513 25.495,40.72 L25.495,46.703 L39.663,46.703 L39.663,42.25 L30.712,42.25 L30.712,40.72 C30.712,38.183 31.622,37.226 33.008,35.743 L36.503,32.058 C39.327,29.043 39.95,27.127 39.95,23.873 L39.95,20.716 C39.95,16.073 37.702,13.872 32.819,13.872 C28.032,13.872 25.592,16.409 25.592,20.955" id="Fill-340" fill="#FFFFFE"></path>
            <path d="M126.06,86.923 C119.49,81.74 111.62,81.181 108.546,81.181 C106.922,81.181 105.42,81.326 104.319,81.588 L103.887,81.687 C99.731,82.669 92.774,84.312 84.675,94.363 L84.438,94.658 C84.304,94.849 84.235,95.054 84.235,95.266 C84.235,95.45 84.281,95.625 84.378,95.799 L84.561,96.101 C85.898,98.336 87.01,100.278 87.892,101.927 C88.209,102.539 89.053,102.739 89.625,102.17 C89.68,102.095 89.738,102.017 89.776,101.957 C96.771,92.282 102.254,90.993 105.88,90.14 L106.33,90.034 C106.83,89.914 107.639,89.845 108.551,89.845 C110.24,89.845 116.1,90.125 120.67,93.736 C124.74,96.948 126.81,102.078 126.81,108.983 C126.81,120.556 121.21,125.07 116.51,126.819 C114.72,127.489 112.78,127.829 110.77,127.829 C105.929,127.829 102.206,125.893 102.156,125.867 L101.82,125.704 C97.779,123.949 91.746,120.292 86.043,108.837 C74.349,85.352 64.527,83.127 58.023,81.654 L57.681,81.578 C57.183,81.465 55.777,81.202 53.49,81.202 C49.724,81.202 42.479,81.942 36.27,86.898 C32.031,90.28 26.976,96.849 26.976,108.936 C26.976,116.301 28.493,121.165 32.381,126.282 C33.113,127.28 39.889,136.03 52.899,136.03 C54.827,136.03 56.826,135.834 58.84,135.448 C61.215,134.993 64.881,133.819 68.974,130.816 L72.395,133.902 C72.777,134.251 73.439,134.215 73.783,133.838 C73.95,133.661 74.039,133.422 74.03,133.188 L76.675,116.89 L76.677,116.7 C76.673,116.421 76.552,116.158 76.359,115.99 C76.185,115.825 75.962,115.737 75.673,115.737 C75.672,115.737 75.669,115.737 75.667,115.737 L59.799,120.123 L59.498,120.173 C59.297,120.215 59.121,120.319 58.993,120.465 C58.813,120.663 58.721,120.917 58.736,121.183 C58.75,121.447 58.868,121.689 59.06,121.86 L62.348,124.833 C60.62,125.893 58.892,126.595 57.212,126.921 C55.781,127.194 54.364,127.332 53.003,127.332 C44.012,127.332 39.589,121.432 39.406,121.182 L39.317,121.059 C36.582,117.467 35.658,114.408 35.658,108.936 C35.658,102.008 37.686,96.875 41.684,93.681 C46.134,90.131 51.86,89.855 53.51,89.855 C54.413,89.855 55.232,89.923 55.758,90.043 L56.109,90.122 C61.301,91.297 68.411,92.907 78.267,112.706 C83.473,123.158 90.002,129.996 98.208,133.6 C99.162,134.086 104.251,136.514 110.78,136.514 C113.82,136.514 116.77,135.991 119.54,134.959 C124.34,133.17 135.49,127.057 135.49,108.983 C135.49,96.906 130.36,90.321 126.06,86.923" id="Fill-341" fill="#FFFFFE"></path>
            <path d="M54.345,15.992 L54.345,20.083 L55.083,20.083 C55.839,20.083 56.169,19.696 56.169,18.997 L56.169,17.058 C56.169,16.34 55.839,15.992 55.083,15.992 L54.345,15.992 Z M54.345,21.305 L54.345,27.337 L52.134,27.337 L52.134,14.188 L55.354,14.188 C57.585,14.188 58.399,15.293 58.399,17.136 L58.399,18.823 C58.399,20.239 57.895,21.073 56.634,21.364 L58.749,27.337 L56.421,27.337 L54.345,21.305 Z" id="Fill-342" fill="#FFFFFE"></path>
            <polyline id="Fill-343" fill="#FFFFFE" points="59.817 14.188 65.092 14.188 65.092 15.992 62.028 15.992 62.028 19.754 64.22 19.754 64.22 21.538 62.028 21.538 62.028 25.533 65.092 25.533 65.092 27.337 59.817 27.337 59.817 14.188"></polyline>
            <path d="M66.374,24.505 L66.374,22.741 L68.429,22.741 L68.429,24.544 C68.429,25.281 68.759,25.708 69.516,25.708 C70.214,25.708 70.524,25.242 70.524,24.544 L70.524,24.04 C70.524,23.284 70.214,22.818 69.535,22.178 L68.236,20.879 C66.975,19.638 66.393,18.881 66.393,17.369 L66.393,16.922 C66.393,15.293 67.343,14.033 69.497,14.033 C71.708,14.033 72.58,15.119 72.58,17.019 L72.58,18.086 L70.563,18.086 L70.563,16.942 C70.563,16.185 70.214,15.817 69.516,15.817 C68.895,15.817 68.468,16.166 68.468,16.903 L68.468,17.174 C68.468,17.912 68.876,18.338 69.516,18.958 L70.931,20.355 C72.134,21.577 72.715,22.314 72.715,23.768 L72.715,24.408 C72.715,26.212 71.746,27.492 69.497,27.492 C67.247,27.492 66.374,26.231 66.374,24.505" id="Fill-344" fill="#FFFFFE"></path>
            <path d="M76.267,15.992 L76.267,21.169 L77.083,21.169 C77.839,21.169 78.169,20.801 78.169,20.083 L78.169,17.058 C78.169,16.34 77.839,15.992 77.083,15.992 L76.267,15.992 Z M74.056,14.188 L77.335,14.188 C79.565,14.188 80.38,15.293 80.38,17.136 L80.38,19.909 C80.38,21.751 79.565,22.876 77.335,22.876 L76.267,22.876 L76.267,27.337 L74.056,27.337 L74.056,14.188 Z" id="Fill-345" fill="#FFFFFE"></path>
            <path d="M86.219,24.292 L86.219,17.233 C86.219,16.437 85.871,15.875 85.075,15.875 C84.299,15.875 83.95,16.437 83.95,17.233 L83.95,24.292 C83.95,25.087 84.299,25.649 85.075,25.649 C85.871,25.649 86.219,25.087 86.219,24.292 Z M81.739,23.943 L81.739,17.581 C81.739,15.526 82.748,14.033 85.075,14.033 C87.422,14.033 88.43,15.526 88.43,17.581 L88.43,23.943 C88.43,25.979 87.422,27.492 85.075,27.492 C82.748,27.492 81.739,25.979 81.739,23.943 Z" id="Fill-346" fill="#FFFFFE"></path>
            <polyline id="Fill-347" fill="#FFFFFE" points="91.768 19.075 91.768 27.337 89.906 27.337 89.906 14.188 92.079 14.188 94.464 21.732 94.464 14.188 96.306 14.188 96.306 27.337 94.367 27.337 91.768 19.075"></polyline>
            <path d="M97.685,24.505 L97.685,22.741 L99.741,22.741 L99.741,24.544 C99.741,25.281 100.071,25.708 100.828,25.708 C101.525,25.708 101.836,25.242 101.836,24.544 L101.836,24.04 C101.836,23.284 101.525,22.818 100.846,22.178 L99.547,20.879 C98.287,19.638 97.705,18.881 97.705,17.369 L97.705,16.922 C97.705,15.293 98.655,14.033 100.808,14.033 C103.019,14.033 103.891,15.119 103.891,17.019 L103.891,18.086 L101.875,18.086 L101.875,16.942 C101.875,16.185 101.525,15.817 100.828,15.817 C100.207,15.817 99.78,16.166 99.78,16.903 L99.78,17.174 C99.78,17.912 100.187,18.338 100.828,18.958 L102.243,20.355 C103.446,21.577 104.027,22.314 104.027,23.768 L104.027,24.408 C104.027,26.212 103.057,27.492 100.808,27.492 C98.558,27.492 97.685,26.231 97.685,24.505" id="Fill-348" fill="#FFFFFE"></path>
            <polygon id="Fill-349" fill="#FFFFFE" points="105.367 27.337 107.578 27.337 107.578 14.188 105.367 14.188"></polygon>
            <path d="M111.28,21.422 L111.28,25.533 L112.25,25.533 C112.99,25.533 113.34,25.164 113.34,24.467 L113.34,22.488 C113.34,21.79 113.01,21.422 112.23,21.422 L111.28,21.422 Z M111.28,19.734 L112.06,19.734 C112.78,19.734 113.11,19.366 113.11,18.668 L113.11,17.058 C113.11,16.34 112.78,15.992 112.04,15.992 L111.28,15.992 L111.28,19.734 Z M109.07,14.188 L112.27,14.188 C114.48,14.188 115.22,15.216 115.22,17.078 L115.22,18.415 C115.22,19.521 114.81,20.219 113.9,20.51 C115.01,20.762 115.55,21.499 115.55,22.702 L115.55,24.447 C115.55,26.309 114.72,27.337 112.51,27.337 L109.07,27.337 L109.07,14.188 Z" id="Fill-350" fill="#FFFFFE"></path>
            <polyline id="Fill-351" fill="#FFFFFE" points="116.87 14.188 119.08 14.188 119.08 25.533 121.72 25.533 121.72 27.337 116.87 27.337 116.87 14.188"></polyline>
            <polyline id="Fill-352" fill="#FFFFFE" points="122.94 14.188 128.22 14.188 128.22 15.992 125.15 15.992 125.15 19.754 127.35 19.754 127.35 21.538 125.15 21.538 125.15 25.533 128.22 25.533 128.22 27.337 122.94 27.337 122.94 14.188"></polyline>
            <path d="M52.135,43.256 L52.135,36.895 C52.135,34.839 53.105,33.346 55.433,33.346 C57.877,33.346 58.555,34.704 58.555,36.643 L58.555,38.195 L56.539,38.195 L56.539,36.469 C56.539,35.654 56.267,35.188 55.471,35.188 C54.676,35.188 54.346,35.751 54.346,36.546 L54.346,43.605 C54.346,44.401 54.676,44.963 55.471,44.963 C56.267,44.963 56.539,44.459 56.539,43.683 L56.539,41.259 L58.555,41.259 L58.555,43.528 C58.555,45.409 57.78,46.806 55.433,46.806 C53.105,46.806 52.135,45.293 52.135,43.256" id="Fill-353" fill="#FFFFFE"></path>
            <path d="M64.434,43.605 L64.434,36.546 C64.434,35.751 64.086,35.188 63.29,35.188 C62.514,35.188 62.165,35.751 62.165,36.546 L62.165,43.605 C62.165,44.401 62.514,44.963 63.29,44.963 C64.086,44.963 64.434,44.401 64.434,43.605 Z M59.954,43.256 L59.954,36.895 C59.954,34.839 60.963,33.346 63.29,33.346 C65.636,33.346 66.645,34.839 66.645,36.895 L66.645,43.256 C66.645,45.293 65.636,46.806 63.29,46.806 C60.963,46.806 59.954,45.293 59.954,43.256 Z" id="Fill-354" fill="#FFFFFE"></path>
            <polyline id="Fill-355" fill="#FFFFFE" points="69.964 38.389 69.964 46.65 68.101 46.65 68.101 33.501 70.274 33.501 72.659 41.045 72.659 33.501 74.502 33.501 74.502 46.65 72.562 46.65 69.964 38.389"></polyline>
            <path d="M75.841,43.819 L75.841,42.054 L77.897,42.054 L77.897,43.858 C77.897,44.595 78.227,45.021 78.984,45.021 C79.681,45.021 79.992,44.556 79.992,43.858 L79.992,43.353 C79.992,42.597 79.681,42.132 79.003,41.492 L77.704,40.192 C76.443,38.951 75.861,38.195 75.861,36.682 L75.861,36.236 C75.861,34.607 76.811,33.346 78.964,33.346 C81.175,33.346 82.047,34.432 82.047,36.333 L82.047,37.399 L80.031,37.399 L80.031,36.255 C80.031,35.499 79.681,35.13 78.984,35.13 C78.363,35.13 77.936,35.479 77.936,36.216 L77.936,36.488 C77.936,37.225 78.343,37.652 78.984,38.272 L80.399,39.668 C81.602,40.891 82.183,41.627 82.183,43.082 L82.183,43.722 C82.183,45.525 81.214,46.806 78.964,46.806 C76.714,46.806 75.841,45.545 75.841,43.819" id="Fill-356" fill="#FFFFFE"></path>
            <path d="M89.964,33.501 L89.964,43.45 C89.964,45.487 89.09,46.806 86.841,46.806 C84.513,46.806 83.544,45.487 83.544,43.45 L83.544,33.501 L85.755,33.501 L85.755,43.663 C85.755,44.439 86.065,44.963 86.841,44.963 C87.617,44.963 87.927,44.439 87.927,43.663 L87.927,33.501 L89.964,33.501" id="Fill-357" fill="#FFFFFE"></path>
            <polyline id="Fill-358" fill="#FFFFFE" points="97.509 38.117 97.452 38.117 95.959 46.65 94.93 46.65 93.282 38.117 93.243 38.117 93.243 46.65 91.42 46.65 91.42 33.501 94 33.501 95.434 40.91 95.454 40.91 96.734 33.501 99.527 33.501 99.527 46.65 97.509 46.65 97.509 38.117"></polyline>
            <path d="M103.195,35.305 L103.195,40.483 L104.01,40.483 C104.766,40.483 105.096,40.115 105.096,39.397 L105.096,36.372 C105.096,35.654 104.766,35.305 104.01,35.305 L103.195,35.305 Z M100.984,33.501 L104.262,33.501 C106.493,33.501 107.307,34.607 107.307,36.449 L107.307,39.223 C107.307,41.065 106.493,42.19 104.262,42.19 L103.195,42.19 L103.195,46.65 L100.984,46.65 L100.984,33.501 Z" id="Fill-359" fill="#FFFFFE"></path>
            <polyline id="Fill-360" fill="#FFFFFE" points="108.026 33.501 113.9 33.501 113.9 35.305 112.08 35.305 112.08 46.65 109.85 46.65 109.85 35.305 108.026 35.305 108.026 33.501"></polyline>
            <polygon id="Fill-361" fill="#FFFFFE" points="114.95 46.65 117.16 46.65 117.16 33.501 114.95 33.501"></polygon>
            <path d="M122.92,43.605 L122.92,36.546 C122.92,35.751 122.57,35.188 121.78,35.188 C121,35.188 120.65,35.751 120.65,36.546 L120.65,43.605 C120.65,44.401 121,44.963 121.78,44.963 C122.57,44.963 122.92,44.401 122.92,43.605 Z M118.44,43.256 L118.44,36.895 C118.44,34.839 119.45,33.346 121.78,33.346 C124.13,33.346 125.13,34.839 125.13,36.895 L125.13,43.256 C125.13,45.293 124.13,46.806 121.78,46.806 C119.45,46.806 118.44,45.293 118.44,43.256 Z" id="Fill-362" fill="#FFFFFE"></path>
            <polyline id="Fill-363" fill="#FFFFFE" points="128.28 38.389 128.28 46.65 126.42 46.65 126.42 33.501 128.59 33.501 130.97 41.045 130.97 33.501 132.82 33.501 132.82 46.65 130.88 46.65 128.28 38.389"></polyline>
            <path d="M54.56,61.794 L56.325,61.794 L55.452,56.519 L55.433,56.519 L54.56,61.794 Z M51.787,65.964 L54.269,52.815 L56.791,52.815 L59.293,65.964 L57.023,65.964 L56.616,63.559 L54.269,63.559 L53.881,65.964 L51.787,65.964 Z" id="Fill-364" fill="#FFFFFE"></path>
            <polyline id="Fill-365" fill="#FFFFFE" points="62.126 57.702 62.126 65.964 60.263 65.964 60.263 52.815 62.436 52.815 64.821 60.359 64.821 52.815 66.664 52.815 66.664 65.964 64.724 65.964 62.126 57.702"></polyline>
            <path d="M71.128,64.16 C72.039,64.16 72.388,63.617 72.388,62.822 L72.388,55.937 C72.388,55.162 72.039,54.619 71.128,54.619 L70.196,54.619 L70.196,64.16 L71.128,64.16 Z M74.599,56.344 L74.599,62.434 C74.599,64.451 73.765,65.964 71.399,65.964 L67.985,65.964 L67.985,52.815 L71.399,52.815 C73.765,52.815 74.599,54.308 74.599,56.344 Z" id="Fill-366" fill="#FFFFFE"></path>
            <path d="M80.225,54.619 L80.225,59.796 L81.041,59.796 C81.797,59.796 82.127,59.428 82.127,58.71 L82.127,55.685 C82.127,54.967 81.797,54.619 81.041,54.619 L80.225,54.619 Z M78.014,52.815 L81.293,52.815 C83.523,52.815 84.338,53.92 84.338,55.763 L84.338,58.536 C84.338,60.378 83.523,61.503 81.293,61.503 L80.225,61.503 L80.225,65.964 L78.014,65.964 L78.014,52.815 Z" id="Fill-367" fill="#FFFFFE"></path>
            <path d="M87.753,54.619 L87.753,58.71 L88.49,58.71 C89.247,58.71 89.576,58.323 89.576,57.624 L89.576,55.685 C89.576,54.967 89.247,54.619 88.49,54.619 L87.753,54.619 Z M87.753,59.932 L87.753,65.964 L85.542,65.964 L85.542,52.815 L88.761,52.815 C90.992,52.815 91.806,53.92 91.806,55.763 L91.806,57.45 C91.806,58.866 91.302,59.7 90.042,59.991 L92.156,65.964 L89.828,65.964 L87.753,59.932 Z" id="Fill-368" fill="#FFFFFE"></path>
            <path d="M97.548,62.919 L97.548,55.86 C97.548,55.064 97.2,54.502 96.404,54.502 C95.629,54.502 95.279,55.064 95.279,55.86 L95.279,62.919 C95.279,63.714 95.629,64.276 96.404,64.276 C97.2,64.276 97.548,63.714 97.548,62.919 Z M93.068,62.57 L93.068,56.208 C93.068,54.153 94.077,52.66 96.404,52.66 C98.751,52.66 99.759,54.153 99.759,56.208 L99.759,62.57 C99.759,64.606 98.751,66.119 96.404,66.119 C94.077,66.119 93.068,64.606 93.068,62.57 Z" id="Fill-369" fill="#FFFFFE"></path>
            <path d="M104.223,64.16 C105.134,64.16 105.484,63.617 105.484,62.822 L105.484,55.937 C105.484,55.162 105.134,54.619 104.223,54.619 L103.292,54.619 L103.292,64.16 L104.223,64.16 Z M107.695,56.344 L107.695,62.434 C107.695,64.451 106.861,65.964 104.495,65.964 L101.081,65.964 L101.081,52.815 L104.495,52.815 C106.861,52.815 107.695,54.308 107.695,56.344 Z" id="Fill-370" fill="#FFFFFE"></path>
            <path d="M115.44,52.815 L115.44,62.764 C115.44,64.8 114.56,66.119 112.31,66.119 C109.98,66.119 109.02,64.8 109.02,62.764 L109.02,52.815 L111.23,52.815 L111.23,62.977 C111.23,63.753 111.54,64.276 112.31,64.276 C113.09,64.276 113.4,63.753 113.4,62.977 L113.4,52.815 L115.44,52.815" id="Fill-371" fill="#FFFFFE"></path>
            <path d="M116.76,62.57 L116.76,56.208 C116.76,54.153 117.73,52.66 120.05,52.66 C122.5,52.66 123.18,54.017 123.18,55.956 L123.18,57.508 L121.16,57.508 L121.16,55.782 C121.16,54.967 120.89,54.502 120.09,54.502 C119.3,54.502 118.97,55.064 118.97,55.86 L118.97,62.919 C118.97,63.714 119.3,64.276 120.09,64.276 C120.89,64.276 121.16,63.772 121.16,62.997 L121.16,60.572 L123.18,60.572 L123.18,62.841 C123.18,64.723 122.4,66.119 120.05,66.119 C117.73,66.119 116.76,64.606 116.76,62.57" id="Fill-372" fill="#FFFFFE"></path>
            <polyline id="Fill-373" fill="#FFFFFE" points="124.19 52.815 130.06 52.815 130.06 54.619 128.24 54.619 128.24 65.964 126.01 65.964 126.01 54.619 124.19 54.619 124.19 52.815"></polyline>
            <polygon id="Fill-374" fill="#FFFFFE" points="131.11 65.964 133.32 65.964 133.32 52.815 131.11 52.815"></polygon>
            <path d="M139.08,62.919 L139.08,55.86 C139.08,55.064 138.73,54.502 137.94,54.502 C137.16,54.502 136.81,55.064 136.81,55.86 L136.81,62.919 C136.81,63.714 137.16,64.276 137.94,64.276 C138.73,64.276 139.08,63.714 139.08,62.919 Z M134.6,62.57 L134.6,56.208 C134.6,54.153 135.61,52.66 137.94,52.66 C140.29,52.66 141.29,54.153 141.29,56.208 L141.29,62.57 C141.29,64.606 140.29,66.119 137.94,66.119 C135.61,66.119 134.6,64.606 134.6,62.57 Z" id="Fill-375" fill="#FFFFFE"></path>
            <polyline id="Fill-376" fill="#FFFFFE" points="144.44 57.702 144.44 65.964 142.58 65.964 142.58 52.815 144.75 52.815 147.13 60.359 147.13 52.815 148.98 52.815 148.98 65.964 147.04 65.964 144.44 57.702"></polyline>
        </g>
    </g>
</svg>