<?xml version="1.0" encoding="UTF-8"?>
<svg width="53px" height="63px" viewBox="0 0 53 63" version="1.1" xmlns="http://www.w3.org/2000/svg" xmlns:xlink="http://www.w3.org/1999/xlink">
    <!-- Generator: Sketch 52.5 (67469) - http://www.bohemiancoding.com/sketch -->
    <title>Group</title>
    <desc>Created with Sketch.</desc>
    <g id="Page-1" stroke="none" stroke-width="1" fill="none" fill-rule="evenodd">
        <g id="Group" fill="#00653A">
            <path d="M29.0596211,19.918125 L23.4148421,21.0155625 C20.2878421,21.621375 19.0448526,21.8086875 13.5646526,22.903875 C12.1068737,23.2745625 10.6803368,23.6885625 9.37095789,24.134625 C9.34362105,24.143625 9.31851579,24.15375 9.29117895,24.16275 C10.0281579,26.5123125 11.2181474,28.65825 12.7668632,30.4891875 C12.5174842,30.4813125 12.2390947,30.4700625 11.9210947,30.456 C8.30203158,30.249 4.97195789,29.703375 3.52477895,28.7555625 C3.37303158,28.659375 3.25029474,28.569375 3.1482,28.4844375 C3.28990526,29.0930625 4.27626316,29.9975625 6.07324211,30.7198125 C8.00021053,31.5106875 10.8125579,32.1373125 14.3312,32.2351875 C14.3484947,32.2306875 14.6012211,32.2408125 14.6012211,32.2408125 C14.6146105,32.2531875 14.8288421,32.436 14.8288421,32.436 C15.3220211,32.88375 15.9541158,33.45075 15.9541158,33.45075 L16.0534211,33.5244375 C19.0046842,35.6450625 22.6142632,36.8955 26.5150632,36.8955 C36.4985895,36.8955 44.5902947,28.737 44.5902947,18.675 C44.5902947,17.8970625 44.5272526,17.136 44.4324105,16.3839375 C42.5495158,16.9970625 40.5327263,17.5291875 38.5321158,18.018 C32.6887263,19.1863125 31.7207789,19.5114375 29.0596211,19.918125" id="Fill-1"></path>
            <path d="M48.8888737,8.046 C49.7218105,8.501625 49.9667263,8.901 49.9996421,9.1659375 C50.0091263,9.20475 50.0102421,9.2385 50.0102421,9.27 C50.0102421,9.307125 50.0057789,9.3549375 49.9951789,9.4055625 C49.9985263,9.3976875 49.9996421,9.3909375 50.0024316,9.3830625 C49.9656105,9.5715 49.8372947,9.8398125 49.4685263,10.2121875 C49.0210947,10.6633125 48.2573368,11.1751875 47.2882737,11.6668125 C46.2879684,12.1753125 45.0667368,12.6624375 43.7316947,13.1175 C42.9199579,10.558125 41.5626,8.2456875 39.7963053,6.318 C43.4661368,6.52725 47.1337368,7.056 48.8888737,8.046 Z M0.113810526,28.0445625 C0.113810526,28.0299375 0.112694737,28.0040625 0.116042105,27.9883125 C0.118831579,27.7425 0.185778947,27.5304375 0.188010526,27.5175 C1.13531579,24.6571875 5.06456842,23.095125 10.9403158,21.7310625 C16.8266632,20.377125 24.7058105,19.2673125 33.6114842,17.5336875 C41.9140737,15.9226875 47.8550947,14.0146875 50.7488947,12.175875 C51.8875579,11.4485625 52.3824105,10.6425 52.5994316,10.031625 C52.6580105,9.7835625 52.6931579,9.5259375 52.6931579,9.2570625 C52.6931579,9.0736875 52.6786526,8.8914375 52.6507579,8.713125 C52.4041684,7.2556875 51.3352421,6.285375 50.1575263,5.655375 C48.9524737,5.0085 47.4919053,4.59 45.8706632,4.276125 C42.9930421,3.7276875 39.5681263,3.540375 36.5315053,3.506625 C33.6639263,1.578375 30.2206,0.4528125 26.5150632,0.4528125 C16.5365579,0.4528125 8.44485263,8.6101875 8.44485263,18.675 C8.44485263,19.4270625 8.49562105,20.167875 8.58321053,20.896875 C8.53244211,20.9131875 8.47888421,20.928375 8.42811579,20.94525 C5.50474737,21.909375 2.94010526,23.0956875 1.34508421,24.679125 C0.578536842,25.46325 0,26.48025 0,27.66375 C0,27.8038125 0.00669473684,27.9315 0.0217578947,28.0726875 C0.0546736842,28.369125 0.128873684,28.645875 0.228178947,28.9085625 C0.189126316,28.751625 0.157326316,28.5901875 0.138915789,28.4225625 C0.124968421,28.296 0.113810526,28.1750625 0.113810526,28.0445625 Z" id="Fill-2"></path>
            <path d="M18.5433053,43.7270625 C17.8169263,43.55775 17.0877579,43.47225 16.3329263,43.47225 C13.9529474,43.47225 12.3305895,44.9398125 12.3305895,48.722625 C12.3305895,51.5446875 13.1986737,53.0971875 15.0743158,53.0971875 C17.3125895,53.0971875 18.5433053,50.4714375 18.5433053,48.018375 L18.5433053,43.7270625 Z M14.0639684,62.4375 C12.5241789,62.4375 11.0982,62.2389375 9.95005263,61.9014375 L10.1748842,59.023125 C11.3788211,59.5035 12.9437158,59.8404375 14.2893579,59.8404375 C17.0593053,59.8404375 18.5712,58.825125 18.5712,55.918125 L18.5712,54.986625 C18.5712,54.1681875 18.6007684,53.4628125 18.7408,52.7293125 L18.6838947,52.700625 C17.9279474,54.478125 16.3039158,55.5778125 14.3451474,55.5778125 C11.0424105,55.5778125 9.16676842,53.3210625 9.16676842,49.0055625 C9.16676842,44.1793125 11.9093789,41.07375 16.6397684,41.07375 C18.4339579,41.07375 20.0552,41.2155 21.5096316,41.4703125 L21.5096316,56.116125 C21.5096316,59.0506875 20.1662211,62.4375 14.0639684,62.4375 Z" id="Fill-3"></path>
            <path d="M30.2992632,43.2478125 C28.6211158,43.2478125 27.4434,44.490375 27.1940211,46.3798125 L33.0971053,46.3798125 C33.1545684,44.4605625 32.0627684,43.2478125 30.2992632,43.2478125 Z M36.0087579,48.4970625 L27.1354421,48.4970625 C27.0523158,51.7426875 28.4788526,53.209125 31.2510316,53.209125 C32.6775684,53.209125 34.1632421,52.871625 35.3113895,52.3074375 L35.5903368,54.705375 C34.1905789,55.2976875 32.4850947,55.60875 30.7723579,55.60875 C26.4380737,55.60875 24.0564211,53.350875 24.0564211,48.4126875 C24.0564211,44.1793125 26.3516,41.0175 30.4119579,41.0175 C34.3869579,41.0175 36.0946737,43.754625 36.0946737,47.0840625 C36.0946737,47.480625 36.0651053,47.959875 36.0087579,48.4970625 Z" id="Fill-4"></path>
            <path d="M47.6525789,37.2628125 C47.0366632,37.0670625 46.3666316,36.981 45.7507158,36.981 C43.9587579,36.981 43.1464632,37.96875 43.1464632,40.1715 L43.1464632,41.299875 L46.7599474,41.299875 L46.7599474,43.642125 L43.1464632,43.642125 L43.1464632,55.326375 L40.1818105,55.326375 L40.1818105,43.642125 L37.5228842,43.642125 L37.5228842,41.299875 L40.1818105,41.299875 L40.1818105,40.22775 C40.1818105,36.38925 41.9994316,34.5268125 45.6090105,34.5268125 C46.3939684,34.5268125 47.1510316,34.612875 47.8768526,34.7805 L47.6525789,37.2628125" id="Fill-5"></path>
        </g>
    </g>
</svg>