<?xml version="1.0" encoding="UTF-8"?>
<svg width="63px" height="51px" viewBox="0 0 63 51" version="1.1" xmlns="http://www.w3.org/2000/svg" xmlns:xlink="http://www.w3.org/1999/xlink">
    <!-- Generator: Sketch 52.5 (67469) - http://www.bohemiancoding.com/sketch -->
    <title>Group</title>
    <desc>Created with Sketch.</desc>
    <g id="Page-1" stroke="none" stroke-width="1" fill="none" fill-rule="evenodd">
        <g id="Group" transform="translate(-0.234000, 0.000000)">
            <path d="M36.446375,2.58165517 C36.5995,2.5755 36.75175,2.56934483 36.92675,2.56934483 C37.183125,2.56934483 37.56725,2.58165517 37.919875,2.63705172 C37.90675,2.5755 37.895375,2.52713793 37.895375,2.44008621 C37.895375,2.34775862 37.90675,2.29236207 37.919875,2.22465517 C37.529625,2.27389655 36.946875,2.28093103 36.446375,2.27389655 C36.441125,1.94767241 36.441125,1.87468966 36.441125,1.47460345 C36.441125,1.11144828 36.441125,1.00681034 36.4525,0.760603448 C36.593375,0.755327586 36.721125,0.755327586 36.84275,0.755327586 C37.3415,0.755327586 37.786,0.804568966 38.047625,0.8415 C38.035375,0.779948276 38.023125,0.723672414 38.023125,0.632224138 C38.023125,0.539017241 38.035375,0.4845 38.047625,0.416793103 C37.821875,0.441413793 37.608375,0.454603448 36.79375,0.454603448 C36.337,0.454603448 36.155875,0.454603448 35.81375,0.416793103 C35.844375,1.00681034 35.863625,1.98460345 35.863625,2.58165517 C35.863625,3.38094828 35.839125,4.03867241 35.79625,4.6665 C35.89425,4.64803448 35.966,4.62956897 36.1305,4.62956897 C36.301125,4.62956897 36.393,4.64803448 36.48925,4.6665 C36.4595,4.29718966 36.435875,4.03867241 36.441125,3.43018966 L36.446375,2.58165517" id="Fill-1" fill="#193E7D"></path>
            <path d="M32.837,4.49503448 C31.899875,4.49503448 31.2305,3.76256897 31.2305,2.56318966 C31.2305,1.173 32.046875,0.619913793 32.855375,0.619913793 C33.26925,0.619913793 33.882625,0.785224138 34.2125,1.34622414 C34.425125,1.70937931 34.48025,2.20618966 34.48025,2.52625862 C34.48025,3.78631034 33.79775,4.49503448 32.837,4.49503448 M32.885125,0.355241379 C31.395,0.355241379 30.536625,1.25917241 30.536625,2.56846552 C30.536625,3.93403448 31.49825,4.7597069 32.82475,4.7597069 C34.27375,4.7597069 35.172375,3.78103448 35.172375,2.49548276 C35.172375,1.11144828 34.157375,0.355241379 32.885125,0.355241379" id="Fill-2" fill="#193E7D"></path>
            <path d="M26.599125,4.31653448 C26.599125,2.40403448 26.599125,1.98460345 26.653375,0.410637931 C26.544,0.429982759 26.427625,0.446689655 26.270125,0.446689655 C26.11875,0.446689655 26.039125,0.429982759 25.942,0.410637931 C25.95425,0.674431034 25.990125,1.58451724 25.990125,2.42162069 C25.990125,3.22706897 25.984,3.87951724 25.935,4.66562069 C26.264,4.64803448 26.415375,4.62956897 26.95175,4.62956897 C27.615,4.62956897 27.8705,4.65418966 28.266,4.66562069 C28.252875,4.61725862 28.24325,4.55482759 28.24325,4.45810345 C28.24325,4.37105172 28.252875,4.31037931 28.266,4.25498276 C27.986875,4.30334483 27.475,4.32796552 27.16525,4.32796552 C27.012125,4.32796552 26.8905,4.32796552 26.599125,4.31653448" id="Fill-3" fill="#193E7D"></path>
            <path d="M24.168375,2.47701724 C24.168375,3.68255172 24.15,3.99558621 24.107125,4.6665 C24.20425,4.64891379 24.296125,4.62956897 24.43,4.62956897 C24.563,4.62956897 24.691625,4.64891379 24.807125,4.6665 C24.78875,4.20486207 24.76425,3.71332759 24.76425,2.60627586 C24.76425,1.87468966 24.7765,1.14310345 24.81325,0.410637931 C24.71,0.436137931 24.63125,0.447568966 24.460625,0.447568966 C24.296125,0.447568966 24.2235,0.436137931 24.1255,0.410637931 C24.168375,1.53615517 24.168375,1.59155172 24.168375,2.47701724" id="Fill-4" fill="#193E7D"></path>
            <path d="M22.9775,3.81093103 C22.502375,4.38424138 21.868875,4.44491379 21.59675,4.44491379 C20.733125,4.44491379 19.947375,3.81093103 19.947375,2.53241379 C19.947375,1.34622414 20.586125,0.632224138 21.546875,0.632224138 C22.169,0.632224138 22.7045,0.957568966 22.868125,1.3092931 L22.929375,1.3092931 C22.959125,1.02527586 22.9845,0.946137931 23.07375,0.693775862 C22.801625,0.570672414 22.308125,0.367551724 21.57225,0.367551724 C19.971,0.367551724 19.24125,1.35237931 19.24125,2.53768966 C19.24125,3.80653448 20.06375,4.73948276 21.475125,4.73948276 C22.010625,4.73948276 22.533,4.61198276 22.9845,4.34027586 C22.995875,4.11253448 23.02125,3.98415517 23.051,3.84346552 L22.9775,3.81093103" id="Fill-5" fill="#193E7D"></path>
            <path d="M15.122625,1.4877931 L16.309125,2.73553448 C16.41325,2.8392931 16.5165,2.94393103 16.61975,3.04241379 C17.045875,3.44162069 17.9585,4.46953448 18.1475,4.70255172 C18.1895,4.69727586 18.214875,4.69024138 18.2455,4.69024138 C18.281375,4.69024138 18.311125,4.69727586 18.360125,4.70255172 C18.335625,4.26641379 18.335625,3.5277931 18.335625,3.04856897 C18.335625,2.16310345 18.335625,1.27236207 18.43975,0.386896552 C18.360125,0.404482759 18.27525,0.423827586 18.179,0.423827586 C18.080125,0.423827586 18.006625,0.404482759 17.940125,0.386896552 C18.018875,1.27851724 18.018875,1.8192931 18.018875,3.38710345 L18.018875,3.61572414 C17.24625,2.82082759 17.112375,2.67310345 15.89525,1.377 C15.52425,0.983068966 15.37725,0.81687931 15.213625,0.626068966 L15.01325,0.386896552 C14.958125,0.393051724 14.92225,0.398327586 14.8855,0.398327586 C14.854875,0.398327586 14.826,0.393051724 14.788375,0.386896552 L14.788375,1.12375862 C14.788375,1.34622414 14.80675,2.41546552 14.80675,2.66255172 C14.80675,3.30093103 14.756875,4.35874138 14.727125,4.66562069 C14.79975,4.64803448 14.854875,4.62956897 14.96425,4.62956897 C15.073625,4.62956897 15.147125,4.64803448 15.220625,4.66562069 C15.1655,3.71244828 15.141,3.36336207 15.122625,1.87468966 L15.122625,1.4877931" id="Fill-6" fill="#193E7D"></path>
            <path d="M10.320625,2.95712069 C10.320625,3.4847069 10.35125,3.82412069 10.577,4.13187931 C10.954125,4.64187931 11.592,4.75267241 12.060125,4.75267241 C12.754,4.75267241 13.14425,4.53724138 13.400625,4.2672931 C13.8075,3.84258621 13.838125,3.1787069 13.838125,2.58165517 C13.838125,1.67244828 13.86175,0.970758621 13.941375,0.410637931 C13.86875,0.429982759 13.8075,0.446689655 13.673625,0.446689655 C13.533625,0.446689655 13.467125,0.429982759 13.386625,0.410637931 C13.447875,0.809844828 13.47325,2.02065517 13.47325,2.25631034 C13.47325,2.40931034 13.467125,3.10484483 13.369125,3.52163793 C13.167875,4.38336207 12.341,4.4202931 12.1695,4.4202931 C11.787125,4.4202931 11.3925,4.2672931 11.197375,4.02108621 C10.954125,3.71948276 10.92875,3.2895 10.92875,2.51394828 C10.92875,2.38381034 10.92875,1.21608621 10.983875,0.410637931 C10.880625,0.429982759 10.765125,0.446689655 10.63125,0.446689655 C10.521875,0.446689655 10.399375,0.429982759 10.271625,0.410637931 C10.320625,1.17915517 10.320625,1.30313793 10.320625,2.95712069" id="Fill-7" fill="#193E7D"></path>
            <path d="M61.09425,2.26862069 C61.089875,1.94239655 61.089875,1.86853448 61.089875,1.46844828 C61.089875,1.1052931 61.089875,1.00153448 61.10125,0.760603448 C61.362,0.749172414 61.47225,0.749172414 61.691,0.749172414 C62.22125,0.749172414 62.433,0.785224138 62.65875,0.828310345 C62.645625,0.766758621 62.63425,0.717517241 62.63425,0.632224138 C62.63425,0.552206897 62.645625,0.4845 62.65875,0.416793103 C62.349,0.447568966 62.04275,0.453724138 61.733875,0.453724138 C61.308625,0.453724138 60.88775,0.453724138 60.4625,0.416793103 C60.498375,1.01912069 60.510625,1.85006897 60.510625,2.4647069 C60.510625,3.80653448 60.48,4.20486207 60.44325,4.6665 C60.91225,4.64891379 61.3865,4.62956897 61.8555,4.62956897 C62.1355,4.62956897 62.421625,4.62956897 62.70075,4.6665 C62.689375,4.60494828 62.677125,4.5557069 62.677125,4.46953448 C62.677125,4.38336207 62.689375,4.32796552 62.70075,4.26025862 C61.98325,4.33412069 61.4915,4.33412069 61.10125,4.33412069 C61.09425,4.16881034 61.082,3.70101724 61.082,3.38094828 C61.082,3.11715517 61.089875,2.84017241 61.09425,2.5755 C61.2465,2.56934483 61.424125,2.56318966 61.588625,2.56318966 C61.85025,2.56318966 62.216,2.58165517 62.531,2.62474138 C62.524875,2.55703448 62.5065,2.50163793 62.5065,2.43393103 C62.5065,2.34775862 62.517875,2.29236207 62.531,2.22465517 C62.055875,2.28093103 61.5755,2.27389655 61.09425,2.26862069" id="Fill-8" fill="#193E7D"></path>
            <path d="M57.784125,2.51394828 C57.778875,1.86765517 57.778875,1.2407069 57.784125,0.712241379 C57.899625,0.692896552 58.039625,0.68762069 58.1385,0.68762069 C58.447375,0.68762069 58.79475,0.761482759 59.00125,0.958448276 C59.1535,1.1052931 59.20775,1.31984483 59.20775,1.56077586 C59.20775,2.50163793 58.393125,2.53153448 57.784125,2.51394828 M59.30575,0.570672414 C59.0135,0.429103448 58.62325,0.429103448 58.16125,0.429103448 C57.687,0.429103448 57.3895,0.429103448 57.152375,0.410637931 C57.183,0.853810345 57.199625,1.14837931 57.199625,2.07165517 C57.199625,2.93777586 57.194375,3.80565517 57.152375,4.6665 C57.23725,4.64803448 57.309875,4.62956897 57.47525,4.62956897 C57.65025,4.62956897 57.72375,4.64803448 57.827,4.6665 C57.796375,4.06944828 57.778875,3.621 57.784125,2.77246552 C57.882125,2.77862069 57.97925,2.78389655 58.07725,2.78389655 C58.447375,2.78389655 58.965375,2.73553448 59.287375,2.52625862 C59.53675,2.36622414 59.871,2.05846552 59.871,1.49922414 C59.871,1.08682759 59.67675,0.749172414 59.30575,0.570672414" id="Fill-9" fill="#193E7D"></path>
            <path d="M54.1275,4.49503448 C53.190375,4.49503448 52.521,3.76256897 52.521,2.56318966 C52.521,1.173 53.335625,0.619913793 54.145,0.619913793 C54.55975,0.619913793 55.173125,0.785224138 55.503,1.34622414 C55.715625,1.70937931 55.769875,2.20618966 55.769875,2.52625862 C55.769875,3.78631034 55.08825,4.49503448 54.1275,4.49503448 M54.1765,0.355241379 C52.6855,0.355241379 51.827125,1.25917241 51.827125,2.56846552 C51.827125,3.93403448 52.787,4.7597069 54.11525,4.7597069 C55.5625,4.7597069 56.46375,3.78103448 56.46375,2.49548276 C56.46375,1.11144828 55.446125,0.355241379 54.1765,0.355241379" id="Fill-10" fill="#193E7D"></path>
            <path d="M49.21,2.39084483 C49.21,2.26158621 49.203875,1.83072414 49.203875,1.54846552 C49.203875,1.27148276 49.203875,0.987465517 49.2135,0.712241379 C49.294,0.698172414 49.422625,0.681465517 49.60025,0.681465517 C50.04475,0.681465517 50.645875,0.772913793 50.645875,1.49306897 C50.645875,2.34687931 49.80675,2.38381034 49.532,2.397 C49.385,2.40403448 49.3255,2.40403448 49.21,2.39084483 M50.085,2.52625862 C50.45775,2.45767241 51.2785,2.30467241 51.2785,1.42536207 C51.2785,1.12991379 51.19975,0.877551724 50.96875,0.68762069 C50.7675,0.521431034 50.540875,0.429103448 49.81725,0.429103448 C49.721,0.429103448 49.221375,0.435258621 49.112,0.435258621 C48.985125,0.435258621 48.811875,0.435258621 48.58175,0.410637931 C48.601875,1.09913793 48.619375,1.73927586 48.619375,2.30994828 C48.619375,3.20948276 48.608,3.94106897 48.575625,4.6665 C48.666625,4.64803448 48.734,4.62956897 48.8985,4.62956897 C49.00875,4.62956897 49.14875,4.64187931 49.252875,4.6665 C49.203875,3.68255172 49.21,3.04241379 49.21,2.60627586 L49.368375,2.60627586 C49.8365,3.16551724 50.281,3.74410345 50.8585,4.6665 C51.029125,4.64803448 51.170875,4.62956897 51.296875,4.62956897 C51.43075,4.62956897 51.527875,4.64803448 51.655625,4.6665 L51.655625,4.59263793 C51.582125,4.488 50.31075,2.87710345 50.085,2.52625862" id="Fill-11" fill="#193E7D"></path>
            <path d="M44.17875,2.95712069 C44.17875,3.4847069 44.21025,3.82412069 44.435125,4.13187931 C44.81225,4.64187931 45.45275,4.75267241 45.920875,4.75267241 C46.61475,4.75267241 47.004125,4.53724138 47.259625,4.2672931 C47.667375,3.84258621 47.697125,3.1787069 47.697125,2.58165517 C47.697125,1.67244828 47.721625,0.970758621 47.800375,0.410637931 C47.72775,0.429982759 47.667375,0.446689655 47.5335,0.446689655 C47.392625,0.446689655 47.327,0.429982759 47.247375,0.410637931 C47.306875,0.809844828 47.33225,2.02065517 47.33225,2.25631034 C47.33225,2.40931034 47.327,3.10484483 47.228125,3.52163793 C47.026875,4.38336207 46.200875,4.4202931 46.03025,4.4202931 C45.647,4.4202931 45.2515,4.2672931 45.0555,4.02108621 C44.81225,3.71948276 44.7895,3.2895 44.7895,2.51394828 C44.7895,2.38381034 44.7895,1.21608621 44.84375,0.410637931 C44.739625,0.429982759 44.624125,0.446689655 44.489375,0.446689655 C44.38,0.446689655 44.258375,0.429982759 44.1315,0.410637931 C44.17875,1.17915517 44.17875,1.30313793 44.17875,2.95712069" id="Fill-12" fill="#193E7D"></path>
            <path d="M41.76375,2.26862069 C41.757625,1.94239655 41.757625,1.86853448 41.757625,1.46844828 C41.757625,1.1052931 41.757625,1.00153448 41.769875,0.760603448 C42.030625,0.749172414 42.14,0.749172414 42.35875,0.749172414 C42.889875,0.749172414 43.1025,0.785224138 43.327375,0.828310345 C43.31425,0.766758621 43.30375,0.717517241 43.30375,0.632224138 C43.30375,0.552206897 43.31425,0.4845 43.327375,0.416793103 C43.01675,0.447568966 42.71225,0.453724138 42.401625,0.453724138 C41.97725,0.453724138 41.5555,0.453724138 41.13025,0.416793103 C41.167875,1.01912069 41.178375,1.85006897 41.178375,2.4647069 C41.178375,3.80653448 41.148625,4.20486207 41.111875,4.6665 C41.58,4.64891379 42.056,4.62956897 42.524125,4.62956897 C42.80325,4.62956897 43.09025,4.62956897 43.37025,4.6665 C43.357125,4.60494828 43.344875,4.5557069 43.344875,4.46953448 C43.344875,4.38336207 43.357125,4.32796552 43.37025,4.26025862 C42.651,4.33412069 42.15925,4.33412069 41.769875,4.33412069 C41.76375,4.16881034 41.750625,3.70101724 41.750625,3.38094828 C41.750625,3.11715517 41.757625,2.84017241 41.76375,2.5755 C41.915125,2.56934483 42.091875,2.56318966 42.256375,2.56318966 C42.518,2.56318966 42.882875,2.58165517 43.199625,2.62474138 C43.1935,2.55703448 43.176,2.50163793 43.176,2.43393103 C43.176,2.34775862 43.18825,2.29236207 43.199625,2.22465517 C42.7245,2.28093103 42.244125,2.27389655 41.76375,2.26862069" id="Fill-13" fill="#193E7D"></path>
            <path d="M4.430125,3.81093103 C3.955,4.38424138 3.322375,4.44491379 3.049375,4.44491379 C2.184,4.44491379 1.4,3.81093103 1.4,2.53241379 C1.4,1.34622414 2.03875,0.632224138 3.00125,0.632224138 C3.621625,0.632224138 4.15625,0.957568966 4.32075,1.3092931 L4.382,1.3092931 C4.41175,1.02527586 4.437125,0.946137931 4.52725,0.693775862 C4.25425,0.570672414 3.761625,0.367551724 3.024,0.367551724 C1.423625,0.367551724 0.693,1.35237931 0.693,2.53768966 C0.693,3.80653448 1.514625,4.73948276 2.92775,4.73948276 C3.462375,4.73948276 3.985625,4.61198276 4.437125,4.34027586 C4.4485,4.11253448 4.473,3.98415517 4.503625,3.84346552 L4.430125,3.81093103" id="Fill-14" fill="#193E7D"></path>
            <path d="M7.22925,4.49503448 C6.293,4.49503448 5.62275,3.76256897 5.62275,2.56318966 C5.62275,1.173 6.439125,0.619913793 7.247625,0.619913793 C7.6615,0.619913793 8.27575,0.785224138 8.60475,1.34622414 C8.817375,1.70937931 8.873375,2.20618966 8.873375,2.52625862 C8.873375,3.78631034 8.19175,4.49503448 7.22925,4.49503448 M7.27825,0.355241379 C5.78725,0.355241379 4.928875,1.25917241 4.928875,2.56846552 C4.928875,3.93403448 5.891375,4.7597069 7.217,4.7597069 C8.666,4.7597069 9.56725,3.78103448 9.56725,2.49548276 C9.56725,1.11144828 8.5505,0.355241379 7.27825,0.355241379" id="Fill-15" fill="#193E7D"></path>
            <path d="M39.298,47.0448621 C39.330375,47.0501379 39.360125,47.0554138 39.402125,47.084431 L39.9805,46.1083966 C40.0225,46.0362931 40.05225,45.9747414 40.05225,45.9079138 C40.05225,45.8199828 39.990125,45.7047931 39.846625,45.7047931 C39.67425,45.7047931 39.631375,45.8648276 39.60775,45.9457241 L39.298,47.0448621" id="Fill-16" fill="#193E7D"></path>
            <path d="M61.095125,47.7166552 C61.089875,47.3895517 61.089875,47.3156897 61.089875,46.9173621 C61.089875,46.5533276 61.089875,46.4504483 61.10125,46.2121552 C61.362875,46.1963276 61.473125,46.1963276 61.691,46.1963276 C62.22125,46.1963276 62.43475,46.2341379 62.65875,46.2789828 C62.6465,46.217431 62.635125,46.1673103 62.635125,46.0811379 C62.635125,46.0002414 62.6465,45.9334138 62.65875,45.8665862 C62.348125,45.8973621 62.0445,45.9026379 61.733875,45.9026379 C61.308625,45.9026379 60.888625,45.9026379 60.4625,45.8665862 C60.500125,46.4697931 60.5115,47.2989828 60.5115,47.9136207 C60.5115,49.2536897 60.480875,49.6537759 60.444125,50.1136552 C60.913125,50.0951897 61.387375,50.0758448 61.8555,50.0758448 C62.1355,50.0758448 62.421625,50.0758448 62.70075,50.1136552 C62.689375,50.0521034 62.67625,50.0019828 62.67625,49.9158103 C62.67625,49.8305172 62.689375,49.7751207 62.70075,49.7082931 C61.98325,49.7821552 61.48975,49.7821552 61.10125,49.7821552 C61.095125,49.6159655 61.084625,49.1481724 61.084625,48.8289828 C61.084625,48.5643103 61.089875,48.2864483 61.095125,48.0235345 C61.247375,48.0182586 61.424125,48.0112241 61.588625,48.0112241 C61.85025,48.0112241 62.216,48.0288103 62.531,48.0718966 C62.524,48.005069 62.5065,47.9496724 62.5065,47.8810862 C62.5065,47.7966724 62.51875,47.7403966 62.531,47.673569 C62.055875,47.7280862 61.5755,47.7210517 61.095125,47.7166552" id="Fill-17" fill="#193E7D"></path>
            <path d="M57.78675,47.9619828 C57.780625,47.3156897 57.780625,46.6896207 57.78675,46.1602759 C57.903125,46.1426897 58.043125,46.1365345 58.14025,46.1365345 C58.45,46.1365345 58.797375,46.2103966 59.003,46.4073621 C59.15525,46.5550862 59.210375,46.7696379 59.210375,47.0088103 C59.210375,47.9496724 58.394875,47.9804483 57.78675,47.9619828 M59.3075,46.0195862 C59.01525,45.8771379 58.62675,45.8771379 58.163875,45.8771379 C57.689625,45.8771379 57.392125,45.8771379 57.155875,45.8595517 C57.18475,46.3027241 57.203125,46.5964138 57.203125,47.520569 C57.203125,48.3858103 57.196125,49.2536897 57.155875,50.1136552 C57.239875,50.0951897 57.3125,50.0758448 57.477,50.0758448 C57.65375,50.0758448 57.72725,50.0951897 57.829625,50.1136552 C57.799875,49.5157241 57.780625,49.0681552 57.78675,48.2196207 C57.885625,48.2266552 57.981875,48.231931 58.079,48.231931 C58.45,48.231931 58.967125,48.183569 59.29,47.9742931 C59.5385,47.8142586 59.87275,47.5065 59.87275,46.9472586 C59.87275,46.5366207 59.677625,46.1980862 59.3075,46.0195862" id="Fill-18" fill="#193E7D"></path>
            <path d="M54.131875,49.9421897 C53.195625,49.9421897 52.527125,49.2106034 52.527125,48.0112241 C52.527125,46.6219138 53.340875,46.0697069 54.151125,46.0697069 C54.564125,46.0697069 55.178375,46.2341379 55.507375,46.7942586 C55.72,47.1582931 55.773375,47.6542241 55.773375,47.9742931 C55.773375,49.2343448 55.092625,49.9421897 54.131875,49.9421897 M54.18175,45.8050345 C52.689875,45.8050345 51.83325,46.7080862 51.83325,48.0165 C51.83325,49.382069 52.794,50.2068621 54.121375,50.2068621 C55.566,50.2068621 56.46725,49.2273103 56.46725,47.9443966 C56.46725,46.5603621 55.451375,45.8050345 54.18175,45.8050345" id="Fill-19" fill="#193E7D"></path>
            <path d="M49.217,47.8397586 C49.217,47.7113793 49.21,47.2796379 49.21,46.9965 C49.21,46.7203966 49.21,46.4363793 49.223125,46.1602759 C49.30275,46.1479655 49.4305,46.1312586 49.6055,46.1312586 C50.049125,46.1312586 50.652875,46.2218276 50.652875,46.9419828 C50.652875,47.7966724 49.812875,47.8327241 49.538125,47.8450345 C49.392875,47.8503103 49.3325,47.8503103 49.217,47.8397586 M50.092,47.9742931 C50.46475,47.9065862 51.2855,47.7544655 51.2855,46.8751552 C51.2855,46.5797069 51.205875,46.3264655 50.97575,46.1365345 C50.7745,45.9694655 50.549625,45.8788966 49.826,45.8788966 C49.72625,45.8788966 49.230125,45.8841724 49.119875,45.8841724 C48.993,45.8841724 48.8215,45.8841724 48.591375,45.8595517 C48.60975,46.5480517 48.62725,47.1873103 48.62725,47.7588621 C48.62725,48.6557586 48.614125,49.3873448 48.58525,50.1118966 C48.67625,50.0951897 48.741875,50.0758448 48.90725,50.0758448 C49.01575,50.0758448 49.156625,50.0881552 49.259875,50.1118966 C49.21,49.1297069 49.217,48.4904483 49.217,48.0543103 L49.375375,48.0543103 C49.842625,48.6126724 50.287125,49.1912586 50.866375,50.1118966 C51.03525,50.0951897 51.176125,50.0758448 51.303,50.0758448 C51.436875,50.0758448 51.534875,50.0951897 51.662625,50.1118966 L51.662625,50.0397931 C51.589125,49.9351552 50.318625,48.3242586 50.092,47.9742931" id="Fill-20" fill="#193E7D"></path>
            <path d="M44.190125,48.4051552 C44.190125,48.9336207 44.219875,49.2721552 44.4465,49.5781552 C44.823625,50.0881552 45.4615,50.1998276 45.92875,50.1998276 C46.6235,50.1998276 47.012875,49.9835172 47.26925,49.713569 C47.674375,49.2897414 47.70675,48.6249828 47.70675,48.0288103 C47.70675,47.1204828 47.7295,46.4179138 47.809125,45.8595517 C47.737375,45.8788966 47.674375,45.8956034 47.541375,45.8956034 C47.401375,45.8956034 47.33575,45.8788966 47.25525,45.8595517 C47.315625,46.2596379 47.341,47.4704483 47.341,47.7025862 C47.341,47.8591034 47.33575,48.5528793 47.236875,48.9696724 C47.037375,49.8305172 46.209625,49.8683276 46.038125,49.8683276 C45.65575,49.8683276 45.261125,49.713569 45.066,49.4682414 C44.823625,49.1675172 44.79825,48.7366552 44.79825,47.9637414 C44.79825,47.8327241 44.79825,46.665 44.8525,45.8595517 C44.750125,45.8788966 44.6355,45.8956034 44.50075,45.8956034 C44.391375,45.8956034 44.26975,45.8788966 44.141125,45.8595517 C44.190125,46.6271897 44.190125,46.752931 44.190125,48.4051552" id="Fill-21" fill="#193E7D"></path>
            <path d="M41.77425,47.7166552 C41.769875,47.3895517 41.769875,47.3156897 41.769875,46.9173621 C41.769875,46.5533276 41.769875,46.4504483 41.780375,46.2121552 C42.042875,46.1963276 42.15225,46.1963276 42.371875,46.1963276 C42.90125,46.1963276 43.11475,46.2341379 43.33875,46.2789828 C43.32475,46.217431 43.31425,46.1673103 43.31425,46.0811379 C43.31425,46.0002414 43.32475,45.9334138 43.33875,45.8665862 C43.028125,45.8973621 42.7245,45.9026379 42.413,45.9026379 C41.988625,45.9026379 41.568625,45.9026379 41.1425,45.8665862 C41.178375,46.4697931 41.18975,47.2989828 41.18975,47.9136207 C41.18975,49.2536897 41.160875,49.6537759 41.125,50.1136552 C41.591375,50.0951897 42.0665,50.0758448 42.5355,50.0758448 C42.814625,50.0758448 43.10075,50.0758448 43.38075,50.1136552 C43.367625,50.0521034 43.357125,50.0019828 43.357125,49.9158103 C43.357125,49.8305172 43.367625,49.7751207 43.38075,49.7082931 C42.66325,49.7821552 42.1715,49.7821552 41.780375,49.7821552 C41.77425,49.6159655 41.764625,49.1481724 41.764625,48.8289828 C41.764625,48.5643103 41.769875,48.2864483 41.77425,48.0235345 C41.927375,48.0182586 42.102375,48.0112241 42.26775,48.0112241 C42.5285,48.0112241 42.89425,48.0288103 43.210125,48.0718966 C43.204875,48.005069 43.1865,47.9496724 43.1865,47.8810862 C43.1865,47.7966724 43.197875,47.7403966 43.210125,47.673569 C42.735875,47.7280862 42.254625,47.7210517 41.77425,47.7166552" id="Fill-22" fill="#193E7D"></path>
            <path d="M38.063375,49.7636897 C38.063375,47.852069 38.063375,47.4343966 38.119375,45.8595517 C38.00825,45.8788966 37.893625,45.8973621 37.734375,45.8973621 C37.582125,45.8973621 37.50425,45.8788966 37.405375,45.8595517 C37.4185,46.1242241 37.454375,47.0343103 37.454375,47.8687759 C37.454375,48.6742241 37.44825,49.3275517 37.400125,50.1136552 C37.72825,50.0951897 37.881375,50.0758448 38.416875,50.0758448 C39.078375,50.0758448 39.33475,50.0995862 39.73025,50.1136552 C39.717125,50.0626552 39.70575,50.0037414 39.70575,49.9043793 C39.70575,49.8182069 39.717125,49.7566552 39.73025,49.7012586 C39.449375,49.7513793 38.93925,49.7751207 38.630375,49.7751207 C38.478125,49.7751207 38.355625,49.7751207 38.063375,49.7636897" id="Fill-23" fill="#193E7D"></path>
            <path d="M32.95775,47.7166552 C32.951625,47.3895517 32.951625,47.3156897 32.951625,46.9173621 C32.951625,46.5533276 32.951625,46.4504483 32.96475,46.2121552 C33.224625,46.1963276 33.33575,46.1963276 33.5545,46.1963276 C34.083,46.1963276 34.295625,46.2341379 34.5205,46.2789828 C34.50825,46.217431 34.496,46.1673103 34.496,46.0811379 C34.496,46.0002414 34.50825,45.9334138 34.5205,45.8665862 C34.21075,45.8973621 33.90625,45.9026379 33.597375,45.9026379 C33.17125,45.9026379 32.75125,45.9026379 32.326,45.8665862 C32.36275,46.4697931 32.374125,47.2989828 32.374125,47.9136207 C32.374125,49.2536897 32.342625,49.6537759 32.30675,50.1136552 C32.77575,50.0951897 33.25,50.0758448 33.718125,50.0758448 C33.999,50.0758448 34.28425,50.0758448 34.563375,50.1136552 C34.552,50.0521034 34.538875,50.0019828 34.538875,49.9158103 C34.538875,49.8305172 34.552,49.7751207 34.563375,49.7082931 C33.84675,49.7821552 33.35325,49.7821552 32.96475,49.7821552 C32.95775,49.6159655 32.9455,49.1481724 32.9455,48.8289828 C32.9455,48.5643103 32.951625,48.2864483 32.95775,48.0235345 C33.11,48.0182586 33.28675,48.0112241 33.450375,48.0112241 C33.712875,48.0112241 34.07775,48.0288103 34.393625,48.0718966 C34.386625,48.005069 34.36825,47.9496724 34.36825,47.8810862 C34.36825,47.7966724 34.3805,47.7403966 34.393625,47.673569 C33.92025,47.7280862 33.438125,47.7210517 32.95775,47.7166552" id="Fill-24" fill="#193E7D"></path>
            <path d="M30.3555,49.535069 C29.941625,49.8305172 29.357125,49.8305172 29.09725,49.8305172 C28.80325,49.8305172 28.651875,49.8182069 28.4445,49.7944655 C28.427875,49.1859828 28.427875,49.0576034 28.427875,47.9312069 C28.427875,47.3658103 28.43225,46.7388621 28.4585,46.1725862 C28.651875,46.155 28.700875,46.1479655 28.991375,46.1479655 C29.479625,46.1479655 29.995875,46.1479655 30.422,46.4741897 C30.933,46.8610862 31.037125,47.4827586 31.037125,47.9426379 C31.037125,48.435931 30.92075,49.1314655 30.3555,49.535069 M31.042375,46.322069 C30.47625,45.8665862 29.892625,45.8665862 28.80325,45.8665862 C28.469,45.8665862 28.140875,45.8595517 27.806625,45.8481207 C27.843375,46.5058448 27.85475,46.7388621 27.85475,47.6542241 C27.85475,49.0681552 27.825875,49.4919828 27.783,50.1118966 C28.1295,50.0951897 28.270375,50.0881552 28.43225,50.0881552 C28.5915,50.0881552 29.339625,50.1118966 29.4,50.1118966 C30.61625,50.1118966 31.710875,49.4251552 31.710875,47.8687759 C31.710875,47.3350345 31.570875,46.7441379 31.042375,46.322069" id="Fill-25" fill="#193E7D"></path>
            <path d="M23.779,49.7636897 C23.779,47.852069 23.779,47.4343966 23.834125,45.8595517 C23.72475,45.8788966 23.608375,45.8973621 23.450875,45.8973621 C23.298625,45.8973621 23.218125,45.8788966 23.121875,45.8595517 C23.134125,46.1242241 23.170875,47.0343103 23.170875,47.8687759 C23.170875,48.6742241 23.16475,49.3275517 23.114,50.1136552 C23.443875,50.0951897 23.596125,50.0758448 24.13075,50.0758448 C24.794875,50.0758448 25.050375,50.0995862 25.445,50.1136552 C25.43275,50.0626552 25.4205,50.0037414 25.4205,49.9043793 C25.4205,49.8182069 25.43275,49.7566552 25.445,49.7012586 C25.165875,49.7513793 24.654875,49.7751207 24.34425,49.7751207 C24.192,49.7751207 24.070375,49.7751207 23.779,49.7636897" id="Fill-26" fill="#193E7D"></path>
            <path d="M21.37975,47.9241724 C21.37975,49.1297069 21.361375,49.4436207 21.3185,50.1136552 C21.417375,50.0951897 21.506625,50.0758448 21.641375,50.0758448 C21.77525,50.0758448 21.902125,50.0951897 22.017625,50.1136552 C22.000125,49.6520172 21.975625,49.1604828 21.975625,48.0543103 C21.975625,47.3227241 21.987,46.5911379 22.024625,45.8595517 C21.9205,45.8841724 21.84175,45.8973621 21.672,45.8973621 C21.506625,45.8973621 21.434,45.8841724 21.336875,45.8595517 C21.37975,46.985069 21.37975,47.0413448 21.37975,47.9241724" id="Fill-27" fill="#193E7D"></path>
            <path d="M18.68475,47.7166552 C18.6795,47.3895517 18.6795,47.3156897 18.6795,46.9173621 C18.6795,46.5533276 18.6795,46.4504483 18.69175,46.2121552 C18.9525,46.1963276 19.061875,46.1963276 19.280625,46.1963276 C19.810875,46.1963276 20.022625,46.2341379 20.248375,46.2789828 C20.23525,46.217431 20.22475,46.1673103 20.22475,46.0811379 C20.22475,46.0002414 20.23525,45.9334138 20.248375,45.8665862 C19.93775,45.8973621 19.63325,45.9026379 19.3235,45.9026379 C18.89825,45.9026379 18.47825,45.9026379 18.052125,45.8665862 C18.08975,46.4697931 18.102,47.2989828 18.102,47.9136207 C18.102,49.2536897 18.071375,49.6537759 18.034625,50.1136552 C18.501875,50.0951897 18.977,50.0758448 19.445125,50.0758448 C19.72425,50.0758448 20.010375,50.0758448 20.29125,50.1136552 C20.279,50.0521034 20.265,50.0019828 20.265,49.9158103 C20.265,49.8305172 20.279,49.7751207 20.29125,49.7082931 C19.572875,49.7821552 19.081125,49.7821552 18.69175,49.7821552 C18.68475,49.6159655 18.6725,49.1481724 18.6725,48.8289828 C18.6725,48.5643103 18.6795,48.2864483 18.68475,48.0235345 C18.837,48.0182586 19.012875,48.0112241 19.177375,48.0112241 C19.439875,48.0112241 19.803875,48.0288103 20.11975,48.0718966 C20.1145,48.005069 20.096125,47.9496724 20.096125,47.8810862 C20.096125,47.7966724 20.108375,47.7403966 20.11975,47.673569 C19.6455,47.7280862 19.166,47.7210517 18.68475,47.7166552" id="Fill-28" fill="#193E7D"></path>
            <path d="M16.93825,46.6395 C16.95575,46.4319828 17.065125,46.1857759 17.114125,46.0934483 C16.968,45.9958448 16.554125,45.8103103 16.079875,45.8103103 C15.362375,45.8103103 14.72975,46.2103966 14.72975,47.0035345 C14.72975,47.2849138 14.82775,47.5926724 15.03425,47.7658966 C15.197875,47.9136207 15.276625,47.9426379 15.98975,48.2433621 C16.396625,48.410431 16.743125,48.5959655 16.743125,49.0936552 C16.743125,49.4867069 16.4815,49.9096552 15.84275,49.9096552 C15.362375,49.9096552 15.003625,49.6397069 14.82775,49.2721552 L14.749,49.2721552 C14.741125,49.3512931 14.72975,49.535069 14.639625,49.8489828 C14.954625,50.0881552 15.343125,50.1875172 15.74475,50.1875172 C16.828875,50.1875172 17.2725,49.455931 17.2725,48.8157931 C17.2725,48.5836552 17.21125,48.257431 16.93125,48.030569 C16.7195,47.8503103 16.603125,47.8089828 15.939875,47.5495862 C15.62925,47.4273621 15.229375,47.2611724 15.229375,46.7766724 C15.229375,46.5603621 15.343125,46.0697069 16.00725,46.0697069 C16.566375,46.0697069 16.772875,46.4073621 16.8525,46.6395 L16.93825,46.6395" id="Fill-29" fill="#193E7D"></path>
            <path d="M10.632125,46.9349483 L11.81775,48.183569 C11.920125,48.2882069 12.02425,48.3910862 12.1275,48.4904483 C12.553625,48.8914138 13.46625,49.9158103 13.654375,50.1497069 C13.69725,50.1426724 13.72175,50.1373966 13.750625,50.1373966 C13.78825,50.1373966 13.818875,50.1426724 13.867875,50.1497069 C13.843375,49.713569 13.843375,48.9767069 13.843375,48.4957241 C13.843375,47.6111379 13.843375,46.7203966 13.94575,45.8358103 C13.867875,45.8525172 13.78125,45.8736207 13.685,45.8736207 C13.587,45.8736207 13.514375,45.8525172 13.447875,45.8358103 C13.526625,46.727431 13.526625,47.2682069 13.526625,48.8342586 L13.526625,49.0628793 C12.754,48.2688621 12.61925,48.1211379 11.403875,46.8250345 C11.032875,46.4319828 10.88675,46.2649138 10.72225,46.0741034 L10.52275,45.8358103 C10.467625,45.8410862 10.43175,45.8481207 10.394125,45.8481207 C10.364375,45.8481207 10.33375,45.8410862 10.297,45.8358103 L10.297,46.5726724 C10.297,46.7942586 10.315375,47.8643793 10.315375,48.1097069 C10.315375,48.7480862 10.26725,49.8058966 10.236625,50.1118966 C10.308375,50.0951897 10.364375,50.0758448 10.47375,50.0758448 C10.583125,50.0758448 10.656625,50.0951897 10.72925,50.1118966 C10.674125,49.1604828 10.64875,48.8105172 10.632125,47.3227241 L10.632125,46.9349483" id="Fill-30" fill="#193E7D"></path>
            <path d="M4.428375,49.2580862 C3.95325,49.8305172 3.3215,49.892069 3.047625,49.892069 C2.184,49.892069 1.4,49.2580862 1.4,47.9786897 C1.4,46.7942586 2.037875,46.0811379 2.998625,46.0811379 C3.619,46.0811379 4.1545,46.4056034 4.319,46.7582069 L4.379375,46.7582069 C4.41,46.4741897 4.435375,46.395931 4.5255,46.1426897 C4.2525,46.0195862 3.759,45.8164655 3.023125,45.8164655 C1.423625,45.8164655 0.693875,46.7995345 0.693875,47.9857241 C0.693875,49.2536897 1.514625,50.1875172 2.926,50.1875172 C3.4615,50.1875172 3.983875,50.0573793 4.435375,49.7891897 C4.44675,49.560569 4.47125,49.430431 4.501875,49.2897414 L4.428375,49.2580862" id="Fill-31" fill="#193E7D"></path>
            <path d="M7.22575,49.9421897 C6.2895,49.9421897 5.61925,49.2106034 5.61925,48.0112241 C5.61925,46.6219138 6.435625,46.0697069 7.244125,46.0697069 C7.658,46.0697069 8.271375,46.2341379 8.600375,46.7942586 C8.813,47.1582931 8.868125,47.6542241 8.868125,47.9742931 C8.868125,49.2343448 8.187375,49.9421897 7.22575,49.9421897 M7.27475,45.8050345 C5.784625,45.8050345 4.927125,46.7080862 4.927125,48.0165 C4.927125,49.382069 5.887875,50.2068621 7.2135,50.2068621 C8.661625,50.2068621 9.562,49.2273103 9.562,47.9443966 C9.562,46.5603621 8.54525,45.8050345 7.27475,45.8050345" id="Fill-32" fill="#193E7D"></path>
            <polygon id="Fill-33" fill="#193E7D" points="0.991375 43.3025172 62.526625 43.3025172 62.526625 7.23848276 0.991375 7.23848276"></polygon>
            <path d="M39.68825,20.9627586 C40.530875,19.8671379 41.2475,17.3241724 39.998875,15.4996034 C39.18075,14.3090172 37.84025,13.6477759 36.491875,13.3365 C32.83525,12.4941207 29.050875,13.6662414 25.787125,15.3896897 C23.020375,16.8519828 20.2195,18.8524138 18.384625,21.5176034 C17.770375,22.4109828 17.24625,23.4221897 16.928625,24.695431 C16.61975,25.9361379 16.50075,27.2296034 16.678375,28.5019655 C17.618125,35.2445172 24.826375,37.7057069 30.506875,37.5166552 C34.404125,37.3891552 38.339875,36.2935345 41.762,34.334431 C44.81225,32.589 47.796875,30.1559483 49.693,27.0590172 C49.777,26.9253621 50.449,25.7444483 50.708875,25.9141552 C50.96525,26.0803448 50.2495,27.2331207 50.16725,27.3685345 C48.174875,30.6211034 45.59625,33.4102759 42.5285,35.5689828 C39.291875,37.8481552 35.550375,39.3456207 31.679375,39.8863966 C28.364,40.3506724 24.843875,40.2231724 21.7,38.9297069 C19.065375,37.8428793 16.757125,35.9637931 15.640625,33.1816552 C14.62125,30.6404483 14.86625,27.7958793 15.82175,25.2757759 C18.356625,18.5824655 24.213,13.3628793 30.744,11.2560517 C33.733,10.2932069 37.891875,9.75155172 40.579,11.8812414 C43.813,14.447069 42.420875,18.8708793 39.68825,20.9627586" id="Fill-34" fill="#FFFFFE"></path>
            <polyline id="Fill-35" fill="#F9C623" points="32.28575 17.1535862 33.140625 16.5266379 32.0845 16.5266379 31.756375 15.5092759 31.42825 16.5266379 30.370375 16.5266379 31.227875 17.1535862 30.9015 18.170069 31.756375 17.5422414 32.61125 18.170069 32.28575 17.1535862"></polyline>
            <polyline id="Fill-36" fill="#F9C623" points="36.6765 18.3415345 37.533125 17.7137069 36.47525 17.7137069 36.147125 16.6972241 35.819 17.7137069 34.762875 17.7137069 35.618625 18.3415345 35.291375 19.3571379 36.147125 18.7293103 37.001125 19.3571379 36.6765 18.3415345"></polyline>
            <polyline id="Fill-37" fill="#F9C623" points="39.8895 21.5905862 40.74525 20.9636379 39.689125 20.9636379 39.360125 19.9462759 39.032875 20.9636379 37.975 20.9636379 38.829875 21.5905862 38.50525 22.6061897 39.360125 21.9792414 40.215875 22.6061897 39.8895 21.5905862"></polyline>
            <polyline id="Fill-38" fill="#F9C623" points="41.0655 26.0275862 41.918625 25.3997586 40.8625 25.3997586 40.5335 24.3823966 40.207125 25.3997586 39.150125 25.3997586 40.005875 26.0275862 39.68125 27.0458276 40.5335 26.4153621 41.390125 27.0458276 41.0655 26.0275862"></polyline>
            <polyline id="Fill-39" fill="#F9C623" points="39.886 30.4628276 40.742625 29.8367586 39.6865 29.8367586 39.356625 28.8193966 39.03025 29.8367586 37.972375 29.8367586 38.828125 30.4628276 38.5035 31.478431 39.356625 30.8514828 40.212375 31.478431 39.886 30.4628276"></polyline>
            <polyline id="Fill-40" fill="#F9C623" points="36.673875 33.7092414 37.529625 33.0822931 36.47175 33.0822931 36.143625 32.0658103 35.81725 33.0822931 34.761125 33.0822931 35.616 33.7092414 35.289625 34.7257241 36.143625 34.0970172 36.999375 34.7257241 36.673875 33.7092414"></polyline>
            <polyline id="Fill-41" fill="#F9C623" points="32.28575 34.8963103 33.140625 34.2676034 32.0845 34.2676034 31.756375 33.2502414 31.42825 34.2676034 30.370375 34.2676034 31.227875 34.8963103 30.9015 35.9127931 31.756375 35.2840862 32.61125 35.9127931 32.28575 34.8963103"></polyline>
            <polyline id="Fill-42" fill="#F9C623" points="27.89675 33.7092414 28.7525 33.0822931 27.696375 33.0822931 27.36825 32.0658103 27.040125 33.0822931 25.984 33.0822931 26.838875 33.7092414 26.513375 34.7257241 27.36825 34.0970172 28.223125 34.7257241 27.89675 33.7092414"></polyline>
            <polyline id="Fill-43" fill="#F9C623" points="24.684625 30.4628276 25.540375 29.835 24.4825 29.835 24.154375 28.8176379 23.828 29.835 22.770125 29.835 23.62675 30.4628276 23.300375 31.478431 24.154375 30.8514828 25.00925 31.478431 24.684625 30.4628276"></polyline>
            <polyline id="Fill-44" fill="#F9C623" points="23.508625 26.0275862 24.364375 25.3997586 23.3065 25.3997586 22.97925 24.3823966 22.652 25.3997586 21.594125 25.3997586 22.45075 26.0275862 22.124375 27.044069 22.97925 26.4153621 23.834125 27.044069 23.508625 26.0275862"></polyline>
            <polyline id="Fill-45" fill="#F9C623" points="24.682875 21.5905862 25.538625 20.9636379 24.481625 20.9636379 24.1535 19.9471552 23.82625 20.9636379 22.768375 20.9636379 23.625 21.5905862 23.298625 22.6061897 24.1535 21.9792414 25.0075 22.6061897 24.682875 21.5905862"></polyline>
            <polyline id="Fill-46" fill="#F9C623" points="27.894125 18.3415345 28.75075 17.7137069 27.69375 17.7137069 27.365625 16.6972241 27.038375 17.7137069 25.9805 17.7137069 26.837125 18.3415345 26.511625 19.3571379 27.365625 18.7293103 28.2205 19.3571379 27.894125 18.3415345"></polyline>
            <path d="M38.829875,21.5905862 C37.60925,23.0467241 35.63875,24.3762414 33.217625,25.2195 C31.65575,25.7655517 30.099125,26.0425345 28.67725,26.0697931 L29.784125,23.9198793 C33.17125,23.9717586 37.52875,22.6985172 38.829875,21.5905862" id="Fill-47" fill="#FFFFFE"></path>
        </g>
    </g>
</svg>