<?xml version="1.0" encoding="UTF-8"?>
<svg width="64px" height="64px" viewBox="0 0 64 64" version="1.1" xmlns="http://www.w3.org/2000/svg" xmlns:xlink="http://www.w3.org/1999/xlink">
    <!-- Generator: Sketch 52.5 (67469) - http://www.bohemiancoding.com/sketch -->
    <title>Fill 1</title>
    <desc>Created with Sketch.</desc>
    <defs>
        <linearGradient x1="50%" y1="0%" x2="50%" y2="100%" id="linearGradient-1">
            <stop stop-color="#FFFFFF" offset="0%"></stop>
            <stop stop-color="#000000" offset="100%"></stop>
        </linearGradient>
    </defs>
    <g id="Page-1" stroke="none" stroke-width="1" fill="none" fill-rule="evenodd">
        <path d="M0,31.616 C0,34.624 0.43,37.527 1.216,40.284 C1.266,40.47 1.31,40.655 1.364,40.838 C1.376,40.876 1.391,40.904 1.403,40.943 C5.392,53.838 17.427,63.234 31.617,63.234 C38.179,63.234 44.283,61.223 49.341,57.786 C49.391,57.76 49.441,57.731 49.49,57.7 C49.792,57.494 50.081,57.28 50.364,57.057 C56.183,52.755 60.478,46.515 62.286,39.296 C62.387,38.963 62.475,38.626 62.55,38.284 C62.567,38.202 62.573,38.124 62.576,38.042 C63.008,35.969 63.234,33.818 63.234,31.616 C63.234,27.349 62.398,23.207 60.749,19.309 C60.433,18.561 59.57,18.213 58.822,18.53 C58.075,18.844 57.724,19.709 58.041,20.455 C59.537,23.988 60.293,27.743 60.293,31.616 C60.293,33.989 59.998,36.296 59.451,38.502 C59.018,39.893 58.253,41.183 57.199,42.351 C57.227,41.851 57.244,41.348 57.244,40.832 C57.257,35.192 55.697,29.232 52.803,23.63 C54.923,21.811 56.274,19.558 56.739,17.042 C56.889,16.242 56.36,15.476 55.561,15.33 C54.764,15.18 53.996,15.708 53.847,16.509 C53.541,18.172 52.675,19.698 51.325,20.997 C50.904,20.302 50.465,19.614 50.004,18.935 C47.421,15.151 44.354,11.876 41,9.265 C45.428,9.553 49.523,10.63 52.821,12.473 C53.339,12.766 54.026,12.759 54.509,12.354 C55.135,11.838 55.217,10.907 54.697,10.281 C49.959,3.652 41.764,0 31.617,0 C14.184,0 0,14.182 0,31.616 M32.356,4.31 C31.026,3.802 29.709,3.406 28.414,3.124 C29.454,3.007 30.505,2.943 31.576,2.943 C32.076,2.948 32.691,3.548 33.334,4.711 C33.011,4.574 32.682,4.435 32.356,4.31 M35.542,3.154 C36.736,3.288 38.007,3.494 39.316,3.8 C38.496,4.238 37.648,4.789 36.783,5.452 C36.4,4.581 35.987,3.815 35.542,3.154 M40.496,6.304 C41.504,5.651 42.433,5.202 43.21,5.016 C44.686,5.609 46.147,6.36 47.535,7.317 C45.31,6.762 42.944,6.424 40.496,6.304 M16.637,10.179 C16.963,8.654 17.879,7.289 19.301,6.161 C22.732,5.136 26.726,5.382 30.924,6.921 C29.158,7.229 27.391,7.636 25.647,8.161 C22.402,9.134 19.343,10.464 16.539,12.082 C16.475,11.438 16.505,10.801 16.637,10.179 M13.877,9.11 C13.838,9.259 13.793,9.409 13.761,9.566 C13.466,10.951 13.499,12.372 13.849,13.783 C10.684,15.965 7.934,18.548 5.742,21.446 C5.075,22.331 4.476,23.231 3.936,24.137 C5.564,18.114 9.11,12.876 13.877,9.11 M20.203,18.481 C18.987,17.342 18.063,16.155 17.439,14.963 C20.197,13.305 23.245,11.953 26.494,10.978 C28.425,10.395 30.382,9.966 32.332,9.667 C29.515,12.821 26.705,16.83 24.128,21.357 C22.656,20.505 21.335,19.541 20.203,18.481 M32.769,24.608 C30.641,24.155 28.618,23.503 26.756,22.683 C29.498,17.882 32.502,13.71 35.462,10.606 C36.387,14.246 37.164,19.14 37.489,25.209 C35.931,25.143 34.345,24.945 32.769,24.608 M38.601,11.135 C41.944,13.624 45.01,16.836 47.573,20.59 C48.059,21.304 48.517,22.03 48.952,22.758 C46.601,24.115 43.632,24.927 40.428,25.157 C40.156,20.081 39.552,15.199 38.601,11.135 M9.168,38.466 C6.673,36.155 4.955,33.713 4.079,31.285 C4.772,28.564 6.113,25.834 8.09,23.219 C9.964,20.736 12.294,18.503 14.968,16.586 C15.738,17.979 16.817,19.338 18.193,20.629 C19.5,21.851 21.023,22.963 22.714,23.933 C22.249,24.818 21.791,25.713 21.349,26.624 C18.739,31.969 16.608,37.708 15.358,42.915 C13.038,41.603 10.951,40.111 9.168,38.466 M28.241,47.692 C24.599,46.913 21.158,45.757 18.041,44.293 C19.063,39.687 20.971,34.108 23.991,27.914 C24.43,27.018 24.875,26.133 25.335,25.27 C27.446,26.217 29.745,26.971 32.155,27.485 C33.986,27.878 35.815,28.091 37.608,28.151 C37.641,29.257 37.658,30.393 37.658,31.564 C37.658,38.491 37.102,44.24 36.305,48.732 C33.674,48.615 30.965,48.274 28.241,47.692 M40.596,31.564 C40.596,30.417 40.58,29.264 40.548,28.115 C44.206,27.87 47.594,26.921 50.368,25.325 C52.935,30.406 54.314,35.768 54.301,40.826 C54.299,42.293 54.174,43.687 53.942,45.003 C52.62,45.811 51.101,46.513 49.389,47.088 C46.351,48.112 42.93,48.667 39.304,48.761 C40.176,43.534 40.596,37.465 40.596,31.564 M4.041,39.464 C3.789,38.506 3.635,37.535 3.569,36.544 C4.55,37.941 5.747,39.309 7.171,40.628 C9.324,42.614 11.877,44.393 14.725,45.917 C14.144,49.168 13.979,52.113 14.348,54.49 C9.441,50.779 5.769,45.528 4.041,39.464 M19.207,57.466 C19.119,57.393 19.024,57.328 18.919,57.275 C17.286,56.481 16.626,52.84 17.477,47.27 C20.616,48.682 24.035,49.799 27.628,50.567 C30.35,51.149 33.061,51.508 35.713,51.646 C34.412,57.3 32.745,60.269 31.643,60.269 C31.57,60.269 31.503,60.278 31.436,60.287 C27.059,60.259 22.912,59.253 19.207,57.466 M38.745,51.708 C42.9,51.657 46.839,51.047 50.327,49.876 C51.206,49.581 52.04,49.254 52.836,48.9 C51.865,51.268 50.437,53.244 48.581,54.716 C44.916,57.415 40.593,59.265 35.895,59.973 C37.071,57.942 38.02,55.076 38.745,51.708" id="Fill-1" fill="url(#linearGradient-1)"></path>
    </g>
</svg>